<?xml version="1.0" encoding="UTF-8" standalone="no"?>
<svg
   width="152.304"
   height="152.304"
   viewBox="0 0 152.304 152.304"
   version="1.1"
   id="svg1"
   sodipodi:docname="b60_logo_favicon.svg"
   inkscape:version="1.3.2 (091e20e, 2023-11-25, custom)"
   inkscape:export-filename="b60_logo_favicon.png"
   inkscape:export-xdpi="121.02112"
   inkscape:export-ydpi="121.02112"
   xmlns:inkscape="http://www.inkscape.org/namespaces/inkscape"
   xmlns:sodipodi="http://sodipodi.sourceforge.net/DTD/sodipodi-0.dtd"
   xmlns="http://www.w3.org/2000/svg"
   xmlns:svg="http://www.w3.org/2000/svg">
  <defs
     id="defs1" />
  <sodipodi:namedview
     id="namedview1"
     pagecolor="#ffffff"
     bordercolor="#000000"
     borderopacity="0.25"
     inkscape:showpageshadow="2"
     inkscape:pageopacity="0.0"
     inkscape:pagecheckerboard="0"
     inkscape:deskcolor="#d1d1d1"
     inkscape:zoom="6.950171"
     inkscape:cx="112.6591"
     inkscape:cy="74.602481"
     inkscape:window-width="3200"
     inkscape:window-height="1711"
     inkscape:window-x="2391"
     inkscape:window-y="-9"
     inkscape:window-maximized="1"
     inkscape:current-layer="svg1" />
  <g
     id="Group_125"
     data-name="Group 125"
     transform="translate(-76.133,-104.88)">
    <g
       id="Group_124"
       data-name="Group 124"
       transform="translate(104.883,104.881)">
      <path
         id="Path_301"
         data-name="Path 301"
         d="m 150.98,371.608 a 0.689,0.689 0 0 0 0,-1.016 0.9,0.9 0 0 0 -0.606,-0.188 h -1.658 v 1.4 h 1.658 a 0.9,0.9 0 0 0 0.606,-0.196 z"
         transform="translate(-116.764,-176.854)"
         fill="none" />
      <path
         id="Path_302"
         data-name="Path 302"
         d="m 146.41,354 h 1.719 l -0.849,-2.266 z"
         transform="translate(-116.139,-171.793)"
         fill="none" />
      <path
         id="Path_303"
         data-name="Path 303"
         d="m 118.95,355.367 a 1.5,1.5 0 0 0 1.709,0 1.716,1.716 0 0 0 0.555,-0.773 3.735,3.735 0 0 0 0,-2.393 1.714,1.714 0 0 0 -0.555,-0.768 1.5,1.5 0 0 0 -1.709,0 1.711,1.711 0 0 0 -0.557,0.768 3.736,3.736 0 0 0 0,2.393 1.713,1.713 0 0 0 0.557,0.773 z"
         transform="translate(-108.492,-171.639)"
         fill="none" />
      <path
         id="Path_304"
         data-name="Path 304"
         d="m 110.57,371.145 a 2.016,2.016 0 0 0 -0.632,-0.43 1.906,1.906 0 0 0 -0.773,-0.157 h -1.093 v 4 h 1.093 a 1.99,1.99 0 0 0 0.773,-0.151 1.963,1.963 0 0 0 1.208,-1.83 2.06,2.06 0 0 0 -0.151,-0.793 1.933,1.933 0 0 0 -0.425,-0.639 z"
         transform="translate(-105.747,-176.895)"
         fill="none" />
      <path
         id="Path_305"
         data-name="Path 305"
         d="m 122.8,371.145 a 2.019,2.019 0 0 0 -0.633,-0.43 1.9,1.9 0 0 0 -0.773,-0.157 H 120.3 v 4 h 1.093 a 1.965,1.965 0 0 0 1.981,-1.981 2.074,2.074 0 0 0 -0.152,-0.793 1.942,1.942 0 0 0 -0.422,-0.639 z"
         transform="translate(-109.061,-176.895)"
         fill="none" />
      <path
         id="Path_306"
         data-name="Path 306"
         d="m 108.422,356.523 a 1.223,1.223 0 0 0 0.617,0.161 1.337,1.337 0 0 0 0.6,-0.127 1.037,1.037 0 0 0 0.419,-0.348 0.845,0.845 0 0 0 0.157,-0.5 0.909,0.909 0 0 0 -0.141,-0.5 0.959,0.959 0 0 0 -0.39,-0.338 1.307,1.307 0 0 0 -0.581,-0.121 1.981,1.981 0 0 0 -0.8,0.161 2.012,2.012 0 0 0 -0.651,0.455 2.208,2.208 0 0 0 0.3,0.7 1.406,1.406 0 0 0 0.47,0.457 z"
         transform="translate(-105.631,-172.609)"
         fill="none" />
      <path
         id="Path_307"
         data-name="Path 307"
         d="m 132.777,373.073 h 1.717 l -0.848,-2.266 z"
         transform="translate(-112.444,-176.963)"
         fill="none" />
      <path
         id="Path_308"
         data-name="Path 308"
         d="m 150.526,374.151 h -1.81 v 1.5 h 1.81 a 0.959,0.959 0 0 0 0.641,-0.2 0.746,0.746 0 0 0 0,-1.093 0.959,0.959 0 0 0 -0.641,-0.207 z"
         transform="translate(-116.764,-177.87)"
         fill="none" />
      <path
         id="Path_309"
         data-name="Path 309"
         d="m 163.336,223.486 a 18.851,18.851 0 1 0 18.85,18.851 18.851,18.851 0 0 0 -18.85,-18.851 z m 0,25.968 a 7.116,7.116 0 1 1 7.115,-7.117 7.115,7.115 0 0 1 -7.115,7.117 z"
         transform="translate(-115.617,-137.03)"
         fill="none" />
      <path
         id="Path_310"
         data-name="Path 310"
         d="m 185.522,183.646 2.73,-3.637 a 41.408,41.408 0 0 0 8.341,-25.046 42.045,42.045 0 0 0 -22.393,-37.008 l -5.488,9.93 -2.6,4.7 c 0.168,0.087 0.335,0.177 0.5,0.267 a 25.12,25.12 0 0 1 11.439,12.915 24.368,24.368 0 0 1 1.712,9.041 24.653,24.653 0 0 1 -1.964,9.728 24.936,24.936 0 0 1 -13.2,13.252 24.905,24.905 0 0 1 -19.417,0 25.184,25.184 0 0 1 -7.871,-5.323 25.733,25.733 0 0 1 -5.336,-7.816 23.928,23.928 0 0 1 -2.036,-9.763 v -0.079 a 21.835,21.835 0 0 1 2.023,-9.438 c 1.017,-2.142 2.166,-4.358 3.4,-6.555 l 6.048,-10.93 8.129,-14.694 H 113.192 V 254.1 h 35.531 v 0 h 6.364 a 41.774,41.774 0 0 0 33.165,-66.818 z m -30.668,53.7 a 24.909,24.909 0 1 1 24.909,-24.909 24.937,24.937 0 0 1 -24.909,24.912 z"
         transform="translate(-107.135,-107.133)"
         fill="none" />
      <path
         id="Path_311"
         data-name="Path 311"
         d="m 207.094,373.073 h 1.72 l -0.85,-2.266 z"
         transform="translate(-132.588,-176.963)"
         fill="none" />
      <path
         id="Path_312"
         data-name="Path 312"
         d="m 167.7,239.585 a 7.116,7.116 0 1 0 7.115,7.116 7.113,7.113 0 0 0 -7.115,-7.116 z"
         transform="translate(-119.981,-141.394)" />
      <path
         id="Path_313"
         data-name="Path 313"
         d="m 200.4,152.71 a 47.876,47.876 0 0 0 -31.059,-44.8 l -2.548,4.608 -3.8,6.874 -3.454,6.243 -4.566,8.263 a 17.465,17.465 0 0 1 6.49,2.023 19.037,19.037 0 0 1 8.708,9.835 18.24,18.24 0 0 1 1.284,6.8 18.523,18.523 0 0 1 -1.477,7.348 18.894,18.894 0 0 1 -10.03,10.071 18.851,18.851 0 0 1 -14.618,0 19.054,19.054 0 0 1 -5.986,-4.044 19.579,19.579 0 0 1 -4.082,-5.989 17.832,17.832 0 0 1 -1.516,-7.308 v -0.079 a 15.773,15.773 0 0 1 1.438,-6.842 q 1.44,-3.032 3.228,-6.219 l 7.669,-13.863 3.455,-6.243 3.8,-6.874 4.092,-7.389 a 48.329,48.329 0 0 0 -4.862,-0.245 h -0.04 v 0 h -47.643 v 153.025 h 47.686 a 47.83,47.83 0 0 0 38.274,-76.512 47.622,47.622 0 0 0 9.557,-28.683 z m -6.057,57.365 a 41.82,41.82 0 0 1 -41.505,41.773 h -6.364 v 0 H 110.94 v -140.91 h 36.349 l -8.129,14.694 -6.048,10.93 c -1.233,2.2 -2.382,4.414 -3.4,6.555 a 21.835,21.835 0 0 0 -2.023,9.438 v 0.079 a 23.928,23.928 0 0 0 2.036,9.763 25.733,25.733 0 0 0 5.336,7.816 25.184,25.184 0 0 0 7.871,5.323 24.905,24.905 0 0 0 19.417,0 24.936,24.936 0 0 0 13.2,-13.252 24.653,24.653 0 0 0 1.964,-9.728 24.368,24.368 0 0 0 -1.712,-9.041 25.12,25.12 0 0 0 -11.437,-12.915 c -0.165,-0.09 -0.332,-0.18 -0.5,-0.267 l 2.6,-4.7 5.488,-9.93 A 41.779,41.779 0 0 1 186,177.756 l -2.73,3.637 2.73,3.637 a 41.41,41.41 0 0 1 8.34,25.046 z"
         transform="translate(-104.883,-104.881)" />
      <path
         id="Path_314"
         data-name="Path 314"
         d="m 161.083,215.175 a 24.909,24.909 0 1 0 24.909,24.909 24.938,24.938 0 0 0 -24.909,-24.909 z m 0,43.76 a 18.851,18.851 0 1 1 18.85,-18.851 18.852,18.852 0 0 1 -18.85,18.851 z"
         transform="translate(-113.365,-134.777)" />
      <path
         id="Path_315"
         data-name="Path 315"
         d="m 162.657,162.639 a 7.029,7.029 0 0 0 -1.524,2.256 6.943,6.943 0 0 0 -0.548,2.759 v 0.079 a 6.675,6.675 0 0 0 2.072,4.976 7.249,7.249 0 0 0 10.086,-0.039 7.108,7.108 0 0 0 0,-10.032 6.9,6.9 0 0 0 -5.043,-2.06 7.069,7.069 0 0 0 -5.043,2.06 z"
         transform="translate(-119.982,-119.979)" />
    </g>
  </g>
</svg>
