<svg xmlns="http://www.w3.org/2000/svg" width="95.514" height="199.304" viewBox="0 0 95.514 199.304">
  <g id="Group_125" data-name="Group 125" transform="translate(-104.883 -104.881)">
    <g id="Group_124" data-name="Group 124" transform="translate(104.883 104.881)">
      <path id="Path_301" data-name="Path 301" d="M150.98,371.608a.689.689,0,0,0,0-1.016.9.9,0,0,0-.606-.188h-1.658v1.4h1.658A.9.9,0,0,0,150.98,371.608Z" transform="translate(-116.764 -176.854)" fill="none"/>
      <path id="Path_302" data-name="Path 302" d="M146.41,354h1.719l-.849-2.266Z" transform="translate(-116.139 -171.793)" fill="none"/>
      <path id="Path_303" data-name="Path 303" d="M118.95,355.367a1.5,1.5,0,0,0,1.709,0,1.716,1.716,0,0,0,.555-.773,3.735,3.735,0,0,0,0-2.393,1.714,1.714,0,0,0-.555-.768,1.5,1.5,0,0,0-1.709,0,1.711,1.711,0,0,0-.557.768,3.736,3.736,0,0,0,0,2.393A1.713,1.713,0,0,0,118.95,355.367Z" transform="translate(-108.492 -171.639)" fill="none"/>
      <path id="Path_304" data-name="Path 304" d="M110.57,371.145a2.016,2.016,0,0,0-.632-.43,1.906,1.906,0,0,0-.773-.157h-1.093v4h1.093a1.99,1.99,0,0,0,.773-.151,1.963,1.963,0,0,0,1.208-1.83,2.06,2.06,0,0,0-.151-.793A1.933,1.933,0,0,0,110.57,371.145Z" transform="translate(-105.747 -176.895)" fill="none"/>
      <path id="Path_305" data-name="Path 305" d="M122.8,371.145a2.019,2.019,0,0,0-.633-.43,1.9,1.9,0,0,0-.773-.157H120.3v4h1.093a1.965,1.965,0,0,0,1.981-1.981,2.074,2.074,0,0,0-.152-.793A1.942,1.942,0,0,0,122.8,371.145Z" transform="translate(-109.061 -176.895)" fill="none"/>
      <path id="Path_306" data-name="Path 306" d="M108.422,356.523a1.223,1.223,0,0,0,.617.161,1.337,1.337,0,0,0,.6-.127,1.037,1.037,0,0,0,.419-.348.845.845,0,0,0,.157-.5.909.909,0,0,0-.141-.5.959.959,0,0,0-.39-.338,1.307,1.307,0,0,0-.581-.121,1.981,1.981,0,0,0-.8.161,2.012,2.012,0,0,0-.651.455,2.208,2.208,0,0,0,.3.7A1.406,1.406,0,0,0,108.422,356.523Z" transform="translate(-105.631 -172.609)" fill="none"/>
      <path id="Path_307" data-name="Path 307" d="M132.777,373.073h1.717l-.848-2.266Z" transform="translate(-112.444 -176.963)" fill="none"/>
      <path id="Path_308" data-name="Path 308" d="M150.526,374.151h-1.81v1.5h1.81a.959.959,0,0,0,.641-.2.746.746,0,0,0,0-1.093A.959.959,0,0,0,150.526,374.151Z" transform="translate(-116.764 -177.87)" fill="none"/>
      <path id="Path_309" data-name="Path 309" d="M163.336,223.486a18.851,18.851,0,1,0,18.85,18.851A18.851,18.851,0,0,0,163.336,223.486Zm0,25.968a7.116,7.116,0,1,1,7.115-7.117A7.115,7.115,0,0,1,163.336,249.454Z" transform="translate(-115.617 -137.03)" fill="none"/>
      <path id="Path_310" data-name="Path 310" d="M185.522,183.646l2.73-3.637a41.408,41.408,0,0,0,8.341-25.046A42.045,42.045,0,0,0,174.2,117.955l-5.488,9.93-2.6,4.7c.168.087.335.177.5.267a25.12,25.12,0,0,1,11.439,12.915,24.368,24.368,0,0,1,1.712,9.041,24.653,24.653,0,0,1-1.964,9.728,24.936,24.936,0,0,1-13.2,13.252,24.905,24.905,0,0,1-19.417,0,25.184,25.184,0,0,1-7.871-5.323,25.733,25.733,0,0,1-5.336-7.816,23.928,23.928,0,0,1-2.036-9.763v-.079a21.835,21.835,0,0,1,2.023-9.438c1.017-2.142,2.166-4.358,3.4-6.555l6.048-10.93,8.129-14.694H113.192V254.1h35.531v0l6.364,0a41.774,41.774,0,0,0,33.165-66.818Zm-30.668,53.7a24.909,24.909,0,1,1,24.909-24.909A24.937,24.937,0,0,1,154.854,237.349Z" transform="translate(-107.135 -107.133)" fill="none"/>
      <path id="Path_311" data-name="Path 311" d="M207.094,373.073h1.72l-.85-2.266Z" transform="translate(-132.588 -176.963)" fill="none"/>
      <path id="Path_312" data-name="Path 312" d="M167.7,239.585a7.116,7.116,0,1,0,7.115,7.116A7.113,7.113,0,0,0,167.7,239.585Z" transform="translate(-119.981 -141.394)"/>
      <path id="Path_313" data-name="Path 313" d="M200.4,152.71a47.876,47.876,0,0,0-31.059-44.8l-2.548,4.608-3.8,6.874-3.454,6.243-4.566,8.263a17.465,17.465,0,0,1,6.49,2.023,19.037,19.037,0,0,1,8.708,9.835,18.24,18.24,0,0,1,1.284,6.8,18.523,18.523,0,0,1-1.477,7.348,18.894,18.894,0,0,1-10.03,10.071,18.851,18.851,0,0,1-14.618,0,19.054,19.054,0,0,1-5.986-4.044,19.579,19.579,0,0,1-4.082-5.989,17.832,17.832,0,0,1-1.516-7.308v-.079a15.773,15.773,0,0,1,1.438-6.842q1.44-3.032,3.228-6.219l7.669-13.863,3.455-6.243,3.8-6.874,4.092-7.389a48.329,48.329,0,0,0-4.862-.245l-.04,0v0H104.883V257.905h47.686a47.83,47.83,0,0,0,38.274-76.512A47.622,47.622,0,0,0,200.4,152.71Zm-6.057,57.365a41.82,41.82,0,0,1-41.505,41.773l-6.364,0v0H110.94V110.938h36.349l-8.129,14.694-6.048,10.93c-1.233,2.2-2.382,4.414-3.4,6.555a21.835,21.835,0,0,0-2.023,9.438v.079a23.928,23.928,0,0,0,2.036,9.763,25.733,25.733,0,0,0,5.336,7.816,25.184,25.184,0,0,0,7.871,5.323,24.905,24.905,0,0,0,19.417,0,24.936,24.936,0,0,0,13.2-13.252,24.653,24.653,0,0,0,1.964-9.728,24.368,24.368,0,0,0-1.712-9.041A25.12,25.12,0,0,0,164.364,130.6c-.165-.09-.332-.18-.5-.267l2.6-4.7,5.488-9.93A41.779,41.779,0,0,1,186,177.756l-2.73,3.637L186,185.03A41.41,41.41,0,0,1,194.34,210.076Z" transform="translate(-104.883 -104.881)"/>
      <path id="Path_314" data-name="Path 314" d="M161.083,215.175a24.909,24.909,0,1,0,24.909,24.909A24.938,24.938,0,0,0,161.083,215.175Zm0,43.76a18.851,18.851,0,1,1,18.85-18.851A18.852,18.852,0,0,1,161.083,258.935Z" transform="translate(-113.365 -134.777)"/>
      <path id="Path_315" data-name="Path 315" d="M162.657,162.639a7.029,7.029,0,0,0-1.524,2.256,6.943,6.943,0,0,0-.548,2.759v.079a6.675,6.675,0,0,0,2.072,4.976,7.249,7.249,0,0,0,10.086-.039,7.108,7.108,0,0,0,0-10.032,6.9,6.9,0,0,0-5.043-2.06,7.069,7.069,0,0,0-5.043,2.06Z" transform="translate(-119.982 -119.979)"/>
      <path id="Path_316" data-name="Path 316" d="M107.741,350.9a1.623,1.623,0,0,1,.972-.283,2.265,2.265,0,0,1,.754.116,1.966,1.966,0,0,1,.621.37l.9-1.113a2.665,2.665,0,0,0-.966-.561,3.565,3.565,0,0,0-1.188-.207,3.4,3.4,0,0,0-1.8.47,3.209,3.209,0,0,0-1.2,1.314,4.317,4.317,0,0,0-.429,1.977,4.18,4.18,0,0,0,.389,1.857,2.915,2.915,0,0,0,2.726,1.683,2.9,2.9,0,0,0,1.351-.308,2.4,2.4,0,0,0,.929-.838,2.185,2.185,0,0,0,.339-1.2,2.057,2.057,0,0,0-.3-1.112,2.087,2.087,0,0,0-.839-.76,2.691,2.691,0,0,0-1.233-.273,2.035,2.035,0,0,0-1,.263,2.417,2.417,0,0,0-.809.737,3.741,3.741,0,0,1,.2-1.314A1.715,1.715,0,0,1,107.741,350.9Zm-.055,2.508a1.981,1.981,0,0,1,.8-.161,1.307,1.307,0,0,1,.581.121.959.959,0,0,1,.39.338.909.909,0,0,1,.141.5.845.845,0,0,1-.157.5,1.037,1.037,0,0,1-.419.348,1.337,1.337,0,0,1-.6.127,1.223,1.223,0,0,1-.617-.161,1.406,1.406,0,0,1-.48-.46,2.207,2.207,0,0,1-.3-.7A2.013,2.013,0,0,1,107.686,353.409Z" transform="translate(-105.022 -171.113)"/>
      <path id="Path_317" data-name="Path 317" d="M119.209,356.523a3.082,3.082,0,0,0,1.683-.456,3.03,3.03,0,0,0,1.123-1.279,4.8,4.8,0,0,0,0-3.836,3.046,3.046,0,0,0-1.123-1.276,3.352,3.352,0,0,0-3.367,0,3.053,3.053,0,0,0-1.122,1.276,4.813,4.813,0,0,0,0,3.836,3.037,3.037,0,0,0,1.122,1.279A3.09,3.09,0,0,0,119.209,356.523Zm-1.41-4.849a1.711,1.711,0,0,1,.557-.768,1.5,1.5,0,0,1,1.709,0,1.714,1.714,0,0,1,.555.768,3.735,3.735,0,0,1,0,2.393,1.716,1.716,0,0,1-.555.773,1.5,1.5,0,0,1-1.709,0,1.713,1.713,0,0,1-.557-.773,3.736,3.736,0,0,1,0-2.393Z" transform="translate(-107.898 -171.113)"/>
      <path id="Path_318" data-name="Path 318" d="M134.07,349.374h-1.739v7.079H137.8v-1.537H134.07Z" transform="translate(-112.323 -171.153)"/>
      <path id="Path_319" data-name="Path 319" d="M148.18,356.453h1.881l-2.862-7.079h-1.991l-2.9,7.079h1.809l.658-1.709h2.761Zm-2.882-3.094.87-2.266.849,2.266Z" transform="translate(-115.027 -171.153)"/>
      <path id="Path_320" data-name="Path 320" d="M157.827,356.453v-5.541h2.316v-1.537h-6.371v1.537h2.316v5.541Z" transform="translate(-118.135 -171.153)"/>
      <path id="Path_321" data-name="Path 321" d="M111.214,369.48a3.74,3.74,0,0,0-1.189-.758,3.9,3.9,0,0,0-1.467-.273h-2.871v7.078h2.871a3.9,3.9,0,0,0,1.467-.273,3.778,3.778,0,0,0,1.189-.753,3.5,3.5,0,0,0,.8-1.117,3.281,3.281,0,0,0,.289-1.375,3.379,3.379,0,0,0-.289-1.4A3.536,3.536,0,0,0,111.214,369.48Zm-.865,3.3a1.981,1.981,0,0,1-1.057,1.057,1.99,1.99,0,0,1-.773.151h-1.093v-4h1.093a1.906,1.906,0,0,1,.773.157,2.016,2.016,0,0,1,.632.43,1.933,1.933,0,0,1,.425.642,2.06,2.06,0,0,1,.151.793A1.964,1.964,0,0,1,110.349,372.782Z" transform="translate(-105.101 -176.324)"/>
      <path id="Path_322" data-name="Path 322" d="M123.438,369.48a3.736,3.736,0,0,0-1.188-.758,3.9,3.9,0,0,0-1.466-.273h-2.873v7.078h2.873a3.9,3.9,0,0,0,1.466-.273,3.775,3.775,0,0,0,1.188-.753,3.49,3.49,0,0,0,.8-1.117,3.279,3.279,0,0,0,.287-1.375,3.377,3.377,0,0,0-.287-1.4A3.529,3.529,0,0,0,123.438,369.48Zm-.865,3.3a1.963,1.963,0,0,1-1.83,1.208h-1.093v-4h1.093a1.9,1.9,0,0,1,.773.157,2.019,2.019,0,0,1,.633.43,1.942,1.942,0,0,1,.424.642,2.074,2.074,0,0,1,.152.793A1.978,1.978,0,0,1,122.573,372.782Z" transform="translate(-108.414 -176.324)"/>
      <path id="Path_323" data-name="Path 323" d="M131.573,368.449l-2.9,7.078h1.809l.658-1.709h2.76l.647,1.709h1.881l-2.861-7.078Zm.091,3.985.87-2.267.848,2.267Z" transform="translate(-111.331 -176.324)"/>
      <path id="Path_324" data-name="Path 324" d="M151.487,371.9a2.021,2.021,0,0,0,.592-.643,1.616,1.616,0,0,0,.217-.814,1.771,1.771,0,0,0-.313-1.037,2.082,2.082,0,0,0-.866-.7,3.02,3.02,0,0,0-1.278-.253H146.33v7.078h3.68a3.072,3.072,0,0,0,1.314-.262,2.07,2.07,0,0,0,.881-.734,1.906,1.906,0,0,0,.312-1.087,1.539,1.539,0,0,0-.276-.889A2.082,2.082,0,0,0,151.487,371.9Zm-3.418-2.024h1.658a.9.9,0,0,1,.606.188.689.689,0,0,1,0,1.016.9.9,0,0,1-.606.192h-1.658Zm2.451,4.026a.959.959,0,0,1-.641.2h-1.81v-1.5h1.81a.959.959,0,0,1,.641.2.746.746,0,0,1,0,1.093Z" transform="translate(-116.118 -176.324)"/>
      <path id="Path_325" data-name="Path 325" d="M159.8,372.686h2.538V371.23H159.8v-1.274h3.843v-1.507h-5.582v7.078h5.623v-1.505H159.8Z" transform="translate(-119.299 -176.324)"/>
      <path id="Path_326" data-name="Path 326" d="M170.742,370.48a2.018,2.018,0,0,1,1.435-.586,2.192,2.192,0,0,1,1,.232,2.528,2.528,0,0,1,.835.709l1.172-1.152a3.145,3.145,0,0,0-.8-.733,4.143,4.143,0,0,0-1.047-.48,4.052,4.052,0,0,0-2.645.106,3.784,3.784,0,0,0-1.214.774,3.475,3.475,0,0,0-.808,1.158,3.6,3.6,0,0,0,.8,4.029,3.739,3.739,0,0,0,1.209.773,4.013,4.013,0,0,0,1.5.278,3.937,3.937,0,0,0,1.123-.166,3.989,3.989,0,0,0,1.031-.476,3.244,3.244,0,0,0,.8-.723l-1.143-1.123a2.436,2.436,0,0,1-.793.658,2.1,2.1,0,0,1-.956.224,2.2,2.2,0,0,1-.824-.153,1.9,1.9,0,0,1-.658-.43,2.019,2.019,0,0,1-.59-1.45,2.189,2.189,0,0,1,.15-.82A1.957,1.957,0,0,1,170.742,370.48Z" transform="translate(-122.093 -176.282)"/>
      <path id="Path_327" data-name="Path 327" d="M186.07,369.621v-1.172h-5.894v1.507h3.63l-3.662,4.4v1.173H186.1v-1.505H182.42Z" transform="translate(-125.283 -176.324)"/>
      <path id="Path_328" data-name="Path 328" d="M198.117,368.449h-2.1l-2.863,3.093v-3.093h-1.739v7.078h1.739v-3.246l2.842,3.246H198.3l-3.459-3.751Z" transform="translate(-128.337 -176.324)"/>
      <path id="Path_329" data-name="Path 329" d="M205.891,368.449l-2.9,7.078H204.8l.658-1.709h2.76l.647,1.709h1.881l-2.863-7.078Zm.09,3.985.87-2.267.85,2.267Z" transform="translate(-131.475 -176.324)"/>
    </g>
  </g>
</svg>
