<svg xmlns="http://www.w3.org/2000/svg" width="1074.46" height="537.23" viewBox="0 0 1074.46 537.23">
  <g id="Group_91" data-name="Group 91" transform="translate(-423 -543.77)">
    <path id="Path_251" data-name="Path 251" d="M2830.178,1821.521c-296.7,0-537.23,240.526-537.23,537.23h1074.46C3367.408,2062.047,3126.883,1821.521,2830.178,1821.521Z" transform="translate(-1869.948 -1277.751)" fill="#ff4b0f"/>
    <g id="Group_13" data-name="Group 13" transform="translate(827 654)">
      <g id="Group_11" data-name="Group 11">
        <path id="Path_75" data-name="Path 75" d="M3247.3,2092.387v8.3h-70.759v-16.5h12.04v-36.2h-64.921v36.2h12.04v16.5h-70.758v-8.3H3024.1v57.442h40.84v-8.3h37.2v111.8H3135.7v6.295h-12.04v40.841h12.04v31.559h40.841v-31.559h12.04v-40.841h-12.04v-6.295H3210.1v-111.8h37.2v8.3h40.84v-57.443Zm36.2,12.941v39.86h-31.558v-8.3H3205.46v111.8H3171.9v15.576h12.04v31.559H3171.9v31.559h-31.559v-31.559H3128.3v-31.559h12.04V2248.69h-33.557v-111.8H3060.3v8.3h-31.559v-48.16H3060.3v8.3h80.04v-25.779H3128.3v-26.918h55.638v26.918H3171.9v25.779h80.041v-8.3H3283.5Z" transform="translate(-3024.104 -2047.99)" fill="#f9b233"/>
        <path id="Path_76" data-name="Path 76" d="M3205.807,2109.182V2083.4h12.04v-26.917h-55.639V2083.4h12.04v25.779h-75.4v31.559h75.4V2268.12h-12.04v31.559h12.04v31.559h31.559v-31.559h12.04V2268.12h-12.04V2140.741h75.4v-31.559Z" transform="translate(-3058.01 -2051.844)"/>
        <g id="Group_64" data-name="Group 64">
          <rect id="Rectangle_26" data-name="Rectangle 26" width="33.558" height="111.803" transform="translate(147.798 88.897)" fill="#fff1e3"/>
          <rect id="Rectangle_27" data-name="Rectangle 27" width="33.557" height="111.803" transform="translate(82.682 88.897)" fill="#fff1e3"/>
          <path id="Path_77" data-name="Path 77" d="M3437.24,2146.04H3432.6V2177.6h4.641v8.3H3468.8v-48.16H3437.24Z" transform="translate(-3209.402 -2088.701)" fill="#fff1e3"/>
          <path id="Path_78" data-name="Path 78" d="M3064.156,2146.04v-8.3H3032.6V2185.9h31.558v-8.3h4.641V2146.04Z" transform="translate(-3027.957 -2088.701)" fill="#fff1e3"/>
        </g>
      </g>
      <g id="Group_12" data-name="Group 12">
        <path id="Path_79" data-name="Path 79" d="M3247.3,2092.387v8.3h-70.759v-16.5h12.04v-36.2h-64.921v36.2h12.04v16.5h-70.758v-8.3H3024.1v57.442h40.84v-8.3h37.2v111.8H3135.7v6.295h-12.04v40.841h12.04v31.559h40.841v-31.559h12.04v-40.841h-12.04v-6.295H3210.1v-111.8h37.2v8.3h40.84v-57.443Zm37.127,53.73h-33.415v-8.3h-44.626v111.8h-33.558v13.719h12.039v33.415h-12.039v31.559h-33.417v-31.559h-12.039v-33.415h12.039v-13.719h-33.557v-111.8h-44.626v8.3h-33.415V2096.1h33.415v8.3h78.183v-23.923h-12.039V2051.7h57.495v28.774h-12.039V2104.4h78.184v-8.3h33.415Z" transform="translate(-3024.104 -2047.99)" fill="#fff1e3"/>
        <path id="Path_80" data-name="Path 80" d="M3254.1,2107.482h-78.184V2083.56h12.04v-28.774h-57.495v28.774H3142.5v23.922h-78.183v-8.3H3030.9V2149.2h33.415v-8.3h44.626v111.8H3142.5v13.719h-12.039v33.415H3142.5v31.559h33.416v-31.559h12.04V2266.42h-12.04V2252.7h33.558V2140.9H3254.1v8.3h33.415v-50.017H3254.1Zm.928-7.372h31.559v48.161h-31.559v-8.3h-46.482v111.8h-33.558v15.576h12.04v31.559h-12.04v31.559h-31.559v-31.559h-12.04v-31.559h12.04v-15.576h-33.557v-111.8h-46.482v8.3h-31.559v-48.16h31.559v8.3h80.04v-25.779h-12.04v-26.918h55.639v26.918h-12.04v25.779h80.04Z" transform="translate(-3027.186 -2051.072)" fill="#ff4b0f"/>
      </g>
    </g>
  </g>
</svg>
