<?xml version="1.0" encoding="utf-8"?>
<!-- Generator: Adobe Illustrator 16.0.0, SVG Export Plug-In . SVG Version: 6.00 Build 0)  -->
<!DOCTYPE svg PUBLIC "-//W3C//DTD SVG 1.1//EN" "http://www.w3.org/Graphics/SVG/1.1/DTD/svg11.dtd">
<svg version="1.1" id="Layer_1" xmlns="http://www.w3.org/2000/svg" xmlns:xlink="http://www.w3.org/1999/xlink" x="0px" y="0px"
	 width="276px" height="253.605px" viewBox="0 0 276 253.605" enable-background="new 0 0 276 253.605" xml:space="preserve">
<g>
	<path fill="#020A0A" d="M124.594,95.108l0.062,0.198C124.631,95.244,124.611,95.18,124.594,95.108z M137.973,68.15l0.043,0.09
		l12.817,27.772c-3.233,4.961-7.86,8.828-12.848,11.361v0.104c-0.027-0.015-0.055-0.029-0.082-0.044v-0.061
		c-3.439-1.747-6.706-4.13-9.464-7.064c-1.225-1.317-2.349-2.742-3.336-4.271l6.436-13.943L137.973,68.15z M119.538,67.3
		c0,4.772-0.003,8.517,0.116,11.683l-0.005,0.101l0.011,0.034c0.17,4.357,0.583,7.592,1.621,10.641
		c1.439,4.23,3.811,7.942,6.733,11.057c2.902,3.121,6.362,5.648,10.001,7.496v-0.135c0.025-0.015,0.055-0.03,0.082-0.043v0.178
		c7.238-3.674,13.762-10.034,16.623-18.436c1.038-3.048,1.45-6.28,1.62-10.636l0.011-0.036l-0.005-0.101
		c0.119-3.169,0.117-6.91,0.117-11.686h-0.113c0-0.043,0.001-0.072,0.001-0.117H119.538z"/>
</g>
<g>
	<path fill="#1D1D1B" d="M65.067,155.057v-2.684l-1.003,0.642v-1.565l1.003-0.656v-4.725h1.86v3.582l2.273-1.463v1.579l-2.273,1.464
		v2.183h4.907v1.644H65.067z"/>
	<path fill="#1D1D1B" d="M76.135,155.186c-0.514,0-0.97-0.113-1.368-0.341c-0.398-0.226-0.711-0.541-0.937-0.943
		c-0.228-0.401-0.342-0.864-0.342-1.387v-4.148h1.76v3.892c0,0.428,0.126,0.771,0.379,1.027s0.593,0.385,1.021,0.385
		c0.29,0,0.554-0.057,0.791-0.173c0.234-0.116,0.43-0.28,0.583-0.494v-4.637h1.761v6.69h-1.761v-0.539
		C77.508,154.963,76.879,155.186,76.135,155.186z"/>
	<path fill="#1D1D1B" d="M81.979,155.057v-8.988l1.759-0.296v5.406l2.89-2.813h1.989l-3.159,3.069l3.353,3.621h-2.247L83.738,152
		v3.057H81.979z"/>
	<path fill="#1D1D1B" d="M92.032,155.173c-0.48,0-0.903-0.088-1.271-0.264s-0.655-0.417-0.861-0.725
		c-0.205-0.31-0.308-0.664-0.308-1.067c0-0.642,0.241-1.14,0.725-1.495s1.15-0.533,1.997-0.533c0.583,0,1.131,0.09,1.645,0.27
		v-0.487c0-0.386-0.121-0.676-0.36-0.874c-0.239-0.196-0.591-0.295-1.052-0.295c-0.283,0-0.587,0.045-0.912,0.136
		c-0.326,0.089-0.702,0.228-1.13,0.417l-0.643-1.298c0.531-0.239,1.039-0.42,1.522-0.539c0.483-0.12,0.969-0.18,1.457-0.18
		c0.898,0,1.6,0.216,2.1,0.648c0.501,0.432,0.751,1.042,0.751,1.83v4.34h-1.733v-0.475c-0.274,0.205-0.57,0.355-0.886,0.449
		C92.756,155.125,92.409,155.173,92.032,155.173z M91.262,153.08c0,0.256,0.111,0.46,0.333,0.609
		c0.224,0.149,0.519,0.225,0.887,0.225c0.291,0,0.56-0.036,0.809-0.109c0.248-0.072,0.472-0.182,0.668-0.327v-0.976
		c-0.214-0.085-0.437-0.15-0.668-0.192c-0.231-0.043-0.479-0.065-0.744-0.065c-0.403,0-0.718,0.076-0.945,0.225
		C91.374,152.619,91.262,152.823,91.262,153.08z"/>
	<path fill="#1D1D1B" d="M100.397,155.186c-0.615,0-1.186-0.08-1.707-0.237c-0.522-0.158-0.977-0.388-1.362-0.687l0.874-1.17
		c0.385,0.258,0.755,0.45,1.111,0.578c0.354,0.129,0.708,0.193,1.06,0.193c0.393,0,0.708-0.067,0.942-0.199
		c0.236-0.133,0.354-0.307,0.354-0.52c0-0.172-0.065-0.309-0.198-0.412c-0.134-0.102-0.346-0.176-0.637-0.218l-1.284-0.193
		c-0.667-0.103-1.173-0.318-1.515-0.647c-0.343-0.33-0.514-0.765-0.514-1.305c0-0.436,0.113-0.811,0.341-1.123
		c0.226-0.313,0.548-0.557,0.963-0.732s0.909-0.264,1.483-0.264c0.486,0,0.965,0.07,1.432,0.207
		c0.466,0.137,0.905,0.347,1.315,0.629l-0.847,1.144c-0.369-0.232-0.721-0.399-1.054-0.502s-0.673-0.153-1.015-0.153
		c-0.317,0-0.571,0.06-0.764,0.179c-0.193,0.121-0.288,0.278-0.288,0.477c0,0.179,0.068,0.321,0.205,0.423
		c0.137,0.104,0.372,0.175,0.705,0.219l1.272,0.191c0.668,0.096,1.177,0.307,1.528,0.637c0.351,0.329,0.526,0.756,0.526,1.277
		c0,0.429-0.129,0.808-0.385,1.137c-0.258,0.33-0.604,0.591-1.04,0.784C101.464,155.089,100.964,155.186,100.397,155.186z"/>
	<path fill="#1D1D1B" d="M104.654,155.057v-1.244l3.365-3.969h-3.34v-1.478h5.586v1.247l-3.364,3.967h3.454v1.477H104.654z"/>
	<path fill="#1D1D1B" d="M116.905,155.057l-1.991-8.988h1.914l1.221,6.086l1.745-6.086h1.761l1.745,6.074l1.221-6.074h1.849
		l-1.978,8.988h-1.966l-1.771-6.267l-1.799,6.267H116.905z"/>
	<path fill="#1D1D1B" d="M128.969,147.57c-0.273,0-0.509-0.099-0.705-0.295c-0.198-0.197-0.296-0.433-0.296-0.707
		c0-0.282,0.098-0.52,0.296-0.713c0.196-0.191,0.432-0.288,0.705-0.288c0.283,0,0.521,0.097,0.713,0.288
		c0.193,0.193,0.29,0.431,0.29,0.713c0,0.274-0.097,0.51-0.29,0.707C129.489,147.472,129.252,147.57,128.969,147.57z
		 M128.097,155.057v-6.69h1.759v6.69H128.097z"/>
	<path fill="#1D1D1B" d="M134.654,155.186c-0.617,0-1.186-0.08-1.708-0.237c-0.522-0.158-0.977-0.388-1.362-0.687l0.874-1.17
		c0.386,0.258,0.756,0.45,1.11,0.578c0.355,0.129,0.708,0.193,1.06,0.193c0.394,0,0.708-0.067,0.944-0.199
		c0.235-0.133,0.353-0.307,0.353-0.52c0-0.172-0.066-0.309-0.198-0.412c-0.134-0.102-0.345-0.176-0.637-0.218l-1.284-0.193
		c-0.667-0.103-1.172-0.318-1.514-0.647c-0.345-0.33-0.516-0.765-0.516-1.305c0-0.436,0.115-0.811,0.342-1.123
		s0.547-0.557,0.962-0.732s0.911-0.264,1.484-0.264c0.487,0,0.965,0.07,1.431,0.207c0.467,0.137,0.906,0.347,1.316,0.629
		l-0.848,1.144c-0.368-0.232-0.719-0.399-1.052-0.502c-0.335-0.103-0.673-0.153-1.016-0.153c-0.316,0-0.571,0.06-0.765,0.179
		c-0.191,0.121-0.288,0.278-0.288,0.477c0,0.179,0.068,0.321,0.205,0.423c0.137,0.104,0.374,0.175,0.707,0.219l1.271,0.191
		c0.669,0.096,1.177,0.307,1.528,0.637c0.352,0.329,0.527,0.756,0.527,1.277c0,0.429-0.129,0.808-0.386,1.137
		c-0.256,0.33-0.603,0.591-1.04,0.784C135.72,155.089,135.219,155.186,134.654,155.186z M133.51,147.25l1.157-1.67h2.002
		l-1.733,1.67H133.51z"/>
	<path fill="#1D1D1B" d="M139.367,155.057v-6.69h1.76v0.552c0.506-0.453,1.131-0.68,1.875-0.68c0.522,0,0.981,0.113,1.38,0.341
		c0.397,0.227,0.709,0.539,0.933,0.938c0.222,0.397,0.333,0.861,0.333,1.393v4.147h-1.759v-3.891c0-0.437-0.125-0.78-0.374-1.033
		c-0.247-0.253-0.586-0.38-1.013-0.38c-0.301,0-0.566,0.059-0.797,0.174c-0.231,0.116-0.424,0.28-0.578,0.494v4.636H139.367z"/>
	<path fill="#1D1D1B" d="M148.661,147.57c-0.273,0-0.51-0.099-0.705-0.295c-0.198-0.197-0.296-0.433-0.296-0.707
		c0-0.282,0.098-0.52,0.296-0.713c0.195-0.191,0.432-0.288,0.705-0.288c0.283,0,0.521,0.097,0.713,0.288
		c0.193,0.193,0.288,0.431,0.288,0.713c0,0.274-0.095,0.51-0.288,0.707C149.182,147.472,148.944,147.57,148.661,147.57z
		 M147.787,155.057v-6.69h1.761v6.69H147.787z"/>
	<path fill="#1D1D1B" d="M154.975,155.186c-0.667,0-1.272-0.154-1.816-0.463c-0.544-0.308-0.974-0.723-1.291-1.245
		c-0.316-0.522-0.475-1.108-0.475-1.759s0.152-1.238,0.455-1.76c0.305-0.521,0.718-0.938,1.24-1.246
		c0.522-0.308,1.104-0.463,1.745-0.463c0.643,0,1.213,0.159,1.709,0.477c0.496,0.316,0.888,0.744,1.175,1.284s0.43,1.151,0.43,1.836
		v0.463h-4.956c0.077,0.265,0.202,0.505,0.378,0.719s0.394,0.381,0.654,0.501c0.262,0.119,0.542,0.179,0.843,0.179
		c0.299,0,0.576-0.046,0.827-0.14c0.253-0.095,0.469-0.228,0.649-0.398l1.155,1.053c-0.41,0.334-0.833,0.578-1.265,0.732
		C156,155.108,155.515,155.186,154.975,155.186z M153.165,151.051h3.248c-0.06-0.266-0.169-0.499-0.327-0.701
		c-0.159-0.199-0.347-0.358-0.564-0.475c-0.22-0.114-0.461-0.173-0.726-0.173c-0.275,0-0.522,0.056-0.746,0.167
		c-0.223,0.111-0.408,0.268-0.558,0.469C153.342,150.539,153.233,150.776,153.165,151.051z"/>
	<path fill="#1D1D1B" d="M161.063,155.057l-1.836-6.69h1.67l1.104,4.315l1.336-4.315h1.477l1.323,4.327l1.104-4.327h1.645
		l-1.85,6.69h-1.682l-1.297-4.275l-1.297,4.275H161.063z"/>
	<path fill="#1D1D1B" d="M172.938,155.186c-0.616,0-1.186-0.08-1.708-0.237c-0.522-0.158-0.977-0.388-1.362-0.687l0.874-1.17
		c0.386,0.258,0.756,0.45,1.111,0.578c0.355,0.129,0.708,0.193,1.06,0.193c0.393,0,0.708-0.067,0.943-0.199
		c0.235-0.133,0.353-0.307,0.353-0.52c0-0.172-0.065-0.309-0.197-0.412c-0.135-0.102-0.346-0.176-0.638-0.218l-1.284-0.193
		c-0.666-0.103-1.172-0.318-1.514-0.647c-0.344-0.33-0.515-0.765-0.515-1.305c0-0.436,0.114-0.811,0.342-1.123
		c0.226-0.313,0.547-0.557,0.962-0.732s0.91-0.264,1.484-0.264c0.487,0,0.964,0.07,1.431,0.207c0.466,0.137,0.905,0.347,1.315,0.629
		l-0.847,1.144c-0.369-0.232-0.719-0.399-1.053-0.502s-0.672-0.153-1.016-0.153c-0.315,0-0.571,0.06-0.764,0.179
		c-0.191,0.121-0.288,0.278-0.288,0.477c0,0.179,0.068,0.321,0.205,0.423c0.137,0.104,0.373,0.175,0.707,0.219l1.271,0.191
		c0.669,0.096,1.177,0.307,1.528,0.637c0.352,0.329,0.527,0.756,0.527,1.277c0,0.429-0.13,0.808-0.386,1.137
		c-0.257,0.33-0.604,0.591-1.04,0.784C174.003,155.089,173.503,155.186,172.938,155.186z"/>
	<path fill="#1D1D1B" d="M177.609,155.057v-8.988l1.759-0.296v5.406l2.89-2.813h1.989l-3.159,3.069l3.353,3.621h-2.247L179.368,152
		v3.057H177.609z"/>
	<path fill="#1D1D1B" d="M186.647,147.57c-0.274,0-0.511-0.099-0.707-0.295c-0.196-0.197-0.295-0.433-0.295-0.707
		c0-0.282,0.099-0.52,0.295-0.713c0.196-0.191,0.433-0.288,0.707-0.288c0.282,0,0.52,0.097,0.713,0.288
		c0.191,0.193,0.288,0.431,0.288,0.713c0,0.274-0.097,0.51-0.288,0.707C187.167,147.472,186.93,147.57,186.647,147.57z
		 M185.773,155.057v-6.69h1.76v6.69H185.773z"/>
	<path fill="#1D1D1B" d="M197.292,155.199c-0.668,0-1.289-0.119-1.863-0.354c-0.572-0.234-1.076-0.563-1.509-0.989
		c-0.432-0.423-0.769-0.915-1.013-1.476c-0.244-0.562-0.366-1.167-0.366-1.817s0.122-1.256,0.366-1.817
		c0.244-0.561,0.581-1.053,1.013-1.476c0.433-0.426,0.937-0.754,1.509-0.989c0.574-0.235,1.195-0.354,1.863-0.354
		s1.291,0.119,1.867,0.354c0.579,0.235,1.084,0.563,1.517,0.989c0.432,0.423,0.769,0.915,1.008,1.476
		c0.239,0.562,0.359,1.167,0.359,1.817s-0.12,1.256-0.359,1.817c-0.239,0.561-0.576,1.053-1.008,1.476
		c-0.433,0.426-0.938,0.755-1.517,0.989C198.583,155.08,197.96,155.199,197.292,155.199z M197.292,153.491
		c0.41,0,0.788-0.076,1.13-0.226s0.643-0.354,0.898-0.615c0.257-0.262,0.459-0.573,0.604-0.932c0.146-0.36,0.22-0.745,0.22-1.156
		c0-0.42-0.073-0.807-0.22-1.162c-0.145-0.355-0.347-0.663-0.604-0.924c-0.256-0.262-0.557-0.468-0.898-0.617
		s-0.72-0.226-1.13-0.226c-0.403,0-0.774,0.076-1.117,0.226s-0.642,0.355-0.899,0.617c-0.257,0.261-0.458,0.568-0.604,0.924
		c-0.146,0.355-0.218,0.738-0.218,1.15c0,0.418,0.071,0.808,0.218,1.168c0.146,0.358,0.347,0.67,0.604,0.932
		c0.258,0.261,0.557,0.466,0.899,0.615S196.889,153.491,197.292,153.491z"/>
	<path fill="#1D1D1B" d="M204.139,155.057v-8.988h4.508c0.59,0,1.11,0.119,1.561,0.359c0.449,0.239,0.802,0.571,1.06,0.995
		c0.256,0.424,0.385,0.914,0.385,1.47c0,0.531-0.129,1.007-0.385,1.426c-0.258,0.42-0.613,0.75-1.067,0.988
		c-0.454,0.241-0.972,0.36-1.553,0.36H206v3.39H204.139z M206,150.125h2.44c0.401,0,0.727-0.11,0.97-0.333
		c0.244-0.222,0.366-0.518,0.366-0.886c0-0.377-0.122-0.677-0.366-0.898c-0.243-0.224-0.568-0.335-0.97-0.335H206V150.125z"/>
	<path fill="#1D1D1B" d="M43.056,173.402v-8.99h4.509c0.589,0,1.109,0.12,1.56,0.36c0.449,0.239,0.802,0.571,1.06,0.995
		c0.257,0.424,0.385,0.914,0.385,1.47c0,0.531-0.128,1.007-0.385,1.426c-0.258,0.42-0.611,0.749-1.065,0.989
		s-0.972,0.359-1.554,0.359h-2.646v3.391H43.056z M44.919,168.471h2.438c0.403,0,0.727-0.111,0.97-0.334
		c0.244-0.222,0.366-0.518,0.366-0.886c0-0.378-0.122-0.677-0.366-0.898c-0.243-0.224-0.566-0.335-0.97-0.335h-2.438V168.471z"/>
	<path fill="#1D1D1B" d="M52.287,173.402v-6.691h1.76v0.745c0.213-0.291,0.471-0.515,0.77-0.668c0.3-0.153,0.639-0.23,1.016-0.23
		c0.324,0.009,0.568,0.06,0.731,0.153v1.542c-0.129-0.06-0.271-0.104-0.424-0.136c-0.154-0.029-0.313-0.045-0.475-0.045
		c-0.344,0-0.656,0.086-0.938,0.258c-0.282,0.171-0.51,0.415-0.681,0.73v4.342H52.287z"/>
	<path fill="#1D1D1B" d="M61.379,173.53c-0.669,0-1.272-0.154-1.812-0.463c-0.54-0.308-0.967-0.723-1.284-1.245
		c-0.316-0.522-0.475-1.108-0.475-1.759c0-0.651,0.156-1.239,0.469-1.767c0.313-0.526,0.74-0.943,1.284-1.251
		c0.543-0.31,1.148-0.463,1.817-0.463c0.666,0,1.273,0.153,1.816,0.463c0.544,0.308,0.972,0.725,1.284,1.251
		c0.313,0.527,0.469,1.115,0.469,1.767c0,0.65-0.156,1.236-0.469,1.759s-0.737,0.938-1.277,1.245
		C62.663,173.376,62.055,173.53,61.379,173.53z M61.379,172.002c0.351,0,0.665-0.086,0.943-0.257
		c0.277-0.171,0.501-0.403,0.668-0.699c0.166-0.296,0.25-0.624,0.25-0.982c0-0.369-0.084-0.698-0.25-0.989
		c-0.167-0.291-0.391-0.524-0.668-0.7c-0.278-0.175-0.593-0.263-0.943-0.263c-0.343,0-0.655,0.088-0.938,0.263
		c-0.283,0.176-0.506,0.409-0.669,0.7c-0.161,0.291-0.243,0.62-0.243,0.989c0,0.358,0.082,0.687,0.243,0.982
		c0.163,0.296,0.386,0.528,0.669,0.699C60.724,171.916,61.036,172.002,61.379,172.002z"/>
	<path fill="#1D1D1B" d="M67.859,173.402l-1.837-6.691h1.67l1.104,4.315l1.336-4.315h1.477l1.322,4.328l1.104-4.328h1.645
		l-1.85,6.691h-1.684l-1.296-4.276l-1.297,4.276H67.859z"/>
	<path fill="#1D1D1B" d="M78.075,165.915c-0.273,0-0.509-0.099-0.705-0.295c-0.198-0.196-0.296-0.433-0.296-0.707
		c0-0.282,0.098-0.521,0.296-0.713c0.196-0.191,0.432-0.288,0.705-0.288c0.283,0,0.521,0.097,0.713,0.288
		c0.193,0.192,0.29,0.431,0.29,0.713c0,0.274-0.097,0.511-0.29,0.707C78.596,165.816,78.358,165.915,78.075,165.915z
		 M77.203,173.402v-6.691h1.759v6.691H77.203z"/>
	<path fill="#1D1D1B" d="M81.174,173.402v-6.691h1.76v0.552c0.506-0.452,1.131-0.68,1.875-0.68c0.522,0,0.981,0.113,1.38,0.341
		c0.397,0.227,0.709,0.539,0.933,0.938c0.222,0.397,0.333,0.861,0.333,1.393v4.148h-1.759v-3.893c0-0.436-0.125-0.779-0.374-1.032
		c-0.247-0.253-0.586-0.38-1.013-0.38c-0.301,0-0.566,0.059-0.797,0.174c-0.231,0.115-0.424,0.28-0.578,0.494v4.637H81.174z"/>
	<path fill="#1D1D1B" d="M92.76,173.53c-0.659,0-1.254-0.151-1.785-0.456c-0.531-0.304-0.951-0.719-1.259-1.246
		c-0.308-0.525-0.462-1.114-0.462-1.765c0-0.659,0.154-1.25,0.462-1.772s0.728-0.938,1.259-1.245
		c0.531-0.31,1.126-0.463,1.785-0.463c0.53,0,1.038,0.103,1.521,0.308c0.483,0.206,0.901,0.502,1.253,0.887l-1.079,1.144
		c-0.249-0.274-0.508-0.478-0.777-0.61c-0.271-0.133-0.563-0.199-0.881-0.199c-0.342,0-0.646,0.086-0.918,0.256
		c-0.269,0.173-0.483,0.403-0.642,0.693c-0.159,0.292-0.237,0.625-0.237,1.003c0,0.358,0.078,0.687,0.237,0.982
		c0.158,0.296,0.38,0.526,0.661,0.693c0.283,0.166,0.596,0.25,0.938,0.25c0.301,0,0.58-0.062,0.842-0.187
		c0.261-0.123,0.511-0.311,0.75-0.558l1.055,1.104c-0.344,0.368-0.754,0.657-1.232,0.866C93.769,173.425,93.273,173.53,92.76,173.53
		z"/>
	<path fill="#1D1D1B" d="M96.712,176.149c-0.162,0-0.329-0.011-0.502-0.031c-0.171-0.022-0.308-0.049-0.41-0.083v-1.35
		c0.154,0.035,0.342,0.052,0.565,0.052c0.258,0,0.448-0.054,0.571-0.16c0.123-0.107,0.187-0.28,0.187-0.52v-7.347h1.76v7.449
		c0,0.633-0.189,1.123-0.565,1.47C97.94,175.977,97.405,176.149,96.712,176.149z M97.996,165.915c-0.274,0-0.509-0.099-0.707-0.295
		c-0.196-0.196-0.295-0.433-0.295-0.707c0-0.282,0.099-0.521,0.295-0.713c0.198-0.191,0.433-0.288,0.707-0.288
		c0.282,0,0.521,0.097,0.713,0.288c0.191,0.192,0.289,0.431,0.289,0.713c0,0.274-0.098,0.511-0.289,0.707
		C98.517,165.816,98.278,165.915,97.996,165.915z"/>
	<path fill="#1D1D1B" d="M103.167,173.518c-0.479,0-0.903-0.088-1.271-0.264c-0.369-0.176-0.655-0.417-0.862-0.725
		c-0.205-0.309-0.308-0.664-0.308-1.067c0-0.642,0.242-1.14,0.726-1.495s1.149-0.533,1.997-0.533c0.582,0,1.13,0.09,1.645,0.27
		v-0.487c0-0.386-0.121-0.676-0.36-0.874c-0.239-0.196-0.591-0.295-1.053-0.295c-0.283,0-0.587,0.045-0.911,0.135
		c-0.326,0.09-0.702,0.229-1.131,0.418l-0.642-1.298c0.53-0.239,1.038-0.42,1.521-0.539c0.483-0.12,0.97-0.18,1.458-0.18
		c0.898,0,1.599,0.216,2.1,0.648c0.5,0.432,0.751,1.042,0.751,1.829v4.342h-1.733v-0.476c-0.275,0.205-0.57,0.355-0.887,0.449
		C103.891,173.471,103.544,173.518,103.167,173.518z M102.396,171.424c0,0.257,0.111,0.461,0.334,0.611
		c0.223,0.148,0.519,0.225,0.886,0.225c0.292,0,0.561-0.037,0.81-0.11c0.248-0.072,0.471-0.182,0.668-0.327v-0.976
		c-0.214-0.085-0.438-0.149-0.668-0.192c-0.232-0.043-0.479-0.064-0.745-0.064c-0.402,0-0.718,0.075-0.944,0.225
		C102.509,170.964,102.396,171.168,102.396,171.424z"/>
	<path fill="#1D1D1B" d="M109.44,173.402v-3.327l-0.898,0.643v-1.605l0.898-0.642v-4.059l1.76-0.385v3.21l0.898-0.642v1.604
		l-0.898,0.643v4.56H109.44z"/>
	<path fill="#1D1D1B" d="M116.824,173.402v-8.99h4.508c0.59,0,1.11,0.12,1.561,0.36c0.449,0.239,0.802,0.571,1.06,0.995
		c0.256,0.424,0.385,0.914,0.385,1.47c0,0.531-0.129,1.007-0.385,1.426c-0.258,0.42-0.613,0.749-1.067,0.989
		s-0.972,0.359-1.553,0.359h-2.646v3.391H116.824z M118.686,168.471h2.44c0.401,0,0.727-0.111,0.97-0.334
		c0.244-0.222,0.366-0.518,0.366-0.886c0-0.378-0.122-0.677-0.366-0.898c-0.243-0.224-0.568-0.335-0.97-0.335h-2.44V168.471z"/>
	<path fill="#1D1D1B" d="M129.216,173.53c-0.668,0-1.272-0.154-1.811-0.463c-0.539-0.308-0.968-0.723-1.284-1.245
		s-0.475-1.108-0.475-1.759c0-0.651,0.156-1.239,0.469-1.767c0.313-0.526,0.739-0.943,1.284-1.251
		c0.543-0.31,1.148-0.463,1.816-0.463s1.274,0.153,1.816,0.463c0.544,0.308,0.972,0.725,1.284,1.251
		c0.313,0.527,0.469,1.115,0.469,1.767c0,0.65-0.156,1.236-0.469,1.759s-0.737,0.938-1.277,1.245
		C130.5,173.376,129.892,173.53,129.216,173.53z M129.216,172.002c0.352,0,0.666-0.086,0.944-0.257
		c0.277-0.171,0.501-0.403,0.667-0.699c0.167-0.296,0.251-0.624,0.251-0.982c0-0.369-0.084-0.698-0.251-0.989
		c-0.166-0.291-0.39-0.524-0.667-0.7c-0.278-0.175-0.593-0.263-0.944-0.263c-0.342,0-0.654,0.088-0.938,0.263
		c-0.283,0.176-0.506,0.409-0.668,0.7s-0.243,0.62-0.243,0.989c0,0.358,0.081,0.687,0.243,0.982s0.385,0.528,0.668,0.699
		S128.874,172.002,129.216,172.002z"/>
	<path fill="#1D1D1B" d="M134.65,173.402v-8.99l1.76-0.295v9.285H134.65z"/>
	<path fill="#1D1D1B" d="M141.166,173.53c-0.616,0-1.187-0.079-1.707-0.237c-0.522-0.158-0.976-0.388-1.361-0.688l0.873-1.169
		c0.384,0.258,0.755,0.45,1.11,0.579c0.355,0.128,0.709,0.192,1.06,0.192c0.395,0,0.708-0.067,0.943-0.199
		c0.236-0.133,0.354-0.306,0.354-0.52c0-0.173-0.067-0.31-0.2-0.411c-0.132-0.104-0.345-0.176-0.635-0.219l-1.284-0.193
		c-0.669-0.103-1.175-0.318-1.517-0.648c-0.342-0.329-0.513-0.764-0.513-1.303c0-0.437,0.112-0.811,0.34-1.123
		c0.227-0.313,0.548-0.557,0.964-0.732c0.415-0.176,0.908-0.264,1.482-0.264c0.488,0,0.966,0.069,1.433,0.206
		s0.905,0.347,1.316,0.628l-0.848,1.145c-0.368-0.232-0.72-0.399-1.055-0.502c-0.333-0.103-0.671-0.154-1.013-0.154
		c-0.317,0-0.571,0.061-0.765,0.18c-0.192,0.121-0.289,0.278-0.289,0.477c0,0.18,0.068,0.32,0.205,0.424
		c0.138,0.102,0.372,0.174,0.707,0.218l1.271,0.192c0.667,0.095,1.177,0.306,1.527,0.636c0.351,0.329,0.526,0.755,0.526,1.278
		c0,0.428-0.127,0.807-0.385,1.136c-0.258,0.33-0.604,0.591-1.04,0.784C142.232,173.434,141.731,173.53,141.166,173.53z"/>
	<path fill="#1D1D1B" d="M145.839,173.402v-8.99l1.76-0.295v5.406l2.889-2.813h1.99l-3.159,3.069l3.352,3.622h-2.247l-2.824-3.057
		v3.057H145.839z"/>
	<path fill="#1D1D1B" d="M154.876,165.915c-0.274,0-0.509-0.099-0.707-0.295c-0.196-0.196-0.295-0.433-0.295-0.707
		c0-0.282,0.099-0.521,0.295-0.713c0.198-0.191,0.433-0.288,0.707-0.288c0.282,0,0.521,0.097,0.713,0.288
		c0.191,0.192,0.289,0.431,0.289,0.713c0,0.274-0.098,0.511-0.289,0.707C155.396,165.816,155.158,165.915,154.876,165.915z
		 M154.003,173.402v-6.691h1.76v6.691H154.003z"/>
	<path fill="#1D1D1B" d="M161.189,173.53c-0.668,0-1.273-0.154-1.817-0.463c-0.543-0.308-0.975-0.723-1.289-1.245
		c-0.317-0.522-0.477-1.108-0.477-1.759c0-0.651,0.151-1.238,0.457-1.759c0.303-0.523,0.717-0.938,1.237-1.247
		c0.522-0.308,1.106-0.462,1.748-0.462c0.643,0,1.211,0.158,1.707,0.476c0.498,0.316,0.889,0.745,1.176,1.284
		c0.286,0.539,0.431,1.151,0.431,1.836v0.463h-4.957c0.076,0.265,0.203,0.505,0.378,0.719c0.176,0.214,0.395,0.381,0.655,0.5
		c0.262,0.12,0.541,0.18,0.842,0.18c0.299,0,0.574-0.046,0.828-0.141c0.252-0.094,0.469-0.227,0.647-0.397l1.157,1.052
		c-0.413,0.335-0.834,0.579-1.266,0.732C162.215,173.453,161.729,173.53,161.189,173.53z M159.379,169.396h3.25
		c-0.062-0.267-0.17-0.499-0.328-0.7s-0.347-0.359-0.565-0.476c-0.218-0.114-0.46-0.173-0.726-0.173
		c-0.273,0-0.522,0.056-0.744,0.167c-0.223,0.111-0.41,0.268-0.56,0.469C159.558,168.884,159.447,169.121,159.379,169.396z"/>
	<path fill="#1D1D1B" d="M165.75,176.149c-0.162,0-0.329-0.011-0.502-0.031c-0.171-0.022-0.308-0.049-0.41-0.083v-1.35
		c0.154,0.035,0.342,0.052,0.565,0.052c0.258,0,0.448-0.054,0.571-0.16c0.123-0.107,0.187-0.28,0.187-0.52v-7.347h1.76v7.449
		c0,0.633-0.189,1.123-0.565,1.47C166.979,175.977,166.443,176.149,165.75,176.149z M167.034,165.915
		c-0.274,0-0.509-0.099-0.707-0.295c-0.196-0.196-0.295-0.433-0.295-0.707c0-0.282,0.099-0.521,0.295-0.713
		c0.198-0.191,0.433-0.288,0.707-0.288c0.282,0,0.521,0.097,0.713,0.288c0.191,0.192,0.289,0.431,0.289,0.713
		c0,0.274-0.098,0.511-0.289,0.707C167.555,165.816,167.316,165.915,167.034,165.915z"/>
	<path fill="#1D1D1B" d="M173.275,173.402v-8.99h4.507c0.591,0,1.111,0.12,1.561,0.36c0.449,0.239,0.803,0.571,1.06,0.995
		c0.256,0.424,0.386,0.914,0.386,1.47c0,0.531-0.13,1.007-0.386,1.426c-0.257,0.42-0.613,0.749-1.067,0.989
		c-0.452,0.24-0.972,0.359-1.553,0.359h-2.646v3.391H173.275z M175.136,168.471h2.441c0.402,0,0.726-0.111,0.97-0.334
		c0.244-0.222,0.366-0.518,0.366-0.886c0-0.378-0.122-0.677-0.366-0.898c-0.244-0.224-0.567-0.335-0.97-0.335h-2.441V168.471z"/>
	<path fill="#1D1D1B" d="M182.504,173.402v-6.691h1.761v0.745c0.214-0.291,0.471-0.515,0.771-0.668
		c0.299-0.153,0.638-0.23,1.014-0.23c0.325,0.009,0.569,0.06,0.732,0.153v1.542c-0.129-0.06-0.27-0.104-0.425-0.136
		c-0.153-0.029-0.313-0.045-0.474-0.045c-0.344,0-0.655,0.086-0.938,0.258c-0.283,0.171-0.51,0.415-0.681,0.73v4.342H182.504z"/>
	<path fill="#1D1D1B" d="M191.596,173.53c-0.666,0-1.271-0.154-1.809-0.463c-0.54-0.308-0.97-0.723-1.284-1.245
		c-0.317-0.522-0.477-1.108-0.477-1.759c0-0.651,0.156-1.239,0.469-1.767c0.313-0.526,0.74-0.943,1.284-1.251
		c0.545-0.31,1.15-0.463,1.816-0.463c0.669,0,1.274,0.153,1.818,0.463c0.543,0.308,0.972,0.725,1.284,1.251
		c0.313,0.527,0.469,1.115,0.469,1.767c0,0.65-0.156,1.236-0.469,1.759s-0.739,0.938-1.278,1.245
		C192.88,173.376,192.272,173.53,191.596,173.53z M191.596,172.002c0.352,0,0.667-0.086,0.945-0.257s0.5-0.403,0.668-0.699
		c0.167-0.296,0.25-0.624,0.25-0.982c0-0.369-0.083-0.698-0.25-0.989c-0.168-0.291-0.39-0.524-0.668-0.7
		c-0.278-0.175-0.594-0.263-0.945-0.263c-0.342,0-0.654,0.088-0.938,0.263c-0.281,0.176-0.504,0.409-0.666,0.7
		c-0.164,0.291-0.244,0.62-0.244,0.989c0,0.358,0.08,0.687,0.244,0.982c0.162,0.296,0.385,0.528,0.666,0.699
		C190.941,171.916,191.254,172.002,191.596,172.002z"/>
	<path fill="#1D1D1B" d="M198.078,173.402l-1.836-6.691h1.67l1.104,4.315l1.335-4.315h1.478l1.323,4.328l1.104-4.328h1.643
		l-1.848,6.691h-1.683l-1.297-4.276l-1.298,4.276H198.078z"/>
	<path fill="#1D1D1B" d="M208.294,165.915c-0.274,0-0.509-0.099-0.707-0.295c-0.196-0.196-0.295-0.433-0.295-0.707
		c0-0.282,0.099-0.521,0.295-0.713c0.198-0.191,0.433-0.288,0.707-0.288c0.282,0,0.521,0.097,0.713,0.288
		c0.191,0.192,0.289,0.431,0.289,0.713c0,0.274-0.098,0.511-0.289,0.707C208.814,165.816,208.576,165.915,208.294,165.915z
		 M207.421,173.402v-6.691h1.76v6.691H207.421z"/>
	<path fill="#1D1D1B" d="M211.393,173.402v-6.691h1.759v0.552c0.505-0.452,1.13-0.68,1.875-0.68c0.522,0,0.982,0.113,1.381,0.341
		c0.397,0.227,0.709,0.539,0.931,0.938c0.223,0.397,0.335,0.861,0.335,1.393v4.148h-1.761v-3.893c0-0.436-0.124-0.779-0.372-1.032
		s-0.587-0.38-1.015-0.38c-0.3,0-0.564,0.059-0.796,0.174s-0.425,0.28-0.578,0.494v4.637H211.393z"/>
	<path fill="#1D1D1B" d="M222.978,173.53c-0.659,0-1.255-0.151-1.784-0.456c-0.531-0.304-0.95-0.719-1.259-1.246
		c-0.309-0.525-0.463-1.114-0.463-1.765c0-0.659,0.154-1.25,0.463-1.772s0.728-0.938,1.259-1.245
		c0.529-0.31,1.125-0.463,1.784-0.463c0.531,0,1.038,0.103,1.521,0.308c0.484,0.206,0.9,0.502,1.252,0.887l-1.079,1.144
		c-0.247-0.274-0.506-0.478-0.776-0.61c-0.269-0.133-0.563-0.199-0.879-0.199c-0.343,0-0.649,0.086-0.918,0.256
		c-0.271,0.173-0.484,0.403-0.642,0.693c-0.159,0.292-0.238,0.625-0.238,1.003c0,0.358,0.079,0.687,0.238,0.982
		c0.157,0.296,0.378,0.526,0.66,0.693c0.282,0.166,0.595,0.25,0.938,0.25c0.299,0,0.58-0.062,0.841-0.187
		c0.262-0.123,0.512-0.311,0.752-0.558l1.053,1.104c-0.342,0.368-0.753,0.657-1.233,0.866
		C223.988,173.425,223.492,173.53,222.978,173.53z"/>
	<path fill="#1D1D1B" d="M226.931,176.149c-0.164,0-0.33-0.011-0.501-0.031c-0.171-0.022-0.309-0.049-0.411-0.083v-1.35
		c0.155,0.035,0.343,0.052,0.565,0.052c0.256,0,0.446-0.054,0.571-0.16c0.124-0.107,0.186-0.28,0.186-0.52v-7.347h1.76v7.449
		c0,0.633-0.188,1.123-0.564,1.47C228.158,175.977,227.624,176.149,226.931,176.149z M228.215,165.915
		c-0.273,0-0.511-0.099-0.706-0.295c-0.197-0.196-0.295-0.433-0.295-0.707c0-0.282,0.098-0.521,0.295-0.713
		c0.195-0.191,0.433-0.288,0.706-0.288c0.283,0,0.52,0.097,0.713,0.288c0.192,0.192,0.288,0.431,0.288,0.713
		c0,0.274-0.096,0.511-0.288,0.707C228.734,165.816,228.498,165.915,228.215,165.915z"/>
	<path fill="#1D1D1B" d="M232.185,165.915c-0.274,0-0.511-0.099-0.707-0.295s-0.295-0.433-0.295-0.707
		c0-0.282,0.099-0.521,0.295-0.713c0.196-0.191,0.433-0.288,0.707-0.288c0.282,0,0.52,0.097,0.713,0.288
		c0.191,0.192,0.288,0.431,0.288,0.713c0,0.274-0.097,0.511-0.288,0.707C232.704,165.816,232.467,165.915,232.185,165.915z
		 M231.311,173.402v-6.691h1.76v6.691H231.311z"/>
	<path fill="#1D1D1B" d="M52.609,191.748v-1.271l4.956-6.1h-4.917v-1.618h7.345v1.271l-4.957,6.099h5.009v1.619H52.609z"/>
	<path fill="#1D1D1B" d="M63.938,191.863c-0.479,0-0.903-0.088-1.271-0.264c-0.368-0.176-0.656-0.417-0.861-0.725
		c-0.205-0.309-0.308-0.664-0.308-1.066c0-0.643,0.242-1.141,0.726-1.496s1.149-0.533,1.997-0.533c0.581,0,1.13,0.09,1.643,0.27
		v-0.486c0-0.387-0.119-0.677-0.358-0.875c-0.239-0.196-0.591-0.295-1.054-0.295c-0.282,0-0.587,0.045-0.912,0.136
		c-0.324,0.089-0.701,0.228-1.13,0.417l-0.643-1.297c0.532-0.24,1.039-0.42,1.522-0.54c0.484-0.12,0.971-0.18,1.458-0.18
		c0.899,0,1.599,0.216,2.1,0.648s0.75,1.042,0.75,1.83v4.341h-1.733v-0.475c-0.273,0.205-0.568,0.354-0.886,0.449
		C64.661,191.816,64.314,191.863,63.938,191.863z M63.167,189.771c0,0.256,0.111,0.46,0.333,0.61
		c0.224,0.148,0.52,0.225,0.887,0.225c0.292,0,0.562-0.037,0.811-0.11c0.246-0.071,0.47-0.182,0.666-0.327v-0.975
		c-0.213-0.086-0.437-0.15-0.666-0.193c-0.232-0.043-0.481-0.064-0.746-0.064c-0.401,0-0.717,0.075-0.943,0.225
		C63.28,189.311,63.167,189.514,63.167,189.771z"/>
	<path fill="#1D1D1B" d="M69.765,191.748v-8.989l1.761-0.296v5.406l2.888-2.813h1.991l-3.159,3.069l3.351,3.622H74.35l-2.824-3.057
		v3.057H69.765z"/>
	<path fill="#1D1D1B" d="M80.739,191.876c-0.669,0-1.272-0.153-1.812-0.463c-0.54-0.308-0.967-0.723-1.284-1.245
		c-0.316-0.522-0.475-1.108-0.475-1.759s0.156-1.239,0.469-1.767c0.313-0.525,0.74-0.943,1.284-1.251
		c0.543-0.309,1.148-0.463,1.817-0.463c0.666,0,1.273,0.154,1.816,0.463c0.544,0.308,0.972,0.726,1.284,1.251
		c0.313,0.527,0.469,1.116,0.469,1.767s-0.156,1.236-0.469,1.759s-0.737,0.938-1.277,1.245
		C82.023,191.723,81.415,191.876,80.739,191.876z M80.739,190.348c0.351,0,0.665-0.086,0.943-0.256
		c0.277-0.172,0.501-0.404,0.668-0.7c0.166-0.295,0.25-0.624,0.25-0.982c0-0.368-0.084-0.698-0.25-0.989
		c-0.167-0.291-0.391-0.524-0.668-0.7c-0.278-0.175-0.593-0.263-0.943-0.263c-0.343,0-0.655,0.088-0.938,0.263
		c-0.283,0.176-0.506,0.409-0.669,0.7c-0.161,0.291-0.243,0.621-0.243,0.989c0,0.358,0.082,0.688,0.243,0.982
		c0.163,0.296,0.386,0.528,0.669,0.7C80.084,190.262,80.396,190.348,80.739,190.348z"/>
	<path fill="#1D1D1B" d="M86.174,191.748v-6.691h1.759v0.553c0.504-0.453,1.129-0.681,1.874-0.681c0.522,0,0.983,0.114,1.382,0.341
		c0.397,0.227,0.708,0.539,0.93,0.938c0.223,0.398,0.335,0.861,0.335,1.393v4.148h-1.761v-3.892c0-0.437-0.123-0.78-0.371-1.033
		c-0.249-0.253-0.587-0.38-1.016-0.38c-0.299,0-0.563,0.059-0.796,0.174c-0.23,0.116-0.423,0.281-0.577,0.494v4.637H86.174z"/>
	<path fill="#1D1D1B" d="M97.18,191.876c-0.513,0-0.97-0.113-1.367-0.341c-0.398-0.226-0.711-0.541-0.938-0.943
		c-0.228-0.401-0.34-0.864-0.34-1.387v-4.148h1.758v3.893c0,0.427,0.127,0.77,0.38,1.026s0.592,0.386,1.021,0.386
		c0.291,0,0.555-0.058,0.789-0.174c0.235-0.115,0.431-0.28,0.585-0.494v-4.637h1.759v6.691h-1.759v-0.54
		C98.554,191.654,97.926,191.876,97.18,191.876z"/>
	<path fill="#1D1D1B" d="M106.183,191.748v-8.989h1.861v4.02l3.93-4.02h2.273l-4.367,4.276l4.572,4.713h-2.492l-3.916-4.174v4.174
		H106.183z"/>
	<path fill="#1D1D1B" d="M117.762,191.863c-0.479,0-0.903-0.088-1.271-0.264c-0.369-0.176-0.655-0.417-0.862-0.725
		c-0.205-0.309-0.308-0.664-0.308-1.066c0-0.643,0.242-1.141,0.726-1.496s1.149-0.533,1.997-0.533c0.582,0,1.13,0.09,1.645,0.27
		v-0.486c0-0.387-0.121-0.677-0.36-0.875c-0.239-0.196-0.591-0.295-1.053-0.295c-0.283,0-0.587,0.045-0.911,0.136
		c-0.326,0.089-0.702,0.228-1.131,0.417l-0.642-1.297c0.53-0.24,1.038-0.42,1.521-0.54s0.97-0.18,1.458-0.18
		c0.898,0,1.599,0.216,2.1,0.648c0.5,0.433,0.751,1.042,0.751,1.83v4.341h-1.733v-0.475c-0.275,0.205-0.57,0.354-0.887,0.449
		C118.485,191.816,118.139,191.863,117.762,191.863z M116.991,189.771c0,0.256,0.111,0.46,0.334,0.61
		c0.223,0.148,0.519,0.225,0.886,0.225c0.292,0,0.561-0.037,0.81-0.11c0.248-0.071,0.471-0.182,0.668-0.327v-0.975
		c-0.214-0.086-0.438-0.15-0.668-0.193c-0.232-0.043-0.479-0.064-0.745-0.064c-0.402,0-0.718,0.075-0.944,0.225
		C117.104,189.311,116.991,189.514,116.991,189.771z"/>
	<path fill="#1D1D1B" d="M123.171,191.748v-1.245l3.364-3.969h-3.34v-1.478h5.587v1.247l-3.365,3.967h3.454v1.478H123.171z"/>
	<path fill="#1D1D1B" d="M130.751,191.748v-6.691h1.76v0.553c0.504-0.453,1.129-0.681,1.873-0.681c0.522,0,0.984,0.114,1.382,0.341
		c0.398,0.227,0.708,0.539,0.931,0.938c0.222,0.398,0.334,0.861,0.334,1.393v4.148h-1.76v-3.892c0-0.437-0.123-0.78-0.371-1.033
		c-0.249-0.253-0.587-0.38-1.016-0.38c-0.299,0-0.564,0.059-0.796,0.174c-0.23,0.116-0.424,0.281-0.577,0.494v4.637H130.751z"/>
	<path fill="#1D1D1B" d="M142.4,191.876c-0.668,0-1.271-0.153-1.811-0.463c-0.539-0.308-0.968-0.723-1.284-1.245
		c-0.317-0.522-0.476-1.108-0.476-1.759s0.156-1.239,0.469-1.767c0.313-0.525,0.741-0.943,1.284-1.251
		c0.544-0.309,1.149-0.463,1.817-0.463s1.273,0.154,1.817,0.463c0.544,0.308,0.972,0.726,1.284,1.251
		c0.313,0.527,0.469,1.116,0.469,1.767s-0.156,1.236-0.469,1.759s-0.738,0.938-1.277,1.245
		C143.685,191.723,143.077,191.876,142.4,191.876z M142.4,190.348c0.351,0,0.665-0.086,0.943-0.256
		c0.278-0.172,0.501-0.404,0.669-0.7c0.166-0.295,0.249-0.624,0.249-0.982c0-0.368-0.083-0.698-0.249-0.989
		c-0.168-0.291-0.391-0.524-0.669-0.7c-0.278-0.175-0.593-0.263-0.943-0.263c-0.343,0-0.655,0.088-0.938,0.263
		c-0.282,0.176-0.504,0.409-0.668,0.7c-0.162,0.291-0.244,0.621-0.244,0.989c0,0.358,0.082,0.688,0.244,0.982
		c0.164,0.296,0.386,0.528,0.668,0.7C141.745,190.262,142.058,190.348,142.4,190.348z"/>
	<path fill="#1D1D1B" d="M150.871,191.838c-0.634,0-1.207-0.154-1.722-0.463c-0.513-0.309-0.923-0.721-1.226-1.238
		c-0.305-0.52-0.456-1.099-0.456-1.741c0-0.642,0.151-1.222,0.456-1.739c0.303-0.518,0.717-0.929,1.238-1.232
		c0.522-0.305,1.109-0.457,1.76-0.457c0.335,0,0.654,0.045,0.964,0.136c0.309,0.09,0.594,0.221,0.86,0.392v-2.735l1.759-0.296v9.285
		h-1.733v-0.552C152.224,191.623,151.59,191.838,150.871,191.838z M151.154,190.336c0.324,0,0.622-0.055,0.891-0.162
		c0.271-0.105,0.503-0.267,0.701-0.48v-2.607c-0.198-0.196-0.433-0.351-0.707-0.461c-0.274-0.113-0.57-0.168-0.885-0.168
		c-0.369,0-0.701,0.083-0.996,0.25c-0.296,0.168-0.528,0.398-0.701,0.693c-0.171,0.296-0.256,0.628-0.256,0.995
		c0,0.369,0.085,0.698,0.256,0.989c0.173,0.291,0.405,0.522,0.701,0.693C150.453,190.25,150.785,190.336,151.154,190.336z"/>
	<path fill="#1D1D1B" d="M156.364,191.748v-1.245l3.364-3.969h-3.339v-1.478h5.587v1.247l-3.365,3.967h3.455v1.478H156.364z"/>
	<path fill="#1D1D1B" d="M164.792,184.262c-0.274,0-0.511-0.1-0.707-0.296s-0.295-0.433-0.295-0.707c0-0.282,0.099-0.52,0.295-0.713
		c0.196-0.191,0.433-0.288,0.707-0.288c0.282,0,0.52,0.097,0.713,0.288c0.191,0.193,0.288,0.431,0.288,0.713
		c0,0.274-0.097,0.511-0.288,0.707C165.312,184.162,165.074,184.262,164.792,184.262z M163.918,191.748v-6.691h1.76v6.691H163.918z"
		/>
	<path fill="#1D1D1B" d="M171.105,191.876c-0.669,0-1.274-0.153-1.817-0.463c-0.544-0.308-0.975-0.723-1.291-1.245
		c-0.317-0.522-0.476-1.108-0.476-1.759s0.152-1.237,0.456-1.759c0.305-0.522,0.718-0.938,1.239-1.246
		c0.522-0.309,1.104-0.463,1.747-0.463c0.642,0,1.211,0.158,1.708,0.476c0.496,0.316,0.887,0.745,1.175,1.284
		c0.286,0.54,0.43,1.151,0.43,1.836V189h-4.956c0.076,0.265,0.203,0.506,0.379,0.719c0.176,0.214,0.393,0.381,0.654,0.501
		c0.261,0.119,0.542,0.179,0.842,0.179c0.298,0,0.575-0.046,0.828-0.14c0.251-0.095,0.469-0.228,0.648-0.398l1.155,1.053
		c-0.411,0.334-0.832,0.578-1.265,0.732C172.131,191.799,171.645,191.876,171.105,191.876z M169.294,187.741h3.249
		c-0.061-0.266-0.168-0.499-0.327-0.7c-0.158-0.2-0.347-0.359-0.564-0.475c-0.219-0.115-0.461-0.174-0.727-0.174
		c-0.273,0-0.522,0.057-0.745,0.167c-0.222,0.111-0.408,0.268-0.559,0.469C169.472,187.23,169.362,187.467,169.294,187.741z"/>
	<path fill="#1D1D1B" d="M175.665,194.496c-0.163,0-0.33-0.012-0.502-0.032c-0.171-0.022-0.308-0.049-0.41-0.083v-1.349
		c0.153,0.034,0.342,0.051,0.565,0.051c0.257,0,0.447-0.054,0.571-0.159c0.123-0.107,0.187-0.281,0.187-0.521v-7.347h1.759v7.449
		c0,0.634-0.189,1.123-0.565,1.47C176.893,194.322,176.358,194.496,175.665,194.496z M176.949,184.262
		c-0.275,0-0.51-0.1-0.707-0.296c-0.196-0.196-0.296-0.433-0.296-0.707c0-0.282,0.1-0.52,0.296-0.713
		c0.197-0.191,0.432-0.288,0.707-0.288c0.281,0,0.52,0.097,0.713,0.288c0.191,0.193,0.289,0.431,0.289,0.713
		c0,0.274-0.098,0.511-0.289,0.707C177.469,184.162,177.23,184.262,176.949,184.262z"/>
	<path fill="#1D1D1B" d="M182.591,191.876c-0.616,0-1.186-0.079-1.708-0.237s-0.977-0.388-1.362-0.687l0.874-1.17
		c0.386,0.258,0.756,0.45,1.111,0.579c0.355,0.128,0.708,0.192,1.06,0.192c0.393,0,0.708-0.067,0.943-0.198
		c0.235-0.134,0.353-0.307,0.353-0.521c0-0.172-0.065-0.309-0.197-0.411c-0.135-0.103-0.346-0.176-0.638-0.219l-1.284-0.193
		c-0.666-0.102-1.172-0.318-1.514-0.647c-0.344-0.33-0.515-0.765-0.515-1.304c0-0.436,0.114-0.811,0.342-1.123
		c0.226-0.313,0.547-0.557,0.962-0.732s0.91-0.264,1.484-0.264c0.487,0,0.964,0.069,1.431,0.206
		c0.466,0.137,0.905,0.347,1.315,0.629l-0.847,1.144c-0.369-0.232-0.719-0.399-1.053-0.502s-0.672-0.153-1.016-0.153
		c-0.315,0-0.571,0.06-0.764,0.179c-0.191,0.121-0.288,0.279-0.288,0.477c0,0.18,0.068,0.321,0.205,0.424s0.373,0.174,0.707,0.219
		l1.271,0.191c0.669,0.095,1.177,0.307,1.528,0.636s0.527,0.756,0.527,1.278c0,0.428-0.13,0.807-0.386,1.137
		c-0.257,0.329-0.604,0.59-1.04,0.783C183.656,191.779,183.156,191.876,182.591,191.876z"/>
	<path fill="#1D1D1B" d="M187.263,191.748v-8.989l1.76-0.296v5.406l2.889-2.813h1.991l-3.159,3.069l3.351,3.622h-2.246l-2.825-3.057
		v3.057H187.263z"/>
	<path fill="#1D1D1B" d="M196.301,184.262c-0.274,0-0.511-0.1-0.707-0.296s-0.295-0.433-0.295-0.707c0-0.282,0.099-0.52,0.295-0.713
		c0.196-0.191,0.433-0.288,0.707-0.288c0.282,0,0.52,0.097,0.713,0.288c0.191,0.193,0.288,0.431,0.288,0.713
		c0,0.274-0.097,0.511-0.288,0.707C196.82,184.162,196.583,184.262,196.301,184.262z M195.427,191.748v-6.691h1.76v6.691H195.427z"
		/>
	<path fill="#1D1D1B" d="M202.614,191.876c-0.668,0-1.273-0.153-1.816-0.463c-0.545-0.308-0.975-0.723-1.292-1.245
		c-0.315-0.522-0.475-1.108-0.475-1.759s0.152-1.237,0.455-1.759c0.306-0.522,0.718-0.938,1.24-1.246s1.104-0.463,1.746-0.463
		c0.642,0,1.212,0.158,1.709,0.476c0.495,0.316,0.888,0.745,1.174,1.284c0.287,0.54,0.43,1.151,0.43,1.836V189h-4.956
		c0.077,0.265,0.203,0.506,0.379,0.719c0.176,0.214,0.393,0.381,0.654,0.501c0.261,0.119,0.542,0.179,0.842,0.179
		s0.576-0.046,0.828-0.14c0.253-0.095,0.469-0.228,0.649-0.398l1.154,1.053c-0.41,0.334-0.832,0.578-1.265,0.732
		C203.64,191.799,203.153,191.876,202.614,191.876z M200.804,187.741h3.248c-0.06-0.266-0.168-0.499-0.327-0.7
		c-0.158-0.2-0.347-0.359-0.563-0.475c-0.22-0.115-0.462-0.174-0.727-0.174c-0.274,0-0.522,0.057-0.746,0.167
		c-0.222,0.111-0.407,0.268-0.558,0.469C200.98,187.23,200.872,187.467,200.804,187.741z"/>
	<path fill="#1D1D1B" d="M210.963,194.496c-0.515,0-1.011-0.055-1.491-0.16c-0.479-0.107-0.91-0.259-1.296-0.457l0.616-1.361
		c0.367,0.18,0.728,0.313,1.078,0.398c0.352,0.086,0.703,0.129,1.054,0.129c0.522,0,0.919-0.111,1.188-0.334
		c0.271-0.223,0.405-0.557,0.405-1.002v-0.526c-0.548,0.403-1.16,0.604-1.836,0.604c-0.635,0-1.206-0.152-1.715-0.457
		c-0.51-0.304-0.917-0.717-1.22-1.238c-0.306-0.523-0.457-1.101-0.457-1.734c0-0.633,0.151-1.207,0.457-1.721
		c0.303-0.514,0.717-0.923,1.237-1.227c0.522-0.303,1.106-0.455,1.748-0.455c0.325,0,0.643,0.047,0.95,0.141
		c0.308,0.095,0.596,0.228,0.86,0.398v-0.438h1.733v6.678c0,0.883-0.284,1.563-0.854,2.042S212.033,194.496,210.963,194.496z
		 M210.949,190.297c0.324,0,0.62-0.053,0.886-0.16c0.267-0.107,0.493-0.259,0.682-0.457v-2.619
		c-0.188-0.188-0.418-0.336-0.688-0.443c-0.27-0.106-0.558-0.16-0.866-0.16c-0.369,0-0.698,0.083-0.989,0.25
		c-0.292,0.168-0.522,0.395-0.694,0.681c-0.171,0.288-0.257,0.61-0.257,0.97c0,0.368,0.083,0.697,0.252,0.989
		c0.166,0.29,0.397,0.522,0.693,0.693C210.263,190.211,210.59,190.297,210.949,190.297z"/>
	<path fill="#1D1D1B" d="M219.704,191.876c-0.669,0-1.272-0.153-1.812-0.463c-0.54-0.308-0.967-0.723-1.284-1.245
		c-0.316-0.522-0.475-1.108-0.475-1.759s0.156-1.239,0.469-1.767c0.313-0.525,0.74-0.943,1.284-1.251
		c0.543-0.309,1.148-0.463,1.817-0.463c0.666,0,1.273,0.154,1.816,0.463c0.544,0.308,0.972,0.726,1.284,1.251
		c0.313,0.527,0.469,1.116,0.469,1.767s-0.156,1.236-0.469,1.759s-0.737,0.938-1.277,1.245
		C220.988,191.723,220.38,191.876,219.704,191.876z M219.704,190.348c0.351,0,0.665-0.086,0.943-0.256
		c0.277-0.172,0.501-0.404,0.668-0.7c0.166-0.295,0.25-0.624,0.25-0.982c0-0.368-0.084-0.698-0.25-0.989
		c-0.167-0.291-0.391-0.524-0.668-0.7c-0.278-0.175-0.593-0.263-0.943-0.263c-0.343,0-0.655,0.088-0.938,0.263
		c-0.283,0.176-0.506,0.409-0.669,0.7c-0.161,0.291-0.243,0.621-0.243,0.989c0,0.358,0.082,0.688,0.243,0.982
		c0.163,0.296,0.386,0.528,0.669,0.7C219.049,190.262,219.361,190.348,219.704,190.348z"/>
</g>
</svg>
