<?xml version="1.0" encoding="utf-8"?>
<!-- Generator: Adobe Illustrator 16.0.0, SVG Export Plug-In . SVG Version: 6.00 Build 0)  -->
<!DOCTYPE svg PUBLIC "-//W3C//DTD SVG 1.1//EN" "http://www.w3.org/Graphics/SVG/1.1/DTD/svg11.dtd">
<svg version="1.1" id="Layer_1" xmlns="http://www.w3.org/2000/svg" xmlns:xlink="http://www.w3.org/1999/xlink" x="0px" y="0px"
	 width="480px" height="640px" viewBox="0 0 480 640" enable-background="new 0 0 480 640" xml:space="preserve">
<g>
	<path fill="#E3CDB8" d="M239.881,315.505c-12.092,0-21.889,9.798-21.889,21.889c0,12.09,9.797,21.888,21.889,21.888
		c12.089,0,21.892-9.798,21.892-21.888C261.772,325.303,251.97,315.505,239.881,315.505z"/>
	<path fill="#E3CDB8" d="M361.025,77.321c-16.955-24.634-41.214-43.863-69.666-54.514l-7.831,14.169l-11.686,21.145l-10.617,19.2
		l-14.048,25.418c7.173,0.804,13.828,2.876,19.964,6.223c6.138,3.35,11.482,7.573,16.027,12.675
		c4.546,5.106,8.125,10.958,10.76,17.574c2.632,6.614,3.945,13.592,3.945,20.923c0,7.979-1.516,15.512-4.543,22.604
		c-3.031,7.093-7.176,13.274-12.438,18.532c-5.256,5.264-11.397,9.415-18.412,12.441c-7.019,3.025-14.511,4.538-22.478,4.538
		c-7.977,0-15.466-1.513-22.485-4.538c-7.013-3.026-13.151-7.178-18.41-12.441c-5.262-5.258-9.448-11.397-12.556-18.415
		c-3.105-7.012-4.662-14.507-4.662-22.478v-0.243c0-7.809,1.471-14.825,4.423-21.04c2.952-6.219,6.256-12.592,9.928-19.131
		l23.591-42.642l10.625-19.2l11.697-21.145l12.58-22.725c-4.923-0.5-9.906-0.757-14.955-0.757c-0.042,0-0.08,0.01-0.118,0.01v-0.01
		H93.11v63.826v406.843h146.55v-0.009c0.038,0,0.076,0.009,0.118,0.009c81.244,0,147.111-65.872,147.111-147.113
		c0-33.102-10.938-63.642-29.39-88.223c18.451-24.576,29.39-55.118,29.39-88.219C386.89,129.688,377.329,101.005,361.025,77.321z
		 M239.881,395.377c-32.021,0-57.982-25.963-57.982-57.983c0-32.025,25.961-57.983,57.982-57.983
		c32.028,0,57.979,25.958,57.979,57.983C297.86,369.414,271.909,395.377,239.881,395.377z"/>
	<path fill="#E3CDB8" d="M224.369,144.71c-2.001,1.995-3.569,4.304-4.685,6.939c-1.126,2.626-1.686,5.463-1.686,8.484v0.243
		c0,6.059,2.122,11.16,6.37,15.303c4.254,4.153,9.42,6.223,15.512,6.223c6.095,0,11.259-2.112,15.508-6.336
		c4.249-4.229,6.375-9.368,6.375-15.433c0-6.054-2.126-11.194-6.375-15.424c-4.249-4.218-9.413-6.334-15.508-6.334
		c-3.048,0-5.894,0.564-8.536,1.672C228.699,141.164,226.372,142.72,224.369,144.71z"/>
	<path fill="#E3CDB8" d="M101.478,566.479c0.809-0.58,1.802-0.873,2.985-0.873c0.871,0,1.645,0.123,2.316,0.358
		c0.675,0.239,1.311,0.62,1.911,1.137l2.773-3.424c-0.771-0.722-1.759-1.299-2.972-1.725c-1.215-0.425-2.434-0.636-3.656-0.636
		c-2.114,0-3.965,0.48-5.555,1.447c-1.584,0.963-2.816,2.313-3.696,4.041c-0.883,1.73-1.325,3.758-1.325,6.08
		c0,2.178,0.397,4.079,1.198,5.709c0.799,1.626,1.917,2.896,3.357,3.808c1.443,0.912,3.115,1.368,5.024,1.368
		c1.555,0,2.939-0.316,4.154-0.948c1.21-0.633,2.165-1.493,2.859-2.583c0.696-1.086,1.042-2.313,1.042-3.683
		c0-1.287-0.313-2.428-0.935-3.42c-0.622-0.999-1.481-1.772-2.579-2.336c-1.103-0.559-2.365-0.839-3.794-0.839
		c-1.081,0-2.106,0.271-3.077,0.808c-0.978,0.541-1.807,1.299-2.491,2.271c0-1.593,0.206-2.939,0.621-4.042
		C100.057,567.901,100.667,567.06,101.478,566.479z M101.305,574.189c0.758-0.329,1.58-0.495,2.474-0.495
		c0.685,0,1.278,0.125,1.789,0.374c0.508,0.25,0.905,0.594,1.197,1.044c0.289,0.442,0.435,0.959,0.435,1.538
		c0,0.58-0.163,1.1-0.481,1.553c-0.322,0.458-0.753,0.816-1.293,1.074c-0.536,0.261-1.148,0.389-1.833,0.389
		c-0.682,0-1.316-0.166-1.896-0.495c-0.583-0.332-1.075-0.808-1.478-1.417c-0.405-0.612-0.711-1.335-0.92-2.159
		C99.88,574.989,100.549,574.526,101.305,574.189z"/>
	<path fill="#E3CDB8" d="M127.903,583.771c1.971,0,3.697-0.465,5.18-1.396c1.48-0.935,2.634-2.246,3.454-3.935
		c0.816-1.69,1.227-3.657,1.227-5.896c0-2.262-0.41-4.229-1.227-5.91c-0.82-1.68-1.974-2.985-3.454-3.919
		c-1.482-0.933-3.209-1.398-5.18-1.398c-1.969,0-3.695,0.466-5.177,1.398c-1.482,0.934-2.633,2.239-3.451,3.919
		c-0.82,1.681-1.227,3.648-1.227,5.91c0,2.238,0.406,4.205,1.227,5.896c0.818,1.688,1.969,3,3.451,3.935
		C124.208,583.306,125.935,583.771,127.903,583.771z M123.567,568.859c0.404-1.026,0.974-1.814,1.708-2.364
		c0.736-0.549,1.611-0.824,2.628-0.824c1.019,0,1.893,0.275,2.631,0.824c0.732,0.55,1.307,1.338,1.709,2.364
		c0.406,1.028,0.604,2.254,0.604,3.686c0,1.41-0.198,2.634-0.604,3.672c-0.402,1.035-0.977,1.828-1.709,2.378
		c-0.738,0.547-1.612,0.822-2.631,0.822c-1.017,0-1.892-0.275-2.628-0.822c-0.734-0.55-1.304-1.343-1.708-2.378
		c-0.404-1.038-0.608-2.262-0.608-3.672C122.959,571.113,123.163,569.888,123.567,568.859z"/>
	<polygon fill="#E3CDB8" points="160.002,561.657 154.651,561.657 154.651,583.429 171.479,583.429 171.479,578.703 
		160.002,578.703 	"/>
	<path fill="#E3CDB8" d="M195.08,583.429h5.786l-8.8-21.771h-6.129l-8.926,21.771h5.568l2.019-5.254h8.497L195.08,583.429z
		 M186.22,573.914l2.674-6.968l2.612,6.968H186.22z"/>
	<polygon fill="#E3CDB8" points="215.194,583.429 215.194,566.388 222.314,566.388 222.314,561.657 202.721,561.657 
		202.721,566.388 209.846,566.388 209.846,583.429 	"/>
	<path fill="#E3CDB8" d="M111.909,607.596c-1.046-0.996-2.263-1.771-3.65-2.334c-1.392-0.559-2.894-0.838-4.513-0.838h-8.834v21.769
		h8.834c1.619,0,3.121-0.28,4.513-0.837c1.388-0.56,2.604-1.335,3.65-2.316c1.051-0.985,1.867-2.13,2.457-3.439
		c0.595-1.305,0.888-2.714,0.888-4.229c0-1.536-0.293-2.965-0.888-4.292C113.776,609.751,112.96,608.591,111.909,607.596z
		 M109.25,617.749c-0.31,0.737-0.744,1.387-1.304,1.948c-0.561,0.557-1.209,0.991-1.945,1.305c-0.736,0.31-1.528,0.467-2.377,0.467
		h-3.361v-12.317h3.361c0.849,0,1.641,0.16,2.377,0.48c0.736,0.323,1.385,0.765,1.945,1.324c0.56,0.56,0.994,1.216,1.304,1.972
		c0.313,0.76,0.469,1.571,0.469,2.443C109.719,616.222,109.563,617.016,109.25,617.749z"/>
	<path fill="#E3CDB8" d="M139.322,607.596c-1.05-0.996-2.265-1.771-3.658-2.334c-1.388-0.559-2.891-0.838-4.506-0.838h-8.836v21.769
		h8.836c1.615,0,3.118-0.28,4.506-0.837c1.394-0.56,2.608-1.335,3.658-2.316c1.045-0.985,1.863-2.13,2.455-3.439
		c0.592-1.305,0.886-2.714,0.886-4.229c0-1.536-0.294-2.965-0.886-4.292C141.186,609.751,140.367,608.591,139.322,607.596z
		 M136.661,617.749c-0.313,0.737-0.746,1.387-1.307,1.948c-0.558,0.557-1.209,0.991-1.943,1.305
		c-0.738,0.31-1.528,0.467-2.381,0.467h-3.356v-12.317h3.356c0.853,0,1.643,0.16,2.381,0.48c0.734,0.323,1.386,0.765,1.943,1.324
		c0.561,0.56,0.994,1.216,1.307,1.972c0.311,0.76,0.466,1.571,0.466,2.443C137.127,616.222,136.972,617.016,136.661,617.749z"/>
	<path fill="#E3CDB8" d="M155.372,604.424l-8.931,21.769h5.568l2.023-5.252h8.489l1.991,5.252h5.785l-8.801-21.769H155.372z
		 M155.65,616.68l2.675-6.968l2.611,6.968H155.65z"/>
	<path fill="#E3CDB8" d="M201.898,615.026c0.765-0.537,1.376-1.193,1.819-1.972c0.444-0.777,0.67-1.612,0.67-2.501
		c0-1.205-0.324-2.268-0.964-3.189c-0.645-0.924-1.533-1.646-2.661-2.161c-1.129-0.519-2.441-0.779-3.932-0.779h-10.795v21.769
		h11.322c1.535,0,2.882-0.269,4.042-0.807c1.163-0.539,2.064-1.291,2.706-2.258c0.642-0.96,0.964-2.073,0.964-3.34
		c0-0.994-0.284-1.908-0.853-2.738C203.644,616.222,202.874,615.548,201.898,615.026z M191.386,608.808h5.102
		c0.787,0,1.407,0.193,1.864,0.578c0.454,0.382,0.686,0.906,0.686,1.57c0,0.641-0.231,1.159-0.686,1.557
		c-0.457,0.392-1.077,0.592-1.864,0.592h-5.102V608.808z M198.929,621.185c-0.485,0.42-1.146,0.624-1.977,0.624h-5.566v-4.602h5.566
		c0.831,0,1.491,0.21,1.977,0.622c0.489,0.415,0.73,0.973,0.73,1.681C199.659,620.213,199.418,620.772,198.929,621.185z"/>
	<polygon fill="#E3CDB8" points="217.7,617.454 225.506,617.454 225.506,612.979 217.7,612.979 217.7,609.058 229.518,609.058 
		229.518,604.424 212.35,604.424 212.35,626.192 229.642,626.192 229.642,621.563 217.7,621.563 	"/>
	<path fill="#E3CDB8" d="M242.741,610.796c0.559-0.555,1.219-0.994,1.978-1.321c0.756-0.319,1.568-0.478,2.438-0.478
		c1.099,0,2.121,0.236,3.063,0.715c0.944,0.475,1.798,1.2,2.567,2.179l3.605-3.549c-0.662-0.868-1.486-1.618-2.471-2.254
		c-0.984-0.632-2.061-1.123-3.22-1.478c-1.161-0.352-2.345-0.526-3.546-0.526c-1.639,0-3.168,0.281-4.588,0.854
		c-1.418,0.57-2.661,1.363-3.731,2.379c-1.066,1.013-1.898,2.205-2.487,3.563c-0.591,1.356-0.886,2.834-0.886,4.43
		c0,1.576,0.295,3.043,0.886,4.398c0.589,1.359,1.415,2.551,2.469,3.563c1.062,1.016,2.3,1.81,3.72,2.379
		c1.421,0.57,2.96,0.854,4.618,0.854c1.163,0,2.313-0.173,3.454-0.51c1.141-0.345,2.194-0.831,3.172-1.462
		c0.974-0.631,1.792-1.377,2.457-2.228l-3.514-3.45c-0.729,0.89-1.54,1.563-2.441,2.021c-0.9,0.455-1.884,0.687-2.939,0.687
		c-0.911,0-1.757-0.154-2.536-0.466c-0.777-0.312-1.452-0.754-2.02-1.324c-0.571-0.569-1.019-1.232-1.339-1.992
		c-0.322-0.756-0.482-1.578-0.482-2.471c0-0.91,0.154-1.753,0.467-2.518C241.745,612.022,242.182,611.359,242.741,610.796z"/>
	<polygon fill="#E3CDB8" points="280.078,608.031 280.078,604.424 261.946,604.424 261.946,609.058 273.112,609.058 
		261.853,622.589 261.853,626.192 280.171,626.192 280.171,621.563 268.85,621.563 	"/>
	<polygon fill="#E3CDB8" points="307.731,604.424 301.264,604.424 292.461,613.941 292.461,604.424 287.11,604.424 287.11,626.192 
		292.461,626.192 292.461,616.212 301.202,626.192 308.294,626.192 297.654,614.655 	"/>
	<path fill="#E3CDB8" d="M321.994,604.424l-8.927,21.769h5.568l2.021-5.252h8.492l1.986,5.252h5.787l-8.802-21.769H321.994z
		 M322.276,616.68l2.673-6.968l2.613,6.968H322.276z"/>
</g>
</svg>
