<?xml version="1.0" encoding="utf-8"?>
<!-- Generator: Adobe Illustrator 16.0.0, SVG Export Plug-In . SVG Version: 6.00 Build 0)  -->
<!DOCTYPE svg PUBLIC "-//W3C//DTD SVG 1.1//EN" "http://www.w3.org/Graphics/SVG/1.1/DTD/svg11.dtd">
<svg version="1.1" id="Layer_1" xmlns="http://www.w3.org/2000/svg" xmlns:xlink="http://www.w3.org/1999/xlink" x="0px" y="0px"
	 width="480px" height="640px" viewBox="0 0 480 640" enable-background="new 0 0 480 640" xml:space="preserve">
<g>
	<g>
		<path d="M239.881,315.506c-12.094,0-21.888,9.795-21.888,21.888c0,12.087,9.793,21.888,21.888,21.888
			c12.09,0,21.887-9.801,21.887-21.888C261.769,325.301,251.971,315.506,239.881,315.506z"/>
		<path d="M239.659,484.155c0.041,0,0.076,0.003,0.121,0.003c81.245,0,147.109-65.865,147.109-147.11
			c0-33.102-10.939-63.644-29.388-88.22c18.449-24.58,29.388-55.121,29.388-88.222c0-30.92-9.558-59.603-25.862-83.285
			c-16.958-24.637-41.215-43.866-69.667-54.519l-7.834,14.171l-11.681,21.145l-10.619,19.203l-14.046,25.416
			c7.17,0.803,13.827,2.871,19.963,6.222c6.138,3.35,11.48,7.574,16.024,12.675c4.548,5.105,8.129,10.959,10.76,17.574
			c2.632,6.617,3.947,13.592,3.947,20.925c0,7.978-1.514,15.51-4.541,22.602c-3.033,7.091-7.177,13.271-12.439,18.538
			c-5.258,5.258-11.398,9.409-18.413,12.438c-7.019,3.022-14.514,4.535-22.478,4.535c-7.978,0-15.466-1.513-22.481-4.535
			c-7.019-3.029-13.154-7.181-18.413-12.438c-5.267-5.267-9.449-11.398-12.556-18.421c-3.107-7.009-4.664-14.507-4.664-22.478
			v-0.241c0-7.81,1.474-14.831,4.425-21.043c2.953-6.218,6.256-12.593,9.927-19.131l23.589-42.638l10.625-19.203l11.697-21.145
			l12.583-22.727c-4.923-0.498-9.91-0.751-14.955-0.751c-0.045,0-0.08,0.006-0.121,0.006v-0.006H93.111v63.825v406.837h146.548
			V484.155z M221.026,465.529H111.743V77.321V32.124l111.796,0.004l-25.002,45.193l-18.6,33.619
			c-3.792,6.758-7.331,13.576-10.455,20.162c-4.128,8.692-6.225,18.461-6.225,29.03v0.241c0,10.557,2.108,20.661,6.263,30.029
			c4.021,9.077,9.543,17.172,16.411,24.042c6.911,6.912,15.057,12.416,24.209,16.37c9.321,4.023,19.366,6.059,29.862,6.059
			c10.49,0,20.538-2.035,29.862-6.059c9.149-3.954,17.294-9.458,24.208-16.37c6.923-6.927,12.439-15.134,16.394-24.392
			c4.007-9.394,6.042-19.46,6.042-29.921c0-9.667-1.771-19.026-5.265-27.807c-3.42-8.607-8.19-16.375-14.164-23.081
			c-5.949-6.686-13.021-12.284-21.017-16.645c-0.512-0.276-1.026-0.553-1.543-0.82l8-14.459l16.879-30.541
			c14.682,7.72,27.541,18.168,38.058,30.541c19.394,22.818,30.801,52.206,30.801,83.285c0,28.034-8.87,54.673-25.654,77.033
			l-8.396,11.188l8.396,11.186c16.784,22.36,25.654,48.999,25.654,77.034c0,70.575-57.191,128.039-127.659,128.481l-19.572-0.011
			V465.529z"/>
		<path d="M316.494,337.394c0-42.241-34.369-76.614-76.612-76.614c-42.248,0-76.616,34.373-76.616,76.614
			c0,42.24,34.368,76.612,76.616,76.612C282.125,414.006,316.494,379.634,316.494,337.394z M239.881,395.373
			c-32.024,0-57.983-25.962-57.983-57.979c0-32.027,25.958-57.983,57.983-57.983c32.027,0,57.979,25.956,57.979,57.983
			C297.861,369.411,271.909,395.373,239.881,395.373z"/>
		<path d="M224.371,144.708c-2.004,1.997-3.569,4.303-4.688,6.938c-1.124,2.631-1.686,5.463-1.686,8.486v0.241
			c0,6.057,2.124,11.163,6.374,15.308c4.249,4.146,9.416,6.218,15.51,6.218c6.091,0,11.261-2.112,15.51-6.336
			c4.246-4.228,6.374-9.368,6.374-15.431c0-6.053-2.128-11.194-6.374-15.425c-4.249-4.218-9.419-6.336-15.51-6.336
			c-3.049,0-5.891,0.565-8.537,1.674C228.7,141.163,226.374,142.72,224.371,144.708z"/>
		<path d="M98.814,582.402c1.445,0.911,3.119,1.368,5.024,1.368c1.556,0,2.94-0.319,4.153-0.948
			c1.213-0.633,2.166-1.492,2.862-2.578c0.695-1.091,1.042-2.322,1.042-3.688c0-1.286-0.312-2.426-0.934-3.421
			c-0.62-0.996-1.484-1.775-2.579-2.337c-1.102-0.559-2.366-0.838-3.795-0.838c-1.08,0-2.105,0.27-3.08,0.809
			c-0.975,0.54-1.804,1.296-2.49,2.268c0-1.594,0.209-2.939,0.626-4.038c0.412-1.099,1.021-1.941,1.832-2.52
			c0.807-0.58,1.804-0.87,2.989-0.87c0.87,0,1.642,0.118,2.314,0.355c0.677,0.241,1.309,0.617,1.912,1.138l2.769-3.425
			c-0.769-0.724-1.756-1.301-2.969-1.724c-1.213-0.425-2.433-0.639-3.656-0.639c-2.114,0-3.962,0.483-5.551,1.448
			c-1.584,0.963-2.819,2.309-3.703,4.04c-0.879,1.734-1.32,3.757-1.32,6.081c0,2.18,0.399,4.082,1.196,5.711
			C96.254,580.222,97.375,581.492,98.814,582.402z M101.304,574.19c0.756-0.331,1.582-0.495,2.475-0.495
			c0.686,0,1.279,0.123,1.788,0.371c0.508,0.248,0.905,0.597,1.198,1.042c0.288,0.447,0.435,0.959,0.435,1.544
			c0,0.577-0.159,1.095-0.483,1.548c-0.317,0.462-0.75,0.817-1.289,1.074c-0.541,0.264-1.149,0.391-1.836,0.391
			c-0.683,0-1.314-0.164-1.896-0.497c-0.58-0.331-1.073-0.801-1.476-1.415c-0.407-0.612-0.711-1.333-0.917-2.163
			C99.878,574.988,100.548,574.524,101.304,574.19z"/>
		<path d="M127.904,583.771c1.972,0,3.696-0.466,5.176-1.399c1.483-0.933,2.636-2.245,3.455-3.935
			c0.817-1.689,1.229-3.652,1.229-5.895c0-2.261-0.413-4.227-1.229-5.907c-0.819-1.68-1.972-2.987-3.455-3.921
			c-1.48-0.936-3.204-1.398-5.176-1.398c-1.973,0-3.698,0.463-5.18,1.398c-1.48,0.934-2.632,2.241-3.451,3.921
			c-0.82,1.681-1.227,3.646-1.227,5.907c0,2.242,0.407,4.205,1.227,5.895c0.819,1.689,1.971,3.002,3.451,3.935
			C124.207,583.305,125.932,583.771,127.904,583.771z M123.566,568.858c0.403-1.029,0.975-1.813,1.712-2.363
			c0.733-0.553,1.609-0.825,2.626-0.825c1.016,0,1.893,0.272,2.63,0.825c0.732,0.55,1.305,1.334,1.708,2.363
			c0.407,1.025,0.606,2.254,0.606,3.684c0,1.41-0.2,2.636-0.606,3.674c-0.402,1.036-0.975,1.83-1.708,2.38
			c-0.737,0.546-1.614,0.819-2.63,0.819c-1.017,0-1.893-0.273-2.626-0.819c-0.737-0.55-1.31-1.344-1.712-2.38
			c-0.403-1.038-0.606-2.264-0.606-3.674C122.959,571.112,123.163,569.884,123.566,568.858z"/>
		<polygon points="171.478,578.7 160.001,578.7 160.001,561.656 154.65,561.656 154.65,583.428 171.478,583.428 		"/>
		<path d="M195.081,583.428h5.787l-8.804-21.771h-6.122l-8.93,21.771h5.567l2.023-5.256h8.491L195.081,583.428z M186.217,573.911
			l2.674-6.968l2.614,6.968H186.217z"/>
		<polygon points="215.196,583.428 215.196,566.385 222.316,566.385 222.316,561.656 202.722,561.656 202.722,566.385 
			209.845,566.385 209.845,583.428 		"/>
		<path d="M111.912,623.038c1.047-0.985,1.863-2.133,2.454-3.438c0.594-1.309,0.889-2.715,0.889-4.23
			c0-1.534-0.295-2.967-0.889-4.294c-0.591-1.328-1.407-2.486-2.454-3.484c-1.049-0.992-2.265-1.771-3.656-2.329
			c-1.391-0.56-2.892-0.84-4.51-0.84h-8.832v21.771h8.832c1.618,0,3.119-0.283,4.51-0.843
			C109.647,624.793,110.863,624.021,111.912,623.038z M106,621.002c-0.737,0.308-1.527,0.463-2.378,0.463h-3.36v-12.316h3.36
			c0.851,0,1.642,0.163,2.378,0.483c0.737,0.323,1.385,0.759,1.944,1.325c0.562,0.559,0.994,1.216,1.309,1.975
			c0.311,0.756,0.463,1.569,0.463,2.438c0,0.852-0.153,1.642-0.463,2.379c-0.315,0.736-0.747,1.385-1.309,1.944
			C107.385,620.251,106.738,620.689,106,621.002z"/>
		<path d="M135.666,625.352c1.391-0.559,2.607-1.33,3.655-2.313c1.048-0.985,1.864-2.133,2.455-3.438
			c0.594-1.309,0.886-2.715,0.886-4.23c0-1.534-0.292-2.967-0.886-4.294c-0.59-1.328-1.407-2.486-2.455-3.484
			c-1.048-0.992-2.265-1.771-3.655-2.329c-1.388-0.56-2.893-0.84-4.51-0.84h-8.834v21.771h8.834
			C132.773,626.194,134.278,625.911,135.666,625.352z M127.672,621.465v-12.316h3.36c0.85,0,1.642,0.163,2.379,0.483
			c0.735,0.323,1.384,0.759,1.942,1.325c0.559,0.559,0.994,1.216,1.306,1.975c0.312,0.756,0.466,1.569,0.466,2.438
			c0,0.852-0.155,1.642-0.466,2.379c-0.312,0.736-0.747,1.385-1.306,1.944c-0.559,0.558-1.207,0.996-1.942,1.309
			c-0.737,0.308-1.529,0.463-2.379,0.463H127.672z"/>
		<path d="M146.444,626.194h5.567l2.019-5.257h8.493l1.988,5.257h5.789l-8.803-21.771h-6.125L146.444,626.194z M158.325,609.708
			l2.61,6.971h-5.285L158.325,609.708z"/>
		<path d="M201.4,625.387c1.162-0.539,2.064-1.292,2.706-2.259c0.645-0.964,0.962-2.073,0.962-3.343
			c0-0.998-0.283-1.906-0.851-2.735c-0.572-0.828-1.346-1.502-2.318-2.019c0.765-0.541,1.372-1.201,1.819-1.976
			c0.445-0.779,0.667-1.613,0.667-2.507c0-1.203-0.321-2.263-0.961-3.188c-0.646-0.925-1.531-1.642-2.663-2.16
			c-1.127-0.521-2.442-0.778-3.931-0.778h-10.794v21.771h11.321C198.891,626.194,200.238,625.927,201.4,625.387z M191.387,608.806
			h5.101c0.784,0,1.409,0.191,1.864,0.578c0.458,0.382,0.686,0.905,0.686,1.573c0,0.641-0.228,1.158-0.686,1.552
			c-0.455,0.395-1.08,0.592-1.864,0.592h-5.101V608.806z M191.387,621.808v-4.602h5.567c0.829,0,1.486,0.206,1.972,0.62
			c0.49,0.418,0.735,0.977,0.735,1.679c0,0.705-0.245,1.271-0.735,1.683c-0.485,0.413-1.143,0.62-1.972,0.62H191.387z"/>
		<polygon points="229.643,621.563 217.698,621.563 217.698,617.454 225.508,617.454 225.508,612.976 217.698,612.976 
			217.698,609.058 229.519,609.058 229.519,604.423 212.348,604.423 212.348,626.194 229.643,626.194 		"/>
		<path d="M242.742,610.798c0.559-0.56,1.216-0.997,1.976-1.321c0.756-0.32,1.569-0.483,2.439-0.483
			c1.102,0,2.121,0.241,3.064,0.715c0.943,0.479,1.797,1.204,2.565,2.179l3.608-3.544c-0.664-0.87-1.489-1.623-2.471-2.255
			c-0.984-0.636-2.061-1.128-3.221-1.481c-1.161-0.348-2.344-0.526-3.546-0.526c-1.64,0-3.167,0.283-4.586,0.855
			c-1.423,0.574-2.665,1.362-3.735,2.381c-1.066,1.014-1.896,2.202-2.487,3.563c-0.59,1.353-0.886,2.833-0.886,4.43
			c0,1.576,0.295,3.04,0.886,4.399c0.591,1.358,1.417,2.547,2.471,3.563c1.058,1.017,2.299,1.808,3.719,2.38
			c1.419,0.567,2.959,0.853,4.618,0.853c1.162,0,2.312-0.171,3.455-0.51c1.137-0.343,2.195-0.83,3.173-1.465
			c0.972-0.632,1.792-1.376,2.455-2.224l-3.516-3.454c-0.724,0.895-1.541,1.568-2.438,2.022c-0.903,0.455-1.883,0.689-2.94,0.689
			c-0.913,0-1.756-0.16-2.535-0.47c-0.779-0.309-1.454-0.75-2.022-1.325c-0.569-0.567-1.017-1.229-1.333-1.987
			c-0.325-0.757-0.483-1.582-0.483-2.472c0-0.914,0.156-1.753,0.464-2.521C241.746,612.02,242.183,611.359,242.742,610.798z"/>
		<polygon points="261.851,626.194 280.172,626.194 280.172,621.563 268.851,621.563 280.077,608.028 280.077,604.423 
			261.946,604.423 261.946,609.058 273.112,609.058 261.851,622.586 		"/>
		<polygon points="287.11,604.423 287.11,626.194 292.459,626.194 292.459,616.209 301.201,626.194 308.293,626.194 
			297.655,614.656 307.734,604.423 301.265,604.423 292.459,613.938 292.459,604.423 		"/>
		<path d="M313.066,626.194h5.567l2.022-5.257h8.492l1.991,5.257h5.783l-8.803-21.771h-6.123L313.066,626.194z M324.947,609.708
			l2.614,6.971h-5.289L324.947,609.708z"/>
	</g>
</g>
</svg>
