<?xml version="1.0" encoding="utf-8"?>
<!-- Generator: Adobe Illustrator 16.0.0, SVG Export Plug-In . SVG Version: 6.00 Build 0)  -->
<!DOCTYPE svg PUBLIC "-//W3C//DTD SVG 1.1//EN" "http://www.w3.org/Graphics/SVG/1.1/DTD/svg11.dtd">
<svg version="1.1" id="Layer_1" xmlns="http://www.w3.org/2000/svg" xmlns:xlink="http://www.w3.org/1999/xlink" x="0px" y="0px"
	 width="480px" height="640px" viewBox="0 0 480 640" enable-background="new 0 0 480 640" xml:space="preserve">
<g>
	<g>
		<path fill="#FFFFFF" d="M239.881,315.507c-12.092,0-21.887,9.794-21.887,21.887c0,12.087,9.795,21.888,21.887,21.888
			c12.091,0,21.894-9.801,21.894-21.888C261.774,325.301,251.972,315.507,239.881,315.507z"/>
		<path fill="#FFFFFF" d="M386.89,160.606c0-30.92-9.559-59.603-25.86-83.285c-16.957-24.637-41.218-43.866-69.67-54.518
			l-7.829,14.17l-11.686,21.145l-10.619,19.203l-14.045,25.416c7.17,0.804,13.825,2.871,19.963,6.222s11.48,7.574,16.023,12.675
			c4.55,5.105,8.129,10.959,10.76,17.574c2.634,6.618,3.949,13.592,3.949,20.925c0,7.978-1.516,15.51-4.543,22.602
			c-3.029,7.092-7.178,13.271-12.44,18.537c-5.258,5.259-11.397,9.41-18.412,12.439c-7.017,3.022-14.511,4.535-22.478,4.535
			c-7.977,0-15.466-1.513-22.483-4.535c-7.015-3.029-13.149-7.181-18.41-12.439c-5.264-5.266-9.45-11.397-12.556-18.42
			c-3.109-7.009-4.666-14.507-4.666-22.478v-0.241c0-7.81,1.475-14.831,4.425-21.043c2.954-6.218,6.256-12.592,9.928-19.131
			l23.593-42.638l10.621-19.203l11.697-21.145l12.584-22.726c-4.925-0.498-9.906-0.752-14.955-0.752c-0.044,0-0.08,0.006-0.12,0.006
			v-0.006H93.11v63.825v406.837h146.55v-0.003c0.04,0,0.076,0.003,0.12,0.003c81.244,0,147.109-65.865,147.109-147.11
			c0-33.102-10.938-63.643-29.39-88.22C375.951,224.248,386.89,193.707,386.89,160.606z M368.259,337.048
			c0,70.575-57.189,128.039-127.658,128.481l-19.573-0.01v0.01H111.742V77.321V32.124l111.803,0.003l-25.007,45.194l-18.599,33.619
			c-3.794,6.758-7.33,13.576-10.457,20.163c-4.13,8.691-6.225,18.46-6.225,29.029v0.241c0,10.557,2.108,20.661,6.264,30.029
			c4.021,9.077,9.541,17.172,16.412,24.042c6.907,6.913,15.055,12.416,24.207,16.37c9.32,4.023,19.367,6.06,29.862,6.06
			c10.49,0,20.536-2.036,29.861-6.06c9.148-3.954,17.295-9.457,24.209-16.37c6.928-6.927,12.439-15.134,16.394-24.392
			c4.006-9.394,6.045-19.46,6.045-29.921c0-9.667-1.775-19.025-5.27-27.807c-3.419-8.607-8.187-16.375-14.157-23.081
			c-5.949-6.686-13.026-12.284-21.019-16.646c-0.515-0.275-1.028-0.552-1.547-0.818l8-14.46l16.878-30.541
			c14.683,7.72,27.541,18.168,38.06,30.541c19.395,22.818,30.802,52.206,30.802,83.285c0,28.035-8.871,54.673-25.656,77.034
			l-8.391,11.188l8.391,11.186C359.388,282.374,368.259,309.013,368.259,337.048z"/>
		<path fill="#FFFFFF" d="M239.881,260.779c-42.246,0-76.615,34.373-76.615,76.614s34.369,76.612,76.615,76.612
			s76.613-34.371,76.613-76.612S282.127,260.779,239.881,260.779z M239.881,395.374c-32.023,0-57.979-25.963-57.979-57.98
			c0-32.027,25.955-57.983,57.979-57.983c32.028,0,57.981,25.956,57.981,57.983C297.862,369.411,271.909,395.374,239.881,395.374z"
			/>
		<path fill="#FFFFFF" d="M224.371,144.708c-1.999,1.998-3.571,4.303-4.685,6.939c-1.128,2.63-1.686,5.462-1.686,8.485v0.241
			c0,6.057,2.12,11.163,6.37,15.308c4.254,4.147,9.42,6.218,15.51,6.218c6.093,0,11.261-2.111,15.511-6.336
			c4.246-4.228,6.374-9.368,6.374-15.431c0-6.053-2.128-11.194-6.374-15.425c-4.25-4.218-9.418-6.336-15.511-6.336
			c-3.048,0-5.892,0.565-8.536,1.674C228.699,141.164,226.374,142.72,224.371,144.708z"/>
		<path fill="#FFFFFF" d="M101.478,566.48c0.809-0.581,1.806-0.87,2.987-0.87c0.869,0,1.643,0.117,2.316,0.355
			c0.673,0.241,1.311,0.616,1.909,1.137l2.771-3.424c-0.77-0.725-1.757-1.302-2.97-1.725c-1.215-0.425-2.434-0.638-3.656-0.638
			c-2.116,0-3.963,0.482-5.555,1.448c-1.582,0.962-2.816,2.308-3.694,4.039c-0.885,1.734-1.327,3.757-1.327,6.081
			c0,2.18,0.399,4.082,1.198,5.711c0.799,1.626,1.917,2.896,3.359,3.808c1.441,0.911,3.115,1.368,5.022,1.368
			c1.555,0,2.941-0.32,4.156-0.949c1.208-0.633,2.163-1.492,2.857-2.578c0.696-1.091,1.042-2.322,1.042-3.688
			c0-1.286-0.308-2.426-0.935-3.421c-0.62-0.996-1.481-1.774-2.579-2.336c-1.101-0.56-2.365-0.839-3.794-0.839
			c-1.081,0-2.104,0.27-3.079,0.81c-0.976,0.539-1.805,1.295-2.487,2.267c0-1.594,0.204-2.939,0.621-4.038
			C100.057,567.9,100.667,567.058,101.478,566.48z M101.307,574.191c0.756-0.331,1.576-0.496,2.472-0.496
			c0.687,0,1.278,0.124,1.791,0.371c0.506,0.248,0.901,0.598,1.198,1.042c0.286,0.447,0.434,0.959,0.434,1.544
			c0,0.577-0.163,1.096-0.481,1.549c-0.322,0.462-0.753,0.817-1.295,1.074c-0.538,0.264-1.148,0.39-1.833,0.39
			c-0.682,0-1.316-0.164-1.896-0.497c-0.583-0.331-1.075-0.801-1.478-1.414c-0.403-0.613-0.709-1.333-0.918-2.163
			C99.882,574.988,100.549,574.524,101.307,574.191z"/>
		<path fill="#FFFFFF" d="M127.903,583.771c1.973,0,3.699-0.467,5.18-1.4c1.482-0.933,2.634-2.245,3.454-3.935
			c0.814-1.688,1.229-3.652,1.229-5.895c0-2.261-0.414-4.227-1.229-5.906c-0.82-1.681-1.972-2.988-3.454-3.922
			c-1.48-0.935-3.207-1.397-5.18-1.397c-1.967,0-3.695,0.463-5.179,1.397c-1.48,0.934-2.633,2.241-3.451,3.922
			c-0.816,1.68-1.225,3.646-1.225,5.906c0,2.242,0.408,4.206,1.225,5.895c0.818,1.689,1.971,3.002,3.451,3.935
			C124.208,583.305,125.937,583.771,127.903,583.771z M123.567,568.858c0.402-1.029,0.974-1.813,1.71-2.363
			c0.736-0.552,1.611-0.825,2.626-0.825c1.019,0,1.893,0.273,2.631,0.825c0.732,0.55,1.307,1.334,1.711,2.363
			c0.404,1.025,0.603,2.254,0.603,3.684c0,1.41-0.198,2.636-0.603,3.675c-0.404,1.035-0.979,1.83-1.711,2.379
			c-0.738,0.546-1.612,0.819-2.631,0.819c-1.015,0-1.89-0.273-2.626-0.819c-0.736-0.549-1.308-1.344-1.71-2.379
			c-0.404-1.039-0.608-2.265-0.608-3.675C122.959,571.112,123.163,569.884,123.567,568.858z"/>
		<polygon fill="#FFFFFF" points="160.002,561.656 154.651,561.656 154.651,583.429 171.479,583.429 171.479,578.7 160.002,578.7 		
			"/>
		<path fill="#FFFFFF" d="M195.084,583.429h5.782l-8.798-21.772h-6.127l-8.93,21.772h5.566l2.021-5.256h8.497L195.084,583.429z
			 M186.218,573.911l2.678-6.968l2.61,6.968H186.218z"/>
		<polygon fill="#FFFFFF" points="215.197,583.429 215.197,566.385 222.314,566.385 222.314,561.656 202.721,561.656 
			202.721,566.385 209.846,566.385 209.846,583.429 		"/>
		<path fill="#FFFFFF" d="M111.909,607.593c-1.046-0.993-2.263-1.771-3.652-2.33c-1.39-0.56-2.894-0.839-4.511-0.839h-8.832v21.771
			h8.832c1.617,0,3.121-0.283,4.511-0.842c1.39-0.56,2.606-1.331,3.652-2.314c1.051-0.985,1.869-2.133,2.46-3.438
			c0.592-1.309,0.887-2.715,0.887-4.23c0-1.534-0.295-2.966-0.887-4.293C113.778,609.749,112.96,608.59,111.909,607.593z
			 M109.252,617.75c-0.31,0.735-0.744,1.385-1.308,1.943c-0.559,0.558-1.205,0.997-1.939,1.309c-0.74,0.308-1.532,0.463-2.379,0.463
			h-3.363v-12.315h3.363c0.847,0,1.639,0.162,2.379,0.482c0.734,0.323,1.381,0.76,1.939,1.325c0.563,0.559,0.998,1.216,1.308,1.975
			c0.313,0.756,0.469,1.569,0.469,2.438C109.721,616.222,109.564,617.012,109.252,617.75z"/>
		<path fill="#FFFFFF" d="M139.322,607.593c-1.05-0.993-2.263-1.771-3.658-2.33c-1.386-0.56-2.891-0.839-4.506-0.839h-8.833v21.771
			h8.833c1.615,0,3.12-0.283,4.506-0.842c1.396-0.56,2.608-1.331,3.658-2.314c1.047-0.985,1.865-2.133,2.457-3.438
			c0.592-1.309,0.882-2.715,0.882-4.23c0-1.534-0.29-2.966-0.882-4.293C141.188,609.749,140.369,608.59,139.322,607.593z
			 M136.663,617.75c-0.316,0.735-0.748,1.385-1.309,1.943c-0.558,0.558-1.209,0.997-1.943,1.309
			c-0.738,0.308-1.528,0.463-2.381,0.463h-3.356v-12.315h3.356c0.853,0,1.643,0.162,2.381,0.482c0.734,0.323,1.386,0.76,1.943,1.325
			c0.561,0.559,0.992,1.216,1.309,1.975c0.311,0.756,0.466,1.569,0.466,2.438C137.129,616.222,136.974,617.012,136.663,617.75z"/>
		<path fill="#FFFFFF" d="M155.372,604.424l-8.929,21.771h5.566l2.025-5.257h8.487l1.993,5.257h5.785l-8.803-21.771H155.372z
			 M155.652,616.679l2.673-6.97l2.613,6.97H155.652z"/>
		<path fill="#FFFFFF" d="M201.898,615.031c0.765-0.539,1.378-1.201,1.821-1.976c0.444-0.777,0.666-1.613,0.666-2.506
			c0-1.204-0.322-2.264-0.962-3.188c-0.645-0.925-1.531-1.642-2.661-2.159c-1.127-0.521-2.441-0.778-3.932-0.778h-10.795v21.771
			h11.322c1.535,0,2.88-0.268,4.042-0.807c1.163-0.54,2.064-1.293,2.708-2.26c0.642-0.964,0.964-2.073,0.964-3.343
			c0-0.998-0.286-1.906-0.854-2.735C203.646,616.222,202.872,615.549,201.898,615.031z M191.388,608.806h5.102
			c0.787,0,1.407,0.191,1.862,0.578c0.456,0.383,0.686,0.905,0.686,1.573c0,0.641-0.229,1.158-0.686,1.552
			c-0.455,0.395-1.075,0.592-1.862,0.592h-5.102V608.806z M198.932,621.188c-0.49,0.413-1.148,0.619-1.979,0.619h-5.564v-4.601
			h5.564c0.831,0,1.489,0.205,1.979,0.619c0.486,0.418,0.728,0.978,0.728,1.68C199.659,620.21,199.418,620.776,198.932,621.188z"/>
		<polygon fill="#FFFFFF" points="217.7,617.454 225.508,617.454 225.508,612.976 217.7,612.976 217.7,609.058 229.518,609.058 
			229.518,604.424 212.348,604.424 212.348,626.194 229.642,626.194 229.642,621.563 217.7,621.563 		"/>
		<path fill="#FFFFFF" d="M242.741,610.798c0.561-0.56,1.223-0.997,1.978-1.321c0.756-0.32,1.568-0.482,2.437-0.482
			c1.103,0,2.123,0.241,3.065,0.715c0.944,0.479,1.8,1.203,2.569,2.178l3.604-3.544c-0.66-0.869-1.488-1.623-2.469-2.255
			c-0.984-0.635-2.063-1.128-3.22-1.48c-1.159-0.349-2.345-0.526-3.55-0.526c-1.635,0-3.162,0.282-4.583,0.854
			c-1.421,0.575-2.664,1.362-3.734,2.381c-1.064,1.014-1.895,2.202-2.487,3.564c-0.591,1.352-0.886,2.832-0.886,4.429
			c0,1.576,0.295,3.04,0.886,4.399c0.593,1.359,1.417,2.547,2.471,3.563c1.06,1.018,2.298,1.808,3.718,2.38
			c1.425,0.567,2.96,0.853,4.616,0.853c1.165,0,2.317-0.171,3.458-0.51c1.137-0.343,2.196-0.83,3.172-1.464
			c0.972-0.633,1.79-1.377,2.455-2.225l-3.512-3.454c-0.729,0.896-1.542,1.568-2.443,2.023c-0.9,0.454-1.884,0.688-2.939,0.688
			c-0.911,0-1.757-0.159-2.536-0.47c-0.777-0.309-1.452-0.75-2.021-1.325c-0.569-0.567-1.015-1.229-1.335-1.987
			c-0.324-0.757-0.482-1.582-0.482-2.472c0-0.914,0.154-1.753,0.465-2.521C241.745,612.021,242.184,611.359,242.741,610.798z"/>
		<polygon fill="#FFFFFF" points="280.081,608.028 280.081,604.424 261.946,604.424 261.946,609.058 273.112,609.058 
			261.854,622.586 261.854,626.194 280.171,626.194 280.171,621.563 268.85,621.563 		"/>
		<polygon fill="#FFFFFF" points="307.733,604.424 301.267,604.424 292.463,613.938 292.463,604.424 287.11,604.424 287.11,626.194 
			292.463,626.194 292.463,616.209 301.204,626.194 308.294,626.194 297.654,614.656 		"/>
		<path fill="#FFFFFF" d="M321.996,604.424l-8.929,21.771h5.566l2.023-5.257h8.492l1.988,5.257h5.785l-8.8-21.771H321.996z
			 M322.274,616.679l2.677-6.97l2.611,6.97H322.274z"/>
	</g>
</g>
</svg>
