<svg id="Component_35_1" data-name="Component 35 – 1" xmlns="http://www.w3.org/2000/svg" width="94.074" height="94.074" viewBox="0 0 94.074 94.074">
  <path id="Path_498" data-name="Path 498" d="M657.935,257.86A47.037,47.037,0,1,0,704.972,304.9,47.037,47.037,0,0,0,657.935,257.86Zm0,72.874L652.7,325.5l16.9-16.9H635.8a3.7,3.7,0,1,1,0-7.4h33.808l-16.9-16.9,5.232-5.233L683.771,304.9Z" transform="translate(-610.898 -257.86)"/>
  <path id="Path_499" data-name="Path 499" d="M660.764,292.356l16.9,16.9H643.86a3.7,3.7,0,1,0,0,7.4h33.808l-16.9,16.9L666,338.8l25.837-25.836L666,287.123Z" transform="translate(-618.96 -265.922)" fill="#fff" opacity="0"/>
</svg>
