<svg xmlns="http://www.w3.org/2000/svg" width="577.381" height="577.25" viewBox="0 0 577.381 577.25">
  <g id="Group_229" data-name="Group 229" transform="translate(-671 -7470.192)">
    <g id="Component_10_3" data-name="Component 10 – 3" transform="translate(800.523 7628)">
      <g id="Group_21" data-name="Group 21" transform="translate(-255.789 -752.665)">
        <g id="Group_18" data-name="Group 18" transform="translate(390.281 798.167)">
          <path id="Path_84" data-name="Path 84" d="M879.438,1009.236a3.549,3.549,0,1,0-3.55-3.55A3.549,3.549,0,0,0,879.438,1009.236Z" transform="translate(-783.693 -956.44)" fill="#fff"/>
          <rect id="Rectangle_31" data-name="Rectangle 31" width="49.33" height="5.192" fill="#fff"/>
        </g>
        <path id="Path_85" data-name="Path 85" d="M544.311,850.31c-7.39,0-10.9-3.805-12.286-5.945a8.268,8.268,0,0,1-.762-1.417v.016a100.816,100.816,0,0,0-26.981-36.371V752.665a36.51,36.51,0,0,0-36.425,34.094,100.522,100.522,0,0,0-28.781-4.188H390.829a100.544,100.544,0,0,0-100.36,94.549,35.011,35.011,0,0,1-23.7-19.077,5.8,5.8,0,0,0-7.777-2.584l-.013.007a5.794,5.794,0,0,0-2.571,7.781,46.538,46.538,0,0,0,34.05,25.713,100.415,100.415,0,0,0,41.134,75.393c10.2,11.063,11.124,23.018,11.124,26.39V1001.5H399.83v-9.973a7.869,7.869,0,0,1,7.87-7.869h14.5a7.869,7.869,0,0,1,7.86,7.869v9.973h57.113V990.745c0-3.37.921-15.312,11.105-26.37a100.908,100.908,0,0,0,32.983-41.122v.029a8.305,8.305,0,0,1,.762-1.417c1.388-2.139,4.9-5.944,12.286-5.944h11.894v-32.8h0v-32.8Zm-104.7-46.951h-49.33v-5.192h49.33Zm46.415,47.6a3.549,3.549,0,1,1,3.549-3.55A3.549,3.549,0,0,1,486.026,850.963Z" transform="translate(0 0)"/>
        <g id="Group_20" data-name="Group 20" transform="translate(390.281 798.167)">
          <g id="Group_19" data-name="Group 19">
            <rect id="Rectangle_32" data-name="Rectangle 32" width="49.33" height="5.192" fill="#96f"/>
            <path id="Path_86" data-name="Path 86" d="M879.438,1002.137a3.549,3.549,0,1,0,3.549,3.549A3.549,3.549,0,0,0,879.438,1002.137Z" transform="translate(-783.693 -956.44)" fill="#96f"/>
          </g>
        </g>
      </g>
    </g>
  </g>
</svg>
