<?xml version="1.0" encoding="utf-8"?>
<!-- Generator: Adobe Illustrator 16.0.0, SVG Export Plug-In . SVG Version: 6.00 Build 0)  -->
<!DOCTYPE svg PUBLIC "-//W3C//DTD SVG 1.1//EN" "http://www.w3.org/Graphics/SVG/1.1/DTD/svg11.dtd">
<svg version="1.1" id="Layer_1" xmlns="http://www.w3.org/2000/svg" xmlns:xlink="http://www.w3.org/1999/xlink" x="0px" y="0px"
	 width="227.94px" height="150px" viewBox="0 0 227.94 150" enable-background="new 0 0 227.94 150" xml:space="preserve">
<rect x="-13" y="-357" display="none" fill="#B74EDE" width="1001" height="856"/>
<g>
	<path fill="#FFFFFF" d="M177.842,87.705c0,2.494-2.022,4.516-4.516,4.516H54.613c-2.493,0-4.515-2.021-4.515-4.516V62.293
		c0-2.493,2.022-4.514,4.515-4.514h118.714c2.494,0,4.516,2.021,4.516,4.514V87.705z"/>
	<g>
		<path d="M125.922,76.877c0.014,0,0.028-0.002,0.041-0.004c0.001,0,0.002,0,0.004,0c0.419-0.066,0.743-0.098,0.955-0.098
			c0.115,0,0.197,0.011,0.233,0.021c0.079,0.022,0.166,0.005,0.231-0.044c0.067-0.051,0.108-0.128,0.109-0.21l0.07-2.931
			l0.294-6.064v-0.013c-0.001-0.506-0.016-0.831-0.063-1.043c-0.054-0.24-0.139-0.451-0.257-0.63
			c-0.05-0.078-0.106-0.15-0.171-0.214c-0.215-0.211-0.506-0.323-0.82-0.332c-0.013-0.001-0.026-0.001-0.031-0.001
			c-0.259-0.005-0.518,0.098-0.672,0.306c-0.154,0.206-0.206,0.466-0.208,0.765c0,0.126,0.01,0.28,0.03,0.469
			c0.018,0.178,0.027,0.3,0.027,0.33c0,0.655-0.038,1.875-0.113,3.647c-0.075,1.777-0.112,3.027-0.112,3.755
			c0.006,1.104,0.046,1.762,0.207,2.134C125.722,76.816,125.819,76.877,125.922,76.877z"/>
		<path d="M133.484,76.904c0.006,0,0.011,0,0.016,0c1.385,0.006,2.558-0.708,3.437-2.041c0.815-1.222,1.222-2.627,1.222-4.188
			c0-0.224-0.01-0.442-0.03-0.655l-0.269,0.024l0,0l0.269-0.025c-0.098-1.029-0.466-2.027-1.095-2.983
			c-0.157-0.237-0.321-0.451-0.494-0.645c-0.663-0.744-1.437-1.148-2.297-1.146c-1.392-0.002-2.596,0.799-3.563,2.282
			c-0.904,1.363-1.362,2.818-1.362,4.34c-0.001,1.248,0.364,2.383,1.09,3.37c0.205,0.279,0.426,0.524,0.664,0.736
			C131.756,76.583,132.572,76.904,133.484,76.904z M131.61,72.875c-0.009-0.091-0.013-0.205-0.013-0.339
			c0-1.139,0.199-2.233,0.599-3.289c0.258-0.705,0.562-1.213,0.893-1.534c0.333-0.323,0.677-0.466,1.084-0.469
			c0.467,0.007,0.813,0.18,1.112,0.588c0.042,0.06,0.085,0.124,0.126,0.191c0.254,0.425,0.425,0.984,0.497,1.686
			c0.009,0.122,0.014,0.265,0.014,0.425c0,1.081-0.204,2.101-0.611,3.069c-0.514,1.185-1.118,1.673-1.84,1.675
			c-0.453-0.003-0.797-0.102-1.069-0.289c-0.08-0.056-0.153-0.118-0.221-0.189C131.883,74.087,131.681,73.588,131.61,72.875z
			 M136.178,69.686L136.178,69.686L136.178,69.686L136.178,69.686z"/>
		<path d="M140.541,75.668c0.018,0.016,0.036,0.031,0.054,0.048c0.935,0.828,2.116,1.244,3.491,1.244c0.003,0,0.006,0,0.011,0
			c0.878,0.001,1.652-0.19,2.299-0.586c0.806-0.48,1.244-1.243,1.237-2.165c0.004-0.975-0.262-1.798-0.793-2.421
			c-0.152-0.18-0.326-0.344-0.522-0.488c-0.734-0.539-1.698-0.796-2.867-0.796c-0.47,0-0.939,0.043-1.407,0.126
			c-0.178,0.031-0.355,0.068-0.532,0.11c0.149-0.573,0.555-1.25,1.249-2.007c0.852-0.937,1.619-1.445,2.256-1.563
			c0.158-0.029,0.307-0.136,0.381-0.274c0.079-0.139,0.102-0.29,0.103-0.454c0.001-0.269-0.074-0.529-0.213-0.762
			c-0.005-0.011-0.011-0.023-0.017-0.033c-0.134-0.221-0.355-0.394-0.621-0.393c-0.037,0-0.073,0.004-0.107,0.009
			c-1.351,0.207-2.602,1.201-3.783,2.903c-1.088,1.567-1.657,2.935-1.66,4.136C139.097,73.666,139.584,74.813,140.541,75.668z
			 M145.012,72.81c0.291,0.15,0.474,0.308,0.582,0.491c0.081,0.14,0.121,0.294,0.125,0.473c-0.005,0.392-0.13,0.639-0.408,0.848
			c-0.243,0.17-0.601,0.271-1.089,0.271c-0.697,0-1.333-0.188-1.927-0.573c-0.089-0.06-0.167-0.119-0.242-0.18
			c-0.442-0.357-0.658-0.74-0.695-1.184c0.237-0.286,0.861-0.501,1.912-0.495C143.976,72.46,144.555,72.581,145.012,72.81z"/>
		<path d="M148.85,76.942c0,0.133-0.019,0.266-0.058,0.4c-0.024,0.08-0.043,0.143-0.054,0.187c-0.007,0.022-0.012,0.04-0.016,0.057
			c-0.003,0.024-0.007,0.005-0.012,0.086c-0.008,0.131,0.081,0.294,0.201,0.357c0.055,0.033,0.11,0.052,0.165,0.063
			c0.062,0.013,0.122,0.018,0.185,0.019c0.398-0.008,0.694-0.291,0.944-0.696c0.261-0.421,0.392-0.899,0.391-1.41
			c0-0.247-0.031-0.483-0.094-0.705c-0.046-0.149-0.105-0.282-0.177-0.398c-0.057-0.092-0.119-0.174-0.195-0.244
			c-0.174-0.159-0.406-0.243-0.645-0.241c-0.267-0.002-0.524,0.099-0.725,0.278c-0.208,0.179-0.334,0.437-0.33,0.707
			c-0.001,0.149,0.04,0.298,0.113,0.431C148.754,76.273,148.85,76.646,148.85,76.942z"/>
		<path d="M153.564,76.775c0.115,0,0.197,0.011,0.231,0.021c0.08,0.022,0.167,0.005,0.233-0.044c0.067-0.05,0.107-0.128,0.109-0.21
			l0.069-2.932l0.294-6.063v-0.013c-0.001-0.505-0.015-0.831-0.063-1.043c-0.055-0.24-0.139-0.451-0.258-0.63
			c-0.051-0.078-0.106-0.15-0.171-0.214c-0.214-0.211-0.505-0.323-0.82-0.332c-0.013-0.001-0.027-0.001-0.031-0.001
			c-0.259-0.004-0.518,0.098-0.672,0.306c-0.154,0.207-0.206,0.466-0.207,0.765c0,0.126,0.011,0.28,0.028,0.469
			c0.019,0.178,0.028,0.3,0.028,0.33c0,0.655-0.037,1.875-0.112,3.647c-0.075,1.777-0.112,3.027-0.112,3.754
			c0.005,1.104,0.046,1.763,0.207,2.135c0.044,0.096,0.142,0.156,0.246,0.156c0.013,0,0.027-0.002,0.042-0.004c0,0,0.001,0,0.004,0
			C153.027,76.807,153.351,76.775,153.564,76.775z"/>
		<path d="M162.65,73.638c-0.285-0.172-0.575-0.285-0.863-0.338c-0.164-0.027-0.438-0.042-0.839-0.042h-1.566v-1.045
			c0.125-0.064,0.334-0.152,0.688-0.264c0.505-0.163,0.971-0.247,1.382-0.247c0.009,0.001,0.065,0.004,0.301,0.051
			c0.279,0.052,0.347,0.057,0.388,0.057c0.125,0,0.532-0.049,0.532-0.684c0-0.448-0.224-0.647-0.407-0.732
			c-0.163-0.082-0.395-0.12-0.729-0.12c-0.494,0-1.136,0.085-1.913,0.251c-0.806,0.177-1.878,0.497-1.878,1.234
			c0,0.196,0.16,0.336,0.215,0.385l0.105,0.09c-0.006,0.569-0.046,1.016-0.118,1.32c-0.01,0.015-0.037,0.051-0.109,0.116
			c-0.165,0.145-0.253,0.338-0.253,0.556c0,0.109,0.042,0.225,0.138,0.379c0.039,0.053,0.073,0.108,0.106,0.165l0.001,0.034
			c0,0.055-0.008,0.195-0.022,0.418c-0.014,0.231-0.024,0.423-0.024,0.566c0,0.795,0.225,1.196,0.665,1.196h0.025l0.019-0.004
			c0.018-0.002,0.077-0.009,0.161-0.02h0.037c0.05,0,0.102,0.006,0.156,0.018l0.324,0.071l-0.004-0.331
			c-0.007-0.796,0.01-1.41,0.053-1.831c0.249-0.049,0.384-0.06,0.457-0.06h0.013l0.013-0.003c1.032-0.102,1.96-0.241,2.753-0.413
			l0.208-0.046v-0.278l0.021-0.022l0.281-0.236L162.65,73.638z M169.267,71.375c-0.063-0.259-0.255-1.048-0.83-1.048
			c-0.323,0-0.623,0.267-0.936,0.833c-0.167,0.284-0.406,0.796-0.736,1.567c-0.164,0.38-0.307,0.701-0.43,0.963
			c-0.032-0.174-0.061-0.369-0.084-0.586c-0.083-0.756-0.139-1.199-0.172-1.361c-0.106-0.521-0.298-0.923-0.57-1.189l-0.055-0.053
			l-0.074-0.015c-0.068-0.017-0.139-0.023-0.208-0.023c-0.125,0-0.253,0.025-0.381,0.071l-0.114,0.04l-0.042,0.113
			c-0.104,0.27-0.211,0.615-0.315,1.025c-0.102,0.4-0.201,0.803-0.296,1.197c-0.113,0.409-0.204,0.642-0.269,0.772
			c-0.213,0.037-0.399,0.107-0.461,0.294c-0.09,0.278-0.189,0.688-0.298,1.218c-0.131,0.648-0.151,0.812-0.151,0.885
			c0,0.15,0.036,0.315,0.105,0.506c0.07,0.196,0.153,0.344,0.25,0.445l0.103,0.109l0.147-0.031c0.466-0.104,0.811-0.375,1.028-0.808
			c0.118-0.246,0.245-0.711,0.387-1.421c0.068-0.333,0.136-0.641,0.208-0.921l0.12,0.535c0.18,0.651,0.458,1.399,0.994,1.399
			c0.328,0,0.626-0.198,0.889-0.596c0.16-0.256,0.309-0.594,0.456-1.042l0.122-0.396l0.121-0.389
			c0.098-0.242,0.188-0.465,0.272-0.662v0.082c-0.001,0.025-0.013,0.173-0.105,0.979c-0.109,0.958-0.109,1.01-0.109,1.042
			c0,0.837,0.107,1.412,0.324,1.752l0.061,0.095l0.11,0.022c0.048,0.01,0.102,0.015,0.154,0.015c0.075,0,0.155-0.008,0.244-0.025
			c0.183-0.034,0.316-0.099,0.407-0.201l0.069-0.074v-0.102c0-0.504-0.011-0.629-0.02-0.683c-0.024-0.153-0.034-0.341-0.034-0.556
			c0-0.328,0.03-0.77,0.089-1.313l0.153-1.284C169.421,72.246,169.382,71.859,169.267,71.375z"/>
		<g>
			<g>
				<path d="M157.246,80.361c-0.101-0.052-0.18-0.198-0.172-0.306l0,0c0.004-0.081,0.008-0.059,0.011-0.078l0,0
					c0.002-0.012,0.005-0.021,0.009-0.035l0,0c0.007-0.026,0.017-0.061,0.03-0.105l0,0c0.02-0.065,0.027-0.128,0.028-0.189l0,0
					c0.001-0.141-0.046-0.333-0.161-0.57l0,0c-0.046-0.087-0.076-0.189-0.075-0.293l0,0c-0.004-0.185,0.088-0.372,0.226-0.488l0,0
					c0.132-0.119,0.31-0.188,0.488-0.186l0,0c0.159-0.003,0.325,0.057,0.444,0.167l0,0c0.119,0.108,0.193,0.252,0.245,0.415l0,0
					c0.039,0.137,0.057,0.28,0.057,0.43l0,0c0.001,0.307-0.079,0.6-0.235,0.854l0,0c-0.149,0.238-0.341,0.44-0.635,0.448l0,0
					C157.426,80.423,157.344,80.418,157.246,80.361L157.246,80.361z"/>
			</g>
		</g>
		<path d="M129.952,87.105c0.188,0,0.356-0.08,0.5-0.196c0.117-0.1,0.238-0.206,0.249-0.423c0-0.034-0.004-0.073-0.016-0.109
			c-0.099-0.294-0.296-0.585-0.586-0.899c-0.134-0.146-0.285-0.295-0.457-0.453c-0.428-0.382-0.775-0.704-1.043-0.962
			c-0.146-0.141-0.27-0.265-0.366-0.365c0.286-0.4,0.609-0.791,0.969-1.169c0.121-0.122,0.492-0.479,1.097-1.061
			c0.068-0.065,0.098-0.161,0.079-0.253c-0.026-0.131-0.052-0.26-0.079-0.386l-0.01-0.035c-0.002-0.013-0.009-0.023-0.012-0.034
			c-0.077-0.213-0.299-0.404-0.544-0.393c-0.149,0.005-0.247,0.06-0.359,0.125c-0.324,0.205-0.765,0.632-1.39,1.313
			c-0.199,0.22-0.378,0.412-0.534,0.581c-0.14,0.15-0.263,0.282-0.369,0.393c0-0.065,0.001-0.135,0.001-0.208
			c0.002-0.113,0.002-0.243,0.002-0.387c0-0.215-0.002-0.46-0.007-0.735c-0.008-0.456-0.012-0.706-0.012-0.729
			c0.002-0.036-0.002-0.073-0.012-0.11c-0.03-0.127-0.117-0.251-0.228-0.31c-0.14-0.08-0.286-0.097-0.451-0.099
			c-0.165,0-0.327,0.035-0.483,0.1c-0.046,0.02-0.086,0.052-0.116,0.093c-0.079,0.124-0.081,0.195-0.107,0.32
			c-0.058,0.356-0.093,1.028-0.118,2.063c-0.046,2.151-0.075,3.285-0.078,3.347c-0.003,0.033-0.003,0.066-0.003,0.095
			c-0.001,0.196,0.037,0.388,0.11,0.563c0.065,0.184,0.209,0.347,0.392,0.426c0.071,0.03,0.147,0.05,0.229,0.05
			c0.005,0,0.012,0,0.017,0c0.164,0.004,0.338-0.083,0.434-0.214c0.099-0.129,0.146-0.278,0.174-0.448
			c0.028-0.152,0.036-0.438,0.043-0.944c0.005-0.357,0.061-0.599,0.09-0.638c0.08-0.136,0.169-0.252,0.267-0.35
			c0.12,0.131,0.236,0.259,0.352,0.382c0.281,0.301,0.549,0.573,0.807,0.826c0.472,0.462,0.908,0.847,1.307,1.148
			C129.762,87.077,129.865,87.107,129.952,87.105z"/>
		<path d="M136.149,84.748c0.163-0.072,0.326-0.144,0.487-0.215c0.434-0.211,0.77-0.424,1.019-0.655
			c0.331-0.314,0.521-0.697,0.519-1.11h0c0.005-0.519-0.167-0.983-0.486-1.376c-0.217-0.268-0.5-0.499-0.846-0.691
			c-0.653-0.371-1.347-0.562-2.064-0.561c-0.338,0-0.722,0.079-1.169,0.225c-0.299,0.103-0.533,0.215-0.713,0.363
			c-0.179,0.146-0.31,0.354-0.308,0.588c-0.004,0.196,0.078,0.409,0.245,0.531c0.053,0.039,0.109,0.066,0.167,0.089
			c0.125,0.052,0.263,0.07,0.411,0.071c0.06-0.005,0.076-0.009,0.084-0.013c-0.037,0.079-0.065,0.172-0.104,0.316
			c-0.013,0.046-0.027,0.098-0.043,0.157c-0.063,0.238-0.143,0.566-0.243,0.99c-0.231,0.977-0.351,1.651-0.353,2.079
			c0.002,0.414,0.011,0.672,0.056,0.854c0.042,0.172,0.118,0.333,0.251,0.455c0.055,0.052,0.121,0.089,0.189,0.119
			c0.094,0.039,0.194,0.061,0.295,0.06c0.039,0,0.078-0.003,0.122-0.008c0.199-0.02,0.388-0.144,0.49-0.314
			c0.106-0.17,0.149-0.368,0.166-0.6c0.025-0.371,0.053-0.677,0.081-0.904c0.12,0.104,0.264,0.238,0.43,0.396
			c0.463,0.438,0.833,0.761,1.111,0.976c0.469,0.346,0.877,0.562,1.265,0.633l0.048,0.004h0.306c0.118,0,0.223-0.075,0.26-0.187
			c-0.001-0.001,0.019-0.044,0.057-0.109l0.008-0.014c0.039-0.08,0.067-0.173,0.067-0.271c-0.014-0.151-0.048-0.15-0.064-0.188
			c-0.035-0.049-0.08-0.101-0.138-0.163c-0.051-0.055-0.114-0.116-0.192-0.194c-0.166-0.164-0.391-0.381-0.681-0.653
			c-0.116-0.107-0.231-0.215-0.347-0.323C136.404,84.987,136.277,84.866,136.149,84.748z M134.22,81.841h-0.349
			c0.073-0.03,0.155-0.066,0.251-0.108c0.368-0.161,0.648-0.23,0.792-0.229c0.335,0,0.708,0.084,1.121,0.261
			c0.381,0.171,0.574,0.34,0.657,0.52c0.035,0.077,0.053,0.154,0.054,0.236c0,0.08-0.043,0.192-0.219,0.347
			c-0.172,0.151-0.463,0.318-0.863,0.484c-0.191,0.08-0.367,0.147-0.526,0.204c-0.178,0.063-0.336,0.111-0.468,0.144
			c0.011-0.043,0.023-0.088,0.036-0.132c0.057-0.254,0.087-0.467,0.087-0.658c0.001-0.253-0.055-0.49-0.167-0.697
			c-0.025-0.046-0.053-0.092-0.084-0.135c-0.037-0.054-0.079-0.105-0.125-0.153C134.365,81.871,134.294,81.841,134.22,81.841z"/>
		<path d="M144.373,87.09c0.093,0,0.185-0.002,0.276-0.009l0.087-0.021c0.134-0.056,0.199-0.172,0.227-0.261
			c0.029-0.091,0.037-0.181,0.037-0.282c-0.003-0.146-0.043-0.307-0.118-0.601c-0.062-0.235-0.147-0.538-0.256-0.91
			c0.063-0.021,0.141-0.044,0.228-0.07c0.122-0.037,0.235-0.092,0.328-0.188c0.094-0.092,0.151-0.234,0.149-0.365
			c0-0.053,0-0.111,0-0.177c0-0.012,0-0.02,0-0.031c0-0.043,0-0.074,0-0.082c0-0.145-0.109-0.263-0.252-0.274
			c-0.176-0.014-0.333-0.025-0.474-0.034c-0.112-0.007-0.215-0.013-0.305-0.017c-0.083-0.533-0.231-1.175-0.447-1.932
			c-0.132-0.471-0.251-0.825-0.363-1.079c-0.021-0.048-0.042-0.088-0.063-0.129c-0.036-0.069-0.072-0.133-0.114-0.188
			c-0.066-0.079-0.151-0.185-0.341-0.194c-0.002,0-0.005,0-0.009,0c-0.053-0.008-0.107-0.014-0.16-0.014
			c-0.271-0.002-0.527,0.127-0.716,0.334c-0.192,0.205-0.338,0.481-0.461,0.831l-0.003,0.014c-0.198,0.667-0.396,1.333-0.594,2
			c-0.347,0.974-0.719,2.14-1.117,3.5c-0.011,0.035-0.014,0.072-0.014,0.103c0.01,0.191,0.092,0.287,0.188,0.412
			c0.097,0.111,0.171,0.196,0.288,0.26c0.021,0.011,0.039,0.022,0.063,0.032c0.029,0.011,0.061,0.016,0.091,0.016
			c0.022,0,0.043-0.002,0.063-0.007l0.511-0.117c0.088-0.021,0.161-0.084,0.195-0.169c0.103-0.267,0.229-0.641,0.382-1.131
			c0.115-0.369,0.215-0.667,0.298-0.892c0.233-0.042,0.468-0.086,0.705-0.129c0.195-0.036,0.391-0.057,0.585-0.063
			c0.028,0.114,0.064,0.243,0.107,0.384c0.023,0.075,0.046,0.15,0.073,0.231c0.107,0.333,0.175,0.584,0.202,0.734
			c0.01,0.051,0.033,0.098,0.068,0.135c0.106,0.11,0.203,0.206,0.313,0.273c0.099,0.062,0.205,0.102,0.335,0.106
			C144.366,87.09,144.369,87.09,144.373,87.09z M142.737,82.771c0.072,0.332,0.138,0.685,0.196,1.056
			c0.002,0.014,0.004,0.026,0.007,0.04c-0.005,0-0.011,0-0.016,0.001c-0.052,0.007-0.11,0.014-0.18,0.023
			c-0.098,0.014-0.192,0.025-0.286,0.035C142.557,83.493,142.651,83.108,142.737,82.771z"/>
		<path d="M151.779,87.106c0.188-0.001,0.354-0.081,0.5-0.197c0.117-0.1,0.239-0.205,0.25-0.423
			c0.001-0.034-0.005-0.073-0.015-0.109c-0.1-0.294-0.298-0.585-0.586-0.899c-0.134-0.146-0.286-0.295-0.459-0.453
			c-0.428-0.382-0.775-0.704-1.044-0.962c-0.146-0.141-0.27-0.264-0.366-0.364c0.286-0.401,0.608-0.792,0.97-1.17
			c0.121-0.122,0.491-0.479,1.097-1.061c0.067-0.065,0.097-0.161,0.079-0.253c-0.026-0.131-0.053-0.26-0.078-0.386l-0.011-0.035
			c-0.003-0.013-0.009-0.022-0.013-0.033c-0.075-0.214-0.299-0.405-0.544-0.394c-0.151,0.005-0.247,0.06-0.359,0.125
			c-0.324,0.205-0.765,0.632-1.39,1.313c-0.2,0.22-0.377,0.412-0.535,0.581c-0.139,0.149-0.264,0.282-0.369,0.393
			c0-0.065,0-0.135,0-0.207c0.001-0.113,0.003-0.244,0.003-0.388c0-0.215-0.003-0.46-0.006-0.735
			c-0.009-0.456-0.012-0.706-0.012-0.729c0.001-0.036-0.003-0.073-0.012-0.11c-0.03-0.127-0.117-0.251-0.229-0.31
			c-0.141-0.079-0.286-0.097-0.451-0.099c-0.164,0-0.327,0.035-0.482,0.1c-0.046,0.02-0.087,0.052-0.117,0.093
			c-0.08,0.124-0.081,0.195-0.106,0.32c-0.058,0.356-0.094,1.028-0.119,2.063c-0.047,2.151-0.074,3.285-0.078,3.347
			c-0.002,0.034-0.002,0.066-0.002,0.095c0,0.197,0.036,0.388,0.11,0.563c0.064,0.185,0.209,0.348,0.392,0.426
			c0.07,0.03,0.146,0.05,0.227,0.05c0.006,0,0.012,0,0.019,0c0.163,0.004,0.338-0.083,0.433-0.214
			c0.1-0.129,0.146-0.278,0.175-0.448c0.027-0.152,0.037-0.438,0.042-0.944c0.005-0.357,0.062-0.599,0.091-0.638
			c0.08-0.136,0.169-0.252,0.266-0.35c0.12,0.131,0.238,0.259,0.354,0.382c0.28,0.3,0.548,0.573,0.807,0.826
			c0.472,0.462,0.908,0.847,1.306,1.148C151.588,87.077,151.691,87.107,151.779,87.106z"/>
		<path d="M156.494,87.106c0.005,0,0.012,0,0.016,0c1.211,0.001,2.173-0.387,2.789-1.174c0.531-0.677,0.78-1.593,0.78-2.715l0,0
			c0.001-0.643-0.146-1.203-0.454-1.656c-0.021-0.028-0.043-0.054-0.064-0.08c-0.382-0.502-0.954-0.768-1.623-0.762
			c-0.06-0.001-0.138,0.014-0.209,0.064c-0.005,0.003-0.011,0.008-0.018,0.012c-0.027-0.013-0.061-0.028-0.097-0.047
			c-0.168-0.077-0.246-0.129-0.414-0.139c-0.711,0.013-1.39,0.549-2.159,1.492c-0.74,0.912-1.144,1.653-1.151,2.316
			c-0.002,0.714,0.255,1.356,0.75,1.872c0.08,0.087,0.167,0.165,0.254,0.238C155.347,86.908,155.893,87.108,156.494,87.106z
			 M158.439,82.354c0.008,0.013,0.014,0.026,0.021,0.039c0.123,0.22,0.191,0.496,0.192,0.849c-0.001,0.727-0.159,1.277-0.451,1.679
			c-0.348,0.466-0.844,0.697-1.597,0.703c-0.286-0.001-0.53-0.075-0.761-0.22c-0.027-0.018-0.056-0.031-0.082-0.051
			c-0.273-0.212-0.384-0.432-0.389-0.743c-0.002-0.425,0.236-0.992,0.772-1.67c0.56-0.712,1.06-1.011,1.461-1.011
			c0.004,0,0.007,0,0.011,0C158.028,81.936,158.256,82.063,158.439,82.354z"/>
		<path d="M167.325,87.003c0.123-0.005,0.174-0.058,0.207-0.084c0.098-0.104,0.114-0.171,0.175-0.299
			c0.157-0.367,0.406-1.114,0.763-2.273c0.263-0.857,0.459-1.523,0.591-2.002c0.132-0.491,0.199-0.744,0.206-0.927l0,0
			c-0.001-0.219-0.024-0.402-0.09-0.564c-0.01-0.025-0.017-0.05-0.029-0.073c-0.083-0.183-0.298-0.329-0.508-0.32
			c-0.183-0.001-0.37,0.06-0.505,0.188c-0.138,0.127-0.215,0.297-0.258,0.482c-0.052,0.275-0.101,0.543-0.148,0.81
			c-0.17,0.567-0.339,1.133-0.506,1.699c-0.114,0.373-0.225,0.685-0.322,0.925c-0.029,0.069-0.055,0.133-0.08,0.189
			c-0.118-0.224-0.278-0.537-0.478-0.933c-0.172-0.337-0.323-0.596-0.46-0.788c-0.01-0.015-0.021-0.032-0.031-0.046
			c-0.155-0.187-0.255-0.349-0.539-0.376c-0.206,0.002-0.366,0.119-0.483,0.257c-0.119,0.143-0.22,0.324-0.317,0.553
			c-0.082,0.179-0.199,0.509-0.362,1.014c-0.026,0.077-0.052,0.157-0.079,0.243c-0.021,0.063-0.04,0.121-0.06,0.175
			c-0.225-0.643-0.354-1.249-0.394-1.82c-0.02-0.479-0.039-0.964-0.053-1.45l-0.002-0.018c-0.037-0.357-0.095-0.638-0.205-0.858
			c-0.001-0.001-0.001-0.002-0.001-0.003c-0.101-0.216-0.312-0.41-0.577-0.406c-0.229-0.004-0.442,0.126-0.573,0.305
			c-0.115,0.142-0.19,0.327-0.189,0.519c0.002,0.124,0.036,0.394,0.104,0.916c0.07,0.519,0.117,0.827,0.156,0.982
			c0.016,0.082,0.098,0.571,0.237,1.441c0.114,0.696,0.256,1.229,0.449,1.623c0.141,0.293,0.334,0.529,0.564,0.695
			c0.194,0.139,0.415,0.228,0.659,0.249c0.009,0.002,0.018,0.002,0.026,0.002c0.049,0,0.097-0.014,0.141-0.04
			c0.264-0.158,0.464-0.426,0.639-0.781c0.105-0.216,0.224-0.53,0.368-0.96c0.018-0.057,0.037-0.11,0.054-0.161
			c0.095,0.202,0.191,0.403,0.286,0.604c0.041,0.087,0.083,0.175,0.125,0.262l0.012,0.022c0.136,0.232,0.312,0.429,0.52,0.59
			c0.243,0.189,0.528,0.329,0.852,0.414C167.245,86.995,167.285,87.005,167.325,87.003z"/>
		<path d="M117.419,86.322c0,0.636-0.4,1.153-0.895,1.153l0,0c-0.495,0-0.896-0.518-0.896-1.153V63.589
			c0-0.634,0.401-1.149,0.896-1.149l0,0c0.495,0,0.895,0.516,0.895,1.149V86.322z"/>
		<path d="M98.554,82.062c1.114-0.655-0.039-1.38-0.144-1.38c-0.576-0.104-0.815,0.44-0.815,0.619
			C97.596,81.502,97.89,82.443,98.554,82.062z"/>
		<path d="M98.627,83.133c-0.241,0-0.46,0.096-0.655,0.285c-0.195,0.191-0.287,0.417-0.287,0.69c0,0.238,0.092,1.06,0.287,2.452
			c0.058,0.131,0.219,0.325,0.563,0.347c1.099,0.14,0.863-1.478,0.875-2.191c-0.012-0.631-0.104-1.072-0.289-1.32
			C99.007,83.216,98.835,83.133,98.627,83.133z"/>
		<path d="M101.353,83.192c-0.564,0.643-0.85,1.25-0.85,1.857c0,0.678,0.297,1.201,0.895,1.57c0.081,0.048,1.009,0.473,1.771,0.477
			c0.609,0,1.207-0.143,1.817-0.417c0.814-0.381,1.23-0.893,1.23-1.548c0-0.488,0.015-1.937-1.059-2.762
			C103.992,81.707,101.81,82.681,101.353,83.192z M103.365,83.525c1.739-0.361,1.425,0.929,1.425,1.155
			c0,0.345-0.219,0.653-0.656,0.928c-0.809,0.595-2.053,0.379-2.265-0.477C101.785,83.778,103.365,83.525,103.365,83.525z"/>
		<path d="M97.008,86.584c-1.379-1.178-2.15-2.13-2.323-2.868c-0.068-0.262-0.08-1.166-0.023-2.666
			c0.023-0.654,0.041-1.415,0.041-1.415s0.122-0.863-0.397-0.846c-0.518,0.018-0.69,0.248-0.862,0.63
			c-0.011,0.024-0.171,0.811-0.171,1.274c-0.023,1.071-0.058,1.735-0.082,2.011c-0.011,0.023-0.011,0.049-0.022,0.07
			c-0.034-0.059-0.069-0.094-0.114-0.142c-0.254-0.227-0.576-0.346-0.978-0.346c-0.678,0-1.38,0.309-2.081,0.929
			c-0.701,0.619-1.058,1.238-1.058,1.856c0,0.703,0.311,1.239,0.92,1.619c0.069,0.036,0.126,0.071,0.195,0.108
			c0.425,0.214,0.908,0.32,1.449,0.32c0.574,0,1.092-0.131,1.541-0.393c0.115-0.071,0.505-0.381,1.194-0.928
			c0.375,0.283,0.912,0.68,1.266,0.939C95.856,87.001,97.049,87.274,97.008,86.584z M91.077,85.8c-0.104,0-0.197,0-0.265-0.024
			c-0.196-0.036-0.322-0.119-0.403-0.25c-0.057-0.107-0.092-0.228-0.092-0.347c0-0.344,0.219-0.678,0.667-0.975
			c0.437-0.309,0.873-0.465,1.298-0.452c0.311-0.013,0.541,0.083,0.667,0.273c0.034,0.048,0.057,0.095,0.081,0.154
			c0.023,0.072,0.044,0.155,0.044,0.239c0,0.345-0.218,0.666-0.678,0.951C91.949,85.656,91.502,85.8,91.077,85.8z"/>
		<path d="M85.088,82.063c-0.565-0.014-1.64,0.572-2.316,1.37c-0.569,0.813-0.5,1.679-0.455,2.116c0.178,1.062,1,1.62,1.667,1.608
			c0.666-0.013,1.137-0.097,1.39-0.287c0.356-0.321,0.713-0.642,1.058-0.964c0.022,0.012,0.442,0.664,1.057,0.94
			c0.023,0.012,0.057,0.023,0.082,0.023c0.136,0.037,0.309,0,0.527-0.094c0.421-0.189,0.345-0.596,0.311-0.667
			c-0.139-0.203-0.368-0.429-0.69-0.667c-0.344-0.251-0.551-0.453-0.645-0.607c-0.16-0.285-0.287-0.667-0.39-1.143
			c-0.081-0.381-0.173-0.762-0.253-1.155v-0.012C86.398,82.429,85.63,82.028,85.088,82.063z M83.537,85.215
			c0-0.236,0.001-0.884,0.404-1.252c0.344-0.323,1.215-0.522,1.319,0.05c0.047,0.191,0.082,0.322,0.082,0.406
			c0,0.345-0.005,0.754-0.246,1.04c-0.241,0.273-0.617,0.548-1.045,0.415C83.625,85.739,83.537,85.334,83.537,85.215z"/>
		<path d="M80.377,81.406c-0.646,0-1.275,0.251-1.897,0.741l0,0c0,0-0.364-1.481-1.089-0.76c-0.649,0.649-0.521,3.739-0.521,3.739
			l0.016-0.003c0.021,0.294,0.072,0.601,0.147,0.925c0.137,0.56,0.298,0.929,0.505,1.108c0.578,0.154,1.034-0.024,1.034-0.024
			c-0.115-0.536-0.172-1.012-0.172-1.44c0-1.988,0.75-2.918,3.05-2.918C81.451,82.774,82.717,81.683,80.377,81.406z"/>
		<path d="M105.229,68.148c-0.045-0.047-0.091-0.084-0.161-0.119c-0.069-0.047-0.138-0.083-0.207-0.119
			c-0.425-0.226-0.897-0.404-1.425-0.56c-0.747-0.202-1.426-0.286-2.058-0.238c-0.438,0.036-0.851,0.131-1.231,0.286
			c-0.93,0.381-1.517,1.06-1.77,2.023c-0.172,0.69-0.114,1.381,0.207,2.071c0.208,0.464,0.735,0.928,1.575,1.429
			c0.058,0.036,0.114,0.072,0.184,0.107c0.312,0.166,0.655,0.345,1.035,0.512c0.115,0.06,0.218,0.107,0.344,0.154
			c0.609,0.273,1,0.476,1.173,0.62c0.012,0,0.022,0.011,0.022,0.022c0.07,0.048,0.117,0.108,0.139,0.167
			c0.046,0.083,0.058,0.18,0.035,0.273c-0.092,0.369-0.609,0.429-1.529,0.165c-0.059-0.011-0.116-0.034-0.184-0.046
			c-0.438-0.144-0.839-0.297-1.219-0.5c-1.932,0.595-2.506,1.132-1.701,1.619c0.207,0.166,0.436,0.321,0.688,0.464
			c0.485,0.262,1.035,0.489,1.668,0.667c0.194,0.048,0.378,0.096,0.563,0.131c1.218,0.273,2.252,0.238,3.115-0.083
			c0.989-0.381,1.609-1.083,1.884-2.12c0.172-0.665,0.128-1.297-0.114-1.867c-0.242-0.561-0.586-1-1.046-1.31
			c-0.023-0.013-0.046-0.036-0.058-0.047c-0.229-0.156-0.563-0.347-1-0.549c-0.413-0.189-0.92-0.428-1.519-0.666
			c-0.125-0.06-0.251-0.107-0.378-0.167c-0.046-0.012-0.091-0.035-0.138-0.048c-0.459-0.214-0.655-0.465-0.575-0.75
			c0.023-0.106,0.138-0.179,0.367-0.226c0.208-0.06,0.508-0.048,0.886,0.06c0.253,0.07,0.506,0.166,0.747,0.272
			C104.978,69.029,105.54,68.481,105.229,68.148z"/>
		<path d="M100.344,73.029c-0.069-0.035-0.126-0.071-0.184-0.107c0.184,0.119,0.368,0.238,0.586,0.357
			c0.195,0.106,0.402,0.213,0.632,0.332c0.229,0.107,0.483,0.227,0.747,0.334c0.31,0.143,0.574,0.262,0.77,0.37
			c-0.172-0.145-0.564-0.347-1.173-0.62c-0.126-0.047-0.229-0.095-0.344-0.154C100.999,73.374,100.655,73.195,100.344,73.029z"/>
		<path d="M84.457,63.613c-1.149-0.81-1.839-0.631-2.046,0.523v10.737c0,1.273,0.379,2.071,1.138,2.404
			c0.46,0.202,1.058,0.238,1.782,0.107v-13.07C85.021,64.029,84.722,63.792,84.457,63.613z"/>
		<path d="M96.573,68.589v-0.036c-2.058-1.131-3.046-1.31-2.966-0.523c0.025,0.416,0.025,0.762,0.025,1.036l-0.012,3.118
			c-0.046,0.596-0.196,1.107-0.449,1.547c-0.31,0.524-0.678,0.785-1.115,0.785h-0.241c-0.126,0-0.229-0.022-0.344-0.06
			c-0.288-0.105-0.541-0.344-0.771-0.726c-0.264-0.439-0.413-0.951-0.459-1.547v-3.118c0-0.274-0.013-0.572-0.034-0.905
			c-0.127-0.096-0.253-0.178-0.38-0.262c-1.552-1-2.402-1.071-2.563-0.214l0.034,0.868v4.631c0,1.18,0.425,2.189,1.266,3.022
			c0.298,0.298,0.632,0.548,0.988,0.752c0.621,0.332,1.3,0.499,2.058,0.499h0.667c1.184,0,2.195-0.417,3.034-1.251
			c0.838-0.833,1.264-1.843,1.264-3.022V68.589z"/>
		<path d="M100.344,73.029c-0.069-0.035-0.126-0.071-0.184-0.107c0.184,0.119,0.368,0.238,0.586,0.357
			c0.195,0.106,0.402,0.213,0.632,0.332c0.229,0.107,0.483,0.227,0.747,0.334c0.31,0.143,0.574,0.262,0.77,0.37
			c-0.172-0.145-0.564-0.347-1.173-0.62c-0.126-0.047-0.229-0.095-0.344-0.154C100.999,73.374,100.655,73.195,100.344,73.029z"/>
		<path d="M79.993,70.021c-0.186-0.254-0.418-0.703-0.549-0.518c-2.759,2.929-5.438,4.347-8.874,4.737
			c-0.126,0.024-0.265,0.036-0.402,0.048v-8.463c-0.564-0.523-1.093-0.94-1.563-1.25c-1.794-1.202-2.874-0.881-3.208,0.965v8.476
			c-0.091-0.025-0.195-0.048-0.299-0.06c-1.173-0.25-2.299-0.607-3.379-1.096c-1.357-0.619-2.586-0.606-3.714,0.035
			c-0.161,0.226-0.298,0.465-0.38,0.69c-0.229,0.549-0.229,1.071,0,1.583c0.197,0.465,0.599,0.916,1.186,1.358
			c0.229,0.165,0.482,0.332,0.747,0.487c1.426,0.82,3.368,1.404,5.839,1.762v0.191v4.094c-0.012,1.999,0.564,3.285,1.724,3.868
			c0.771,0.394,1.782,0.464,3.047,0.228v-8.25c3-0.298,5.747-1.357,8.242-3.167C80.203,74.443,81.605,72.325,79.993,70.021z"/>
		<path d="M70,64.897c0.229,0.036,2.29-0.022,4.275,1.129c2.284,1.428,3.568,3.211,3.83,3.62c0.262,0.41,1.335-1.091,1.077-1.917
			c-0.828-1.345-2.112-2.617-3.273-3.38c-1.574-1.022-3.08-1.547-5.254-1.56C69.601,63.08,69.429,64.895,70,64.897z"/>
	</g>
</g>
</svg>
