<?xml version="1.0" encoding="utf-8"?>
<!-- Generator: Adobe Illustrator 16.0.0, SVG Export Plug-In . SVG Version: 6.00 Build 0)  -->
<!DOCTYPE svg PUBLIC "-//W3C//DTD SVG 1.1//EN" "http://www.w3.org/Graphics/SVG/1.1/DTD/svg11.dtd">
<svg version="1.1" id="Layer_1" xmlns="http://www.w3.org/2000/svg" xmlns:xlink="http://www.w3.org/1999/xlink" x="0px" y="0px"
	 width="227.94px" height="150px" viewBox="0 0 227.94 150" enable-background="new 0 0 227.94 150" xml:space="preserve">
<rect x="-756.82" y="-357" display="none" fill="#B74EDE" width="1001" height="856"/>
<g>
	<g>
		<path d="M89.504,82.381c-0.301-0.519-0.658-1.078-1.068-1.681c-0.412-0.602-0.855-1.21-1.328-1.821s-0.971-1.197-1.49-1.76
			c-0.518-0.562-1.037-1.058-1.553-1.487v6.749h-3.361V66.448h3.361v5.988c0.861-0.968,1.74-1.981,2.631-3.039
			c0.895-1.058,1.717-2.039,2.473-2.949h3.986c-1.014,1.29-2.037,2.533-3.064,3.725c-1.029,1.191-2.109,2.391-3.246,3.599
			c1.193,1.062,2.346,2.323,3.455,3.782c1.111,1.459,2.178,3.068,3.201,4.827H89.504z"/>
		<path d="M102.057,73.323c-0.289-0.076-0.625-0.156-1.014-0.243c-0.389-0.084-0.805-0.125-1.25-0.125
			c-0.201,0-0.439,0.019-0.723,0.058c-0.279,0.039-0.492,0.08-0.635,0.125v9.243h-3.211V70.933c0.574-0.217,1.254-0.418,2.037-0.611
			c0.783-0.189,1.654-0.286,2.617-0.286c0.174,0,0.381,0.01,0.623,0.035c0.246,0.022,0.49,0.053,0.736,0.09
			c0.242,0.039,0.486,0.087,0.732,0.139c0.242,0.055,0.451,0.119,0.623,0.197L102.057,73.323z"/>
		<path d="M108.174,69.965c0.949,0,1.738,0.115,2.371,0.346s1.139,0.56,1.52,0.988c0.381,0.43,0.65,0.95,0.807,1.563
			c0.158,0.613,0.238,1.296,0.238,2.045v7.128c-0.461,0.109-1.1,0.234-1.916,0.379c-0.82,0.146-1.813,0.22-2.975,0.22
			c-0.732,0-1.396-0.069-1.994-0.208c-0.596-0.138-1.109-0.364-1.541-0.677c-0.43-0.314-0.762-0.724-0.992-1.23
			c-0.229-0.506-0.342-1.127-0.342-1.862c0-0.705,0.131-1.302,0.398-1.792c0.266-0.491,0.621-0.883,1.066-1.175
			c0.443-0.29,0.953-0.5,1.527-0.632c0.576-0.13,1.172-0.195,1.789-0.195c0.418,0,0.787,0.019,1.111,0.058
			c0.322,0.039,0.584,0.089,0.785,0.15v-0.323c0-0.58-0.164-1.05-0.496-1.401c-0.328-0.354-0.902-0.528-1.721-0.528
			c-0.549,0-1.086,0.041-1.619,0.125c-0.529,0.084-0.99,0.204-1.377,0.356l-0.41-2.758c0.188-0.062,0.42-0.127,0.699-0.195
			c0.279-0.07,0.586-0.13,0.918-0.186c0.33-0.053,0.678-0.099,1.045-0.138C107.432,69.985,107.801,69.965,108.174,69.965z
			 M108.434,79.99c0.316,0,0.617-0.009,0.904-0.022c0.289-0.017,0.52-0.04,0.689-0.07v-2.599c-0.129-0.029-0.322-0.06-0.58-0.091
			c-0.26-0.031-0.496-0.047-0.711-0.047c-0.303,0-0.588,0.021-0.854,0.058c-0.264,0.039-0.5,0.112-0.699,0.218
			c-0.201,0.109-0.359,0.255-0.475,0.438c-0.115,0.183-0.172,0.413-0.172,0.688c0,0.537,0.17,0.91,0.508,1.116
			C107.381,79.887,107.844,79.99,108.434,79.99z"/>
		<path d="M119.23,74.63c0.314-0.364,0.641-0.747,0.979-1.143c0.336-0.396,0.662-0.788,0.979-1.177s0.613-0.759,0.895-1.108
			c0.279-0.351,0.52-0.654,0.719-0.914h3.82c-0.762,0.933-1.506,1.823-2.23,2.673c-0.727,0.848-1.521,1.725-2.383,2.626
			c0.432,0.413,0.877,0.911,1.338,1.485c0.457,0.576,0.904,1.171,1.334,1.784c0.434,0.615,0.828,1.229,1.186,1.844
			c0.359,0.613,0.66,1.175,0.906,1.681h-3.691c-0.23-0.399-0.492-0.842-0.787-1.325c-0.293-0.485-0.605-0.969-0.936-1.452
			c-0.33-0.484-0.678-0.949-1.043-1.396c-0.365-0.444-0.727-0.821-1.084-1.128v5.301h-3.213V65.093l3.213-0.554V74.63z"/>
		<path d="M138.32,76.311c0,0.951-0.129,1.821-0.389,2.609c-0.258,0.79-0.631,1.465-1.119,2.022
			c-0.488,0.56-1.074,0.994-1.756,1.301c-0.684,0.307-1.447,0.459-2.297,0.459c-0.832,0-1.59-0.152-2.273-0.459
			c-0.68-0.307-1.268-0.741-1.754-1.301c-0.488-0.558-0.871-1.232-1.143-2.022c-0.273-0.788-0.41-1.658-0.41-2.609
			c0-0.95,0.141-1.814,0.42-2.597c0.281-0.784,0.67-1.448,1.166-2c0.492-0.554,1.084-0.981,1.764-1.288
			c0.684-0.307,1.428-0.461,2.23-0.461c0.82,0,1.57,0.154,2.254,0.461c0.682,0.307,1.268,0.734,1.756,1.288
			c0.486,0.552,0.867,1.216,1.141,2C138.186,74.496,138.32,75.36,138.32,76.311z M135.41,65.942l-3.543,3.195l-1.477-1.401
			l3.049-3.724L135.41,65.942z M135.045,76.311c0-1.058-0.197-1.889-0.592-2.493c-0.396-0.607-0.959-0.91-1.693-0.91
			c-0.732,0-1.299,0.303-1.701,0.91c-0.402,0.604-0.602,1.436-0.602,2.493s0.199,1.897,0.602,2.517
			c0.402,0.622,0.969,0.933,1.701,0.933c0.734,0,1.297-0.311,1.693-0.933C134.848,78.208,135.045,77.368,135.045,76.311z"/>
		<path d="M147.445,75.437c-0.287,1.166-0.592,2.323-0.914,3.473c-0.326,1.148-0.666,2.307-1.025,3.472h-2.498
			c-0.262-0.644-0.541-1.409-0.844-2.298c-0.303-0.89-0.615-1.86-0.939-2.91c-0.324-1.049-0.654-2.16-0.994-3.333
			c-0.338-1.173-0.668-2.356-0.984-3.552h3.383c0.115,0.552,0.242,1.152,0.381,1.805c0.139,0.65,0.281,1.321,0.432,2.013
			c0.152,0.688,0.313,1.382,0.479,2.078c0.166,0.699,0.334,1.368,0.51,2.012c0.186-0.673,0.369-1.364,0.549-2.067
			c0.18-0.704,0.352-1.399,0.518-2.083c0.164-0.681,0.322-1.339,0.473-1.977c0.152-0.634,0.283-1.229,0.398-1.78h2.328
			c0.115,0.552,0.244,1.146,0.389,1.78c0.143,0.638,0.295,1.296,0.451,1.977c0.158,0.684,0.324,1.379,0.498,2.083
			c0.17,0.703,0.352,1.395,0.537,2.067c0.172-0.644,0.348-1.313,0.52-2.012c0.174-0.696,0.336-1.39,0.488-2.078
			c0.152-0.691,0.297-1.362,0.434-2.013c0.139-0.652,0.264-1.253,0.379-1.805h3.34c-0.316,1.195-0.645,2.379-0.982,3.552
			c-0.34,1.173-0.67,2.284-0.996,3.333c-0.322,1.05-0.639,2.021-0.949,2.91c-0.309,0.889-0.596,1.654-0.855,2.298h-2.496
			c-0.361-1.165-0.713-2.323-1.059-3.472C148.049,77.76,147.732,76.603,147.445,75.437z"/>
		<path d="M159.436,80.564c0,0.688-0.203,1.216-0.613,1.576c-0.408,0.357-0.871,0.539-1.389,0.539s-0.98-0.182-1.391-0.539
			c-0.41-0.36-0.613-0.888-0.613-1.576c0-0.689,0.203-1.215,0.613-1.574c0.41-0.36,0.873-0.541,1.391-0.541s0.98,0.181,1.389,0.541
			C159.232,79.35,159.436,79.875,159.436,80.564z"/>
		<path d="M172.127,76.333c0,0.937-0.105,1.786-0.322,2.554c-0.215,0.766-0.531,1.424-0.947,1.976
			c-0.418,0.552-0.936,0.981-1.551,1.288c-0.619,0.307-1.33,0.461-2.135,0.461c-0.445,0-0.861-0.047-1.25-0.14
			c-0.387-0.091-0.76-0.223-1.119-0.389v4.551h-3.211V70.702c0.287-0.093,0.617-0.18,0.992-0.266
			c0.373-0.083,0.764-0.156,1.174-0.219c0.408-0.06,0.826-0.11,1.248-0.147c0.424-0.039,0.832-0.058,1.219-0.058
			c0.934,0,1.768,0.147,2.5,0.446c0.732,0.301,1.35,0.722,1.854,1.266c0.502,0.545,0.887,1.205,1.152,1.989
			C171.996,74.496,172.127,75.368,172.127,76.333z M168.854,76.426c0-1.058-0.225-1.903-0.668-2.539
			c-0.445-0.638-1.107-0.957-1.984-0.957c-0.285,0-0.551,0.013-0.797,0.035c-0.242,0.025-0.443,0.052-0.602,0.08v6.186
			c0.201,0.138,0.463,0.253,0.785,0.344c0.324,0.093,0.65,0.14,0.982,0.14C168.092,79.714,168.854,78.617,168.854,76.426z"/>
		<path d="M179.131,82.611c-0.934-0.017-1.691-0.123-2.273-0.323c-0.582-0.199-1.041-0.479-1.379-0.839
			c-0.336-0.36-0.566-0.797-0.688-1.312c-0.123-0.512-0.184-1.092-0.184-1.734V65.093l3.209-0.554v13.175
			c0,0.307,0.023,0.583,0.066,0.827c0.043,0.245,0.123,0.453,0.246,0.62c0.123,0.17,0.299,0.309,0.527,0.413
			c0.23,0.109,0.539,0.177,0.928,0.208L179.131,82.611z"/>
	</g>
	<path d="M64.824,63.819v0.022v-0.011V63.819L64.824,63.819z M64.824,68.963v-5.121c0.006-0.18,0.154-0.319,0.332-0.317
		c1.748,0.107,3.334,0.26,4.691,0.451l0.004,0.002c0.127,0.015,0.232,0.104,0.271,0.224l0,0l0.002,0.007
		c0.006,0.012,0.008,0.024,0.012,0.039l0.002,0.01c0.004,0.035,0.012,0.076,0.018,0.124c0.168,1.134,0.342,2.924,0.432,4.547
		c0,0,0.021,0.364-0.342,0.364h-3.961h-1.133C64.969,69.292,64.824,69.145,64.824,68.963"/>
	<path d="M54.279,85.282v-5.448v0.329c0-0.182-0.145-0.329-0.328-0.329h-1.133h-3.961c-0.363,0-0.344,0.361-0.344,0.361
		c0.094,1.626,0.266,3.416,0.436,4.55c0.006,0.047,0.012,0.089,0.016,0.123l0.002,0.011c0.004,0.015,0.006,0.026,0.01,0.039
		l0.002,0.006l0,0c0.039,0.12,0.145,0.208,0.27,0.225c1.359,0.191,2.949,0.346,4.701,0.45
		C54.127,85.602,54.275,85.461,54.279,85.282 M54.279,85.284L54.279,85.284L54.279,85.284L54.279,85.284"/>
	<path d="M60.211,68.928c0,0,0,0.364,0.363,0.364h2.568c0,0,0.363,0,0.363-0.364v-1.032v-4.091c0,0,0-0.364-0.363-0.377
		c-0.695-0.03-1.797-0.056-2.568-0.062c0,0-0.363-0.002-0.363,0.362v4.243V68.928"/>
	<path d="M59.551,85.399v-5.457v0.221c0-0.182-0.146-0.329-0.328-0.329h0.221h-0.221h-3.262c0,0-0.361,0-0.361,0.364v1.032v4.091
		c0,0,0,0.362,0.361,0.379c0.896,0.035,2.223,0.063,3.229,0.063C59.189,85.764,59.551,85.764,59.551,85.399"/>
	<path d="M55.6,68.928c0,0,0,0.364,0.361,0.364h2.57c0,0,0.361,0,0.361-0.364v-5.199c0,0,0-0.364-0.361-0.362
		c-0.773,0.004-1.877,0.031-2.57,0.062c0,0-0.361,0.013-0.361,0.377v4.091V68.928"/>
	<path d="M52.883,78.517h1.035c0,0,0.363,0,0.363-0.364v-2.567c0,0,0-0.362-0.363-0.362h-5.201c0,0-0.363,0-0.361,0.362
		c0.004,0.771,0.031,1.874,0.061,2.567c0,0,0.014,0.364,0.379,0.364H52.883"/>
	<path d="M48.355,73.541c0,0-0.002,0.362,0.363,0.362h5.199c0,0,0.361,0,0.361-0.362v-2.567c0,0,0-0.364-0.361-0.364h-1.033h-4.09
		c0,0-0.365,0-0.379,0.362C48.387,71.667,48.359,72.768,48.355,73.541"/>
	<path d="M54.279,63.819v0.022v-0.011V63.819L54.279,63.819z M54.279,68.963v-5.121c-0.004-0.18-0.154-0.319-0.332-0.317
		c-1.748,0.107-3.334,0.26-4.689,0.451l-0.004,0.002c-0.129,0.015-0.236,0.104-0.275,0.224l0,0l-0.002,0.007
		c-0.004,0.012-0.006,0.024-0.01,0.039l-0.002,0.01c-0.004,0.035-0.01,0.076-0.016,0.124c-0.17,1.134-0.342,2.924-0.436,4.547
		c0,0-0.02,0.364,0.344,0.364h3.961h1.133C54.135,69.292,54.279,69.145,54.279,68.963"/>
	<path d="M64.824,78.539c0,0,0,0.362,0.254,0.619c0,0-0.254-0.257,4.879,4.877c0,0,0.258,0.257,0.303-0.103
		c0.25-1.955,0.441-4.864,0.479-7.689c0,0,0.004-0.364-0.357-0.364h-5.266c0,0-0.291,0-0.291,0.294v0.366v0.988v0.584V78.539"/>
	<path d="M70.752,74.239c-0.004-1.252-0.029-2.44-0.064-3.268c0,0-0.014-0.362-0.379-0.362h-5.123c0,0-0.361,0-0.361,0.364v2.271
		V74.2c0,0,0,0.361,0.361,0.361h5.236C70.604,74.562,70.75,74.418,70.752,74.239"/>
	<path d="M69.025,84.968c-3.537-3.537-4.637-4.637-4.98-4.979c-0.109-0.104-0.232-0.163-0.34-0.154l0,0h-2.473
		c0,0-0.363,0-0.363,0.364v5.193c0,0,0,0.364,0.363,0.357c2.828-0.037,5.732-0.229,7.689-0.479
		C68.922,85.27,69.283,85.225,69.025,84.968"/>
</g>
</svg>
