<?xml version="1.0" encoding="utf-8"?>
<!-- Generator: Adobe Illustrator 16.0.0, SVG Export Plug-In . SVG Version: 6.00 Build 0)  -->
<!DOCTYPE svg PUBLIC "-//W3C//DTD SVG 1.1//EN" "http://www.w3.org/Graphics/SVG/1.1/DTD/svg11.dtd">
<svg version="1.1" id="Layer_1" xmlns="http://www.w3.org/2000/svg" xmlns:xlink="http://www.w3.org/1999/xlink" x="0px" y="0px"
	 width="227.939px" height="150px" viewBox="0 0 227.939 150" enable-background="new 0 0 227.939 150" xml:space="preserve">
<rect x="-13" y="-697.996" display="none" fill="#B74EDE" width="1001" height="856"/>
<g>
	<path fill="#020A0A" d="M57.839,70.348l2.961-7.196h1.718l2.93,7.196h-1.614l-0.73-1.891h-2.972l-0.741,1.891H57.839z
		 M60.595,67.263h2.056l-1.028-2.652L60.595,67.263z"/>
	<path fill="#020A0A" d="M66.565,70.348v-7.196l1.408-0.237v7.434H66.565z"/>
	<path fill="#020A0A" d="M72.266,70.451c-0.534,0-1.02-0.123-1.455-0.369s-0.779-0.58-1.034-0.998
		c-0.253-0.419-0.38-0.888-0.38-1.408c0-0.521,0.122-0.992,0.366-1.41c0.243-0.418,0.574-0.75,0.992-0.998
		c0.418-0.246,0.884-0.369,1.398-0.369c0.514,0,0.969,0.126,1.368,0.381c0.397,0.254,0.71,0.597,0.941,1.027
		c0.229,0.433,0.344,0.922,0.344,1.472v0.369h-3.969c0.062,0.213,0.163,0.406,0.303,0.576c0.14,0.172,0.316,0.305,0.524,0.401
		c0.21,0.096,0.434,0.144,0.674,0.144c0.239,0,0.46-0.038,0.663-0.112c0.202-0.075,0.376-0.182,0.52-0.319l0.926,0.844
		c-0.329,0.267-0.667,0.462-1.013,0.585S72.699,70.451,72.266,70.451z M70.816,67.14h2.602c-0.048-0.213-0.135-0.399-0.261-0.56
		c-0.128-0.161-0.278-0.288-0.453-0.381s-0.368-0.14-0.582-0.14c-0.219,0-0.418,0.045-0.596,0.135
		c-0.178,0.089-0.327,0.214-0.448,0.374C70.959,66.731,70.872,66.921,70.816,67.14z"/>
	<path fill="#020A0A" d="M76.218,70.348v-7.196l1.409-0.237v4.328l2.313-2.251h1.593l-2.529,2.457l2.685,2.899h-1.8l-2.262-2.446
		v2.446H76.218z"/>
	<path fill="#020A0A" d="M84.73,70.451c-0.493,0-0.95-0.064-1.368-0.19c-0.417-0.126-0.781-0.311-1.089-0.55l0.699-0.935
		c0.308,0.205,0.605,0.358,0.889,0.462c0.285,0.103,0.568,0.153,0.85,0.153c0.314,0,0.567-0.053,0.755-0.157
		c0.189-0.108,0.283-0.247,0.283-0.418c0-0.137-0.053-0.248-0.16-0.33c-0.106-0.081-0.275-0.14-0.509-0.174l-1.028-0.154
		c-0.535-0.082-0.939-0.255-1.214-0.52c-0.273-0.263-0.411-0.612-0.411-1.043c0-0.351,0.09-0.65,0.272-0.9
		c0.181-0.251,0.439-0.444,0.771-0.586c0.332-0.14,0.728-0.211,1.187-0.211c0.391,0,0.772,0.056,1.147,0.164
		c0.374,0.11,0.725,0.277,1.054,0.504l-0.679,0.916c-0.295-0.186-0.576-0.319-0.843-0.401s-0.538-0.123-0.812-0.123
		c-0.253,0-0.458,0.048-0.612,0.144c-0.154,0.096-0.232,0.223-0.232,0.381c0,0.144,0.056,0.257,0.166,0.339s0.298,0.141,0.566,0.175
		l1.018,0.153c0.534,0.076,0.943,0.246,1.224,0.511c0.281,0.263,0.422,0.604,0.422,1.022c0,0.343-0.103,0.646-0.309,0.909
		c-0.206,0.266-0.483,0.474-0.833,0.628C85.583,70.375,85.183,70.451,84.73,70.451z"/>
	<path fill="#020A0A" d="M90.08,70.441c-0.384,0-0.723-0.071-1.017-0.212c-0.295-0.141-0.525-0.333-0.689-0.581
		c-0.165-0.246-0.247-0.53-0.247-0.853c0-0.514,0.192-0.913,0.582-1.198c0.386-0.284,0.92-0.426,1.598-0.426
		c0.467,0,0.906,0.07,1.316,0.214v-0.39c0-0.31-0.095-0.541-0.287-0.699c-0.192-0.158-0.474-0.237-0.843-0.237
		c-0.227,0-0.471,0.037-0.731,0.108c-0.26,0.072-0.562,0.185-0.904,0.335l-0.514-1.04c0.425-0.19,0.831-0.334,1.218-0.43
		c0.387-0.098,0.776-0.146,1.168-0.146c0.719,0,1.279,0.174,1.68,0.521s0.603,0.835,0.603,1.466v3.475h-1.39v-0.38
		c-0.219,0.164-0.455,0.284-0.708,0.36C90.659,70.403,90.381,70.441,90.08,70.441z M89.463,68.765c0,0.205,0.089,0.37,0.268,0.489
		c0.179,0.12,0.415,0.18,0.709,0.18c0.234,0,0.449-0.029,0.648-0.088c0.198-0.059,0.377-0.146,0.534-0.262v-0.781
		c-0.17-0.068-0.349-0.12-0.534-0.155c-0.186-0.033-0.384-0.051-0.596-0.051c-0.323,0-0.575,0.061-0.757,0.181
		C89.554,68.396,89.463,68.559,89.463,68.765z"/>
	<path fill="#020A0A" d="M94.678,70.348v-5.356h1.409v0.442c0.405-0.363,0.905-0.547,1.501-0.547c0.418,0,0.788,0.093,1.106,0.273
		c0.318,0.182,0.567,0.433,0.745,0.751c0.179,0.32,0.267,0.69,0.267,1.115v3.321h-1.408v-3.114c0-0.35-0.1-0.626-0.298-0.829
		c-0.199-0.201-0.47-0.303-0.814-0.303c-0.24,0-0.451,0.046-0.636,0.139c-0.186,0.094-0.339,0.224-0.463,0.396v3.712H94.678z"/>
	<path fill="#020A0A" d="M103.803,70.421c-0.507,0-0.966-0.123-1.378-0.371c-0.411-0.246-0.739-0.576-0.982-0.991
		c-0.244-0.416-0.365-0.879-0.365-1.395c0-0.515,0.121-0.979,0.365-1.393c0.243-0.414,0.574-0.744,0.993-0.988
		c0.417-0.243,0.887-0.364,1.408-0.364c0.268,0,0.524,0.037,0.771,0.107c0.246,0.072,0.477,0.177,0.689,0.313v-2.188l1.409-0.237
		v7.434h-1.389v-0.441C104.886,70.249,104.379,70.421,103.803,70.421z M104.029,69.218c0.261,0,0.499-0.043,0.715-0.13
		c0.216-0.085,0.403-0.213,0.561-0.385v-2.087c-0.158-0.157-0.346-0.281-0.566-0.371c-0.219-0.088-0.456-0.133-0.71-0.133
		c-0.294,0-0.56,0.066-0.796,0.2c-0.236,0.133-0.424,0.319-0.561,0.555c-0.137,0.237-0.207,0.503-0.207,0.797
		c0,0.295,0.069,0.56,0.207,0.793c0.136,0.231,0.324,0.418,0.561,0.554C103.469,69.148,103.734,69.218,104.029,69.218z"/>
	<path fill="#020A0A" d="M111.002,70.451c-0.536,0-1.02-0.123-1.456-0.369c-0.436-0.246-0.78-0.58-1.033-0.998
		c-0.254-0.419-0.38-0.888-0.38-1.408c0-0.521,0.121-0.992,0.365-1.41c0.243-0.418,0.573-0.75,0.992-0.998
		c0.418-0.246,0.884-0.369,1.398-0.369s0.97,0.126,1.368,0.381c0.397,0.254,0.711,0.597,0.941,1.027
		c0.23,0.433,0.345,0.922,0.345,1.472v0.369h-3.97c0.063,0.213,0.164,0.406,0.304,0.576c0.141,0.172,0.315,0.305,0.525,0.401
		c0.208,0.096,0.433,0.144,0.672,0.144c0.241,0,0.462-0.038,0.665-0.112c0.202-0.075,0.375-0.182,0.519-0.319l0.926,0.844
		c-0.33,0.267-0.667,0.462-1.013,0.585C111.823,70.389,111.433,70.451,111.002,70.451z M109.551,67.14h2.602
		c-0.047-0.213-0.134-0.399-0.262-0.56c-0.126-0.161-0.277-0.288-0.452-0.381c-0.174-0.093-0.368-0.14-0.581-0.14
		c-0.219,0-0.418,0.045-0.596,0.135c-0.178,0.089-0.328,0.214-0.447,0.374C109.694,66.731,109.607,66.921,109.551,67.14z"/>
	<path fill="#020A0A" d="M114.954,70.348v-5.356h1.408v0.595c0.173-0.23,0.378-0.409,0.618-0.532s0.511-0.188,0.813-0.188
		c0.26,0.009,0.456,0.05,0.585,0.125v1.233c-0.103-0.047-0.216-0.084-0.339-0.107s-0.25-0.036-0.379-0.036
		c-0.275,0-0.524,0.069-0.751,0.205c-0.227,0.138-0.408,0.333-0.546,0.587v3.475H114.954z"/>
	<path fill="#020A0A" d="M122.337,70.348v-7.196h1.913l1.975,3.886l1.975-3.886h1.912v7.196h-1.408v-5.294l-2.499,4.782
		l-2.488-4.803v5.314H122.337z"/>
	<path fill="#020A0A" d="M132.647,64.354c-0.219,0-0.408-0.079-0.565-0.237c-0.158-0.158-0.237-0.346-0.237-0.565
		c0-0.228,0.079-0.417,0.237-0.571c0.157-0.154,0.346-0.23,0.565-0.23c0.227,0,0.417,0.076,0.571,0.23s0.231,0.344,0.231,0.571
		c0,0.22-0.077,0.407-0.231,0.565S132.874,64.354,132.647,64.354z M131.948,70.348v-5.356h1.409v5.356H131.948z"/>
	<path fill="#020A0A" d="M137.098,70.451c-0.494,0-0.95-0.064-1.369-0.19c-0.418-0.126-0.781-0.311-1.089-0.55l0.7-0.935
		c0.308,0.205,0.605,0.358,0.889,0.462c0.284,0.103,0.567,0.153,0.849,0.153c0.315,0,0.568-0.053,0.756-0.157
		c0.188-0.108,0.282-0.247,0.282-0.418c0-0.137-0.053-0.248-0.159-0.33c-0.106-0.081-0.275-0.14-0.508-0.174l-1.029-0.154
		c-0.534-0.082-0.939-0.255-1.212-0.52c-0.275-0.263-0.413-0.612-0.413-1.043c0-0.351,0.092-0.65,0.273-0.9
		c0.182-0.251,0.439-0.444,0.771-0.586c0.333-0.14,0.729-0.211,1.188-0.211c0.39,0,0.772,0.056,1.146,0.164
		c0.374,0.11,0.725,0.277,1.055,0.504l-0.679,0.916c-0.295-0.186-0.577-0.319-0.843-0.401c-0.269-0.082-0.539-0.123-0.813-0.123
		c-0.253,0-0.458,0.048-0.612,0.144c-0.154,0.096-0.231,0.223-0.231,0.381c0,0.144,0.054,0.257,0.164,0.339
		c0.111,0.082,0.299,0.141,0.566,0.175l1.017,0.153c0.536,0.076,0.943,0.246,1.225,0.511c0.281,0.263,0.421,0.604,0.421,1.022
		c0,0.343-0.102,0.646-0.308,0.909c-0.206,0.266-0.483,0.474-0.833,0.628C137.951,70.375,137.55,70.451,137.098,70.451z"/>
	<path fill="#020A0A" d="M140.436,70.348v-0.997l2.694-3.177h-2.674v-1.183h4.474v0.996l-2.695,3.178h2.767v1.183H140.436z"/>
	<path fill="#020A0A" d="M148.073,70.441c-0.383,0-0.723-0.071-1.018-0.212c-0.295-0.141-0.524-0.333-0.689-0.581
		c-0.164-0.246-0.247-0.53-0.247-0.853c0-0.514,0.194-0.913,0.582-1.198c0.387-0.284,0.92-0.426,1.598-0.426
		c0.467,0,0.906,0.07,1.317,0.214v-0.39c0-0.31-0.096-0.541-0.288-0.699c-0.192-0.158-0.473-0.237-0.843-0.237
		c-0.227,0-0.47,0.037-0.73,0.108c-0.26,0.072-0.562,0.185-0.905,0.335l-0.514-1.04c0.425-0.19,0.832-0.334,1.218-0.43
		c0.388-0.098,0.777-0.146,1.168-0.146c0.719,0,1.279,0.174,1.681,0.521s0.602,0.835,0.602,1.466v3.475h-1.389v-0.38
		c-0.219,0.164-0.456,0.284-0.709,0.36C148.653,70.403,148.375,70.441,148.073,70.441z M147.456,68.765
		c0,0.205,0.089,0.37,0.268,0.489c0.179,0.12,0.415,0.18,0.709,0.18c0.233,0,0.448-0.029,0.647-0.088
		c0.198-0.059,0.377-0.146,0.535-0.262v-0.781c-0.171-0.068-0.35-0.12-0.535-0.155c-0.185-0.033-0.383-0.051-0.596-0.051
		c-0.322,0-0.574,0.061-0.756,0.181C147.548,68.396,147.456,68.559,147.456,68.765z"/>
	<path fill="#020A0A" d="M152.672,70.348v-7.196l1.408-0.237v7.434H152.672z"/>
	<path fill="#020A0A" d="M157.822,70.451c-0.493,0-0.949-0.064-1.367-0.19c-0.418-0.126-0.782-0.311-1.089-0.55l0.698-0.935
		c0.308,0.205,0.605,0.358,0.89,0.462c0.284,0.103,0.566,0.153,0.848,0.153c0.316,0,0.567-0.053,0.755-0.157
		c0.189-0.108,0.283-0.247,0.283-0.418c0-0.137-0.053-0.248-0.16-0.33c-0.105-0.081-0.275-0.14-0.509-0.174l-1.028-0.154
		c-0.535-0.082-0.939-0.255-1.213-0.52c-0.274-0.263-0.412-0.612-0.412-1.043c0-0.351,0.091-0.65,0.273-0.9
		c0.181-0.251,0.438-0.444,0.771-0.586c0.332-0.14,0.729-0.211,1.188-0.211c0.39,0,0.771,0.056,1.146,0.164
		c0.374,0.11,0.725,0.277,1.055,0.504l-0.679,0.916c-0.295-0.186-0.576-0.319-0.843-0.401c-0.268-0.082-0.539-0.123-0.813-0.123
		c-0.254,0-0.458,0.048-0.612,0.144c-0.154,0.096-0.231,0.223-0.231,0.381c0,0.144,0.056,0.257,0.165,0.339
		c0.11,0.082,0.298,0.141,0.566,0.175l1.018,0.153c0.535,0.076,0.942,0.246,1.224,0.511c0.281,0.263,0.422,0.604,0.422,1.022
		c0,0.343-0.104,0.646-0.31,0.909c-0.205,0.266-0.483,0.474-0.833,0.628C158.676,70.375,158.275,70.451,157.822,70.451z"/>
	<path fill="#020A0A" d="M161.497,70.348v-7.196l1.408-0.237v4.328l2.314-2.251h1.592l-2.529,2.457l2.685,2.899h-1.8l-2.262-2.446
		v2.446H161.497z"/>
	<path fill="#020A0A" d="M168.671,64.354c-0.219,0-0.408-0.079-0.565-0.237c-0.158-0.158-0.237-0.346-0.237-0.565
		c0-0.228,0.079-0.417,0.237-0.571c0.158-0.154,0.347-0.23,0.565-0.23c0.227,0,0.417,0.076,0.572,0.23
		c0.154,0.154,0.231,0.344,0.231,0.571c0,0.22-0.077,0.407-0.231,0.565C169.087,64.275,168.897,64.354,168.671,64.354z
		 M167.972,70.348v-5.356h1.409v5.356H167.972z"/>
	<path fill="#020A0A" d="M43.491,85.037V77.84h3.61c0.473,0,0.889,0.098,1.249,0.288c0.36,0.192,0.643,0.458,0.849,0.797
		c0.206,0.34,0.309,0.731,0.309,1.179c0,0.424-0.103,0.805-0.309,1.141c-0.206,0.337-0.49,0.6-0.853,0.792
		c-0.364,0.191-0.778,0.288-1.245,0.288h-2.118v2.713H43.491z M44.982,81.089h1.954c0.323,0,0.581-0.088,0.776-0.266
		c0.196-0.179,0.293-0.415,0.293-0.711c0-0.302-0.098-0.542-0.293-0.72c-0.195-0.179-0.454-0.267-0.776-0.267h-1.954V81.089z"/>
	<path fill="#020A0A" d="M50.808,85.037v-5.355h1.409v0.595c0.171-0.232,0.377-0.41,0.618-0.533c0.24-0.123,0.51-0.187,0.812-0.187
		c0.26,0.008,0.455,0.049,0.586,0.125v1.232c-0.103-0.048-0.216-0.083-0.339-0.106s-0.251-0.037-0.381-0.037
		c-0.274,0-0.524,0.069-0.751,0.205c-0.226,0.138-0.407,0.334-0.544,0.587v3.475H50.808z"/>
	<path fill="#020A0A" d="M58.031,85.141c-0.535,0-1.02-0.124-1.455-0.37c-0.435-0.246-0.78-0.579-1.034-0.997
		s-0.381-0.887-0.381-1.408s0.123-0.991,0.366-1.409c0.244-0.419,0.574-0.75,0.993-0.998c0.418-0.247,0.883-0.37,1.398-0.37
		c0.514,0,0.969,0.126,1.368,0.381c0.397,0.254,0.71,0.597,0.94,1.027c0.229,0.433,0.344,0.922,0.344,1.472v0.37h-3.969
		c0.062,0.213,0.163,0.404,0.304,0.575c0.14,0.173,0.315,0.305,0.524,0.401s0.433,0.144,0.673,0.144
		c0.241,0,0.461-0.038,0.664-0.112c0.202-0.075,0.376-0.182,0.52-0.318l0.926,0.843c-0.33,0.267-0.667,0.463-1.013,0.586
		C58.852,85.079,58.462,85.141,58.031,85.141z M56.581,81.83h2.602c-0.048-0.214-0.135-0.399-0.261-0.561
		c-0.128-0.16-0.278-0.287-0.453-0.381c-0.175-0.093-0.369-0.139-0.582-0.139c-0.219,0-0.418,0.044-0.596,0.135
		c-0.179,0.088-0.327,0.213-0.447,0.374C56.723,81.421,56.637,81.611,56.581,81.83z"/>
	<path fill="#020A0A" d="M61.547,85.037V84.04l2.693-3.177h-2.673v-1.182h4.473v0.996l-2.693,3.178h2.766v1.182H61.547z"/>
	<path fill="#020A0A" d="M68.125,87.25c-0.123,0-0.242-0.007-0.354-0.016c-0.113-0.012-0.208-0.022-0.283-0.037v-1.212
		c0.137,0.026,0.302,0.041,0.494,0.041c0.514,0,0.87-0.244,1.07-0.731l0.082-0.205l-2.088-5.408h1.554l1.336,3.65l1.511-3.65h1.522
		L70.5,85.471c-0.186,0.431-0.387,0.778-0.607,1.039c-0.219,0.26-0.471,0.448-0.754,0.564C68.854,87.191,68.516,87.25,68.125,87.25z
		"/>
	<path fill="#020A0A" d="M76.282,85.111c-0.507,0-0.966-0.123-1.379-0.372c-0.411-0.246-0.738-0.576-0.982-0.991
		c-0.243-0.415-0.365-0.88-0.365-1.394c0-0.516,0.122-0.979,0.365-1.394c0.244-0.414,0.575-0.745,0.994-0.987
		c0.417-0.243,0.887-0.364,1.408-0.364c0.268,0,0.524,0.035,0.772,0.106c0.246,0.072,0.476,0.177,0.688,0.314v-2.19l1.409-0.236
		v7.434h-1.388v-0.441C77.365,84.938,76.858,85.111,76.282,85.111z M76.508,83.908c0.26,0,0.498-0.044,0.715-0.13
		c0.216-0.086,0.402-0.214,0.56-0.386v-2.086c-0.158-0.158-0.346-0.282-0.565-0.371c-0.22-0.089-0.457-0.133-0.71-0.133
		c-0.295,0-0.561,0.065-0.797,0.2c-0.236,0.133-0.424,0.318-0.56,0.555c-0.137,0.235-0.206,0.503-0.206,0.797
		c0,0.295,0.069,0.558,0.206,0.792c0.136,0.232,0.324,0.418,0.56,0.555S76.213,83.908,76.508,83.908z"/>
	<path fill="#020A0A" d="M83.479,85.141c-0.534,0-1.02-0.124-1.455-0.37s-0.779-0.579-1.034-0.997
		c-0.253-0.418-0.381-0.887-0.381-1.408s0.122-0.991,0.366-1.409c0.243-0.419,0.574-0.75,0.992-0.998
		c0.418-0.247,0.885-0.37,1.398-0.37c0.514,0,0.97,0.126,1.368,0.381c0.397,0.254,0.711,0.597,0.941,1.027
		c0.229,0.433,0.344,0.922,0.344,1.472v0.37H82.05c0.062,0.213,0.163,0.404,0.304,0.575c0.14,0.173,0.315,0.305,0.524,0.401
		c0.209,0.097,0.433,0.144,0.674,0.144c0.24,0,0.46-0.038,0.663-0.112c0.202-0.075,0.376-0.182,0.52-0.318l0.926,0.843
		c-0.329,0.267-0.667,0.463-1.013,0.586S83.912,85.141,83.479,85.141z M82.029,81.83h2.603c-0.049-0.214-0.136-0.399-0.262-0.561
		c-0.127-0.16-0.278-0.287-0.453-0.381c-0.175-0.093-0.369-0.139-0.581-0.139c-0.22,0-0.419,0.044-0.597,0.135
		c-0.178,0.088-0.327,0.213-0.448,0.374C82.172,81.421,82.085,81.611,82.029,81.83z"/>
	<path fill="#020A0A" d="M87.432,85.037v-5.355h1.409v0.441c0.404-0.362,0.904-0.546,1.501-0.546c0.418,0,0.787,0.092,1.105,0.273
		c0.319,0.182,0.568,0.433,0.747,0.751c0.177,0.319,0.267,0.689,0.267,1.114v3.321h-1.409v-3.114c0-0.351-0.1-0.627-0.297-0.829
		c-0.199-0.202-0.471-0.303-0.814-0.303c-0.24,0-0.452,0.047-0.637,0.14c-0.186,0.093-0.339,0.224-0.462,0.396v3.711H87.432z"/>
	<path fill="#020A0A" d="M96.499,85.12c-0.597,0-1.048-0.134-1.353-0.406c-0.305-0.27-0.458-0.666-0.458-1.187v-2.675h-1.1v-1.171
		h1.1v-1.369l1.41-0.319v1.688h1.532v1.171h-1.532v2.386c0,0.248,0.055,0.424,0.165,0.53c0.109,0.105,0.302,0.16,0.575,0.16
		c0.138,0,0.263-0.011,0.375-0.027c0.114-0.016,0.239-0.049,0.376-0.097v1.162c-0.144,0.047-0.323,0.085-0.54,0.112
		C96.832,85.107,96.649,85.12,96.499,85.12z"/>
	<path fill="#020A0A" d="M101.506,85.037V77.84h1.913l1.975,3.888l1.975-3.888h1.912v7.197h-1.408v-5.294l-2.499,4.781l-2.488-4.802
		v5.314H101.506z"/>
	<path fill="#020A0A" d="M111.816,79.043c-0.219,0-0.408-0.079-0.565-0.236c-0.158-0.158-0.237-0.346-0.237-0.565
		c0-0.228,0.079-0.416,0.237-0.571c0.157-0.155,0.346-0.23,0.565-0.23c0.227,0,0.417,0.075,0.571,0.23
		c0.154,0.155,0.231,0.344,0.231,0.571c0,0.22-0.077,0.407-0.231,0.565C112.234,78.964,112.043,79.043,111.816,79.043z
		 M111.117,85.037v-5.355h1.409v5.355H111.117z"/>
	<path fill="#020A0A" d="M115.888,85.131c-0.383,0-0.723-0.07-1.017-0.212c-0.294-0.14-0.525-0.332-0.689-0.581
		c-0.165-0.246-0.247-0.529-0.247-0.852c0-0.515,0.193-0.914,0.581-1.199c0.386-0.283,0.92-0.426,1.599-0.426
		c0.466,0,0.905,0.071,1.316,0.215v-0.39c0-0.31-0.096-0.542-0.288-0.7c-0.193-0.157-0.474-0.236-0.843-0.236
		c-0.227,0-0.471,0.037-0.731,0.107c-0.26,0.073-0.562,0.185-0.904,0.334l-0.514-1.038c0.426-0.191,0.831-0.335,1.218-0.431
		c0.387-0.097,0.776-0.146,1.168-0.146c0.719,0,1.279,0.174,1.681,0.52c0.401,0.347,0.603,0.835,0.603,1.466v3.475h-1.389v-0.379
		c-0.22,0.163-0.456,0.283-0.709,0.358C116.468,85.093,116.189,85.131,115.888,85.131z M115.272,83.455
		c0,0.205,0.089,0.369,0.267,0.488c0.179,0.12,0.415,0.181,0.709,0.181c0.233,0,0.449-0.03,0.648-0.088
		c0.199-0.059,0.376-0.146,0.535-0.263v-0.782c-0.171-0.067-0.35-0.119-0.535-0.153c-0.186-0.033-0.385-0.051-0.596-0.051
		c-0.322,0-0.574,0.06-0.756,0.18C115.362,83.086,115.272,83.249,115.272,83.455z"/>
	<path fill="#020A0A" d="M122.522,85.141c-0.495,0-0.95-0.063-1.37-0.189c-0.417-0.126-0.781-0.312-1.089-0.551l0.7-0.936
		c0.308,0.206,0.604,0.36,0.888,0.464c0.285,0.103,0.568,0.152,0.85,0.152c0.314,0,0.567-0.052,0.756-0.158
		c0.188-0.107,0.282-0.246,0.282-0.416c0-0.138-0.052-0.248-0.159-0.33c-0.107-0.082-0.275-0.141-0.509-0.174l-1.028-0.154
		c-0.535-0.083-0.939-0.257-1.213-0.52c-0.274-0.265-0.412-0.613-0.412-1.043c0-0.351,0.091-0.65,0.272-0.9
		c0.182-0.251,0.439-0.446,0.771-0.586c0.332-0.14,0.729-0.212,1.188-0.212c0.391,0,0.773,0.056,1.146,0.165
		c0.374,0.109,0.726,0.277,1.054,0.503l-0.678,0.916c-0.295-0.186-0.576-0.319-0.843-0.401c-0.268-0.082-0.539-0.123-0.812-0.123
		c-0.254,0-0.458,0.047-0.612,0.144c-0.155,0.096-0.232,0.223-0.232,0.381c0,0.144,0.054,0.257,0.164,0.34
		c0.11,0.081,0.299,0.14,0.566,0.175l1.018,0.152c0.535,0.076,0.942,0.247,1.225,0.511c0.281,0.264,0.421,0.604,0.421,1.022
		c0,0.343-0.103,0.646-0.308,0.91c-0.206,0.265-0.484,0.474-0.833,0.628C123.375,85.064,122.974,85.141,122.522,85.141z"/>
	<path fill="#020A0A" d="M128.658,85.12c-0.597,0-1.048-0.134-1.353-0.406c-0.305-0.27-0.458-0.666-0.458-1.187v-2.675h-1.101
		v-1.171h1.101v-1.369l1.409-0.319v1.688h1.532v1.171h-1.532v2.386c0,0.248,0.055,0.424,0.165,0.53
		c0.11,0.105,0.302,0.16,0.575,0.16c0.137,0,0.263-0.011,0.376-0.027c0.114-0.016,0.239-0.049,0.376-0.097v1.162
		c-0.144,0.047-0.324,0.085-0.541,0.112C128.991,85.107,128.808,85.12,128.658,85.12z"/>
	<path fill="#020A0A" d="M132.756,85.131c-0.383,0-0.723-0.07-1.017-0.212c-0.295-0.14-0.525-0.332-0.689-0.581
		c-0.164-0.246-0.246-0.529-0.246-0.852c0-0.515,0.193-0.914,0.581-1.199c0.386-0.283,0.92-0.426,1.598-0.426
		c0.467,0,0.906,0.071,1.317,0.215v-0.39c0-0.31-0.096-0.542-0.288-0.7c-0.193-0.157-0.474-0.236-0.843-0.236
		c-0.227,0-0.471,0.037-0.731,0.107c-0.261,0.073-0.563,0.185-0.904,0.334l-0.514-1.038c0.425-0.191,0.831-0.335,1.218-0.431
		c0.387-0.097,0.776-0.146,1.168-0.146c0.719,0,1.279,0.174,1.681,0.52c0.401,0.347,0.603,0.835,0.603,1.466v3.475H134.3v-0.379
		c-0.22,0.163-0.456,0.283-0.71,0.358C133.336,85.093,133.058,85.131,132.756,85.131z M132.14,83.455
		c0,0.205,0.089,0.369,0.268,0.488c0.179,0.12,0.415,0.181,0.708,0.181c0.234,0,0.449-0.03,0.648-0.088
		c0.2-0.059,0.377-0.146,0.535-0.263v-0.782c-0.171-0.067-0.35-0.119-0.535-0.153c-0.185-0.033-0.384-0.051-0.596-0.051
		c-0.322,0-0.575,0.06-0.756,0.18C132.231,83.086,132.14,83.249,132.14,83.455z"/>
	<path fill="#020A0A" d="M139.944,85.037V77.84h1.493v3.219l3.146-3.219h1.821l-3.498,3.425l3.662,3.772h-1.995l-3.135-3.342v3.342
		H139.944z"/>
	<path fill="#020A0A" d="M147.647,85.037v-5.355h1.408v0.595c0.172-0.232,0.377-0.41,0.618-0.533
		c0.24-0.123,0.511-0.187,0.813-0.187c0.26,0.008,0.455,0.049,0.585,0.125v1.232c-0.103-0.048-0.216-0.083-0.339-0.106
		s-0.25-0.037-0.38-0.037c-0.274,0-0.524,0.069-0.751,0.205c-0.227,0.138-0.408,0.334-0.545,0.587v3.475H147.647z"/>
	<path fill="#020A0A" d="M154.004,85.131c-0.384,0-0.724-0.07-1.019-0.212c-0.295-0.14-0.523-0.332-0.689-0.581
		c-0.165-0.246-0.247-0.529-0.247-0.852c0-0.515,0.194-0.914,0.581-1.199c0.388-0.283,0.921-0.426,1.6-0.426
		c0.466,0,0.904,0.071,1.317,0.215v-0.39c0-0.31-0.097-0.542-0.289-0.7c-0.191-0.157-0.473-0.236-0.843-0.236
		c-0.227,0-0.469,0.037-0.73,0.107c-0.26,0.073-0.561,0.185-0.904,0.334l-0.515-1.038c0.425-0.191,0.832-0.335,1.219-0.431
		c0.387-0.097,0.776-0.146,1.167-0.146c0.72,0,1.281,0.174,1.681,0.52c0.401,0.347,0.602,0.835,0.602,1.466v3.475h-1.387v-0.379
		c-0.22,0.163-0.456,0.283-0.709,0.358C154.583,85.093,154.306,85.131,154.004,85.131z M153.387,83.455
		c0,0.205,0.088,0.369,0.267,0.488c0.178,0.12,0.415,0.181,0.71,0.181c0.232,0,0.448-0.03,0.647-0.088
		c0.198-0.059,0.377-0.146,0.535-0.263v-0.782c-0.172-0.067-0.351-0.119-0.535-0.153c-0.185-0.033-0.384-0.051-0.597-0.051
		c-0.323,0-0.574,0.06-0.756,0.18C153.479,83.086,153.387,83.249,153.387,83.455z"/>
	<path fill="#020A0A" d="M158.603,85.037V77.84l1.409-0.236v4.329l2.314-2.251h1.593l-2.528,2.456l2.683,2.899h-1.8l-2.262-2.446
		v2.446H158.603z"/>
	<path fill="#020A0A" d="M167.31,85.141c-0.535,0-1.019-0.124-1.449-0.37c-0.433-0.246-0.775-0.579-1.029-0.997
		c-0.252-0.418-0.38-0.887-0.38-1.408s0.125-0.993,0.375-1.414c0.251-0.422,0.594-0.757,1.029-1.003
		c0.434-0.246,0.92-0.371,1.455-0.371c0.535,0,1.02,0.125,1.455,0.371c0.436,0.246,0.778,0.581,1.028,1.003
		c0.251,0.421,0.376,0.893,0.376,1.414s-0.125,0.99-0.376,1.408c-0.25,0.418-0.59,0.751-1.023,0.997
		C168.338,85.017,167.852,85.141,167.31,85.141z M167.31,83.917c0.281,0,0.533-0.067,0.756-0.205s0.401-0.324,0.536-0.561
		c0.132-0.237,0.2-0.499,0.2-0.786c0-0.296-0.068-0.559-0.2-0.793c-0.134-0.232-0.313-0.419-0.536-0.561
		c-0.223-0.14-0.475-0.209-0.756-0.209c-0.274,0-0.524,0.069-0.75,0.209c-0.227,0.142-0.405,0.328-0.536,0.561
		c-0.129,0.234-0.195,0.497-0.195,0.793c0,0.287,0.066,0.549,0.195,0.786c0.131,0.236,0.309,0.423,0.536,0.561
		C166.786,83.85,167.036,83.917,167.31,83.917z"/>
	<path fill="#020A0A" d="M172.425,85.037l-1.47-5.355h1.336l0.884,3.454l1.07-3.454h1.182l1.059,3.465l0.884-3.465h1.316
		l-1.48,5.355h-1.347l-1.038-3.424l-1.04,3.424H172.425z"/>
	<path fill="#020A0A" d="M181.517,85.131c-0.384,0-0.724-0.07-1.017-0.212c-0.295-0.14-0.525-0.332-0.69-0.581
		c-0.164-0.246-0.246-0.529-0.246-0.852c0-0.515,0.193-0.914,0.581-1.199c0.386-0.283,0.92-0.426,1.599-0.426
		c0.466,0,0.905,0.071,1.316,0.215v-0.39c0-0.31-0.095-0.542-0.288-0.7c-0.192-0.157-0.473-0.236-0.843-0.236
		c-0.226,0-0.47,0.037-0.73,0.107c-0.26,0.073-0.562,0.185-0.904,0.334l-0.514-1.038c0.425-0.191,0.83-0.335,1.218-0.431
		c0.387-0.097,0.775-0.146,1.167-0.146c0.72,0,1.28,0.174,1.682,0.52c0.4,0.347,0.602,0.835,0.602,1.466v3.475h-1.389v-0.379
		c-0.219,0.163-0.455,0.283-0.71,0.358C182.097,85.093,181.819,85.131,181.517,85.131z M180.9,83.455
		c0,0.205,0.088,0.369,0.267,0.488c0.179,0.12,0.416,0.181,0.709,0.181c0.233,0,0.449-0.03,0.648-0.088
		c0.198-0.059,0.377-0.146,0.534-0.263v-0.782c-0.171-0.067-0.35-0.119-0.534-0.153c-0.186-0.033-0.384-0.051-0.597-0.051
		c-0.322,0-0.575,0.06-0.756,0.18C180.991,83.086,180.9,83.249,180.9,83.455z"/>
</g>
</svg>
