<?xml version="1.0" encoding="utf-8"?>
<!-- Generator: Adobe Illustrator 16.0.0, SVG Export Plug-In . SVG Version: 6.00 Build 0)  -->
<!DOCTYPE svg PUBLIC "-//W3C//DTD SVG 1.1//EN" "http://www.w3.org/Graphics/SVG/1.1/DTD/svg11.dtd">
<svg version="1.1" id="Layer_1" xmlns="http://www.w3.org/2000/svg" xmlns:xlink="http://www.w3.org/1999/xlink" x="0px" y="0px"
	 width="227.94px" height="150px" viewBox="0 0 227.94 150" enable-background="new 0 0 227.94 150" xml:space="preserve">
<rect x="-508.88" y="-357" display="none" fill="#B74EDE" width="1001" height="856"/>
<g>
	<path d="M60.673,67.523c1.536,0,3.586,0.66,4.779,2.025l2.513-2.879c-1.633-1.732-4.17-2.684-6.807-2.684
		c-4.316,0-6.585,2.805-6.585,5.123c0,3.17,3.073,4.27,5.343,5.049c1.415,0.488,2.439,0.928,2.439,1.709
		c0,0.633-0.538,1.342-1.928,1.342c-2.171,0-4.366-0.979-5.537-2.465l-2.513,2.953c1.512,1.854,4.438,3.096,7.757,3.096
		c4.124,0,6.61-2.535,6.61-5.488c0-2.951-3.098-4.148-5.414-4.902c-1.366-0.488-2.415-0.928-2.415-1.635
		C58.916,68.109,59.551,67.523,60.673,67.523"/>
	<polygon points="82.514,67.889 83.318,64.23 70.024,64.23 69.195,67.889 73.757,67.889 71,80.5 75.195,80.5 77.951,67.889 	"/>
	<path d="M105.109,77.086c-2.535,0-4.121-1.756-4.121-3.951c0-3,2.22-5.465,5.049-5.465c1.804,0,3.22,0.975,3.684,2.609l4.049-1.316
		c-0.854-2.537-3.146-5.002-7.537-5.002c-5.221,0-9.611,3.758-9.611,9.441c0,4.537,3.66,7.391,8.246,7.391
		c2.17,0,5.097-0.779,7.05-3.438l-3.27-2.146C107.915,76.305,106.428,77.086,105.109,77.086"/>
	<path d="M126.802,64.23h-4.26l-3.138,10.463c-0.501,1.371-1.261,2.145-2.624,2.059c-0.975-0.063-1.539-0.457-2.217-1.137l-2.415,3
		c1.068,1.266,2.981,1.926,4.782,2.039c3.556,0.229,5.571-1.502,6.704-5.461L126.802,64.23z"/>
	<path d="M133.403,64.23L122.462,80.5h4.691l1.789-2.814l5.986,0.008l0.547,2.807h4.488l-2.556-16.27H133.403z M131.214,74.232
		l2.787-4.41l0.578,4.391L131.214,74.232z"/>
	<path d="M88.796,64.23L77.854,80.5h4.691l1.788-2.814l5.986,0.008l0.547,2.807h4.488l-2.557-16.27H88.796z M86.604,74.232
		l2.789-4.41l0.577,4.391L86.604,74.232z"/>
	<path d="M162.992,70.395h-4.631v10.104h2.816v-2.885h1.814c2.454,0,3.798-1.619,3.798-3.586
		C166.79,72.047,165.446,70.395,162.992,70.395 M162.614,75.225h-1.437v-2.457h1.437c0.754,0,1.311,0.492,1.311,1.244
		C163.925,74.75,163.368,75.225,162.614,75.225"/>
	<polygon points="170.792,77.969 170.792,70.395 167.975,70.395 167.975,80.498 175.563,80.498 175.563,77.969 	"/>
	<polygon points="141.057,73.902 148.361,73.902 141.681,86.035 146.376,86.039 153.05,73.902 153.05,70.4 141.057,70.4 	"/>
	<rect x="153.174" y="77.711" width="2.785" height="2.787"/>
</g>
</svg>
