<?xml version="1.0" encoding="utf-8"?>
<!-- Generator: Adobe Illustrator 16.0.0, SVG Export Plug-In . SVG Version: 6.00 Build 0)  -->
<!DOCTYPE svg PUBLIC "-//W3C//DTD SVG 1.1//EN" "http://www.w3.org/Graphics/SVG/1.1/DTD/svg11.dtd">
<svg version="1.1" id="Layer_1" xmlns="http://www.w3.org/2000/svg" xmlns:xlink="http://www.w3.org/1999/xlink" x="0px" y="0px"
	 width="227.939px" height="150px" viewBox="0 0 227.939 150" enable-background="new 0 0 227.939 150" xml:space="preserve">
<rect x="-756.82" y="-527" display="none" fill="#B74EDE" width="1001" height="856"/>
<g>
	<path fill="#020A0A" d="M60.243,64.057v-7.199h1.913l1.976,3.889l1.974-3.889h1.914v7.199h-1.41v-5.295l-2.498,4.781l-2.488-4.803
		v5.316H60.243z"/>
	<path fill="#020A0A" d="M71.58,64.148c-0.386,0-0.725-0.07-1.02-0.209c-0.293-0.141-0.524-0.336-0.688-0.582
		c-0.164-0.246-0.246-0.531-0.246-0.854c0-0.514,0.193-0.912,0.58-1.199c0.388-0.283,0.92-0.426,1.598-0.426
		c0.467,0,0.906,0.072,1.318,0.217v-0.391c0-0.309-0.098-0.541-0.288-0.701c-0.193-0.156-0.474-0.234-0.844-0.234
		c-0.228,0-0.47,0.035-0.731,0.107c-0.259,0.07-0.562,0.184-0.904,0.334l-0.513-1.039c0.425-0.191,0.831-0.336,1.216-0.432
		c0.39-0.096,0.778-0.145,1.17-0.145c0.72,0,1.279,0.174,1.68,0.52c0.402,0.348,0.602,0.834,0.602,1.467v3.475h-1.387v-0.381
		c-0.22,0.166-0.457,0.285-0.711,0.361C72.158,64.111,71.882,64.148,71.58,64.148z M70.963,62.473c0,0.205,0.089,0.369,0.268,0.49
		c0.178,0.119,0.415,0.18,0.708,0.18c0.235,0,0.449-0.029,0.648-0.09c0.199-0.057,0.378-0.145,0.536-0.262v-0.779
		c-0.173-0.068-0.35-0.121-0.536-0.154c-0.186-0.037-0.383-0.053-0.596-0.053c-0.323,0-0.575,0.061-0.756,0.18
		C71.054,62.105,70.963,62.268,70.963,62.473z"/>
	<path fill="#020A0A" d="M76.219,64.057v-5.357h1.408v0.596c0.173-0.232,0.378-0.41,0.618-0.533c0.238-0.125,0.51-0.188,0.812-0.188
		c0.26,0.008,0.455,0.049,0.587,0.125v1.232c-0.104-0.045-0.216-0.082-0.34-0.107c-0.124-0.023-0.25-0.035-0.38-0.035
		c-0.274,0-0.524,0.068-0.752,0.207c-0.226,0.135-0.408,0.33-0.545,0.586v3.475H76.219z"/>
	<path fill="#020A0A" d="M83.483,64.16c-0.533,0-1.019-0.123-1.454-0.371c-0.435-0.246-0.778-0.58-1.034-0.998
		c-0.252-0.418-0.38-0.887-0.38-1.408c0-0.52,0.122-0.99,0.365-1.408c0.244-0.418,0.575-0.75,0.992-0.998
		c0.419-0.246,0.885-0.369,1.398-0.369c0.515,0,0.97,0.127,1.368,0.379c0.398,0.254,0.711,0.598,0.94,1.029
		c0.23,0.432,0.346,0.922,0.346,1.471v0.371h-3.97c0.06,0.211,0.163,0.402,0.302,0.574c0.142,0.172,0.316,0.307,0.526,0.4
		c0.209,0.096,0.433,0.145,0.673,0.145c0.239,0,0.461-0.035,0.664-0.113c0.201-0.074,0.376-0.182,0.519-0.316l0.927,0.842
		c-0.331,0.268-0.667,0.463-1.013,0.586C84.307,64.098,83.918,64.16,83.483,64.16z M82.034,60.848h2.602
		c-0.047-0.211-0.135-0.398-0.261-0.561c-0.126-0.16-0.278-0.287-0.453-0.379c-0.175-0.094-0.368-0.139-0.581-0.139
		c-0.22,0-0.419,0.043-0.596,0.133c-0.179,0.09-0.327,0.215-0.449,0.375C82.178,60.439,82.089,60.629,82.034,60.848z"/>
	<path fill="#020A0A" d="M87.479,64.057v-7.199l1.407-0.236v4.33l2.314-2.252h1.594l-2.53,2.457l2.685,2.9h-1.799l-2.264-2.447
		v2.447H87.479z"/>
	<path fill="#020A0A" d="M98.942,64.16c-0.718,0-1.329-0.182-1.829-0.545c-0.5-0.365-0.86-0.885-1.08-1.564l1.379-0.523
		c0.15,0.439,0.352,0.762,0.6,0.967c0.25,0.205,0.563,0.307,0.931,0.307c0.447,0,0.805-0.143,1.075-0.43
		c0.271-0.289,0.408-0.674,0.408-1.152v-4.361h1.49v4.402c0,0.582-0.124,1.092-0.37,1.527s-0.592,0.773-1.039,1.012
		C100.061,64.041,99.54,64.16,98.942,64.16z"/>
	<path fill="#020A0A" d="M106.531,66.328c-0.323,0-0.585-0.086-0.784-0.26c-0.197-0.176-0.297-0.402-0.297-0.686
		c0-0.225,0.065-0.438,0.195-0.637s0.333-0.395,0.607-0.586c-0.534-0.021-1.012-0.154-1.429-0.4
		c-0.419-0.248-0.752-0.578-0.998-0.992c-0.248-0.416-0.37-0.877-0.37-1.385c0-0.52,0.12-0.99,0.364-1.408s0.573-0.75,0.992-0.998
		c0.42-0.246,0.886-0.369,1.398-0.369c0.516,0,0.971,0.127,1.367,0.379c0.398,0.254,0.712,0.598,0.941,1.029
		c0.231,0.432,0.346,0.922,0.346,1.471v0.371h-3.97c0.061,0.211,0.162,0.402,0.303,0.574s0.315,0.307,0.524,0.4
		c0.209,0.096,0.435,0.145,0.675,0.145c0.239,0,0.461-0.035,0.663-0.113c0.201-0.074,0.375-0.182,0.518-0.316l0.927,0.842
		c-0.213,0.172-0.425,0.313-0.638,0.422c-0.212,0.109-0.439,0.191-0.679,0.246c-0.315,0.191-0.547,0.373-0.693,0.545
		c-0.148,0.172-0.222,0.35-0.222,0.535c0,0.145,0.045,0.256,0.134,0.334c0.088,0.078,0.216,0.119,0.38,0.119
		c0.069,0,0.139-0.012,0.212-0.031c0.071-0.021,0.134-0.053,0.189-0.092l0.207,0.637c-0.118,0.068-0.252,0.123-0.402,0.164
		S106.688,66.328,106.531,66.328z M104.875,60.848h2.602c-0.049-0.211-0.136-0.398-0.262-0.561c-0.128-0.16-0.278-0.287-0.455-0.379
		c-0.173-0.094-0.366-0.139-0.578-0.139c-0.221,0-0.42,0.043-0.598,0.133c-0.179,0.09-0.327,0.215-0.447,0.375
		C105.018,60.439,104.93,60.629,104.875,60.848z"/>
	<path fill="#020A0A" d="M112.798,64.129c-0.506,0-0.966-0.123-1.378-0.369c-0.411-0.248-0.738-0.578-0.982-0.992
		c-0.243-0.416-0.363-0.881-0.363-1.395s0.12-0.979,0.363-1.395c0.244-0.414,0.574-0.742,0.994-0.986
		c0.417-0.244,0.887-0.365,1.407-0.365c0.27,0,0.524,0.035,0.772,0.109c0.247,0.072,0.477,0.176,0.688,0.313v-2.191l1.408-0.236
		v7.436h-1.388v-0.441C113.881,63.957,113.375,64.129,112.798,64.129z M113.025,62.926c0.26,0,0.498-0.043,0.714-0.129
		c0.217-0.086,0.402-0.215,0.561-0.385v-2.088c-0.158-0.156-0.346-0.281-0.565-0.371c-0.221-0.088-0.457-0.133-0.709-0.133
		c-0.295,0-0.563,0.066-0.797,0.199c-0.239,0.135-0.423,0.32-0.561,0.557c-0.137,0.236-0.205,0.502-0.205,0.797
		s0.068,0.559,0.205,0.791c0.138,0.232,0.321,0.418,0.561,0.557C112.463,62.857,112.73,62.926,113.025,62.926z"/>
	<path fill="#020A0A" d="M117.44,64.057v-5.357h1.408v0.596c0.173-0.232,0.378-0.41,0.616-0.533
		c0.241-0.125,0.512-0.188,0.813-0.188c0.262,0.008,0.457,0.049,0.588,0.125v1.232c-0.103-0.045-0.216-0.082-0.34-0.107
		c-0.124-0.023-0.25-0.035-0.38-0.035c-0.274,0-0.524,0.068-0.752,0.207c-0.226,0.135-0.407,0.33-0.545,0.586v3.475H117.44z"/>
	<path fill="#020A0A" d="M123.841,64.148c-0.383,0-0.724-0.07-1.017-0.209c-0.295-0.141-0.524-0.336-0.689-0.582
		c-0.164-0.246-0.246-0.531-0.246-0.854c0-0.514,0.193-0.912,0.58-1.199c0.388-0.283,0.92-0.426,1.598-0.426
		c0.469,0,0.906,0.072,1.318,0.217v-0.391c0-0.309-0.096-0.541-0.29-0.701c-0.189-0.156-0.472-0.234-0.842-0.234
		c-0.226,0-0.47,0.035-0.729,0.107c-0.261,0.07-0.563,0.184-0.906,0.334l-0.515-1.039c0.427-0.191,0.833-0.336,1.22-0.432
		c0.388-0.096,0.776-0.145,1.168-0.145c0.72,0,1.279,0.174,1.68,0.52c0.402,0.348,0.602,0.834,0.602,1.467v3.475h-1.387v-0.381
		c-0.221,0.166-0.457,0.285-0.711,0.361C124.42,64.111,124.144,64.148,123.841,64.148z M123.225,62.473
		c0,0.205,0.089,0.369,0.267,0.49c0.179,0.119,0.416,0.18,0.711,0.18c0.233,0,0.449-0.029,0.648-0.09
		c0.197-0.057,0.376-0.145,0.534-0.262v-0.779c-0.171-0.068-0.35-0.121-0.534-0.154c-0.187-0.037-0.386-0.053-0.598-0.053
		c-0.323,0-0.573,0.061-0.756,0.18C123.314,62.105,123.225,62.268,123.225,62.473z"/>
	<path fill="#020A0A" d="M130.515,64.16c-0.493,0-0.95-0.064-1.367-0.189c-0.419-0.127-0.782-0.311-1.09-0.551l0.699-0.938
		c0.308,0.207,0.604,0.361,0.889,0.463c0.284,0.104,0.568,0.154,0.85,0.154c0.314,0,0.566-0.053,0.754-0.158
		c0.19-0.107,0.284-0.246,0.284-0.418c0-0.137-0.053-0.246-0.16-0.328c-0.105-0.082-0.276-0.141-0.509-0.174l-1.028-0.154
		c-0.534-0.082-0.94-0.256-1.213-0.521c-0.274-0.262-0.411-0.609-0.411-1.041c0-0.352,0.09-0.65,0.272-0.902
		c0.182-0.248,0.438-0.443,0.771-0.584s0.729-0.211,1.188-0.211c0.392,0,0.774,0.053,1.147,0.162
		c0.374,0.111,0.725,0.279,1.054,0.506l-0.679,0.916c-0.295-0.188-0.576-0.32-0.844-0.402c-0.267-0.082-0.537-0.123-0.812-0.123
		c-0.254,0-0.459,0.047-0.613,0.143c-0.154,0.098-0.229,0.225-0.229,0.383c0,0.143,0.055,0.256,0.164,0.338s0.299,0.141,0.565,0.176
		l1.019,0.154c0.534,0.074,0.942,0.244,1.225,0.508c0.279,0.264,0.421,0.605,0.421,1.023c0,0.344-0.104,0.646-0.311,0.91
		c-0.205,0.266-0.483,0.473-0.831,0.627C131.369,64.082,130.967,64.16,130.515,64.16z"/>
	<path fill="#020A0A" d="M133.896,64.057v-0.998l2.696-3.178h-2.676v-1.182h4.475v0.998l-2.694,3.178h2.766v1.182H133.896z"/>
	<path fill="#020A0A" d="M142.387,64.16c-0.536,0-1.021-0.123-1.455-0.371c-0.437-0.246-0.78-0.58-1.034-0.998
		s-0.38-0.887-0.38-1.408c0-0.52,0.123-0.99,0.365-1.408c0.244-0.418,0.575-0.75,0.992-0.998c0.418-0.246,0.884-0.369,1.398-0.369
		c0.516,0,0.97,0.127,1.369,0.379c0.396,0.254,0.71,0.598,0.939,1.029s0.346,0.922,0.346,1.471v0.371h-3.97
		c0.06,0.211,0.161,0.402,0.303,0.574c0.141,0.172,0.315,0.307,0.524,0.4c0.208,0.096,0.434,0.145,0.675,0.145
		c0.238,0,0.46-0.035,0.661-0.113c0.203-0.074,0.376-0.182,0.521-0.316l0.925,0.842c-0.329,0.268-0.668,0.463-1.014,0.586
		S142.818,64.16,142.387,64.16z M140.938,60.848h2.602c-0.049-0.211-0.136-0.398-0.264-0.561c-0.126-0.16-0.276-0.287-0.451-0.379
		c-0.175-0.094-0.368-0.139-0.582-0.139c-0.219,0-0.418,0.043-0.597,0.133c-0.177,0.09-0.327,0.215-0.447,0.375
		C141.078,60.439,140.992,60.629,140.938,60.848z"/>
	<path fill="#020A0A" d="M147.232,64.057l-1.47-5.357h1.336l0.886,3.455l1.067-3.455h1.185l1.06,3.465l0.884-3.465h1.315
		l-1.479,5.357h-1.349l-1.039-3.424l-1.037,3.424H147.232z"/>
	<path fill="#020A0A" d="M156.712,64.16c-0.492,0-0.949-0.064-1.366-0.189c-0.42-0.127-0.782-0.311-1.091-0.551l0.699-0.938
		c0.309,0.207,0.605,0.361,0.89,0.463c0.283,0.104,0.567,0.154,0.85,0.154c0.313,0,0.565-0.053,0.755-0.158
		c0.188-0.107,0.282-0.246,0.282-0.418c0-0.137-0.053-0.246-0.16-0.328c-0.104-0.082-0.274-0.141-0.509-0.174l-1.028-0.154
		c-0.534-0.082-0.938-0.256-1.213-0.521c-0.274-0.262-0.411-0.609-0.411-1.041c0-0.352,0.092-0.65,0.272-0.902
		c0.183-0.248,0.439-0.443,0.771-0.584c0.333-0.141,0.729-0.211,1.188-0.211c0.391,0,0.772,0.053,1.146,0.162
		c0.374,0.111,0.726,0.279,1.055,0.506l-0.679,0.916c-0.295-0.188-0.577-0.32-0.844-0.402c-0.268-0.082-0.538-0.123-0.813-0.123
		c-0.254,0-0.459,0.047-0.612,0.143c-0.154,0.098-0.229,0.225-0.229,0.383c0,0.143,0.053,0.256,0.163,0.338
		c0.109,0.082,0.299,0.141,0.566,0.176l1.017,0.154c0.535,0.074,0.943,0.244,1.226,0.508c0.28,0.264,0.421,0.605,0.421,1.023
		c0,0.344-0.104,0.646-0.311,0.91c-0.204,0.266-0.482,0.473-0.83,0.627C157.567,64.082,157.165,64.16,156.712,64.16z"/>
	<path fill="#020A0A" d="M160.428,64.057v-7.199l1.408-0.236v4.33l2.313-2.252h1.595l-2.53,2.457l2.684,2.9h-1.799l-2.263-2.447
		v2.447H160.428z"/>
	<path fill="#020A0A" d="M167.645,58.063c-0.221,0-0.408-0.08-0.566-0.238c-0.157-0.156-0.236-0.346-0.236-0.564
		c0-0.227,0.079-0.416,0.236-0.572c0.158-0.152,0.346-0.23,0.566-0.23c0.226,0,0.415,0.078,0.571,0.23
		c0.154,0.156,0.231,0.346,0.231,0.572c0,0.219-0.077,0.408-0.231,0.564C168.06,57.982,167.87,58.063,167.645,58.063z
		 M166.945,64.057v-5.357h1.409v5.357H166.945z"/>
	<path fill="#020A0A" d="M50.254,78.748l2.961-7.199h1.718l2.931,7.199h-1.614l-0.729-1.893h-2.972l-0.741,1.893H50.254z
		 M53.01,75.664h2.057l-1.028-2.654L53.01,75.664z"/>
	<path fill="#020A0A" d="M59.021,78.748v-5.359h1.409v0.598c0.171-0.232,0.376-0.412,0.617-0.535
		c0.24-0.123,0.511-0.184,0.812-0.184c0.262,0.006,0.457,0.047,0.587,0.121v1.234c-0.104-0.047-0.217-0.082-0.339-0.107
		c-0.124-0.023-0.252-0.035-0.381-0.035c-0.274,0-0.524,0.068-0.75,0.205c-0.228,0.137-0.408,0.332-0.546,0.588v3.475H59.021z"/>
	<path fill="#020A0A" d="M66.227,78.852c-0.528,0-1.004-0.123-1.431-0.365c-0.423-0.244-0.76-0.576-1.008-0.998
		c-0.246-0.422-0.368-0.893-0.368-1.414c0-0.527,0.122-1.002,0.368-1.42c0.248-0.416,0.585-0.75,1.008-0.998
		c0.427-0.246,0.902-0.369,1.431-0.369c0.426,0,0.832,0.082,1.218,0.248c0.387,0.162,0.722,0.398,1.004,0.709l-0.865,0.914
		c-0.197-0.219-0.405-0.381-0.622-0.488c-0.214-0.105-0.451-0.158-0.703-0.158c-0.274,0-0.521,0.068-0.736,0.205
		c-0.215,0.137-0.388,0.322-0.514,0.557c-0.128,0.232-0.189,0.5-0.189,0.801c0,0.287,0.062,0.549,0.189,0.787
		c0.126,0.236,0.303,0.422,0.53,0.555c0.226,0.133,0.476,0.201,0.75,0.201c0.241,0,0.465-0.051,0.673-0.15
		c0.209-0.098,0.41-0.248,0.602-0.445l0.844,0.883c-0.274,0.295-0.604,0.527-0.986,0.695C67.034,78.768,66.638,78.852,66.227,78.852
		z"/>
	<path fill="#020A0A" d="M70.331,80.959c-0.124,0-0.242-0.006-0.354-0.014c-0.113-0.012-0.209-0.023-0.284-0.039v-1.213
		c0.138,0.029,0.303,0.043,0.494,0.043c0.514,0,0.87-0.244,1.069-0.732l0.083-0.205l-2.088-5.41h1.553l1.336,3.652l1.514-3.652
		h1.521l-2.467,5.791c-0.186,0.432-0.389,0.777-0.606,1.039c-0.221,0.26-0.472,0.449-0.756,0.564
		C71.059,80.9,70.721,80.959,70.331,80.959z"/>
	<path fill="#020A0A" d="M76.324,78.748v-7.199l1.407-0.236v2.51c0.427-0.336,0.927-0.504,1.502-0.504
		c0.508,0,0.967,0.123,1.378,0.371c0.412,0.244,0.739,0.576,0.983,0.99c0.242,0.418,0.364,0.881,0.364,1.395
		c0,0.516-0.124,0.979-0.37,1.393c-0.246,0.416-0.579,0.744-0.998,0.988c-0.417,0.244-0.884,0.365-1.398,0.365
		c-0.267,0-0.528-0.039-0.782-0.113c-0.252-0.076-0.486-0.186-0.699-0.33v0.371H76.324z M79.008,77.627
		c0.294,0,0.561-0.068,0.797-0.205c0.237-0.137,0.424-0.324,0.561-0.555c0.138-0.234,0.207-0.498,0.207-0.793
		s-0.069-0.561-0.207-0.799c-0.137-0.234-0.323-0.42-0.561-0.553c-0.236-0.135-0.503-0.201-0.797-0.201
		c-0.261,0-0.5,0.043-0.716,0.129s-0.402,0.213-0.561,0.385v2.088c0.15,0.158,0.339,0.281,0.561,0.371
		C78.516,77.582,78.755,77.627,79.008,77.627z"/>
	<path fill="#020A0A" d="M84.095,72.752c-0.22,0-0.408-0.078-0.565-0.234c-0.156-0.16-0.235-0.348-0.235-0.568
		c0-0.225,0.079-0.416,0.235-0.57c0.157-0.152,0.346-0.23,0.565-0.23c0.228,0,0.417,0.078,0.571,0.23
		c0.154,0.154,0.231,0.346,0.231,0.57c0,0.221-0.077,0.408-0.231,0.568C84.512,72.674,84.322,72.752,84.095,72.752z M83.396,78.748
		v-5.359h1.41v5.359H83.396z"/>
	<path fill="#020A0A" d="M88.587,78.852c-0.492,0-0.949-0.064-1.366-0.191c-0.419-0.127-0.782-0.311-1.09-0.549l0.699-0.938
		c0.308,0.207,0.604,0.361,0.889,0.463c0.284,0.104,0.567,0.154,0.848,0.154c0.316,0,0.567-0.053,0.756-0.16
		c0.189-0.105,0.284-0.244,0.284-0.414c0-0.139-0.053-0.248-0.16-0.33c-0.105-0.082-0.276-0.139-0.51-0.176l-1.028-0.154
		c-0.533-0.082-0.938-0.256-1.212-0.52c-0.274-0.262-0.412-0.611-0.412-1.043c0-0.35,0.091-0.648,0.272-0.898
		c0.181-0.25,0.438-0.447,0.771-0.588c0.332-0.141,0.729-0.211,1.188-0.211c0.392,0,0.772,0.055,1.146,0.164
		c0.374,0.111,0.724,0.279,1.055,0.506l-0.679,0.914c-0.295-0.184-0.577-0.318-0.844-0.4s-0.537-0.123-0.812-0.123
		c-0.254,0-0.459,0.047-0.613,0.143c-0.154,0.098-0.231,0.223-0.231,0.381c0,0.145,0.055,0.258,0.166,0.34
		c0.108,0.082,0.299,0.141,0.565,0.176l1.017,0.152c0.536,0.076,0.944,0.246,1.226,0.51c0.28,0.266,0.42,0.605,0.42,1.023
		c0,0.344-0.102,0.646-0.309,0.91c-0.205,0.264-0.483,0.473-0.833,0.627S89.04,78.852,88.587,78.852z"/>
	<path fill="#020A0A" d="M92.302,78.748v-7.199l1.409-0.236v4.33l2.314-2.254h1.594l-2.53,2.459l2.685,2.9h-1.801l-2.262-2.447
		v2.447H92.302z"/>
	<path fill="#020A0A" d="M100.845,78.852c-0.409,0-0.774-0.092-1.094-0.273s-0.569-0.432-0.752-0.754
		c-0.181-0.324-0.271-0.693-0.271-1.113v-3.322h1.407v3.117c0,0.342,0.102,0.617,0.303,0.822c0.203,0.207,0.476,0.309,0.818,0.309
		c0.234,0,0.445-0.047,0.633-0.139c0.188-0.092,0.345-0.225,0.469-0.396v-3.713h1.407v5.359h-1.407v-0.432
		C101.946,78.672,101.442,78.852,100.845,78.852z"/>
	<path fill="#020A0A" d="M105.499,80.846v-7.457h1.388v0.443c0.439-0.342,0.947-0.514,1.522-0.514c0.505,0,0.966,0.123,1.378,0.371
		c0.411,0.244,0.738,0.576,0.98,0.99c0.244,0.418,0.365,0.881,0.365,1.395c0,0.516-0.122,0.979-0.371,1.393
		c-0.244,0.416-0.576,0.744-0.996,0.988c-0.419,0.244-0.883,0.365-1.398,0.365c-0.267,0-0.524-0.037-0.771-0.107
		c-0.248-0.072-0.478-0.178-0.689-0.314v2.447H105.499z M108.182,77.627c0.295,0,0.562-0.068,0.797-0.205
		c0.238-0.137,0.423-0.324,0.56-0.555c0.138-0.234,0.207-0.498,0.207-0.793s-0.069-0.561-0.207-0.799
		c-0.137-0.234-0.321-0.42-0.56-0.553c-0.235-0.135-0.502-0.201-0.797-0.201c-0.26,0-0.498,0.043-0.715,0.129
		c-0.216,0.086-0.402,0.213-0.56,0.385v2.088c0.15,0.158,0.336,0.281,0.56,0.371C107.69,77.582,107.93,77.627,108.182,77.627z"/>
	<path fill="#020A0A" d="M115.176,78.748v-7.199h1.912l1.975,3.889l1.975-3.889h1.913v7.199h-1.41v-5.297l-2.498,4.783l-2.488-4.805
		v5.318H115.176z"/>
	<path fill="#020A0A" d="M127.426,78.852c-0.535,0-1.021-0.125-1.455-0.371c-0.436-0.246-0.78-0.58-1.033-0.998
		c-0.254-0.416-0.382-0.887-0.382-1.408s0.122-0.992,0.364-1.41c0.244-0.416,0.575-0.75,0.993-0.996
		c0.419-0.246,0.885-0.371,1.4-0.371c0.513,0,0.968,0.127,1.366,0.381s0.712,0.596,0.941,1.029c0.229,0.432,0.344,0.92,0.344,1.469
		v0.373h-3.97c0.063,0.211,0.164,0.402,0.305,0.574c0.14,0.172,0.314,0.305,0.524,0.4c0.209,0.098,0.433,0.145,0.673,0.145
		c0.239,0,0.461-0.037,0.664-0.113c0.203-0.074,0.376-0.182,0.519-0.318l0.927,0.844c-0.331,0.268-0.667,0.463-1.014,0.586
		C128.247,78.789,127.858,78.852,127.426,78.852z M125.975,75.539h2.604c-0.049-0.213-0.138-0.398-0.264-0.561
		c-0.125-0.16-0.275-0.287-0.452-0.381c-0.175-0.092-0.369-0.139-0.581-0.139c-0.22,0-0.419,0.045-0.596,0.135
		c-0.179,0.088-0.327,0.213-0.449,0.375C126.117,75.129,126.029,75.32,125.975,75.539z"/>
	<path fill="#020A0A" d="M133.826,78.83c-0.596,0-1.047-0.135-1.352-0.406c-0.305-0.27-0.459-0.666-0.459-1.188v-2.674h-1.1v-1.174
		h1.1v-1.367l1.41-0.318v1.686h1.532v1.174h-1.532v2.387c0,0.246,0.055,0.422,0.166,0.529c0.108,0.105,0.3,0.158,0.574,0.158
		c0.138,0,0.262-0.008,0.376-0.025c0.113-0.018,0.237-0.049,0.374-0.098v1.162c-0.145,0.049-0.324,0.086-0.539,0.113
		C134.161,78.816,133.977,78.83,133.826,78.83z"/>
	<path fill="#020A0A" d="M136.351,78.748v-5.359h1.408v0.598c0.171-0.232,0.378-0.412,0.618-0.535
		c0.239-0.123,0.512-0.184,0.813-0.184c0.259,0.006,0.454,0.047,0.586,0.121v1.234c-0.104-0.047-0.216-0.082-0.34-0.107
		c-0.122-0.023-0.25-0.035-0.38-0.035c-0.274,0-0.524,0.068-0.752,0.205c-0.226,0.137-0.408,0.332-0.545,0.588v3.475H136.351z"/>
	<path fill="#020A0A" d="M143.603,78.852c-0.536,0-1.019-0.125-1.451-0.371s-0.774-0.58-1.028-0.998
		c-0.252-0.416-0.38-0.887-0.38-1.408s0.126-0.994,0.374-1.414c0.252-0.422,0.595-0.756,1.03-1.004
		c0.435-0.246,0.919-0.369,1.455-0.369c0.534,0,1.019,0.123,1.455,0.369c0.435,0.248,0.778,0.582,1.028,1.004
		c0.25,0.42,0.374,0.893,0.374,1.414s-0.124,0.992-0.374,1.408c-0.25,0.418-0.592,0.752-1.024,0.998
		C144.631,78.727,144.144,78.852,143.603,78.852z M143.603,77.627c0.28,0,0.532-0.068,0.756-0.205
		c0.222-0.137,0.4-0.324,0.534-0.561c0.135-0.238,0.201-0.5,0.201-0.787c0-0.295-0.066-0.559-0.201-0.793
		c-0.134-0.232-0.313-0.42-0.534-0.559c-0.224-0.141-0.476-0.211-0.756-0.211c-0.274,0-0.526,0.07-0.75,0.211
		c-0.228,0.139-0.406,0.326-0.536,0.559c-0.129,0.234-0.195,0.498-0.195,0.793c0,0.287,0.066,0.549,0.195,0.787
		c0.13,0.236,0.309,0.424,0.536,0.561C143.076,77.559,143.328,77.627,143.603,77.627z"/>
	<path fill="#020A0A" d="M147.926,80.846v-7.457h1.39v0.443c0.438-0.342,0.945-0.514,1.521-0.514c0.508,0,0.966,0.123,1.38,0.371
		c0.409,0.244,0.736,0.576,0.98,0.99c0.243,0.418,0.365,0.881,0.365,1.395c0,0.516-0.124,0.979-0.37,1.393
		c-0.246,0.416-0.579,0.744-0.996,0.988c-0.42,0.244-0.886,0.365-1.4,0.365c-0.268,0-0.525-0.037-0.771-0.107
		c-0.246-0.072-0.476-0.178-0.689-0.314v2.447H147.926z M150.61,77.627c0.295,0,0.56-0.068,0.797-0.205s0.423-0.324,0.561-0.555
		c0.137-0.234,0.206-0.498,0.206-0.793s-0.069-0.561-0.206-0.799c-0.138-0.234-0.323-0.42-0.561-0.553
		c-0.237-0.135-0.502-0.201-0.797-0.201c-0.262,0-0.5,0.043-0.715,0.129c-0.218,0.086-0.401,0.213-0.562,0.385v2.088
		c0.152,0.158,0.338,0.281,0.562,0.371C150.118,77.582,150.356,77.627,150.61,77.627z"/>
	<path fill="#020A0A" d="M157.592,78.852c-0.536,0-1.02-0.125-1.451-0.371c-0.433-0.246-0.774-0.58-1.028-0.998
		c-0.254-0.416-0.38-0.887-0.38-1.408s0.124-0.994,0.374-1.414c0.252-0.422,0.594-0.756,1.028-1.004
		c0.436-0.246,0.921-0.369,1.457-0.369c0.533,0,1.019,0.123,1.455,0.369c0.434,0.248,0.777,0.582,1.027,1.004
		c0.25,0.42,0.374,0.893,0.374,1.414s-0.124,0.992-0.374,1.408c-0.25,0.418-0.592,0.752-1.022,0.998
		C158.618,78.727,158.133,78.852,157.592,78.852z M157.592,77.627c0.279,0,0.531-0.068,0.755-0.205
		c0.223-0.137,0.4-0.324,0.534-0.561c0.134-0.238,0.201-0.5,0.201-0.787c0-0.295-0.067-0.559-0.201-0.793
		c-0.134-0.232-0.312-0.42-0.534-0.559c-0.224-0.141-0.476-0.211-0.755-0.211c-0.274,0-0.526,0.07-0.752,0.211
		c-0.226,0.139-0.404,0.326-0.534,0.559c-0.13,0.234-0.195,0.498-0.195,0.793c0,0.287,0.065,0.549,0.195,0.787
		c0.13,0.236,0.309,0.424,0.534,0.561S157.317,77.627,157.592,77.627z"/>
	<path fill="#020A0A" d="M161.915,78.748v-7.199l1.407-0.236v7.436H161.915z"/>
	<path fill="#020A0A" d="M165.761,72.752c-0.22,0-0.408-0.078-0.565-0.234c-0.158-0.16-0.237-0.348-0.237-0.568
		c0-0.225,0.079-0.416,0.237-0.57c0.157-0.152,0.346-0.23,0.565-0.23c0.226,0,0.417,0.078,0.571,0.23
		c0.154,0.154,0.231,0.346,0.231,0.57c0,0.221-0.077,0.408-0.231,0.568C166.178,72.674,165.986,72.752,165.761,72.752z
		 M165.062,78.748v-5.359h1.408v5.359H165.062z"/>
	<path fill="#020A0A" d="M170.614,78.83c-0.596,0-1.049-0.135-1.354-0.406c-0.305-0.27-0.457-0.666-0.457-1.188v-2.674h-1.1v-1.174
		h1.1v-1.367l1.41-0.318v1.686h1.532v1.174h-1.532v2.387c0,0.246,0.055,0.422,0.163,0.529c0.109,0.105,0.303,0.158,0.575,0.158
		c0.138,0,0.264-0.008,0.376-0.025c0.113-0.018,0.239-0.049,0.376-0.098v1.162c-0.145,0.049-0.325,0.086-0.539,0.113
		C170.948,78.816,170.765,78.83,170.614,78.83z"/>
	<path fill="#020A0A" d="M174.755,78.84c-0.383,0-0.724-0.07-1.017-0.209c-0.295-0.141-0.526-0.334-0.689-0.582
		c-0.166-0.248-0.247-0.531-0.247-0.854c0-0.514,0.194-0.914,0.581-1.197c0.388-0.285,0.919-0.428,1.598-0.428
		c0.469,0,0.906,0.072,1.318,0.217v-0.391c0-0.311-0.097-0.543-0.29-0.699c-0.189-0.158-0.472-0.238-0.842-0.238
		c-0.226,0-0.47,0.037-0.729,0.109c-0.262,0.07-0.564,0.182-0.906,0.332l-0.515-1.037c0.427-0.191,0.833-0.336,1.22-0.434
		c0.387-0.094,0.776-0.143,1.167-0.143c0.72,0,1.28,0.174,1.681,0.52c0.402,0.348,0.602,0.834,0.602,1.467v3.475h-1.387v-0.381
		c-0.221,0.164-0.457,0.285-0.711,0.359C175.334,78.803,175.058,78.84,174.755,78.84z M174.139,77.164
		c0,0.205,0.088,0.369,0.267,0.488c0.179,0.121,0.416,0.18,0.711,0.18c0.233,0,0.449-0.029,0.646-0.086
		c0.199-0.059,0.378-0.146,0.536-0.264v-0.781c-0.172-0.068-0.35-0.121-0.536-0.152c-0.185-0.037-0.384-0.053-0.596-0.053
		c-0.323,0-0.575,0.059-0.756,0.18C174.229,76.797,174.139,76.959,174.139,77.164z"/>
	<path fill="#020A0A" d="M87.39,93.439V86.24h1.491v3.219l3.146-3.219h1.819l-3.494,3.424l3.659,3.775h-1.996l-3.135-3.342v3.342
		H87.39z"/>
	<path fill="#020A0A" d="M95.133,93.439V88.08h1.409v0.598c0.171-0.234,0.376-0.41,0.616-0.535c0.239-0.123,0.512-0.186,0.813-0.186
		c0.262,0.008,0.457,0.049,0.588,0.123v1.234c-0.104-0.047-0.218-0.082-0.34-0.107c-0.124-0.023-0.252-0.035-0.382-0.035
		c-0.272,0-0.524,0.068-0.75,0.205s-0.407,0.332-0.545,0.586v3.477H95.133z"/>
	<path fill="#020A0A" d="M101.535,93.531c-0.384,0-0.725-0.07-1.02-0.209c-0.295-0.143-0.524-0.336-0.688-0.584
		c-0.166-0.246-0.246-0.529-0.246-0.852c0-0.516,0.191-0.914,0.58-1.199c0.388-0.285,0.92-0.426,1.598-0.426
		c0.469,0,0.906,0.07,1.318,0.215v-0.391c0-0.309-0.098-0.541-0.29-0.699c-0.191-0.156-0.472-0.236-0.844-0.236
		c-0.226,0-0.468,0.037-0.728,0.107c-0.261,0.072-0.563,0.184-0.906,0.334l-0.515-1.039c0.425-0.191,0.831-0.334,1.22-0.432
		c0.386-0.096,0.774-0.143,1.168-0.143c0.72,0,1.279,0.174,1.68,0.52c0.402,0.346,0.602,0.834,0.602,1.465v3.477h-1.387v-0.381
		c-0.22,0.166-0.457,0.285-0.711,0.359C102.113,93.494,101.836,93.531,101.535,93.531z M100.916,91.854
		c0,0.207,0.091,0.371,0.27,0.49c0.178,0.119,0.413,0.18,0.71,0.18c0.231,0,0.447-0.029,0.646-0.088s0.378-0.145,0.536-0.262v-0.781
		c-0.171-0.068-0.35-0.119-0.536-0.154c-0.186-0.035-0.383-0.051-0.598-0.051c-0.321,0-0.573,0.059-0.754,0.178
		C101.009,91.486,100.916,91.65,100.916,91.854z"/>
	<path fill="#020A0A" d="M106.174,93.439V86.24l1.408-0.238v4.33l2.313-2.252h1.594l-2.529,2.459l2.684,2.9h-1.799l-2.263-2.447
		v2.447H106.174z"/>
	<path fill="#020A0A" d="M114.93,93.543c-0.536,0-1.019-0.125-1.451-0.371s-0.774-0.58-1.028-0.998s-0.38-0.889-0.38-1.408
		s0.124-0.992,0.376-1.414c0.25-0.424,0.592-0.756,1.026-1.002c0.437-0.248,0.921-0.371,1.457-0.371
		c0.533,0,1.019,0.123,1.455,0.371c0.434,0.246,0.777,0.578,1.027,1.002c0.25,0.422,0.377,0.895,0.377,1.414
		s-0.127,0.99-0.377,1.408s-0.59,0.752-1.023,0.998C115.958,93.418,115.471,93.543,114.93,93.543z M114.93,92.318
		c0.28,0,0.533-0.068,0.756-0.205c0.222-0.137,0.4-0.326,0.533-0.563c0.136-0.236,0.201-0.498,0.201-0.785
		c0-0.295-0.065-0.561-0.201-0.791c-0.133-0.234-0.312-0.422-0.533-0.563c-0.223-0.139-0.476-0.211-0.756-0.211
		c-0.274,0-0.524,0.072-0.75,0.211c-0.228,0.141-0.406,0.328-0.536,0.563c-0.13,0.23-0.195,0.496-0.195,0.791
		c0,0.287,0.065,0.549,0.195,0.785s0.309,0.426,0.536,0.563C114.405,92.25,114.655,92.318,114.93,92.318z"/>
	<path fill="#020A0A" d="M120.089,93.439l-1.47-5.359h1.337l0.883,3.457l1.07-3.457h1.182l1.061,3.467l0.886-3.467h1.315
		l-1.481,5.359h-1.348l-1.037-3.426l-1.04,3.426H120.089z"/>
	<path fill="#020A0A" d="M129.568,93.543c-0.494,0-0.949-0.066-1.368-0.191c-0.417-0.125-0.78-0.311-1.088-0.551l0.697-0.936
		c0.31,0.207,0.604,0.361,0.889,0.463c0.286,0.104,0.569,0.154,0.85,0.154c0.316,0,0.567-0.053,0.756-0.16
		c0.189-0.105,0.284-0.244,0.284-0.416c0-0.137-0.053-0.248-0.16-0.33c-0.107-0.08-0.276-0.139-0.51-0.174l-1.027-0.152
		c-0.536-0.084-0.94-0.258-1.215-0.521s-0.412-0.611-0.412-1.043c0-0.35,0.093-0.65,0.273-0.9c0.182-0.25,0.439-0.445,0.772-0.584
		c0.332-0.143,0.728-0.213,1.186-0.213c0.392,0,0.774,0.055,1.148,0.164s0.724,0.277,1.055,0.504l-0.679,0.916
		c-0.297-0.186-0.577-0.318-0.844-0.4c-0.269-0.082-0.539-0.123-0.813-0.123c-0.252,0-0.457,0.047-0.611,0.143
		c-0.154,0.098-0.231,0.223-0.231,0.381c0,0.145,0.055,0.256,0.164,0.34c0.11,0.082,0.301,0.139,0.565,0.174l1.019,0.156
		c0.534,0.074,0.942,0.244,1.224,0.508c0.282,0.264,0.422,0.604,0.422,1.023c0,0.342-0.102,0.646-0.309,0.91
		c-0.205,0.266-0.483,0.473-0.833,0.627S130.021,93.543,129.568,93.543z"/>
	<path fill="#020A0A" d="M133.283,93.439V86.24l1.409-0.238v4.33l2.314-2.252h1.592l-2.528,2.459l2.685,2.9h-1.801l-2.262-2.447
		v2.447H133.283z"/>
	<path fill="#020A0A" d="M140.501,87.443c-0.22,0-0.409-0.078-0.567-0.236c-0.156-0.156-0.237-0.346-0.237-0.566
		c0-0.225,0.081-0.416,0.237-0.57c0.158-0.154,0.348-0.23,0.567-0.23c0.226,0,0.415,0.076,0.569,0.23s0.231,0.346,0.231,0.57
		c0,0.221-0.077,0.41-0.231,0.566C140.916,87.365,140.727,87.443,140.501,87.443z M139.8,93.439V88.08h1.41v5.359H139.8z"/>
</g>
</svg>
