<?xml version="1.0" encoding="utf-8"?>
<!-- Generator: Adobe Illustrator 16.0.0, SVG Export Plug-In . SVG Version: 6.00 Build 0)  -->
<!DOCTYPE svg PUBLIC "-//W3C//DTD SVG 1.1//EN" "http://www.w3.org/Graphics/SVG/1.1/DTD/svg11.dtd">
<svg version="1.1" id="Layer_1" xmlns="http://www.w3.org/2000/svg" xmlns:xlink="http://www.w3.org/1999/xlink" x="0px" y="0px"
	 width="227.94px" height="150px" viewBox="0 0 227.94 150" enable-background="new 0 0 227.94 150" xml:space="preserve">
<rect x="-260.94" y="-187" display="none" fill="#B74EDE" width="1001" height="856"/>
<g>
	<path fill="#FFFFFF" d="M136.06,85.834c0,1.04-0.224,2.166-0.164,2.166h-0.026c-0.093,0-0.238-0.969-0.459-1.548L134.506,84h-1.446
		v6h1v-1.56c0-1.048-0.149-2.44-0.208-2.44h0.025c0.094,0,0.238,0.757,0.452,1.335L135.384,90h1.676v-6h-1V85.834z"/>
	<polygon fill="#FFFFFF" points="128.06,84 127.06,84 127.06,90 130.06,90 130.06,89 128.06,89 	"/>
	<path fill="#FFFFFF" d="M139.999,81.624c1.393,0,2.914-0.213,4.122-0.657l-0.643-4.335c-0.719,0.367-1.83,0.546-2.58,0.546
		c-2.701,0-3.861-1.646-3.861-4.7c0-2.854,1.417-4.446,3.685-4.446c0.977,0,1.906,0.159,2.757,0.498l0.595-4.441
		c-1.005-0.31-2.22-0.47-3.352-0.47c-5.693,0-8.972,3.789-8.972,9.669C131.75,76.84,133.171,81.624,139.999,81.624z"/>
	<polygon fill="#FFFFFF" points="147.079,59 139.958,59 137.077,62 142.244,62 	"/>
	<path fill="#FFFFFF" d="M142.285,85.888c-0.067,0.221-0.163,1.112-0.23,1.112h-0.008c-0.067,0-0.171-0.924-0.255-1.199L141.288,84
		h-1.327l1.1,4.305V90h2v-1.704L144.057,84h-1.26L142.285,85.888z"/>
	<polygon fill="#FFFFFF" points="122.06,88 124.06,88 124.06,87 122.06,87 122.06,86 124.06,86 124.06,84 121.06,84 121.06,90 
		124.06,90 124.06,89 122.06,89 	"/>
	<path fill="#FFFFFF" d="M104.527,84.445c-0.545,0-1.467,0.025-1.467,0.043v5.725c0,0.025,0.879,0.051,1.382,0.051
		c1.482,0,2.436-0.81,2.436-2.999C106.878,85.05,106.035,84.445,104.527,84.445z M104.459,89.191c-0.136,0-0.399-0.01-0.399-0.026
		V85.51c0-0.018,0.264-0.024,0.399-0.024c0.708,0,1.005,0.477,1.005,1.848C105.464,88.73,105.083,89.191,104.459,89.191z"/>
	<rect x="116.06" y="84" fill="#FFFFFF" width="1" height="6"/>
	<path fill="#FFFFFF" d="M87.06,85.834c0,1.04,0.388,2.166,0.447,2.166h-0.026c-0.096,0-0.238-0.969-0.46-1.548L86.118,84H84.06v6h2
		v-1.56c0-1.048-0.538-2.44-0.598-2.44h0.025c0.093,0,0.238,0.757,0.45,1.335L86.996,90h1.064v-6h-1V85.834z"/>
	<path fill="#FFFFFF" d="M111.435,89.083l1.625-3.641V84h-3v2h0.551c0.272,0,0.649-0.216,0.871-0.232l-1.422,3.482V90h3v-1h-0.874
		C111.836,89,111.632,89.066,111.435,89.083z"/>
	<rect x="92.06" y="84" fill="#FFFFFF" width="1" height="6"/>
	<path fill="#FFFFFF" d="M108.827,81.628c4.973,0,9.003-4.023,9.003-8.991c0-4.974-4.03-9.002-9.003-9.002
		c-4.972,0-8.996,4.028-8.996,9.002C99.831,77.604,103.855,81.628,108.827,81.628z M113.835,73.69
		c0.042-0.708-0.157-1.645-0.626-2.808c-0.09-0.217,0.27-0.374,0.356-0.217c0.559,0.846,1.179,1.021,1.756,0.752
		c0.41-0.194,0.784-0.577,1.121-1.092c0.083-0.105,0.354-0.04,0.313,0.27c-0.162,0.759-0.422,1.693-0.826,2.628
		c-0.293,0.715-0.689,1.43-1.136,2.051c-0.471,0.647-1.178,1.291-2.096,1.788c-1.176,0.62-2.648,0.953-4.524,0.351
		c-1.135-0.377-1.889-1.222-2.271-2.094c-0.536-1.223-0.356-2.611,0.02-3.43c0.047-0.091,0.247-0.157,0.362-0.133
		c0.26,0.062,1.558,0.532,2.248,1.2c0.578,0.555,1.112,1.408,1.757,1.984c0.676,0.556,1.408,0.916,2.3,0.603
		C113.322,75.274,113.785,74.673,113.835,73.69z M101.398,74.842c-0.089,0.11-0.356,0.048-0.312-0.267
		c0.157-0.76,0.427-1.696,0.825-2.635c0.286-0.707,0.686-1.418,1.131-2.046c0.472-0.644,1.186-1.289,2.095-1.782
		c1.184-0.623,2.651-0.955,4.527-0.354c1.137,0.38,1.896,1.224,2.275,2.088c0.529,1.229,0.353,2.613-0.027,3.43
		c-0.041,0.095-0.24,0.166-0.353,0.139c-0.271-0.065-1.563-0.536-2.252-1.204c-0.584-0.559-1.113-1.401-1.762-1.982
		c-0.667-0.558-1.404-0.91-2.289-0.603c-0.74,0.269-1.205,0.869-1.251,1.853c-0.047,0.714,0.156,1.648,0.622,2.809
		c0.09,0.22-0.269,0.372-0.355,0.22c-0.555-0.848-1.181-1.025-1.761-0.759C102.111,73.952,101.731,74.331,101.398,74.842z"/>
	<polygon fill="#FFFFFF" points="99.06,86 99.06,84 97.06,84 97.06,90 99.06,90 99.06,89 98.06,89 98.06,88 99.06,88 99.06,87 
		98.06,87 98.06,86 	"/>
	<polygon fill="#FFFFFF" points="132.307,59 125.187,59 122.304,62 127.47,62 	"/>
	<path fill="#FFFFFF" d="M92.028,81.644c2.37,0,5.032-0.464,6.032-1.212V72h-4v5.134c-1,0.077-0.781,0.13-1.146,0.13
		c-2.961,0-4.332-1.78-4.332-4.485c0-2.806,1.375-4.796,4.676-4.796c1.727,0,3.145,0.313,4.331,0.772l0.922-4.382
		c-1.267-0.385-3.152-0.716-5.11-0.716c-6.44,0-10.222,3.71-10.222,9.688C83.179,78.32,85.942,81.644,92.028,81.644z"/>
	<path fill="#FFFFFF" d="M107.213,73.267c-0.405,0-0.741,0.332-0.741,0.738c0,0.413,0.336,0.737,0.741,0.737
		c0.411,0,0.741-0.324,0.741-0.737C107.955,73.599,107.625,73.267,107.213,73.267z"/>
	<path fill="#FFFFFF" d="M125.262,76.204c0,0.824-0.752,1.235-1.676,1.235c-1.527,0-2.838-0.333-3.999-0.822l-0.41,4.563
		c1.261,0.308,2.576,0.438,4.304,0.438c4.174,0,7.138-2.607,7.138-6.03c0-5.542-6.7-4.721-6.7-6.912c0-0.667,0.565-1.16,1.903-1.16
		c1.059,0,2.015,0.178,2.968,0.519l0.41-4.15c-1.029-0.236-2.319-0.332-3.194-0.332c-4.587,0-7.242,2.218-7.242,5.665
		C118.763,75.177,125.262,73.677,125.262,76.204z"/>
	<path fill="#FFFFFF" d="M110.625,71.905c0.409,0,0.738-0.33,0.738-0.742c0-0.406-0.329-0.732-0.738-0.732
		c-0.407,0-0.74,0.326-0.74,0.732C109.884,71.575,110.217,71.905,110.625,71.905z"/>
	<path d="M110.29,74.941c-0.645-0.576-1.179-1.43-1.757-1.984c-0.69-0.668-1.988-1.139-2.248-1.2
		c-0.115-0.024-0.315,0.042-0.362,0.133c-0.376,0.818-0.556,2.207-0.02,3.43c0.382,0.872,1.136,1.717,2.271,2.094
		c1.876,0.603,3.349,0.27,4.524-0.351c0.918-0.497,1.625-1.141,2.096-1.788c0.446-0.621,0.843-1.336,1.136-2.051
		c0.404-0.935,0.664-1.869,0.826-2.628c0.042-0.31-0.229-0.375-0.313-0.27c-0.337,0.515-0.711,0.897-1.121,1.092
		c-0.577,0.269-1.197,0.094-1.756-0.752c-0.087-0.157-0.446,0-0.356,0.217c0.469,1.163,0.668,2.1,0.626,2.808
		c-0.051,0.982-0.514,1.584-1.246,1.854C111.698,75.857,110.965,75.497,110.29,74.941z M107.213,74.742
		c-0.405,0-0.741-0.324-0.741-0.737c0-0.406,0.336-0.738,0.741-0.738c0.411,0,0.741,0.332,0.741,0.738
		C107.955,74.418,107.625,74.742,107.213,74.742z"/>
	<path d="M104.273,74.507c0.087,0.152,0.445,0,0.355-0.22c-0.466-1.16-0.669-2.095-0.622-2.809c0.046-0.983,0.511-1.584,1.251-1.853
		c0.885-0.308,1.622,0.045,2.289,0.603c0.648,0.581,1.178,1.424,1.762,1.982c0.688,0.668,1.981,1.139,2.252,1.204
		c0.112,0.027,0.312-0.044,0.353-0.139c0.38-0.816,0.557-2.2,0.027-3.43c-0.38-0.864-1.139-1.708-2.275-2.088
		c-1.876-0.602-3.344-0.27-4.527,0.354c-0.909,0.493-1.623,1.139-2.095,1.782c-0.445,0.628-0.845,1.339-1.131,2.046
		c-0.398,0.938-0.668,1.875-0.825,2.635c-0.045,0.314,0.223,0.377,0.312,0.267c0.333-0.511,0.713-0.89,1.114-1.094
		C103.092,73.481,103.718,73.659,104.273,74.507z M110.625,70.431c0.409,0,0.738,0.326,0.738,0.732c0,0.412-0.329,0.742-0.738,0.742
		c-0.407,0-0.74-0.33-0.74-0.742C109.884,70.757,110.217,70.431,110.625,70.431z"/>
	<path d="M104.459,85.485c-0.136,0-0.399,0.007-0.399,0.024v3.655c0,0.017,0.264,0.026,0.399,0.026c0.623,0,1.005-0.461,1.005-1.858
		C105.464,85.962,105.167,85.485,104.459,85.485z"/>
	<path d="M75.06,96h78V54h-78V96z M88.06,90h-1.064l-1.058-2.665C85.726,86.757,85.581,86,85.488,86h-0.025
		c0.06,0,0.598,1.393,0.598,2.44V90h-2v-6h2.058l0.903,2.452C87.243,87.031,87.385,88,87.481,88h0.026
		c-0.06,0-0.447-1.126-0.447-2.166V84h1V90z M93.06,90h-1v-6h1V90z M104.442,90.264c-0.503,0-1.382-0.025-1.382-0.051v-5.725
		c0-0.018,0.922-0.043,1.467-0.043c1.508,0,2.351,0.604,2.351,2.819C106.878,89.454,105.925,90.264,104.442,90.264z M113.06,90h-3
		v-0.75l1.422-3.482C111.26,85.784,110.883,86,110.611,86h-0.551v-2h3v1.442l-1.625,3.641c0.197-0.017,0.401-0.083,0.751-0.083
		h0.874V90z M117.06,90h-1v-6h1V90z M124.06,90h-3v-6h3v2h-2v1h2v1h-2v1h2V90z M130.06,90h-3v-6h1v5h2V90z M137.06,90h-1.676
		l-1.055-2.665c-0.214-0.578-0.358-1.335-0.452-1.335h-0.025c0.059,0,0.208,1.393,0.208,2.44V90h-1v-6h1.446l0.904,2.452
		c0.221,0.579,0.366,1.548,0.459,1.548h0.026c-0.06,0,0.164-1.126,0.164-2.166V84h1V90z M143.06,88.296V90h-2v-1.695L139.96,84
		h1.327l0.504,1.801c0.084,0.274,0.188,1.199,0.255,1.199h0.008c0.067,0,0.163-0.891,0.23-1.112L142.797,84h1.26L143.06,88.296z
		 M139.958,59h7.12l-4.835,3h-5.167L139.958,59z M140.721,63.618c1.132,0,2.347,0.16,3.352,0.47l-0.595,4.441
		c-0.851-0.339-1.78-0.498-2.757-0.498c-2.268,0-3.685,1.593-3.685,4.446c0,3.054,1.16,4.7,3.861,4.7c0.75,0,1.861-0.179,2.58-0.546
		l0.643,4.335c-1.208,0.444-2.729,0.657-4.122,0.657c-6.827,0-8.249-4.784-8.249-8.337C131.75,67.407,135.028,63.618,140.721,63.618
		z M125.187,59h7.12l-4.837,3h-5.166L125.187,59z M126.005,63.552c0.875,0,2.165,0.096,3.194,0.332l-0.41,4.15
		c-0.953-0.341-1.909-0.519-2.968-0.519c-1.338,0-1.903,0.493-1.903,1.16c0,2.191,6.7,1.37,6.7,6.912c0,3.423-2.964,6.03-7.138,6.03
		c-1.728,0-3.043-0.131-4.304-0.438l0.41-4.563c1.161,0.489,2.472,0.822,3.999,0.822c0.924,0,1.676-0.411,1.676-1.235
		c0-2.527-6.499-1.027-6.499-6.987C118.763,65.77,121.418,63.552,126.005,63.552z M108.827,63.635c4.973,0,9.003,4.028,9.003,9.002
		c0,4.968-4.03,8.991-9.003,8.991c-4.972,0-8.996-4.023-8.996-8.991C99.831,67.663,103.855,63.635,108.827,63.635z M99.06,87v1h-1v1
		h1v1h-2v-6h2v2h-1v1H99.06z M93.396,63.657c1.958,0,3.839,0.331,5.105,0.716l-0.933,4.382c-1.186-0.459-2.625-0.772-4.352-0.772
		c-3.302,0-4.718,1.99-4.718,4.796c0,2.705,1.454,4.485,4.415,4.485c0.364,0,0.146-0.053,1.146-0.13V72h4v8.432
		c-1,0.748-3.662,1.212-6.032,1.212c-6.086,0-8.852-3.323-8.852-8.299C83.176,67.367,86.956,63.657,93.396,63.657z"/>
</g>
</svg>
