<?xml version="1.0" encoding="utf-8"?>
<!-- Generator: Adobe Illustrator 16.0.0, SVG Export Plug-In . SVG Version: 6.00 Build 0)  -->
<!DOCTYPE svg PUBLIC "-//W3C//DTD SVG 1.1//EN" "http://www.w3.org/Graphics/SVG/1.1/DTD/svg11.dtd">
<svg version="1.1" id="Layer_1" xmlns="http://www.w3.org/2000/svg" xmlns:xlink="http://www.w3.org/1999/xlink" x="0px" y="0px"
	 width="227.94px" height="150px" viewBox="0 0 227.94 150" enable-background="new 0 0 227.94 150" xml:space="preserve">
<rect x="-13" y="-527" display="none" fill="#B74EDE" width="1001" height="856"/>
<g>
	<path fill="#1A1A18" d="M64.82,55.402c-11.202,0-20.283,8.774-20.283,19.598s9.081,19.598,20.283,19.598
		c11.203,0,20.284-8.774,20.284-19.598S76.023,55.402,64.82,55.402 M79.35,62.154c3.175,3.375,5.116,7.864,5.135,12.792
		c-1.218,0.098-2.498,0.186-3.835,0.264c-0.001-0.011-0.001-0.021-0.002-0.031c-0.178-2.995-0.86-8.062-3.303-12.341
		C78.096,62.628,78.769,62.399,79.35,62.154z M53.201,87.166c-1.953-2.996-3.206-6.829-3.494-11.169
		c1.777,0.101,3.656,0.186,5.604,0.251l-0.233,0.335C53.937,79.059,52.577,83.953,53.201,87.166z M54.44,65.76l1.111,9.646
		c-2.051-0.066-4.028-0.155-5.89-0.263c-0.143-4.189,1.061-8.481,3.258-11.944c0.215,0.052,0.434,0.103,0.653,0.152l-0.725,0.817
		L54.44,65.76z M54.523,87.837c1.367-0.787,2.671-2.046,3.159-3.552c0.216,1.019,0.469,1.987,0.754,2.896
		c-1.369,0.186-2.681,0.431-3.915,0.736L54.523,87.837z M56.938,70.434l-0.693-5.627l1.553,0.016
		C57.414,66.415,57.115,68.271,56.938,70.434z M58.651,64.832l7.354,0.079c-2.305,1.203-5.554,3.856-8.321,7.066
		C57.83,69.111,58.18,66.761,58.651,64.832z M58.355,83.267l0.82-0.006c0.052-0.508,0.104-1.016,0.282-1.466
		c0.61-2.279,2.982-4.778,5.238-5.212v-2.126c1.145-1.466,0.817-3.327,0.779-5.184l-1.273-0.011v-1.077l1.294,0.012l0.026-1.376
		h1.106v1.376l1.181-0.012v1.077l-1.273,0.011c0.003,1.898-0.32,3.688,0.849,5.184v2.126c2.229,0.213,3.396,1.698,3.927,2.652
		c0.214-0.283,0.425-0.586,0.633-0.896c-0.239,3.235-0.817,6.236-1.627,8.726c-1.759-0.202-3.598-0.309-5.479-0.309
		c-1.903,0-3.761,0.108-5.534,0.313C58.933,85.903,58.612,84.626,58.355,83.267z M72.876,76.88c0.105-0.171,0.209-0.34,0.312-0.511
		c2.337-0.063,4.556-0.152,6.646-0.265c0.081,4.493-1.274,8.766-3.803,12.044c-1.505-0.416-3.136-0.744-4.858-0.978
		C72.118,84.223,72.725,80.651,72.876,76.88z M73.705,75.504c0.304-0.507,0.603-1.004,0.896-1.468l1.061-1.909
		c1.619-3.217,2.082-5.216,2.187-6.313c1.315,3.312,1.797,6.811,1.953,9.415c0,0.01,0,0.018,0.001,0.025
		C77.878,75.36,75.842,75.442,73.705,75.504z M78.704,61.5c-0.536,0.208-1.144,0.403-1.814,0.584
		c-1.21-1.902-2.801-3.605-4.893-4.841C74.531,58.207,76.81,59.666,78.704,61.5z M75.492,61.524
		c-1.399-0.129-3.051,0.31-4.432,0.769c-0.816-2.414-1.873-4.352-3.109-5.587c-0.088-0.088-0.177-0.169-0.268-0.249
		C70.887,57.176,73.501,58.872,75.492,61.524z M64.927,56.087c0.079,0.005,0.156,0.01,0.235,0.015
		c0.744,0.09,1.479,0.494,2.188,1.205c1.138,1.137,2.124,2.973,2.896,5.269c-0.547,0.195-1.022,0.371-1.376,0.479l-9.642-0.215
		C61.118,57.296,64.087,56.27,64.927,56.087z M58.364,62.819l-1.377-0.03l-1.698-1.378l-1.072,1.212
		c-0.268-0.057-0.532-0.115-0.793-0.178c0.604-0.86,1.273-1.663,2.001-2.387c2.158-2.147,4.691-3.476,7.3-3.865
		C61.34,57.156,59.605,59.063,58.364,62.819z M57.472,57.325c-0.926,0.594-1.813,1.303-2.646,2.132
		c-0.838,0.834-1.601,1.766-2.282,2.771c-0.619-0.163-1.215-0.338-1.774-0.526C52.652,59.824,54.93,58.324,57.472,57.325z
		 M50.126,62.374c0.607,0.215,1.253,0.419,1.934,0.605c-2.18,3.541-3.376,7.876-3.248,12.113c-1.271-0.079-2.481-0.168-3.616-0.263
		C45.242,70.053,47.096,65.696,50.126,62.374z M45.206,75.682c1.146,0.096,2.367,0.185,3.647,0.264
		c0.307,4.885,1.796,9.157,4.121,12.395c-0.561,0.17-1.099,0.354-1.617,0.549C47.718,85.553,45.391,80.882,45.206,75.682z
		 M52.089,89.526c0.462-0.164,0.939-0.317,1.433-0.461c1.213,1.522,2.621,2.78,4.186,3.729
		C55.642,92.013,53.747,90.901,52.089,89.526z M54.497,88.913l0.003-0.114c1.317-0.335,2.729-0.604,4.209-0.8
		c0.804,2.29,1.826,4.133,3.018,5.323c0.114,0.114,0.229,0.221,0.346,0.32C59.141,92.999,56.548,91.338,54.497,88.913z
		 M64.842,93.946c-0.001,0-0.002,0-0.003,0h-0.001c-0.854,0-1.699-0.413-2.511-1.226c-1.064-1.063-1.996-2.737-2.745-4.828
		c1.687-0.188,3.449-0.288,5.257-0.288c1.783,0,3.527,0.097,5.197,0.282C68.7,91.572,66.835,93.943,64.842,93.946z M67.835,93.358
		c1.196-1.194,2.235-3.063,3.059-5.369c1.606,0.212,3.136,0.504,4.55,0.878c-0.151,0.176-0.307,0.35-0.466,0.519
		c-2.108,2.236-4.698,3.707-7.477,4.284C67.614,93.572,67.726,93.469,67.835,93.358z M72.25,92.685
		c1.201-0.729,2.327-1.637,3.345-2.716c0.259-0.274,0.506-0.559,0.746-0.849c0.429,0.128,0.845,0.263,1.249,0.406
		C76.007,90.838,74.207,91.91,72.25,92.685z M78.318,88.89c-0.455-0.172-0.929-0.333-1.418-0.484
		c2.524-3.402,3.87-7.77,3.781-12.347c1.319-0.077,2.581-0.164,3.785-0.26C84.252,80.952,81.933,85.578,78.318,88.89z"/>
	<path fill="#1A1A18" d="M78.347,91.117c0.152,0.153,0.229,0.34,0.229,0.557c0,0.221-0.077,0.406-0.229,0.563
		c-0.152,0.153-0.338,0.232-0.557,0.232s-0.404-0.079-0.558-0.232c-0.151-0.156-0.228-0.342-0.228-0.563
		c0-0.217,0.076-0.403,0.229-0.557c0.154-0.154,0.34-0.231,0.557-0.231S78.192,90.963,78.347,91.117 M78.438,91.029
		c-0.18-0.178-0.396-0.268-0.648-0.268c-0.252,0-0.467,0.09-0.646,0.268c-0.178,0.178-0.268,0.393-0.268,0.645
		c0,0.255,0.089,0.472,0.266,0.651c0.178,0.179,0.394,0.269,0.647,0.269c0.253,0,0.469-0.09,0.648-0.269
		c0.178-0.181,0.268-0.397,0.268-0.651C78.706,91.422,78.616,91.207,78.438,91.029z M77.926,91.632
		c-0.038,0.016-0.094,0.022-0.169,0.022h-0.159V91.29h0.151c0.098,0,0.169,0.013,0.213,0.037c0.045,0.025,0.067,0.075,0.067,0.147
		C78.029,91.553,77.995,91.605,77.926,91.632z M77.421,92.174h0.177v-0.396h0.14c0.094,0,0.159,0.011,0.197,0.032
		c0.063,0.037,0.095,0.114,0.095,0.23v0.08l0.003,0.032c0.001,0.004,0.002,0.008,0.003,0.011c0,0.004,0.002,0.007,0.003,0.01h0.165
		l-0.006-0.012c-0.005-0.008-0.007-0.026-0.009-0.053c-0.001-0.026-0.002-0.052-0.002-0.074v-0.073c0-0.052-0.019-0.103-0.056-0.156
		c-0.035-0.054-0.094-0.086-0.173-0.1c0.062-0.01,0.111-0.026,0.146-0.048c0.066-0.043,0.099-0.108,0.099-0.197
		c0-0.127-0.052-0.212-0.155-0.255c-0.059-0.024-0.15-0.036-0.275-0.036h-0.351V92.174z"/>
	<path fill="#1A1A18" d="M102.522,69.095l-0.096,2.279h-0.03h-5.149h-1.603c-0.074,0.899-0.083,1.847-0.121,2.757h1.59h4.269
		c0.021,0.877-0.042,1.755-0.067,2.641h-2.366h-3.464c-0.035-0.012-0.065-0.029-0.071,0l-0.11,3.005h3.943h2.743
		c-0.021,0.804-0.083,1.532-0.127,2.349h-9.731l0.542-13.03H102.522z"/>
	<path fill="#1A1A18" d="M122.686,69.094l0.002-0.003h-2.896l-4.353,9.841l-0.214,0.424c-0.123-0.313-0.223-0.639-0.333-0.964
		l-1.055-3.167l2.749-6.138c-0.518,0-2.6,0-2.825-0.003l-1.075,2.418l-0.071,0.088c-0.311-0.815-0.562-1.682-0.871-2.499
		c-0.893,0-1.819,0-2.696,0L111,75.244l-1.848,4.05l-0.101,0.141c-0.006-0.011-0.029-0.023-0.023-0.041l-2.895-9.12l-0.381-1.183
		h-2.933l0,0l3.65,11.245l0.615,1.784h3.191h0.396l1.287-2.788l0.232-0.453l0.041,0.041l1.012,3.197c0.392,0,2.918-0.004,3.62-0.001
		c0.245-0.561,0.51-1.097,0.726-1.669l1.662-3.655l2.466-5.507l3.41,0.001l0.04,0.023l-0.22,5.623l-0.169,5.187
		c0.065,0,2.634-0.003,2.703,0l0.064-1.033l0.542-9.808l3.927-0.028c0.031-0.733,0.078-1.539,0.091-2.156H122.686z"/>
	<path fill="#1A1A18" d="M133.166,69.09h4.055l4.766,10.125c0.011,0.007,0.018,0.029,0.041,0.023l0.029-0.04l0.515-10.108h2.596
		h0.047l-0.412,8.03l-0.259,4.998h-4.429l-1.51-3.187l-3.293-6.863l-0.029-0.029l-0.029,0.041l-0.613,10.038h-2.614h-0.041
		l0.625-13.028H133.166z"/>
	<rect x="151.479" y="64.955" fill="#1A1A18" width="0.347" height="21.354"/>
	<polygon fill="#1A1A18" points="159.254,73.582 158.734,73.582 158.734,69.576 157.32,69.576 157.32,69.114 160.669,69.114 
		160.669,69.576 159.254,69.576 	"/>
	<path fill="#1A1A18" d="M162.617,73.643c-0.495,0-0.886-0.15-1.172-0.452c-0.286-0.301-0.43-0.721-0.43-1.256
		c0-0.54,0.133-0.968,0.399-1.286c0.266-0.317,0.622-0.477,1.07-0.477c0.42,0,0.752,0.139,0.997,0.414
		c0.244,0.276,0.366,0.641,0.366,1.092v0.321h-2.307c0.01,0.394,0.108,0.692,0.298,0.896c0.188,0.204,0.453,0.307,0.796,0.307
		c0.36,0,0.717-0.076,1.069-0.228v0.452c-0.18,0.078-0.35,0.134-0.509,0.167C163.036,73.626,162.844,73.643,162.617,73.643
		 M162.479,70.597c-0.269,0-0.483,0.088-0.643,0.264c-0.16,0.174-0.255,0.417-0.283,0.727h1.751c0-0.319-0.071-0.565-0.214-0.734
		C162.948,70.682,162.744,70.597,162.479,70.597z"/>
	<rect x="164.65" y="68.827" fill="#1A1A18" width="0.508" height="4.755"/>
	<path fill="#1A1A18" d="M167.585,73.643c-0.495,0-0.885-0.15-1.171-0.452c-0.287-0.301-0.43-0.721-0.43-1.256
		c0-0.54,0.133-0.968,0.398-1.286c0.266-0.317,0.623-0.477,1.071-0.477c0.42,0,0.752,0.139,0.996,0.414
		c0.244,0.276,0.366,0.641,0.366,1.092v0.321h-2.307c0.01,0.394,0.109,0.692,0.298,0.896c0.188,0.204,0.454,0.307,0.797,0.307
		c0.36,0,0.717-0.076,1.068-0.228v0.452c-0.179,0.078-0.349,0.134-0.509,0.167S167.812,73.643,167.585,73.643 M167.448,70.597
		c-0.269,0-0.483,0.088-0.644,0.264c-0.159,0.174-0.254,0.417-0.283,0.727h1.752c0-0.319-0.071-0.565-0.214-0.734
		C167.916,70.682,167.713,70.597,167.448,70.597z"/>
	<path fill="#1A1A18" d="M172.354,73.582l-0.614-1.965c-0.038-0.12-0.11-0.393-0.217-0.818h-0.024
		c-0.081,0.356-0.152,0.631-0.214,0.824l-0.633,1.959h-0.586l-0.914-3.35h0.532c0.216,0.842,0.38,1.482,0.493,1.922
		c0.113,0.441,0.178,0.737,0.194,0.89h0.024c0.022-0.116,0.059-0.266,0.108-0.45s0.093-0.331,0.13-0.439l0.613-1.922h0.551
		l0.599,1.922c0.114,0.352,0.191,0.646,0.232,0.884h0.024c0.008-0.074,0.03-0.187,0.066-0.339c0.035-0.152,0.248-0.975,0.637-2.467
		h0.525l-0.926,3.35H172.354z"/>
	<path fill="#1A1A18" d="M174.381,69.325c0-0.116,0.028-0.201,0.086-0.255c0.058-0.053,0.129-0.08,0.214-0.08
		c0.081,0,0.152,0.027,0.211,0.081c0.06,0.056,0.089,0.14,0.089,0.254s-0.029,0.199-0.089,0.256
		c-0.059,0.056-0.13,0.084-0.211,0.084c-0.085,0-0.156-0.028-0.214-0.084C174.409,69.524,174.381,69.439,174.381,69.325
		 M174.932,73.582h-0.508v-3.35h0.508V73.582z"/>
	<polygon fill="#1A1A18" points="178.086,73.582 175.657,73.582 175.657,73.236 177.484,70.627 175.771,70.627 175.771,70.232 
		178.04,70.232 178.04,70.627 176.238,73.188 178.086,73.188 	"/>
	<path fill="#1A1A18" d="M178.403,75.085c-0.194,0-0.352-0.024-0.472-0.076v-0.413c0.141,0.042,0.28,0.063,0.416,0.063
		c0.159,0,0.275-0.044,0.35-0.131s0.112-0.218,0.112-0.396v-3.898h0.507v3.862C179.316,74.755,179.012,75.085,178.403,75.085
		 M178.767,69.325c0-0.116,0.028-0.201,0.085-0.255c0.058-0.053,0.129-0.08,0.215-0.08c0.081,0,0.151,0.027,0.21,0.081
		c0.06,0.056,0.089,0.14,0.089,0.254s-0.029,0.199-0.089,0.256c-0.059,0.056-0.129,0.084-0.21,0.084
		c-0.086,0-0.157-0.028-0.215-0.084C178.795,69.524,178.767,69.439,178.767,69.325z"/>
	<path fill="#1A1A18" d="M182.389,73.582l-0.101-0.477h-0.024c-0.167,0.209-0.334,0.352-0.5,0.426s-0.373,0.111-0.622,0.111
		c-0.331,0-0.592-0.085-0.78-0.256c-0.188-0.172-0.283-0.415-0.283-0.729c0-0.677,0.542-1.032,1.623-1.064l0.568-0.019v-0.208
		c0-0.263-0.057-0.456-0.17-0.582c-0.112-0.125-0.294-0.188-0.542-0.188c-0.279,0-0.595,0.086-0.947,0.257l-0.156-0.389
		c0.166-0.09,0.346-0.159,0.543-0.21c0.196-0.052,0.394-0.078,0.591-0.078c0.399,0,0.695,0.091,0.888,0.268
		c0.193,0.178,0.289,0.46,0.289,0.852v2.286H182.389z M181.243,73.225c0.315,0,0.563-0.087,0.744-0.261
		c0.18-0.173,0.27-0.415,0.27-0.727v-0.303l-0.507,0.022c-0.403,0.014-0.694,0.076-0.873,0.188
		c-0.178,0.111-0.267,0.283-0.267,0.518c0,0.183,0.056,0.323,0.166,0.419C180.888,73.177,181.043,73.225,181.243,73.225z"/>
	<polygon fill="#1A1A18" points="162.031,82.011 161.42,82.011 159.792,79.844 159.324,80.259 159.324,82.011 158.805,82.011 
		158.805,77.543 159.324,77.543 159.324,79.759 161.35,77.543 161.965,77.543 160.168,79.483 	"/>
	<path fill="#1A1A18" d="M164.566,82.011l-0.102-0.477h-0.024c-0.167,0.208-0.334,0.351-0.499,0.425
		c-0.167,0.074-0.374,0.112-0.622,0.112c-0.332,0-0.592-0.086-0.781-0.257c-0.188-0.171-0.281-0.414-0.281-0.729
		c0-0.677,0.54-1.031,1.621-1.064l0.568-0.018v-0.209c0-0.263-0.056-0.456-0.169-0.582c-0.113-0.124-0.294-0.187-0.543-0.187
		c-0.278,0-0.594,0.085-0.947,0.256l-0.155-0.389c0.165-0.09,0.346-0.159,0.543-0.21c0.195-0.051,0.393-0.077,0.591-0.077
		c0.399,0,0.695,0.09,0.888,0.268c0.192,0.177,0.288,0.461,0.288,0.852v2.286H164.566z M163.42,81.652
		c0.316,0,0.564-0.087,0.744-0.26c0.181-0.173,0.271-0.415,0.271-0.728v-0.302l-0.507,0.021c-0.403,0.015-0.694,0.077-0.872,0.188
		c-0.18,0.111-0.269,0.284-0.269,0.518c0,0.184,0.056,0.323,0.167,0.419C163.065,81.605,163.221,81.652,163.42,81.652z"/>
	<path fill="#1A1A18" d="M167.006,81.652c0.09,0,0.176-0.007,0.26-0.02c0.083-0.014,0.149-0.027,0.198-0.042v0.39
		c-0.055,0.024-0.136,0.048-0.243,0.065c-0.106,0.016-0.203,0.025-0.288,0.025c-0.647,0-0.972-0.342-0.972-1.024v-1.991h-0.479
		v-0.245l0.479-0.211l0.214-0.715h0.293v0.776h0.972v0.395h-0.972v1.971c0,0.202,0.048,0.355,0.144,0.465
		C166.707,81.598,166.839,81.652,167.006,81.652"/>
	<path fill="#1A1A18" d="M170.961,80.333c0,0.546-0.138,0.972-0.412,1.278c-0.275,0.306-0.655,0.46-1.14,0.46
		c-0.3,0-0.565-0.07-0.798-0.21c-0.232-0.142-0.411-0.343-0.537-0.606c-0.127-0.262-0.19-0.57-0.19-0.922
		c0-0.547,0.137-0.972,0.41-1.275c0.272-0.306,0.652-0.458,1.136-0.458c0.47,0,0.842,0.156,1.117,0.468
		C170.823,79.379,170.961,79.801,170.961,80.333 M168.41,80.333c0,0.428,0.085,0.753,0.256,0.978
		c0.172,0.224,0.424,0.335,0.755,0.335c0.333,0,0.585-0.111,0.757-0.333c0.172-0.224,0.258-0.55,0.258-0.979
		c0-0.426-0.086-0.749-0.258-0.972c-0.172-0.22-0.426-0.33-0.763-0.33c-0.332,0-0.583,0.108-0.751,0.326
		C168.494,79.576,168.41,79.9,168.41,80.333z"/>
	<rect x="171.788" y="77.256" fill="#1A1A18" width="0.507" height="4.755"/>
	<path fill="#1A1A18" d="M173.266,77.754c0-0.116,0.028-0.201,0.085-0.256c0.058-0.055,0.129-0.08,0.215-0.08
		c0.081,0,0.151,0.027,0.21,0.082c0.06,0.055,0.089,0.14,0.089,0.254s-0.029,0.199-0.089,0.255c-0.059,0.057-0.129,0.084-0.21,0.084
		c-0.086,0-0.157-0.027-0.215-0.084C173.294,77.953,173.266,77.868,173.266,77.754 M173.815,82.011h-0.508v-3.35h0.508V82.011z"/>
	<path fill="#1A1A18" d="M176.167,82.071c-0.485,0-0.86-0.149-1.126-0.448c-0.266-0.298-0.399-0.721-0.399-1.266
		c0-0.561,0.135-0.993,0.405-1.299c0.27-0.305,0.654-0.459,1.153-0.459c0.161,0,0.321,0.019,0.483,0.052
		c0.16,0.035,0.286,0.076,0.378,0.123l-0.155,0.431c-0.112-0.044-0.234-0.083-0.366-0.112c-0.133-0.028-0.249-0.043-0.352-0.043
		c-0.681,0-1.021,0.434-1.021,1.302c0,0.411,0.082,0.728,0.248,0.946c0.167,0.221,0.413,0.331,0.738,0.331
		c0.279,0,0.565-0.062,0.858-0.182v0.45C176.789,82.014,176.507,82.071,176.167,82.071"/>
	<path fill="#1A1A18" d="M178.246,80.296c0.088-0.125,0.221-0.287,0.4-0.488l1.082-1.147h0.602l-1.356,1.427l1.451,1.924h-0.614
		l-1.183-1.584l-0.382,0.331v1.253h-0.501v-4.755h0.501v2.521c0,0.112-0.008,0.286-0.024,0.52H178.246z"/>
	<path fill="#1A1A18" d="M183.026,82.011l-0.101-0.477h-0.024c-0.167,0.208-0.333,0.351-0.5,0.425
		c-0.165,0.074-0.373,0.112-0.622,0.112c-0.332,0-0.592-0.086-0.78-0.257s-0.282-0.414-0.282-0.729c0-0.677,0.54-1.031,1.622-1.064
		l0.568-0.018v-0.209c0-0.263-0.057-0.456-0.17-0.582c-0.113-0.124-0.293-0.187-0.542-0.187c-0.278,0-0.595,0.085-0.947,0.256
		l-0.156-0.389c0.165-0.09,0.347-0.159,0.543-0.21c0.197-0.051,0.394-0.077,0.591-0.077c0.399,0,0.695,0.09,0.888,0.268
		c0.192,0.177,0.289,0.461,0.289,0.852v2.286H183.026z M181.881,81.652c0.315,0,0.563-0.087,0.743-0.26
		c0.181-0.173,0.271-0.415,0.271-0.728v-0.302l-0.508,0.021c-0.403,0.015-0.694,0.077-0.873,0.188
		c-0.177,0.111-0.267,0.284-0.267,0.518c0,0.184,0.056,0.323,0.167,0.419C181.526,81.605,181.682,81.652,181.881,81.652z"/>
</g>
</svg>
