<?xml version="1.0" encoding="utf-8"?>
<!-- Generator: Adobe Illustrator 16.0.0, SVG Export Plug-In . SVG Version: 6.00 Build 0)  -->
<!DOCTYPE svg PUBLIC "-//W3C//DTD SVG 1.1//EN" "http://www.w3.org/Graphics/SVG/1.1/DTD/svg11.dtd">
<svg version="1.1" id="Layer_1" xmlns="http://www.w3.org/2000/svg" xmlns:xlink="http://www.w3.org/1999/xlink" x="0px" y="0px"
	 width="227.94px" height="150px" viewBox="0 0 227.94 150" enable-background="new 0 0 227.94 150" xml:space="preserve">
<rect x="-13" y="-17" display="none" fill="#B74EDE" width="1001" height="856"/>
<g>
	<path d="M155.43,56.059v3.377h-1.594c-0.443-0.021-0.878,0.101-1.245,0.349l0,0c-0.428,0.346-0.704,0.845-0.769,1.392
		c-0.042,0.245-0.063,0.492-0.063,0.74c0,0.271,0.021,0.542,0.064,0.81c0,0.051,0.019,0.082,0.019,0.082h3.587v6.442
		c0,1.322,1.403,1.62,2.621,1.62c0.563-0.003,1.123-0.057,1.675-0.162v-7.892h1.703c1.729,0,2.026-1.378,2.026-2.378
		c0.001-0.335-0.025-0.67-0.082-1.002h-3.647v-1.891c0.001-0.12-0.011-0.239-0.035-0.356l0,0c-0.12-0.503-0.499-0.904-0.995-1.053
		l0,0c-0.494-0.17-1.014-0.25-1.537-0.236c-0.58,0.003-1.158,0.058-1.729,0.162"/>
	<path d="M69.423,78.283c-0.24-0.295-0.362-0.669-0.339-1.05c0-1.753,3.122-1.319,3.864-2.465l0,0v3.724
		c-0.651,0.182-1.324,0.283-2.001,0.299c-0.587,0-1.173-0.107-1.538-0.513 M64.87,70.104c0,0.851,0.255,1.837,1.261,3.18
		c0-2.604,2.357-3.234,4.468-3.234c1.794,0,2.276,0.769,2.276,1.425c-1.261,1.837-8.389,0.905-8.389,5.922
		c0,1.335,0.44,2.306,1.16,3.001c1.144,1.102,2.986,1.496,4.869,1.496c1.614,0,3.152-0.494,4.613-0.494
		c0.815-0.035,1.625,0.134,2.357,0.494V71.695c0-3.18-2.357-4.91-6.827-4.91c-1.891,0-5.784,0.55-5.784,3.331"/>
	<path d="M85.279,78.235l-0.062-0.059l-0.045-0.051c-0.074-0.084-0.138-0.177-0.19-0.274c-0.011-0.018-0.021-0.037-0.031-0.057
		c-0.012-0.023-0.023-0.048-0.036-0.071c-0.17-0.423-0.249-0.876-0.23-1.331v-4.1c0-1.563,0.74-2.247,1.793-2.247
		c1.233,0,2.411,0.796,2.411,1.973v6.608c-0.581,0.095-1.166,0.149-1.752,0.164c-0.874,0-1.466-0.187-1.848-0.543 M88.877,66.235
		c0.024,0.479,0.088,0.955,0.192,1.424c-0.899-0.53-1.919-0.822-2.961-0.851c-3.234,0-6.033,1.919-6.033,5.073v4.936
		c0,3.263,2.471,5.1,6.719,5.1c0.986,0,2.562-0.467,4.248-0.467c0.933,0,1.646,0.028,2.439,0.467V62.729
		c0-2.357-4.138-2.385-4.612-2.385L88.877,66.235z"/>
	<path d="M100.833,72.341c0-1.506,0.438-2.329,1.81-2.329c1.207,0,1.673,0.658,1.673,1.645c0,0.145-0.017,0.29-0.052,0.431
		c-0.202,0.83-1.025,1.079-1.868,1.079c-0.528-0.008-1.054-0.082-1.563-0.221l0,0V72.341z M96.221,71.931v4.798
		c0,3.235,2.525,5.155,7.21,5.155c3.483,0,5.704-1.565,5.704-3.564c0-0.769-0.33-1.59-0.988-2.496
		c-0.026,1.424-1.727,2.714-4.577,2.714c-1.537,0-2.562-0.575-2.719-1.85c-0.016-0.123-0.023-0.247-0.022-0.37v-0.438
		c0.708,0.309,1.475,0.458,2.247,0.438c1.003,0.024,2.004-0.122,2.959-0.43c2.183-0.769,2.854-2.455,2.854-4.23
		c0-2.934-1.811-4.882-6.059-4.882C98.581,66.775,96.221,68.723,96.221,71.931"/>
	<path d="M110.784,71.557c0,3.4,2.818,3.985,5.271,4.267c1.924,0.218,3.641,0.256,3.641,1.299c0.025,0.503-0.246,0.974-0.695,1.205
		c-0.505,0.227-1.056,0.331-1.609,0.304c-0.805,0-2.05-0.051-3.049-0.513l0,0c-0.172-0.079-0.335-0.174-0.49-0.284
		c-0.652-0.463-1.04-1.214-1.04-2.013c-1.179,1.068-1.725,2.049-1.725,2.931c0,1.865,2.357,3.154,6.304,3.154
		c4.551,0,6.829-1.728,6.829-4.636c0-1.282-0.338-2.229-0.881-2.916c-1.999-2.524-6.8-1.617-7.834-2.619
		c-0.128-0.121-0.201-0.292-0.197-0.469c0-0.822,1.122-1.15,2.55-1.15c1.88,0,4.191,0.648,4.222,2.219v0.005l0.016-0.018
		c0.869-1.007,1.281-1.932,1.281-2.696c0-1.809-2.247-2.852-5.977-2.852c-4.25,0-6.609,1.509-6.609,4.772"/>
	<path d="M126.412,64.922v11.815c0,3.237,2.165,5.156,6.28,5.156c4.116,0,5.207-1.894,5.207-3.428c0-1.069-0.573-1.891-1.48-2.742
		c0,2.439-1.671,2.852-3.013,2.852c-2.005,0-2.385-0.904-2.385-2.603v-4.69h2.904c1.81,0,2.335-1.722,2.489-2.696
		c0.035-0.214,0.055-0.431,0.062-0.648h-5.455V67.06c0-1.955-2.958-2.15-4.134-2.15c-0.293,0-0.474,0-0.474,0"/>
	<path d="M143.74,72.341c0-1.506,0.441-2.329,1.809-2.329c1.207,0,1.673,0.658,1.673,1.645c0.001,0.145-0.015,0.289-0.048,0.431
		c-0.203,0.83-1.025,1.079-1.871,1.079c-0.527-0.008-1.051-0.082-1.561-0.221l0,0L143.74,72.341z M139.127,71.931v4.798
		c0,3.235,2.522,5.155,7.211,5.155c3.483,0,5.701-1.565,5.701-3.564c0-0.769-0.331-1.59-0.986-2.496
		c-0.028,1.424-1.727,2.714-4.579,2.714c-1.537,0-2.563-0.575-2.716-1.85c-0.018-0.122-0.027-0.247-0.026-0.37v-0.438
		c0.708,0.308,1.476,0.458,2.247,0.438c1.003,0.024,2.005-0.122,2.96-0.43c2.187-0.769,2.855-2.455,2.855-4.23
		c0-2.934-1.812-4.882-6.061-4.882C141.484,66.775,139.127,68.723,139.127,71.931"/>
	<path d="M66.499,85.814h1.445c1.238,0,2.327,0.372,2.327,1.911v0.159c0,1.497-1.089,1.923-2.327,1.923h-0.932v2.239
		c0,0-0.513,0-0.513-0.389V85.814z M67.012,86.293v3.037h0.932c1.061,0,1.814-0.256,1.814-1.538c0-1.168-0.753-1.512-1.814-1.512
		L67.012,86.293z"/>
	<path d="M72.908,88c-0.342-0.01-0.684,0.054-1,0.187v3.844c0,0-0.487,0-0.487-0.389v-4.092c0.128,0.077,0.275,0.12,0.425,0.124
		c0.361,0,0.797-0.196,1.256-0.196c0.728,0,1.001,0.407,0.681,1.074C73.766,88.116,73.358,88,72.908,88z"/>
	<path d="M77.069,88.843c0-0.511-0.221-0.886-1.115-0.886c-0.895,0-1.363,0.371-1.363,0.93c-0.118-0.153-0.184-0.339-0.187-0.532
		c0-0.513,0.62-0.877,1.55-0.877c1.096,0,1.601,0.534,1.601,1.392v3.134c-0.174-0.059-0.356-0.089-0.54-0.089
		c-0.275,0-0.718,0.151-1.09,0.151c-1.106,0-1.673-0.513-1.673-1.259C74.252,89.151,76.767,89.745,77.069,88.843z M75.998,91.613
		c0.371,0.007,0.737-0.072,1.071-0.231v-1.965c-0.177,0.62-2.307,0.238-2.307,1.398C74.757,91.277,75.119,91.613,75.998,91.613
		L75.998,91.613z"/>
	<path d="M81.956,89.266c0,0.869-0.566,1.373-1.619,1.373c-0.949,0-1.187-0.31-1.187-0.31c-0.048,0.167-0.078,0.339-0.089,0.512
		c0,0.559,0.284,0.628,1.125,0.628h0.291c0.787,0,1.664,0.054,1.664,1.117c0,0.894-0.539,1.515-1.779,1.515
		c-0.902,0-1.753-0.295-1.753-0.877c0.002-0.211,0.073-0.417,0.203-0.583c0,0.549,0.382,0.981,1.537,0.981
		c1.064,0,1.282-0.513,1.282-1.078c0-0.567-0.531-0.595-1.184-0.595h-0.436c-0.769,0-1.45-0.08-1.45-0.956
		c0.006-0.338,0.151-0.658,0.401-0.884c-0.184-0.241-0.275-0.54-0.256-0.843v-0.525c0-0.912,0.717-1.248,1.514-1.248
		c0.434,0,0.938,0.158,1.238,0.158c0.173,0.006,0.344-0.034,0.497-0.115V89.266z M81.469,89.133v-0.956
		c-0.37-0.157-0.768-0.236-1.169-0.229c-0.877,0-1.106,0.307-1.106,0.92v0.256c0,0.667,0.229,1.045,1.143,1.045
		C81.249,90.17,81.469,89.799,81.469,89.133z"/>
	<path d="M85.948,88.886c0-0.584-0.311-0.93-1.179-0.93c-0.402-0.012-0.804,0.06-1.176,0.212v3.844c0,0-0.488,0-0.488-0.389v-4.075
		c0.121,0.072,0.258,0.114,0.398,0.124c0.443,0,0.843-0.196,1.391-0.196c0.751,0,1.538,0.277,1.538,1.281v3.262
		c0,0-0.487,0-0.487-0.389L85.948,88.886z"/>
	<path d="M91.006,91.18c-0.028,0.255-0.184,0.479-0.415,0.592c-0.31,0.22-0.861,0.736-0.861,1.371c0,0.559,0.621,0.542,1.01,0.39
		c0,0.338-0.3,0.511-0.635,0.511c-0.447,0.051-0.851-0.271-0.901-0.718c-0.005-0.043-0.006-0.087-0.004-0.131
		c0.026-0.448,0.234-0.867,0.577-1.158c-0.145,0.017-0.29,0.026-0.435,0.025c-1.025,0-1.671-0.513-1.671-1.374v-1.839
		c0-0.859,0.574-1.374,1.628-1.374c1.053,0,1.665,0.513,1.665,1.281c0,0.699-0.479,1.24-1.709,1.24
		c-0.376-0.008-0.749-0.086-1.097-0.23v0.789c0,0.664,0.283,1.025,1.185,1.025c0.807,0,1.46-0.317,1.46-0.974
		C90.93,90.771,91.001,90.972,91.006,91.18z M88.156,89.32c0.337,0.127,0.693,0.196,1.054,0.204c0.938,0,1.266-0.294,1.266-0.769
		s-0.292-0.822-1.161-0.822c-0.938,0-1.159,0.389-1.159,1.045V89.32z"/>
	<path d="M92.267,91.303h0.399c0.044,0,0.072,0.036,0.072,0.089v0.513c0,0.451-0.082,1.025-0.479,1.025
		c-0.106-0.003-0.209-0.034-0.299-0.09c0.361-0.062,0.275-0.61,0.256-0.868l-0.108-0.669H92.267z"/>
	<path d="M96.295,88.826c0-0.887,0.558-1.349,1.629-1.349c0.787,0,1.55,0.223,1.55,0.851c-0.015,0.233-0.088,0.459-0.212,0.656
		c0.003-0.046,0.003-0.094,0-0.141c0-0.533-0.372-0.904-1.345-0.904c-0.869,0-1.144,0.31-1.144,0.84
		c0,1.281,2.853-0.069,2.853,1.983c0,0.769-0.577,1.302-1.709,1.302c-0.769,0-1.612-0.188-1.612-0.895
		c0.008-0.19,0.053-0.376,0.133-0.548c0,0.559,0.433,0.981,1.479,0.981c0.963,0,1.222-0.415,1.222-0.884
		C99.147,89.312,96.342,90.629,96.295,88.826z"/>
	<path d="M100.487,88.046c0,0,0-0.461,0.336-0.461h2.69c-0.051,0.194-0.062,0.408-0.115,0.574c-0.477,1.497-2.363,2.563-2.46,3.347
		h2.624c0,0,0,0.454-0.328,0.454h-2.867v-0.196c0-1.398,2.011-2.141,2.523-3.718H100.487z"/>
	<path d="M104.99,90.612c0,0.424,0.104,1.001,1.186,1.001c0.401,0.013,0.801-0.063,1.169-0.223v-3.868c0,0,0.487,0,0.487,0.39v4.1
		c-0.151-0.064-0.315-0.096-0.479-0.09c-0.328,0-0.787,0.152-1.212,0.152c-0.726,0-1.638-0.275-1.638-1.282v-3.27
		c0,0,0.487,0,0.487,0.39V90.612z"/>
	<path d="M112.566,91.985c-0.075,0.018-0.152,0.03-0.23,0.035c-0.877,0-0.285-2.249-2.691-2.372v2.372c0,0-0.486,0-0.486-0.389
		v-6.25c0,0,0.486,0,0.486,0.39v3.434h0.123c0.859,0,1.213-0.425,1.717-1.345c0.08-0.141,0.161-0.336,0.674-0.336
		c0.029-0.001,0.058-0.001,0.087,0c-0.299,0.47-0.892,1.85-1.793,1.861C112.07,89.684,112.274,91.595,112.566,91.985z"/>
	<path d="M115.862,88.843c0-0.511-0.22-0.886-1.115-0.886c-0.894,0-1.363,0.371-1.363,0.93c-0.118-0.153-0.184-0.339-0.187-0.532
		c0-0.513,0.62-0.877,1.538-0.877c1.096,0,1.601,0.534,1.601,1.392v3.134c-0.174-0.059-0.356-0.089-0.541-0.089
		c-0.273,0-0.717,0.151-1.089,0.151c-1.104,0-1.673-0.513-1.673-1.259C113.043,89.151,115.558,89.745,115.862,88.843z
		 M114.791,91.613c0.371,0.007,0.737-0.072,1.071-0.231v-1.965c-0.177,0.62-2.307,0.238-2.307,1.398
		c0,0.462,0.356,0.798,1.233,0.798H114.791z"/>
	<path d="M120.475,88.886c0-0.673-0.381-0.93-1.178-0.93c-0.403-0.012-0.804,0.06-1.177,0.212v3.844c0,0-0.487,0-0.487-0.382v-4.1
		c0.124,0.068,0.258,0.109,0.397,0.123c0.462,0,0.877-0.195,1.392-0.195c1.025,0,1.317,0.534,1.317,0.534
		c0.428-0.36,0.979-0.544,1.537-0.513c0.716,0,1.522,0.354,1.522,1.282v3.258c0,0-0.486,0-0.486-0.381v-2.78
		c0-0.628-0.372-0.892-1.187-0.892c-0.559,0-1.168,0.282-1.168,0.769v3.284c0,0-0.486,0-0.486-0.381L120.475,88.886z"/>
	<path d="M125.233,91.303h0.4c0.043,0,0.069,0.036,0.069,0.089v0.513c0,0.451-0.081,1.025-0.477,1.025
		c-0.107-0.003-0.212-0.034-0.302-0.09c0.364-0.062,0.276-0.61,0.257-0.868l-0.094-0.669H125.233z"/>
	<path d="M134.653,89.453l0.176-1.538c0.044-0.397,0.513-0.397,0.513-0.397l-0.168,1.717c-0.084,1.152-0.682,2.204-1.63,2.865
		c-0.549-0.345-1-0.823-1.31-1.392c-0.318,0.553-0.756,1.028-1.281,1.392c-0.929-0.666-1.514-1.708-1.602-2.847l-0.177-1.716
		c0,0,0.468,0,0.512,0.397l0.177,1.538c0.142,1.205,1.126,2.107,1.126,2.107c0.455-0.368,0.815-0.837,1.053-1.372
		c-0.113-0.489-0.172-0.987-0.176-1.489c0-0.602,0.122-1.125,0.628-1.14c-0.088,0.432-0.132,0.87-0.133,1.309
		c0,1.044,0.32,2.133,1.168,2.692C134.145,91.026,134.543,90.272,134.653,89.453z"/>
	<path d="M136.273,85.983h0.461c0.079,0,0.097,0.069,0.097,0.124v0.486h-0.469c-0.057-0.009-0.098-0.058-0.098-0.114L136.273,85.983
		z M136.308,87.521c0.054,0,0.487,0.018,0.487,0.389v4.1c0,0-0.487,0-0.487-0.389V87.521z"/>
	<path d="M141.373,91.18c0,0.609-0.877,0.884-1.664,0.884c-1.025,0-1.673-0.513-1.673-1.374V88.85c0-0.857,0.573-1.373,1.627-1.373
		c1.053,0,1.666,0.512,1.666,1.281c0,0.7-0.479,1.241-1.709,1.241c-0.376-0.009-0.75-0.087-1.097-0.231v0.79
		c0,0.664,0.282,1.025,1.187,1.025c0.804,0,1.46-0.318,1.46-0.974C141.295,90.772,141.366,90.973,141.373,91.18z M138.522,89.32
		c0.337,0.127,0.694,0.196,1.053,0.204c0.938,0,1.266-0.294,1.266-0.769s-0.292-0.822-1.162-0.822c-0.937,0-1.157,0.389-1.157,1.045
		V89.32z"/>
	<path d="M144.01,88c-0.344-0.01-0.684,0.054-1.001,0.187v3.844c0,0-0.486,0-0.486-0.389v-4.092
		c0.129,0.077,0.275,0.119,0.426,0.124c0.363,0,0.797-0.196,1.258-0.196c0.725,0,0.999,0.407,0.678,1.074
		C144.87,88.116,144.462,88,144.01,88z"/>
	<path d="M145.498,88.046c0,0,0-0.461,0.334-0.461h2.692c-0.052,0.194-0.063,0.408-0.116,0.574
		c-0.477,1.497-2.363,2.563-2.459,3.347h2.646c0,0,0,0.454-0.328,0.454h-2.878v-0.196c0-1.398,2.011-2.141,2.524-3.718H145.498z"/>
	<path d="M152.774,91.18c-0.028,0.256-0.185,0.479-0.417,0.592c-0.31,0.22-0.858,0.736-0.858,1.371c0,0.559,0.62,0.542,1.01,0.39
		c0,0.338-0.302,0.511-0.639,0.511c-0.446,0.05-0.85-0.274-0.898-0.721c-0.004-0.042-0.006-0.085-0.004-0.128
		c0.027-0.448,0.234-0.866,0.575-1.158c-0.145,0.017-0.289,0.026-0.435,0.025c-1.025,0-1.672-0.513-1.672-1.374v-1.839
		c0-0.859,0.576-1.374,1.629-1.374c1.053,0,1.664,0.513,1.664,1.281c0,0.699-0.478,1.24-1.708,1.24
		c-0.377-0.008-0.75-0.087-1.099-0.23v0.789c0,0.664,0.285,1.025,1.186,1.025c0.806,0,1.462-0.317,1.462-0.974
		C152.698,90.771,152.77,90.972,152.774,91.18z M149.922,89.32c0.338,0.127,0.694,0.196,1.054,0.204
		c0.938,0,1.266-0.294,1.266-0.769s-0.292-0.822-1.158-0.822c-0.938,0-1.162,0.389-1.162,1.045V89.32z"/>
</g>
</svg>
