<?xml version="1.0" encoding="utf-8"?>
<!-- Generator: Adobe Illustrator 16.0.0, SVG Export Plug-In . SVG Version: 6.00 Build 0)  -->
<!DOCTYPE svg PUBLIC "-//W3C//DTD SVG 1.1//EN" "http://www.w3.org/Graphics/SVG/1.1/DTD/svg11.dtd">
<svg version="1.1" id="Layer_1" xmlns="http://www.w3.org/2000/svg" xmlns:xlink="http://www.w3.org/1999/xlink" x="0px" y="0px"
	 width="227.94px" height="150px" viewBox="0 0 227.94 150" enable-background="new 0 0 227.94 150" xml:space="preserve">
<rect x="-260.94" y="-17" display="none" fill="#B74EDE" width="1001" height="856"/>
<g>
	<path fill="none" d="M76.638,73.576c-1.132,0-2.07,0.923-2.07,2.556c0,1.569,0.841,2.589,2.054,2.589
		c1.069,0,2.071-0.777,2.071-2.604C78.693,74.839,78.014,73.576,76.638,73.576z"/>
	<path fill="none" d="M136.695,77.538c0,0.551,0.534,1.189,1.375,1.189c1.084,0,1.99-1.042,1.99-2.046V76h-0.614
		C138.394,76,136.695,76.39,136.695,77.538z"/>
	<path fill="none" d="M86.879,73.56c-1.343,0-2.458,1.052-2.458,2.572c0,1.537,1.115,2.573,2.458,2.573
		c1.327,0,2.443-1.036,2.443-2.573C89.323,74.611,88.207,73.56,86.879,73.56z"/>
	<path fill="none" d="M161.756,73.286c-1.052,0-1.78,0.714-1.974,1.714h3.607C163.358,74,162.662,73.286,161.756,73.286z"/>
	<path fill="none" d="M175.378,73.576c-1.067,0-2.07,0.776-2.07,2.604c0,1.277,0.695,2.54,2.054,2.54
		c1.133,0,2.071-0.923,2.071-2.557C177.433,74.596,176.591,73.576,175.378,73.576z"/>
	<path fill="#FFFFFF" d="M50.329,79.964c-0.265,0.04-0.448,0.285-0.409,0.552c0.036,0.239,0.243,0.414,0.479,0.414
		c0.025,0,0.05-0.001,0.071-0.005c0.615-0.091,1.11-0.489,1.293-1.039c0.117-0.363,0.084-0.751-0.096-1.093
		c-0.016-0.032-0.037-0.063-0.058-0.088l-0.453-0.953c-0.015-0.038-0.035-0.065-0.059-0.095c-0.009-0.03-0.019-0.063-0.035-0.093
		c-0.179-0.336-0.213-0.718-0.096-1.076c0.277-0.846,1.296-1.326,2.269-1.07c0.477,0.126,0.861,0.403,1.09,0.786
		c0.081,0.138,0.217,0.218,0.365,0.232c0.02,0.003,0.037,0.003,0.056,0.003c0.171,0.003,0.333-0.08,0.426-0.235
		c0.229-0.383,0.616-0.66,1.09-0.786c0.975-0.256,1.99,0.225,2.269,1.071c0.118,0.357,0.085,0.739-0.095,1.075
		c-0.015,0.029-0.029,0.063-0.037,0.093c-0.023,0.029-0.042,0.057-0.06,0.095l-0.449,0.953c-0.022,0.025-0.044,0.056-0.06,0.088
		c-0.182,0.342-0.215,0.729-0.093,1.093c0.18,0.55,0.674,0.948,1.29,1.039c0.023,0.004,0.047,0.005,0.072,0.005
		c0.235,0,0.442-0.175,0.478-0.414c0.038-0.267-0.145-0.512-0.408-0.552c-0.246-0.035-0.449-0.187-0.514-0.383
		c-0.024-0.075-0.022-0.145-0.013-0.205c0.002-0.006,0.008-0.007,0.01-0.014l0.564-1.196c0.012-0.028,0.021-0.054,0.029-0.082
		c0.014-0.021,0.035-0.038,0.047-0.065c0.304-0.572,0.359-1.224,0.158-1.832c-0.435-1.323-2.081-2.09-3.541-1.707
		c-0.27,0.069-0.851,0.175-0.851,0.309v-4.779l2.066,1.958c0.189,0.189,0.547,0.189,0.737,0c0.189-0.188,0.216-0.495,0.026-0.685
		l-2.772-2.788c-0.014-0.011-0.019-0.02-0.03-0.028c-0.014-0.01-0.02-0.021-0.036-0.029c-0.013-0.011-0.026-0.019-0.041-0.027
		c-0.015-0.006-0.025-0.014-0.038-0.018c-0.021-0.008-0.036-0.014-0.055-0.019c-0.012-0.002-0.025-0.008-0.035-0.01
		c-0.063-0.012-0.128-0.012-0.191,0c-0.015,0.002-0.027,0.008-0.04,0.012c-0.019,0.004-0.035,0.009-0.051,0.017
		c-0.016,0.005-0.033,0.016-0.048,0.024c-0.012,0.008-0.023,0.012-0.035,0.02c-0.027,0.018-0.052,0.037-0.076,0.061l-2.786,2.786
		c-0.188,0.189-0.188,0.497,0,0.685c0.094,0.095,0.222,0.144,0.344,0.144c0.126,0,0.129-0.049,0.225-0.144l1.837-1.958v4.826
		c0-0.156-0.401-0.278-0.698-0.355c-1.46-0.383-2.94,0.384-3.375,1.707c-0.201,0.608-0.116,1.26,0.187,1.832
		c0.016,0.027,0.047,0.044,0.066,0.065c0.005,0.028,0.022,0.054,0.034,0.082l0.568,1.196c0.005,0.007,0.01,0.008,0.012,0.014
		c0.011,0.061,0.012,0.13-0.014,0.206C50.775,79.777,50.577,79.929,50.329,79.964z"/>
	<path d="M54.761,86.097c6.128,0,11.097-4.969,11.097-11.096c0-6.13-4.969-11.098-11.097-11.098s-11.098,4.968-11.098,11.098
		C43.664,81.128,48.633,86.097,54.761,86.097z M50.845,79.362l-0.564-1.196c-0.012-0.028-0.021-0.054-0.026-0.082
		c-0.019-0.021-0.035-0.038-0.051-0.065c-0.303-0.572-0.358-1.224-0.157-1.832c0.436-1.323,1.855-2.09,3.315-1.707
		c0.297,0.077,0.698,0.199,0.698,0.355v-4.826l-1.837,1.958c-0.096,0.095-0.159,0.144-0.285,0.144c-0.122,0-0.22-0.049-0.314-0.144
		c-0.188-0.188-0.173-0.495,0.015-0.685l2.794-2.786c0.024-0.023,0.052-0.043,0.08-0.061c0.012-0.008,0.025-0.012,0.037-0.02
		c0.015-0.009,0.033-0.02,0.049-0.024c0.016-0.008,0.033-0.013,0.051-0.017c0.013-0.004,0.026-0.01,0.041-0.012
		c0.063-0.012,0.128-0.012,0.191,0c0.01,0.002,0.023,0.008,0.035,0.01c0.02,0.005,0.035,0.011,0.056,0.019
		c0.013,0.004,0.023,0.012,0.038,0.018c0.015,0.009,0.03,0.017,0.043,0.027c0.017,0.008,0.025,0.02,0.039,0.029
		c0.012,0.009,0.023,0.018,0.037,0.028l2.785,2.788c0.189,0.189,0.189,0.497,0,0.685c-0.189,0.189-0.6,0.189-0.79,0l-2.066-1.958
		v4.779c0-0.134,0.582-0.239,0.851-0.309c1.46-0.383,3.053,0.384,3.488,1.707c0.201,0.608,0.172,1.26-0.132,1.832
		c-0.012,0.027-0.02,0.044-0.034,0.065c-0.008,0.028-0.011,0.054-0.022,0.082l-0.562,1.196c-0.002,0.007-0.006,0.008-0.008,0.014
		c-0.01,0.061-0.011,0.13,0.013,0.205c0.064,0.196,0.268,0.348,0.514,0.383c0.264,0.04,0.447,0.285,0.409,0.552
		c-0.035,0.239-0.242,0.414-0.478,0.414c-0.025,0-0.049-0.001-0.072-0.005c-0.616-0.091-1.11-0.489-1.29-1.039
		c-0.122-0.363-0.089-0.751,0.093-1.093c0.016-0.032,0.037-0.063,0.06-0.088l0.449-0.953c0.018-0.038,0.036-0.065,0.06-0.095
		c0.008-0.03,0.022-0.063,0.037-0.093c0.18-0.336,0.213-0.718,0.095-1.075c-0.278-0.847-1.294-1.327-2.269-1.071
		c-0.474,0.126-0.861,0.403-1.09,0.786c-0.093,0.155-0.255,0.238-0.426,0.235c-0.019,0-0.036,0-0.056-0.003
		c-0.148-0.015-0.284-0.095-0.365-0.232c-0.229-0.383-0.613-0.66-1.09-0.786c-0.973-0.256-1.991,0.225-2.269,1.07
		c-0.117,0.358-0.083,0.74,0.096,1.076c0.017,0.029,0.026,0.063,0.035,0.093c0.023,0.029,0.044,0.057,0.059,0.095l0.453,0.953
		c0.021,0.025,0.042,0.056,0.058,0.088c0.18,0.342,0.213,0.729,0.096,1.093c-0.183,0.55-0.678,0.948-1.293,1.039
		c-0.021,0.004-0.046,0.005-0.071,0.005c-0.236,0-0.443-0.175-0.479-0.414c-0.039-0.267,0.145-0.512,0.409-0.552
		c0.248-0.035,0.447-0.187,0.512-0.382c0.025-0.076,0.025-0.146,0.015-0.206C50.853,79.37,50.85,79.369,50.845,79.362z"/>
	<path d="M79.06,72.396c0,0.258-0.415,0.604-0.415,0.604h-0.033c0,0-0.566-1.119-2.378-1.119c-2.184,0-3.736,1.665-3.736,4.285
		c0,2.556,1.423,4.282,3.655,4.282c1.893,0,2.589-1.447,2.589-1.447h0.032c0,0,0.286,0.271,0.286,0.579V80h2V69h-2V72.396z
		 M76.622,78.721c-1.213,0-2.054-1.02-2.054-2.589c0-1.633,0.938-2.556,2.07-2.556c1.376,0,2.055,1.263,2.055,2.54
		C78.693,77.943,77.691,78.721,76.622,78.721z"/>
	<path d="M86.864,71.813c-2.508,0-4.53,1.796-4.53,4.318c0,2.54,2.022,4.32,4.546,4.32c2.508,0,4.53-1.78,4.53-4.32
		C91.41,73.609,89.387,71.813,86.864,71.813z M86.879,78.705c-1.343,0-2.458-1.036-2.458-2.573c0-1.521,1.115-2.572,2.458-2.572
		c1.327,0,2.443,1.052,2.443,2.572C89.323,77.669,88.207,78.705,86.879,78.705z"/>
	<path d="M103.167,72.058c-1.294,0-2.552,0.942-3.005,1.942h-0.032c-0.34-2-1.148-1.707-2.411-1.707
		c-1.293,0-2.28,0.707-2.685,1.707h-0.032c0,0,0.058-0.73,0.058-1.038V72h-2v8h2v-3.366c0-0.372,0.043-0.744,0.125-1.051
		c0.259-1.052,0.823-1.894,1.891-1.894c0.971,0,0.984,0.761,0.984,1.65V80h2v-3.366c0-0.389,0.188-0.744,0.27-1.067
		c0.242-1.035,1.243-1.877,2.293-1.877c0.955,0,1.437,0.713,1.437,1.65V80h2v-5.049C106.06,72.784,104.882,72.058,103.167,72.058z"
		/>
	<rect x="108.06" y="72" width="2" height="8"/>
	<rect x="108.06" y="69" width="2" height="2"/>
	<path d="M117.125,72.049c-1.666,0-2.644,0.951-3,1.951h-0.032c0,0-0.033-0.73-0.033-1.038V72h-2v8h2v-3.528
		c0-0.388,0.105-0.76,0.219-1.1c0.308-0.986,1.243-1.683,2.344-1.683c1.051,0,1.438,0.68,1.438,1.683V80h2v-5.049
		C120.06,72.768,118.953,72.049,117.125,72.049z"/>
	<rect x="122.06" y="69" width="2" height="2"/>
	<rect x="122.06" y="72" width="2" height="8"/>
	<polygon points="131.06,75.695 133.734,72 131.453,72 129.463,75 128.06,75 128.06,69 126.06,69 126.06,80 128.06,80 128.06,77 
		129.511,77 131.695,80 134.057,80 131.06,75.728 	"/>
	<path d="M138.512,71.813c-1.958,0-3.294,1.02-3.294,1.02l0.747,1.471c0,0,1.207-0.792,2.388-0.792c0.906,0,1.708,0.372,1.708,1.456
		V75h-0.55c-1.343,0-4.886,0.219-4.886,2.839c0,1.651,1.326,2.596,2.799,2.596c1.876,0,2.523-1.435,2.507-1.435h0.032
		c0,0,0.098,0.254,0.098,0.579V80h2v-4.902C142.06,73.01,140.68,71.813,138.512,71.813z M140.06,76.682
		c0,1.004-0.906,2.168-1.99,2.168c-0.842,0-1.311-0.761-1.311-1.312c0-1.148,1.635-1.538,2.687-1.538h0.614V76.682z"/>
	<path d="M149.03,72.049c-1.667,0-2.74,0.951-3.096,1.951h-0.033c0,0,0.159-0.73,0.159-1.038V72h-2v8h2v-3.528
		c0-0.388,0.009-0.76,0.123-1.1c0.308-0.986,1.292-1.683,2.391-1.683c1.052,0,1.486,0.68,1.486,1.683V80h2v-5.049
		C152.06,72.768,150.857,72.049,149.03,72.049z"/>
	<rect x="154.06" y="69" width="2" height="2"/>
	<rect x="154.06" y="72" width="2" height="8"/>
	<path d="M161.804,71.813c-2.459,0-4.189,1.779-4.189,4.318c0,2.346,1.698,4.32,4.433,4.32c2.054,0,3.316-1.182,3.316-1.182
		l-0.793-1.473c0,0-1.052,1.147-2.378,1.147c-1.229,0-2.346-0.945-2.476-1.945h5.695c0,0,0.048-0.79,0.048-1.033
		C165.46,73.784,164.182,71.813,161.804,71.813z M159.783,75c0.193-1,0.922-1.714,1.974-1.714c0.905,0,1.602,0.714,1.634,1.714
		H159.783z"/>
	<rect x="167.06" y="78" width="2" height="2"/>
	<path d="M175.847,71.728c-1.941,0-2.653,1.272-2.653,1.272h-0.032c0,0-0.102-0.087-0.102-0.395V72h-2v11h2v-2.968
		c0-0.421,0.28-1.032,0.28-1.032h0.032c0,0,0.728,1.293,2.361,1.293c2.168,0,3.77-1.663,3.77-4.284
		C179.503,73.454,178.08,71.728,175.847,71.728z M175.362,78.721c-1.358,0-2.054-1.263-2.054-2.54c0-1.828,1.003-2.604,2.07-2.604
		c1.213,0,2.055,1.02,2.055,2.588C177.433,77.798,176.495,78.721,175.362,78.721z"/>
	<path d="M183.827,78.51c-0.533,0-0.767-0.226-0.767-1.132V69h-2v8.686c0,2.362,1.314,2.654,2.446,2.654
		c0.34,0,0.554-0.049,0.554-0.049v-1.797C184.06,78.494,183.989,78.51,183.827,78.51z"/>
</g>
</svg>
