<svg xmlns="http://www.w3.org/2000/svg" width="619" height="30.993" viewBox="0 0 619 30.993">
  <g id="Group_171" data-name="Group 171" transform="translate(-240 -5835)">
    <path id="Path_336" data-name="Path 336" d="M495.009,773.962a6.789,6.789,0,0,1,6.789-6.789v-8.707H481.568v2.2H480.1v-2.2H449.11v30.993H480.1v-2.2h1.464v2.2H501.8v-8.708A6.789,6.789,0,0,1,495.009,773.962Zm-13.442,11.254H480.1v-4.093h1.464Zm0-6.139H480.1v-4.092h1.464Zm0-6.138H480.1v-4.092h1.464Zm0-6.139H480.1v-4.092h1.464Z" transform="translate(-209.11 5076.535)"/>
    <text id="WYDARZENIE_BILETOWANE_LICZBA_MIEJSC_OGRANICZONA_" data-name="WYDARZENIE BILETOWANE (LICZBA MIEJSC OGRANICZONA)" transform="translate(342 5855)" font-size="14" font-family="RedHatDisplay-Bold, Red Hat Display" font-weight="700" letter-spacing="0.15em"><tspan x="0" y="0">WYDARZENIE BILETOWANE </tspan><tspan y="0" font-family="RedHatDisplay-Medium, Red Hat Display" font-weight="500">(LICZBA MIEJSC OGRANICZONA)</tspan></text>
  </g>
</svg>
