<svg id="Component_16_1" data-name="Component 16 – 1" xmlns="http://www.w3.org/2000/svg" width="47.384" height="47.372" viewBox="0 0 47.384 47.372">
  <g id="Group_88" data-name="Group 88" transform="translate(0)">
    <g id="Group_90" data-name="Group 90">
      <circle id="Ellipse_7" data-name="Ellipse 7" cx="5.831" cy="5.831" r="5.831" transform="translate(17.858 17.857)"/>
      <path id="Path_259" data-name="Path 259" d="M1349.057,250.946a5.792,5.792,0,0,0-3.319-3.319,9.682,9.682,0,0,0-3.248-.6c-1.844-.084-2.4-.1-7.068-.1h-1.57v0c-3.26,0-3.886.025-5.5.1a9.656,9.656,0,0,0-3.248.6,5.8,5.8,0,0,0-3.321,3.321,9.7,9.7,0,0,0-.6,3.248c-.084,1.844-.1,2.4-.1,7.066s.016,5.225.1,7.069a9.656,9.656,0,0,0,.6,3.247,5.8,5.8,0,0,0,3.321,3.319,9.7,9.7,0,0,0,3.248.6c1.845.084,2.4.1,7.069.1s5.224-.018,7.068-.1a9.649,9.649,0,0,0,3.248-.6,5.8,5.8,0,0,0,3.319-3.318,9.664,9.664,0,0,0,.6-3.247c.083-1.845.1-2.4.1-7.066s-.019-5.222-.1-7.066A9.675,9.675,0,0,0,1349.057,250.946Zm-13.635,19.3a8.982,8.982,0,1,1,0-17.964h0a8.982,8.982,0,0,1,0,17.964Zm9.337-16.219a2.1,2.1,0,1,1,0-4.2h0a2.1,2.1,0,1,1,0,4.2Z" transform="translate(-1311.733 -237.576)"/>
      <path id="Path_260" data-name="Path 260" d="M1350.808,239.584a11.577,11.577,0,0,0-1.14-4.533,9.369,9.369,0,0,0-2.028-2.778,10.228,10.228,0,0,0-5.768-2.738c-1.107-.16-1.327-.208-6.99-.217h-7.712c-9.891,0-12.784.01-13.346.057a11.752,11.752,0,0,0-4.669,1.174,9.467,9.467,0,0,0-2.722,1.992,10.167,10.167,0,0,0-2.744,5.763c-.161,1.108-.208,1.333-.217,6.992,0,1.887,0,4.369,0,7.7,0,9.884.01,12.774.058,13.335a11.906,11.906,0,0,0,1.13,4.577,9.98,9.98,0,0,0,6.469,5.284,16.809,16.809,0,0,0,3.44.455c.587.025,6.567.044,12.551.044s11.968-.008,12.54-.037a16.186,16.186,0,0,0,3.564-.467,9.92,9.92,0,0,0,6.469-5.3,11.714,11.714,0,0,0,1.117-4.489c.032-.408.045-6.916.045-13.414S1350.84,239.993,1350.808,239.584Zm-6.263,20.633a12.972,12.972,0,0,1-.813,4.246,8.967,8.967,0,0,1-5.116,5.118,12.856,12.856,0,0,1-4.248.812c-1.866.085-2.46.106-7.211.106s-5.347-.021-7.212-.106a12.852,12.852,0,0,1-4.246-.812,8.963,8.963,0,0,1-5.116-5.118,12.873,12.873,0,0,1-.812-4.246c-.084-1.865-.106-2.46-.106-7.211s.022-5.347.105-7.212a12.79,12.79,0,0,1,.813-4.246,8.947,8.947,0,0,1,5.118-5.115,12.84,12.84,0,0,1,4.246-.813c1.865-.085,2.462-.106,7.21-.106h0c4.749,0,5.344.021,7.21.106a12.88,12.88,0,0,1,4.249.813,8.949,8.949,0,0,1,5.117,5.116,12.967,12.967,0,0,1,.813,4.246c.084,1.866.105,2.462.105,7.212S1344.629,258.351,1344.545,260.217Z" transform="translate(-1303.471 -229.318)"/>
    </g>
    <path id="Path_261" data-name="Path 261" d="M1348.1,257.019Z" transform="translate(-1324.407 -242.314)"/>
    <path id="Path_262" data-name="Path 262" d="M1348.085,240.989h0Z" transform="translate(-1324.402 -234.794)"/>
  </g>
</svg>
