<svg xmlns="http://www.w3.org/2000/svg" width="1624.106" height="840.088" viewBox="0 0 1624.106 840.088">
  <g id="Group_85" data-name="Group 85" transform="translate(131.813 50.581)">
    <rect id="Rectangle_71" data-name="Rectangle 71" width="33.427" height="5.908" transform="translate(128.855 514.074) rotate(-24.116)" fill="#0071ff"/>
    <rect id="Rectangle_72" data-name="Rectangle 72" width="5.908" height="33.426" transform="translate(139.925 227.389) rotate(-9)" fill="#0071ff"/>
    <rect id="Rectangle_73" data-name="Rectangle 73" width="5.909" height="33.427" transform="translate(1345.569 771.557) rotate(-57.52)" fill="#0071ff"/>
    <rect id="Rectangle_74" data-name="Rectangle 74" width="33.427" height="5.909" transform="translate(1055.552 482.055) rotate(-31.817)" fill="#ffa9c9"/>
    <rect id="Rectangle_75" data-name="Rectangle 75" width="33.427" height="5.909" transform="translate(847.778 -21.132) rotate(-61.763)" fill="#0071ff"/>
    <rect id="Rectangle_77" data-name="Rectangle 77" width="5.909" height="33.426" transform="translate(1270.491 278.639) rotate(-60.8)" fill="#0071ff"/>
    <rect id="Rectangle_78" data-name="Rectangle 78" width="33.427" height="5.908" transform="translate(1463.258 685.127) rotate(-49.804)" fill="#0071ff"/>
    <rect id="Rectangle_79" data-name="Rectangle 79" width="33.427" height="5.908" transform="translate(1431.954 596.423) rotate(-82.641)" fill="#ffa9c9"/>
    <rect id="Rectangle_80" data-name="Rectangle 80" width="5.909" height="33.427" transform="translate(-79.742 565.204) rotate(-63.296)" fill="#ffa9c9"/>
    <rect id="Rectangle_81" data-name="Rectangle 81" width="33.427" height="5.908" transform="matrix(0.473, -0.881, 0.881, 0.473, 274.112, 161.921)" fill="#ffa9c9"/>
    <rect id="Rectangle_82" data-name="Rectangle 82" width="5.908" height="33.427" transform="translate(1462.779 319.192) rotate(-118)" fill="#ffa9c9"/>
    <rect id="Rectangle_83" data-name="Rectangle 83" width="5.908" height="33.427" transform="translate(586.856 116.729) rotate(-64)" fill="#ffa9c9"/>
    <rect id="Rectangle_84" data-name="Rectangle 84" width="5.908" height="33.427" transform="matrix(0.237, -0.972, 0.972, 0.237, 1141.278, 177.628)" fill="#ffa9c9"/>
    <rect id="Rectangle_85" data-name="Rectangle 85" width="33.427" height="5.908" transform="matrix(0.98, -0.199, 0.199, 0.98, -131.813, 337.922)" fill="#0071ff"/>
    <rect id="Rectangle_86" data-name="Rectangle 86" width="5.908" height="33.427" transform="matrix(0.743, -0.669, 0.669, 0.743, 1042.174, 392.825)" fill="#0071ff"/>
    <rect id="Rectangle_87" data-name="Rectangle 87" width="33.427" height="5.909" transform="translate(105.693 436.213) rotate(-80.749)" fill="#ffa9c9"/>
    <rect id="Rectangle_88" data-name="Rectangle 88" width="33.427" height="5.909" transform="translate(109.159 727.678) rotate(149)" fill="#ffa9c9"/>
    <rect id="Rectangle_89" data-name="Rectangle 89" width="5.908" height="33.427" transform="translate(395.072 464.432) rotate(-140)" fill="#0071ff"/>
  </g>
</svg>
