<?xml version="1.0" encoding="utf-8"?>
<!-- Generator: Adobe Illustrator 16.0.0, SVG Export Plug-In . SVG Version: 6.00 Build 0)  -->
<!DOCTYPE svg PUBLIC "-//W3C//DTD SVG 1.1//EN" "http://www.w3.org/Graphics/SVG/1.1/DTD/svg11.dtd">
<svg version="1.1" id="Layer_1" xmlns="http://www.w3.org/2000/svg" xmlns:xlink="http://www.w3.org/1999/xlink" x="0px" y="0px"
	 width="276px" height="253.605px" viewBox="0 0 276 253.605" enable-background="new 0 0 276 253.605" xml:space="preserve">
<g>
	<g>
		<path fill="#020A0A" d="M95.211,75.41l-0.001,0.023v-0.012L95.211,75.41L95.211,75.41z M95.209,81.339v-5.906
			c0.007-0.207,0.18-0.369,0.385-0.366c2.015,0.124,3.846,0.301,5.411,0.519l0.006,0.005c0.145,0.017,0.269,0.118,0.313,0.259h0.001
			v0.007c0.003,0.014,0.01,0.028,0.011,0.047l0.004,0.011c0.006,0.04,0.013,0.087,0.021,0.142c0.192,1.306,0.393,3.374,0.5,5.247
			c0,0,0.023,0.417-0.396,0.417h-4.571H95.59C95.379,81.72,95.209,81.549,95.209,81.339"/>
	</g>
	<g>
		<path fill="#020A0A" d="M83.048,100.169v-6.288v0.381c0-0.213-0.172-0.381-0.381-0.381h-1.308h-4.568
			c-0.42,0-0.396,0.416-0.396,0.416c0.105,1.875,0.308,3.943,0.5,5.251c0.006,0.054,0.015,0.103,0.021,0.14l0.001,0.014
			c0.003,0.016,0.006,0.03,0.008,0.045l0.006,0.008l0,0c0.045,0.135,0.165,0.239,0.31,0.256c1.566,0.225,3.401,0.403,5.422,0.524
			C82.87,100.538,83.041,100.375,83.048,100.169 M83.048,100.171L83.048,100.171L83.048,100.171L83.048,100.171"/>
	</g>
	<g>
		<path fill="#020A0A" d="M89.887,81.302c0,0,0,0.417,0.42,0.417h2.961c0,0,0.421,0,0.421-0.417v-1.193v-4.72
			c0,0,0-0.415-0.421-0.435c-0.799-0.036-2.07-0.063-2.961-0.07c0,0-0.42-0.003-0.42,0.417v4.894V81.302"/>
	</g>
	<g>
		<path fill="#020A0A" d="M89.129,100.305V94.01v0.253c0-0.213-0.172-0.381-0.381-0.381h0.254h-0.254h-3.762c0,0-0.419,0-0.419,0.42
			v1.192v4.721c0,0,0,0.421,0.419,0.433c1.036,0.044,2.564,0.077,3.724,0.077C88.71,100.725,89.129,100.725,89.129,100.305"/>
	</g>
	<g>
		<path fill="#020A0A" d="M84.567,81.302c0,0,0,0.417,0.419,0.417h2.965c0,0,0.417,0,0.417-0.417v-6.001c0,0,0-0.42-0.417-0.417
			c-0.892,0.006-2.163,0.034-2.965,0.07c0,0-0.419,0.02-0.419,0.435v4.72V81.302"/>
	</g>
	<g>
		<path fill="#020A0A" d="M81.434,92.365h1.195c0,0,0.419,0,0.419-0.422v-2.964c0,0,0-0.418-0.419-0.418h-6.002
			c0,0-0.417,0-0.415,0.418c0.005,0.891,0.035,2.162,0.068,2.964c0,0,0.018,0.422,0.438,0.422H81.434"/>
	</g>
	<g>
		<path fill="#020A0A" d="M76.212,86.623c0,0-0.002,0.42,0.415,0.42h6.002c0,0,0.419,0,0.419-0.42v-2.961c0,0,0-0.421-0.419-0.421
			h-1.195h-4.716c0,0-0.42,0-0.438,0.417C76.247,84.461,76.217,85.732,76.212,86.623"/>
	</g>
	<g>
		<path fill="#020A0A" d="M83.048,75.41v0.023v-0.012V75.41L83.048,75.41z M83.048,81.339v-5.906
			c-0.007-0.207-0.18-0.369-0.387-0.366c-2.015,0.124-3.845,0.301-5.41,0.519l-0.005,0.005c-0.146,0.017-0.269,0.118-0.313,0.259
			l0,0l-0.006,0.007c-0.002,0.014-0.005,0.028-0.008,0.047l-0.001,0.011c-0.006,0.04-0.015,0.087-0.021,0.142
			c-0.192,1.306-0.395,3.374-0.5,5.247c0,0-0.024,0.417,0.396,0.417h4.568h1.308C82.875,81.72,83.048,81.549,83.048,81.339"/>
	</g>
	<g>
		<path fill="#020A0A" d="M95.209,92.389c0,0,0,0.42,0.295,0.715c0,0-0.295-0.295,5.627,5.627c0,0,0.295,0.297,0.351-0.12
			c0.287-2.257,0.51-5.612,0.552-8.871c0,0,0.006-0.419-0.414-0.419h-6.072c0,0-0.339,0-0.339,0.337v0.424v1.138v0.675V92.389"/>
	</g>
	<g>
		<path fill="#020A0A" d="M102.049,87.428c-0.006-1.443-0.034-2.813-0.072-3.77c0,0-0.017-0.417-0.438-0.417h-5.911
			c0,0-0.419,0-0.419,0.421v2.621v1.101c0,0,0,0.42,0.419,0.42h6.041C101.878,87.804,102.048,87.634,102.049,87.428"/>
	</g>
	<g>
		<path fill="#020A0A" d="M100.058,99.807c-4.082-4.081-5.348-5.35-5.743-5.746c-0.128-0.12-0.269-0.186-0.392-0.179l0,0h-2.855
			c0,0-0.419,0-0.419,0.42v5.991c0,0,0,0.422,0.419,0.416c3.26-0.043,6.611-0.266,8.871-0.552
			C99.938,100.157,100.356,100.103,100.058,99.807"/>
	</g>
	<g>
		<path fill="#020A0A" d="M191.207,92.801c0.482,1.465,0.948,2.844,1.406,4.143h2.588c0.368-0.808,0.746-1.731,1.13-2.766
			c0.388-1.03,0.775-2.136,1.161-3.313c0.386-1.174,0.774-2.411,1.158-3.71c0.388-1.296,0.765-2.621,1.137-3.971h-3.291
			c-0.158,0.735-0.344,1.529-0.556,2.38c-0.211,0.85-0.437,1.719-0.675,2.605c-0.236,0.884-0.479,1.749-0.725,2.589
			c-0.247,0.845-0.487,1.616-0.716,2.316c-0.264-0.806-0.521-1.638-0.776-2.499c-0.253-0.858-0.488-1.719-0.708-2.581
			c-0.219-0.856-0.425-1.696-0.614-2.51c-0.191-0.815-0.367-1.584-0.525-2.301h-2.449c-0.155,0.717-0.337,1.485-0.539,2.301
			c-0.203,0.813-0.417,1.653-0.645,2.51c-0.231,0.862-0.471,1.723-0.727,2.581c-0.254,0.86-0.516,1.693-0.779,2.499
			c-0.245-0.7-0.491-1.471-0.739-2.316c-0.248-0.84-0.484-1.705-0.714-2.589c-0.229-0.886-0.449-1.755-0.661-2.605
			c-0.208-0.851-0.396-1.646-0.555-2.38h-3.367c0.367,1.35,0.745,2.675,1.132,3.971c0.386,1.299,0.772,2.536,1.159,3.71
			c0.386,1.177,0.773,2.283,1.157,3.313c0.388,1.035,0.757,1.958,1.11,2.766h2.612c0.456-1.299,0.915-2.678,1.379-4.143
			c0.467-1.466,0.901-2.967,1.302-4.514C190.28,89.834,190.724,91.335,191.207,92.801 M173.434,75.686l-3.867,4.604l1.577,1.421
			l4.291-4.157L173.434,75.686z M174.473,93.338c-0.588,0.809-1.409,1.211-2.46,1.211c-1.053,0-1.873-0.402-2.462-1.211
			c-0.585-0.806-0.881-1.902-0.881-3.286c0-1.371,0.296-2.456,0.881-3.25c0.589-0.799,1.409-1.198,2.462-1.198
			c1.051,0,1.872,0.399,2.46,1.198c0.587,0.794,0.881,1.88,0.881,3.25C175.354,91.437,175.06,92.533,174.473,93.338 M178.131,87.092
			c-0.328-0.887-0.779-1.644-1.354-2.276c-0.581-0.632-1.279-1.117-2.095-1.46c-0.817-0.343-1.706-0.514-2.67-0.514
			c-0.966,0-1.85,0.171-2.656,0.514c-0.809,0.343-1.505,0.828-2.094,1.46c-0.586,0.632-1.042,1.389-1.365,2.276
			c-0.326,0.884-0.489,1.869-0.489,2.96c0,1.086,0.164,2.079,0.489,2.97c0.323,0.895,0.774,1.659,1.35,2.291
			c0.58,0.629,1.274,1.121,2.08,1.475c0.809,0.349,1.703,0.521,2.685,0.521c0.983,0,1.882-0.172,2.695-0.521
			c0.816-0.354,1.514-0.846,2.092-1.475c0.581-0.632,1.025-1.396,1.343-2.291c0.314-0.892,0.474-1.884,0.474-2.97
			C178.616,88.961,178.454,87.976,178.131,87.092 M156.037,76.525l-3.184,0.529v19.89h3.184v-6.316
			c0.475,0.349,0.956,0.774,1.445,1.276c0.492,0.501,0.976,1.031,1.449,1.594c0.475,0.563,0.917,1.138,1.328,1.735
			c0.413,0.597,0.775,1.167,1.091,1.711h3.684c-0.314-0.597-0.71-1.246-1.182-1.947c-0.473-0.7-0.98-1.406-1.522-2.105
			c-0.543-0.702-1.104-1.362-1.68-1.985c-0.579-0.625-1.13-1.156-1.655-1.59c0.983-1.004,1.956-2.03,2.927-3.083
			c0.969-1.053,1.894-2.068,2.77-3.049h-3.762c-0.283,0.332-0.62,0.72-1.015,1.168c-0.392,0.451-0.809,0.913-1.249,1.396
			c-0.437,0.482-0.888,0.962-1.343,1.445c-0.453,0.481-0.885,0.936-1.288,1.355V76.525z M141.403,83.05
			c-0.771,0.142-1.361,0.281-1.761,0.422l0.393,2.579c0.384-0.144,0.886-0.265,1.499-0.37c0.614-0.106,1.29-0.156,2.027-0.156
			c0.544,0,0.996,0.068,1.354,0.21c0.361,0.14,0.649,0.335,0.869,0.592c0.22,0.254,0.375,0.548,0.461,0.88
			c0.086,0.333,0.13,0.686,0.13,1.052v0.526c-0.437-0.104-0.851-0.179-1.236-0.225c-0.386-0.041-0.754-0.065-1.105-0.065
			c-0.754,0-1.479,0.078-2.17,0.223c-0.693,0.153-1.304,0.396-1.83,0.741c-0.524,0.341-0.941,0.784-1.247,1.328
			c-0.309,0.543-0.462,1.209-0.462,1.999c0,0.824,0.135,1.515,0.41,2.078c0.269,0.559,0.646,1.015,1.126,1.371
			c0.485,0.35,1.067,0.601,1.752,0.76c0.684,0.158,1.437,0.237,2.263,0.237c1.244,0,2.362-0.076,3.353-0.225
			c0.993-0.146,1.733-0.276,2.223-0.38v-8.341c0-0.807-0.092-1.549-0.276-2.223c-0.183-0.675-0.49-1.249-0.923-1.723
			c-0.427-0.474-1.002-0.844-1.721-1.104c-0.72-0.264-1.604-0.396-2.656-0.396C143.001,82.842,142.175,82.909,141.403,83.05
			 M142.22,94.271c-0.474-0.288-0.712-0.811-0.712-1.563c0-0.388,0.088-0.706,0.266-0.963c0.173-0.254,0.408-0.449,0.695-0.592
			c0.291-0.138,0.614-0.235,0.973-0.288c0.361-0.051,0.715-0.077,1.067-0.077c0.405,0,0.771,0.026,1.106,0.077
			c0.333,0.053,0.586,0.105,0.762,0.157v3.527c-0.508,0.103-1.255,0.159-2.237,0.159C143.334,94.708,142.696,94.562,142.22,94.271
			 M137.943,83.368c-0.16-0.051-0.369-0.109-0.631-0.171c-0.265-0.061-0.537-0.112-0.816-0.16c-0.282-0.042-0.563-0.076-0.841-0.103
			c-0.281-0.028-0.53-0.041-0.736-0.041c-1.125,0-2.145,0.101-3.065,0.303c-0.923,0.2-1.689,0.417-2.303,0.647v13.101h3.184V85.918
			c0.157-0.049,0.436-0.111,0.828-0.182c0.396-0.072,0.768-0.105,1.119-0.105c0.613,0,1.151,0.048,1.618,0.146
			c0.464,0.094,0.831,0.188,1.092,0.275L137.943,83.368z M128.415,96.944c-0.564-0.914-1.182-1.83-1.856-2.751
			c-0.678-0.92-1.383-1.808-2.118-2.656c-0.738-0.85-1.487-1.65-2.252-2.397c-0.761-0.741-1.51-1.394-2.248-1.955
			c0.667-0.65,1.345-1.333,2.041-2.053c0.688-0.723,1.378-1.444,2.064-2.171c0.682-0.731,1.349-1.451,1.998-2.17
			c0.649-0.719,1.265-1.414,1.842-2.082h-3.972c-0.458,0.509-0.964,1.079-1.527,1.711c-0.562,0.631-1.153,1.284-1.776,1.959
			c-0.623,0.678-1.249,1.346-1.879,2.001c-0.633,0.657-1.238,1.277-1.817,1.853v-7.524h-3.314v18.235h3.314v-8.183
			c0.684,0.472,1.377,1.034,2.079,1.684c0.701,0.649,1.383,1.332,2.039,2.053c0.657,0.718,1.284,1.46,1.88,2.234
			c0.597,0.771,1.122,1.51,1.581,2.212H128.415z"/>
	</g>
</g>
<g>
	<path fill="#1D1D1B" d="M67.265,155.056l3.699-8.989h2.144l3.661,8.989h-2.017l-0.912-2.363h-3.711l-0.925,2.363H67.265z
		 M70.707,151.203h2.568l-1.284-3.313L70.707,151.203z"/>
	<path fill="#1D1D1B" d="M78.248,155.056v-8.989l1.759-0.295v9.284H78.248z"/>
	<path fill="#1D1D1B" d="M85.455,155.184c-0.668,0-1.274-0.153-1.818-0.462c-0.543-0.308-0.974-0.723-1.29-1.245
		c-0.317-0.522-0.475-1.108-0.475-1.76c0-0.65,0.151-1.237,0.456-1.759c0.304-0.522,0.716-0.938,1.239-1.246
		c0.522-0.308,1.105-0.463,1.747-0.463s1.211,0.159,1.708,0.477c0.497,0.315,0.889,0.744,1.176,1.284
		c0.287,0.539,0.43,1.15,0.43,1.836v0.463h-4.958c0.078,0.265,0.204,0.505,0.38,0.719c0.174,0.213,0.393,0.381,0.654,0.5
		c0.261,0.12,0.542,0.18,0.841,0.18c0.3,0,0.576-0.047,0.829-0.141c0.252-0.094,0.469-0.227,0.648-0.397l1.156,1.052
		c-0.412,0.335-0.833,0.579-1.265,0.732C86.479,155.107,85.993,155.184,85.455,155.184z M83.644,151.05h3.25
		c-0.06-0.267-0.17-0.499-0.327-0.701c-0.159-0.2-0.347-0.358-0.565-0.475c-0.218-0.114-0.46-0.173-0.726-0.173
		c-0.273,0-0.521,0.056-0.745,0.167c-0.222,0.11-0.409,0.267-0.558,0.469C83.822,150.538,83.712,150.775,83.644,151.05z"/>
	<path fill="#1D1D1B" d="M90.476,155.056v-8.989l1.759-0.295v5.406l2.889-2.813h1.991l-3.159,3.068l3.352,3.622h-2.248l-2.826-3.057
		v3.057H90.476z"/>
	<path fill="#1D1D1B" d="M101.186,155.184c-0.615,0-1.185-0.079-1.708-0.236c-0.522-0.158-0.976-0.389-1.361-0.688l0.874-1.169
		c0.385,0.257,0.754,0.45,1.111,0.578c0.354,0.128,0.708,0.193,1.059,0.193c0.394,0,0.709-0.067,0.945-0.199
		c0.234-0.133,0.353-0.307,0.353-0.521c0-0.172-0.066-0.309-0.199-0.411c-0.133-0.103-0.346-0.176-0.636-0.218l-1.284-0.193
		c-0.667-0.103-1.173-0.318-1.515-0.648c-0.343-0.329-0.514-0.764-0.514-1.304c0-0.436,0.114-0.811,0.341-1.123
		s0.548-0.557,0.963-0.732s0.91-0.264,1.483-0.264c0.488,0,0.964,0.069,1.432,0.206c0.466,0.137,0.905,0.348,1.316,0.629
		l-0.847,1.145c-0.369-0.232-0.719-0.399-1.053-0.502c-0.333-0.103-0.673-0.154-1.015-0.154c-0.316,0-0.571,0.061-0.764,0.18
		c-0.193,0.121-0.289,0.278-0.289,0.477c0,0.179,0.068,0.32,0.206,0.423c0.137,0.103,0.373,0.175,0.706,0.219l1.272,0.191
		c0.668,0.096,1.177,0.307,1.528,0.636c0.351,0.33,0.526,0.756,0.526,1.278c0,0.429-0.128,0.808-0.386,1.137
		c-0.256,0.329-0.603,0.591-1.04,0.784C102.253,155.088,101.751,155.184,101.186,155.184z"/>
	<path fill="#1D1D1B" d="M107.953,155.172c-0.479,0-0.903-0.088-1.271-0.264c-0.369-0.176-0.655-0.418-0.86-0.725
		c-0.205-0.31-0.308-0.664-0.308-1.067c0-0.642,0.242-1.14,0.725-1.495s1.15-0.533,1.997-0.533c0.582,0,1.13,0.09,1.643,0.27v-0.487
		c0-0.386-0.12-0.677-0.359-0.874c-0.241-0.196-0.591-0.295-1.054-0.295c-0.282,0-0.586,0.045-0.912,0.135
		c-0.325,0.09-0.702,0.229-1.129,0.418l-0.642-1.298c0.53-0.239,1.038-0.42,1.521-0.54c0.483-0.119,0.969-0.179,1.458-0.179
		c0.9,0,1.599,0.216,2.1,0.647c0.5,0.433,0.752,1.043,0.752,1.83v4.341h-1.734v-0.475c-0.273,0.205-0.569,0.355-0.885,0.449
		C108.676,155.124,108.33,155.172,107.953,155.172z M107.182,153.078c0,0.257,0.111,0.461,0.334,0.61
		c0.222,0.149,0.518,0.225,0.886,0.225c0.291,0,0.561-0.036,0.808-0.109c0.249-0.072,0.471-0.183,0.668-0.327v-0.976
		c-0.214-0.085-0.436-0.15-0.668-0.192c-0.23-0.043-0.479-0.065-0.745-0.065c-0.403,0-0.716,0.076-0.943,0.225
		C107.296,152.618,107.182,152.822,107.182,153.078z"/>
	<path fill="#1D1D1B" d="M113.781,155.056v-6.69h1.759v0.552c0.505-0.453,1.13-0.68,1.875-0.68c0.522,0,0.982,0.113,1.38,0.341
		c0.398,0.227,0.708,0.539,0.932,0.938c0.222,0.397,0.333,0.861,0.333,1.393v4.147h-1.759v-3.892c0-0.436-0.125-0.779-0.373-1.032
		c-0.248-0.253-0.586-0.38-1.014-0.38c-0.3,0-0.565,0.059-0.796,0.174c-0.232,0.115-0.424,0.28-0.579,0.494v4.636H113.781z"/>
	<path fill="#1D1D1B" d="M125.263,155.146c-0.633,0-1.206-0.155-1.72-0.463c-0.514-0.309-0.923-0.722-1.227-1.239
		c-0.304-0.519-0.455-1.099-0.455-1.74c0-0.643,0.151-1.222,0.455-1.739c0.304-0.518,0.717-0.93,1.239-1.233
		s1.108-0.456,1.759-0.456c0.334,0,0.656,0.045,0.963,0.135c0.309,0.091,0.596,0.221,0.86,0.393v-2.736l1.76-0.295v9.284h-1.734
		v-0.552C126.616,154.932,125.982,155.146,125.263,155.146z M125.546,153.644c0.325,0,0.623-0.054,0.893-0.161
		c0.27-0.106,0.503-0.268,0.699-0.48v-2.607c-0.196-0.197-0.432-0.351-0.706-0.462c-0.274-0.112-0.57-0.167-0.886-0.167
		c-0.369,0-0.701,0.083-0.995,0.25c-0.295,0.167-0.53,0.398-0.701,0.693s-0.256,0.627-0.256,0.995s0.085,0.698,0.256,0.988
		c0.171,0.292,0.405,0.522,0.701,0.693C124.846,153.559,125.178,153.644,125.546,153.644z"/>
	<path fill="#1D1D1B" d="M134.339,155.184c-0.668,0-1.274-0.153-1.818-0.462c-0.543-0.308-0.974-0.723-1.29-1.245
		c-0.317-0.522-0.475-1.108-0.475-1.76c0-0.65,0.151-1.237,0.456-1.759c0.304-0.522,0.716-0.938,1.239-1.246
		c0.522-0.308,1.105-0.463,1.747-0.463s1.211,0.159,1.708,0.477c0.497,0.315,0.889,0.744,1.176,1.284
		c0.287,0.539,0.43,1.15,0.43,1.836v0.463h-4.958c0.078,0.265,0.204,0.505,0.38,0.719c0.174,0.213,0.393,0.381,0.654,0.5
		c0.261,0.12,0.542,0.18,0.841,0.18c0.3,0,0.576-0.047,0.829-0.141c0.252-0.094,0.469-0.227,0.648-0.397l1.156,1.052
		c-0.412,0.335-0.833,0.579-1.265,0.732C135.363,155.107,134.877,155.184,134.339,155.184z M132.528,151.05h3.25
		c-0.06-0.267-0.17-0.499-0.327-0.701c-0.159-0.2-0.347-0.358-0.565-0.475c-0.218-0.114-0.46-0.173-0.726-0.173
		c-0.273,0-0.521,0.056-0.745,0.167c-0.222,0.11-0.409,0.267-0.558,0.469C132.706,150.538,132.596,150.775,132.528,151.05z"/>
	<path fill="#1D1D1B" d="M139.36,155.056v-6.69h1.759v0.744c0.215-0.29,0.471-0.514,0.771-0.667
		c0.299-0.154,0.637-0.231,1.014-0.231c0.325,0.009,0.569,0.061,0.731,0.154v1.542c-0.128-0.06-0.27-0.105-0.424-0.136
		c-0.154-0.029-0.313-0.045-0.475-0.045c-0.343,0-0.656,0.085-0.938,0.258c-0.283,0.17-0.509,0.414-0.681,0.73v4.341H139.36z"/>
	<path fill="#1D1D1B" d="M148.58,155.056v-8.989h2.388l2.466,4.855l2.466-4.855h2.389v8.989h-1.759v-6.613l-3.122,5.972
		l-3.108-5.998v6.64H148.58z"/>
	<path fill="#1D1D1B" d="M161.54,147.569c-0.273,0-0.509-0.099-0.706-0.296c-0.198-0.196-0.295-0.432-0.295-0.706
		c0-0.282,0.098-0.521,0.295-0.713c0.197-0.192,0.432-0.288,0.706-0.288c0.283,0,0.52,0.096,0.713,0.288s0.29,0.431,0.29,0.713
		c0,0.274-0.097,0.51-0.29,0.706C162.06,147.471,161.823,147.569,161.54,147.569z M160.667,155.056v-6.69h1.759v6.69H160.667z"/>
	<path fill="#1D1D1B" d="M167.181,155.184c-0.615,0-1.185-0.079-1.708-0.236c-0.522-0.158-0.975-0.389-1.361-0.688l0.874-1.169
		c0.384,0.257,0.754,0.45,1.11,0.578c0.354,0.128,0.708,0.193,1.059,0.193c0.395,0,0.709-0.067,0.945-0.199
		c0.234-0.133,0.353-0.307,0.353-0.521c0-0.172-0.066-0.309-0.199-0.411s-0.346-0.176-0.636-0.218l-1.284-0.193
		c-0.668-0.103-1.173-0.318-1.515-0.648c-0.343-0.329-0.514-0.764-0.514-1.304c0-0.436,0.113-0.811,0.34-1.123
		s0.548-0.557,0.963-0.732c0.415-0.176,0.91-0.264,1.483-0.264c0.488,0,0.965,0.069,1.432,0.206s0.905,0.348,1.316,0.629
		l-0.848,1.145c-0.368-0.232-0.719-0.399-1.053-0.502s-0.673-0.154-1.015-0.154c-0.316,0-0.571,0.061-0.765,0.18
		c-0.192,0.121-0.289,0.278-0.289,0.477c0,0.179,0.068,0.32,0.206,0.423c0.137,0.103,0.373,0.175,0.706,0.219l1.271,0.191
		c0.668,0.096,1.177,0.307,1.528,0.636c0.351,0.33,0.526,0.756,0.526,1.278c0,0.429-0.128,0.808-0.386,1.137
		c-0.256,0.329-0.603,0.591-1.04,0.784C168.248,155.088,167.746,155.184,167.181,155.184z"/>
	<path fill="#1D1D1B" d="M171.438,155.056v-1.245l3.364-3.969h-3.339v-1.477h5.586v1.246l-3.364,3.968h3.455v1.477H171.438z"/>
	<path fill="#1D1D1B" d="M181.063,155.172c-0.479,0-0.903-0.088-1.271-0.264c-0.368-0.176-0.655-0.418-0.86-0.725
		c-0.205-0.31-0.308-0.664-0.308-1.067c0-0.642,0.241-1.14,0.725-1.495s1.15-0.533,1.997-0.533c0.583,0,1.131,0.09,1.644,0.27
		v-0.487c0-0.386-0.12-0.677-0.359-0.874c-0.24-0.196-0.591-0.295-1.053-0.295c-0.282,0-0.586,0.045-0.912,0.135
		c-0.325,0.09-0.702,0.229-1.129,0.418l-0.643-1.298c0.53-0.239,1.038-0.42,1.521-0.54c0.483-0.119,0.969-0.179,1.457-0.179
		c0.899,0,1.6,0.216,2.1,0.647c0.501,0.433,0.752,1.043,0.752,1.83v4.341h-1.734v-0.475c-0.273,0.205-0.569,0.355-0.885,0.449
		C181.787,155.124,181.44,155.172,181.063,155.172z M180.293,153.078c0,0.257,0.11,0.461,0.334,0.61
		c0.223,0.149,0.518,0.225,0.887,0.225c0.29,0,0.56-0.036,0.808-0.109c0.249-0.072,0.472-0.183,0.668-0.327v-0.976
		c-0.214-0.085-0.436-0.15-0.668-0.192c-0.23-0.043-0.479-0.065-0.744-0.065c-0.403,0-0.717,0.076-0.944,0.225
		C180.406,152.618,180.293,152.822,180.293,153.078z"/>
	<path fill="#1D1D1B" d="M186.891,155.056v-8.989l1.759-0.295v9.284H186.891z"/>
	<path fill="#1D1D1B" d="M193.405,155.184c-0.615,0-1.186-0.079-1.708-0.236c-0.522-0.158-0.975-0.389-1.36-0.688l0.874-1.169
		c0.384,0.257,0.754,0.45,1.11,0.578c0.354,0.128,0.708,0.193,1.059,0.193c0.395,0,0.709-0.067,0.944-0.199
		c0.234-0.133,0.354-0.307,0.354-0.521c0-0.172-0.066-0.309-0.199-0.411s-0.346-0.176-0.636-0.218l-1.284-0.193
		c-0.668-0.103-1.174-0.318-1.516-0.648c-0.343-0.329-0.514-0.764-0.514-1.304c0-0.436,0.113-0.811,0.341-1.123
		c0.227-0.313,0.548-0.557,0.963-0.732s0.909-0.264,1.483-0.264c0.488,0,0.964,0.069,1.432,0.206
		c0.467,0.137,0.904,0.348,1.316,0.629l-0.848,1.145c-0.368-0.232-0.719-0.399-1.054-0.502c-0.333-0.103-0.672-0.154-1.014-0.154
		c-0.316,0-0.571,0.061-0.765,0.18c-0.192,0.121-0.289,0.278-0.289,0.477c0,0.179,0.068,0.32,0.206,0.423
		c0.137,0.103,0.372,0.175,0.706,0.219l1.271,0.191c0.668,0.096,1.177,0.307,1.528,0.636c0.351,0.33,0.526,0.756,0.526,1.278
		c0,0.429-0.128,0.808-0.386,1.137c-0.257,0.329-0.604,0.591-1.04,0.784C194.473,155.088,193.971,155.184,193.405,155.184z"/>
	<path fill="#1D1D1B" d="M198.077,155.056v-8.989l1.759-0.295v5.406l2.89-2.813h1.991l-3.159,3.068l3.352,3.622h-2.247l-2.826-3.057
		v3.057H198.077z"/>
	<path fill="#1D1D1B" d="M207.115,147.569c-0.273,0-0.509-0.099-0.706-0.296c-0.197-0.196-0.295-0.432-0.295-0.706
		c0-0.282,0.098-0.521,0.295-0.713s0.433-0.288,0.706-0.288c0.283,0,0.52,0.096,0.713,0.288c0.192,0.192,0.289,0.431,0.289,0.713
		c0,0.274-0.097,0.51-0.289,0.706C207.635,147.471,207.398,147.569,207.115,147.569z M206.242,155.056v-6.69h1.759v6.69H206.242z"/>
	<path fill="#1D1D1B" d="M104.155,173.4v-8.989h4.507c0.591,0,1.111,0.12,1.56,0.36c0.451,0.239,0.803,0.571,1.06,0.995
		c0.258,0.423,0.386,0.914,0.386,1.47c0,0.531-0.128,1.007-0.386,1.426c-0.256,0.42-0.611,0.749-1.065,0.988
		c-0.454,0.24-0.972,0.36-1.554,0.36h-2.645v3.39H104.155z M106.017,168.469h2.44c0.403,0,0.725-0.111,0.969-0.333
		s0.366-0.518,0.366-0.886c0-0.378-0.122-0.677-0.366-0.898c-0.244-0.224-0.566-0.335-0.969-0.335h-2.44V168.469z"/>
	<path fill="#1D1D1B" d="M113.385,173.4v-6.69h1.759v0.745c0.215-0.291,0.471-0.515,0.771-0.668c0.299-0.154,0.637-0.23,1.015-0.23
		c0.325,0.008,0.569,0.06,0.731,0.153v1.542c-0.128-0.061-0.27-0.105-0.423-0.136c-0.154-0.029-0.313-0.045-0.475-0.045
		c-0.343,0-0.655,0.085-0.938,0.257c-0.283,0.172-0.509,0.416-0.681,0.731v4.341H113.385z"/>
	<path fill="#1D1D1B" d="M122.501,173.529c-0.668,0-1.274-0.154-1.818-0.463c-0.543-0.308-0.974-0.723-1.29-1.245
		c-0.317-0.522-0.475-1.108-0.475-1.759c0-0.651,0.151-1.238,0.456-1.76c0.304-0.522,0.716-0.938,1.239-1.246
		c0.522-0.308,1.105-0.463,1.747-0.463s1.211,0.159,1.708,0.477c0.497,0.316,0.889,0.744,1.176,1.284
		c0.287,0.539,0.43,1.151,0.43,1.836v0.462h-4.958c0.078,0.266,0.204,0.506,0.38,0.72c0.174,0.214,0.393,0.381,0.654,0.5
		c0.261,0.12,0.542,0.18,0.841,0.18c0.3,0,0.576-0.046,0.829-0.141c0.252-0.094,0.469-0.227,0.648-0.397l1.156,1.052
		c-0.412,0.335-0.833,0.579-1.265,0.732C123.525,173.452,123.039,173.529,122.501,173.529z M120.689,169.395h3.25
		c-0.06-0.267-0.17-0.5-0.327-0.701c-0.159-0.2-0.347-0.358-0.565-0.475c-0.218-0.115-0.46-0.174-0.726-0.174
		c-0.273,0-0.521,0.057-0.745,0.168c-0.222,0.111-0.409,0.268-0.558,0.469C120.868,168.883,120.758,169.119,120.689,169.395z"/>
	<path fill="#1D1D1B" d="M126.983,173.4v-1.245l3.364-3.968h-3.339v-1.478h5.586v1.246l-3.364,3.968h3.455v1.477H126.983z"/>
	<path fill="#1D1D1B" d="M135.282,176.162c-0.155,0-0.303-0.006-0.443-0.02c-0.142-0.014-0.26-0.028-0.354-0.045v-1.516
		c0.172,0.034,0.377,0.052,0.617,0.052c0.642,0,1.087-0.304,1.335-0.912l0.104-0.257l-2.607-6.755h1.94l1.668,4.56l1.889-4.56h1.899
		l-3.081,7.23c-0.232,0.539-0.485,0.972-0.758,1.296c-0.274,0.326-0.588,0.562-0.943,0.707
		C136.191,176.089,135.769,176.162,135.282,176.162z"/>
	<path fill="#1D1D1B" d="M145.565,173.491c-0.634,0-1.206-0.155-1.72-0.463c-0.514-0.309-0.923-0.722-1.227-1.239
		c-0.304-0.519-0.456-1.099-0.456-1.74c0-0.643,0.151-1.223,0.456-1.74c0.304-0.518,0.716-0.929,1.239-1.232
		s1.108-0.457,1.759-0.457c0.334,0,0.655,0.046,0.963,0.136c0.309,0.091,0.596,0.222,0.861,0.392v-2.735l1.76-0.295v9.284h-1.735
		v-0.552C146.917,173.276,146.284,173.491,145.565,173.491z M145.848,171.988c0.325,0,0.623-0.054,0.892-0.161
		c0.27-0.106,0.503-0.268,0.7-0.481v-2.607c-0.197-0.196-0.432-0.35-0.706-0.461c-0.275-0.112-0.57-0.167-0.886-0.167
		c-0.369,0-0.701,0.083-0.995,0.25c-0.295,0.167-0.53,0.397-0.701,0.693s-0.256,0.628-0.256,0.995c0,0.368,0.085,0.698,0.256,0.988
		c0.171,0.292,0.405,0.522,0.701,0.693C145.147,171.902,145.479,171.988,145.848,171.988z"/>
	<path fill="#1D1D1B" d="M154.641,173.529c-0.667,0-1.274-0.154-1.817-0.463c-0.543-0.308-0.974-0.723-1.291-1.245
		c-0.317-0.522-0.475-1.108-0.475-1.759c0-0.651,0.151-1.238,0.455-1.76c0.304-0.522,0.717-0.938,1.239-1.246
		c0.522-0.308,1.104-0.463,1.747-0.463s1.211,0.159,1.708,0.477c0.497,0.316,0.889,0.744,1.175,1.284
		c0.287,0.539,0.43,1.151,0.43,1.836v0.462h-4.957c0.078,0.266,0.204,0.506,0.379,0.72c0.175,0.214,0.393,0.381,0.654,0.5
		c0.261,0.12,0.542,0.18,0.841,0.18c0.3,0,0.576-0.046,0.829-0.141c0.253-0.094,0.469-0.227,0.648-0.397l1.156,1.052
		c-0.411,0.335-0.833,0.579-1.265,0.732C155.665,173.452,155.179,173.529,154.641,173.529z M152.829,169.395h3.25
		c-0.06-0.267-0.169-0.5-0.327-0.701c-0.159-0.2-0.347-0.358-0.565-0.475c-0.219-0.115-0.46-0.174-0.727-0.174
		c-0.273,0-0.521,0.057-0.745,0.168c-0.222,0.111-0.409,0.268-0.558,0.469C153.007,168.883,152.897,169.119,152.829,169.395z"/>
	<path fill="#1D1D1B" d="M159.662,173.4v-6.69h1.759v0.552c0.505-0.453,1.13-0.68,1.875-0.68c0.522,0,0.983,0.113,1.381,0.34
		c0.398,0.228,0.708,0.54,0.931,0.938c0.222,0.398,0.333,0.862,0.333,1.394v4.147h-1.759v-3.892c0-0.436-0.125-0.78-0.372-1.032
		c-0.248-0.253-0.586-0.38-1.015-0.38c-0.3,0-0.565,0.059-0.796,0.173c-0.232,0.116-0.423,0.281-0.579,0.495v4.636H159.662z"/>
	<path fill="#1D1D1B" d="M171.075,173.503c-0.746,0-1.309-0.168-1.689-0.507c-0.381-0.338-0.571-0.832-0.571-1.482v-3.34h-1.375
		v-1.464h1.375v-1.708l1.759-0.397v2.105h1.914v1.464h-1.914v2.979c0,0.308,0.068,0.528,0.206,0.661
		c0.137,0.134,0.376,0.199,0.72,0.199c0.171,0,0.327-0.011,0.469-0.031c0.14-0.022,0.296-0.063,0.469-0.122v1.45
		c-0.181,0.061-0.405,0.107-0.676,0.142C171.491,173.486,171.263,173.503,171.075,173.503z"/>
	<path fill="#1D1D1B" d="M85.808,191.746v-8.988h2.388l2.466,4.854l2.466-4.854h2.389v8.988h-1.759v-6.613l-3.121,5.972
		l-3.108-5.997v6.639H85.808z"/>
	<path fill="#1D1D1B" d="M98.768,184.26c-0.273,0-0.509-0.099-0.706-0.295c-0.198-0.197-0.295-0.433-0.295-0.707
		c0-0.282,0.098-0.52,0.295-0.713c0.196-0.191,0.432-0.288,0.706-0.288c0.283,0,0.52,0.097,0.713,0.288
		c0.193,0.193,0.289,0.431,0.289,0.713c0,0.274-0.096,0.51-0.289,0.707C99.288,184.161,99.051,184.26,98.768,184.26z
		 M97.895,191.746v-6.69h1.759v6.69H97.895z"/>
	<path fill="#1D1D1B" d="M103.939,191.862c-0.479,0-0.903-0.088-1.271-0.264c-0.369-0.176-0.655-0.417-0.86-0.725
		c-0.205-0.31-0.308-0.664-0.308-1.067c0-0.642,0.242-1.14,0.725-1.495s1.15-0.533,1.997-0.533c0.582,0,1.13,0.09,1.643,0.27v-0.487
		c0-0.386-0.12-0.676-0.359-0.874c-0.241-0.196-0.591-0.295-1.054-0.295c-0.282,0-0.586,0.045-0.912,0.136
		c-0.325,0.089-0.702,0.228-1.129,0.417l-0.642-1.298c0.53-0.239,1.038-0.42,1.521-0.539c0.483-0.12,0.969-0.18,1.458-0.18
		c0.9,0,1.599,0.216,2.1,0.648c0.5,0.432,0.752,1.042,0.752,1.83v4.34h-1.734v-0.475c-0.273,0.205-0.569,0.355-0.885,0.449
		C104.663,191.814,104.316,191.862,103.939,191.862z M103.168,189.77c0,0.256,0.111,0.46,0.334,0.609
		c0.222,0.149,0.518,0.225,0.886,0.225c0.291,0,0.561-0.036,0.808-0.109c0.249-0.072,0.471-0.182,0.668-0.327v-0.976
		c-0.214-0.085-0.436-0.15-0.668-0.192c-0.23-0.043-0.479-0.065-0.745-0.065c-0.403,0-0.716,0.076-0.943,0.225
		C103.282,189.309,103.168,189.513,103.168,189.77z"/>
	<path fill="#1D1D1B" d="M112.304,191.875c-0.615,0-1.185-0.08-1.708-0.237c-0.522-0.158-0.976-0.388-1.361-0.687l0.874-1.17
		c0.385,0.258,0.754,0.45,1.111,0.578c0.354,0.129,0.708,0.193,1.059,0.193c0.394,0,0.709-0.067,0.945-0.199
		c0.234-0.133,0.353-0.307,0.353-0.52c0-0.172-0.066-0.309-0.199-0.412c-0.133-0.102-0.346-0.176-0.636-0.218l-1.284-0.193
		c-0.667-0.103-1.173-0.318-1.515-0.647c-0.343-0.33-0.514-0.765-0.514-1.305c0-0.436,0.114-0.811,0.341-1.123
		s0.548-0.557,0.963-0.732s0.91-0.264,1.483-0.264c0.488,0,0.964,0.07,1.432,0.207c0.466,0.137,0.905,0.347,1.316,0.629
		l-0.847,1.144c-0.369-0.232-0.719-0.399-1.053-0.502c-0.333-0.103-0.673-0.153-1.015-0.153c-0.316,0-0.571,0.06-0.764,0.179
		c-0.193,0.121-0.289,0.278-0.289,0.477c0,0.179,0.068,0.321,0.206,0.423c0.137,0.104,0.373,0.175,0.706,0.219l1.272,0.191
		c0.668,0.096,1.177,0.307,1.528,0.637c0.351,0.329,0.526,0.756,0.526,1.277c0,0.429-0.128,0.808-0.386,1.137
		c-0.256,0.33-0.603,0.591-1.04,0.784C113.371,191.778,112.87,191.875,112.304,191.875z"/>
	<path fill="#1D1D1B" d="M120.056,191.85c-0.746,0-1.309-0.169-1.689-0.507c-0.381-0.339-0.571-0.833-0.571-1.483v-3.34h-1.375
		v-1.464h1.375v-1.708l1.759-0.397v2.105h1.914v1.464h-1.914v2.979c0,0.308,0.068,0.528,0.206,0.662
		c0.137,0.133,0.376,0.198,0.719,0.198c0.171,0,0.327-0.011,0.469-0.031c0.14-0.021,0.296-0.063,0.469-0.122v1.45
		c-0.181,0.061-0.405,0.107-0.675,0.142C120.472,191.832,120.244,191.85,120.056,191.85z"/>
	<path fill="#1D1D1B" d="M125.261,191.862c-0.479,0-0.903-0.088-1.271-0.264c-0.369-0.176-0.656-0.417-0.861-0.725
		c-0.205-0.31-0.308-0.664-0.308-1.067c0-0.642,0.242-1.14,0.725-1.495s1.15-0.533,1.997-0.533c0.583,0,1.13,0.09,1.643,0.27v-0.487
		c0-0.386-0.12-0.676-0.359-0.874c-0.24-0.196-0.591-0.295-1.053-0.295c-0.282,0-0.586,0.045-0.912,0.136
		c-0.325,0.089-0.702,0.228-1.129,0.417l-0.642-1.298c0.53-0.239,1.038-0.42,1.521-0.539c0.483-0.12,0.969-0.18,1.458-0.18
		c0.899,0,1.599,0.216,2.1,0.648c0.5,0.432,0.752,1.042,0.752,1.83v4.34h-1.735v-0.475c-0.273,0.205-0.569,0.355-0.885,0.449
		C125.985,191.814,125.638,191.862,125.261,191.862z M124.491,189.77c0,0.256,0.111,0.46,0.334,0.609
		c0.222,0.149,0.518,0.225,0.886,0.225c0.291,0,0.56-0.036,0.808-0.109c0.249-0.072,0.471-0.182,0.667-0.327v-0.976
		c-0.213-0.085-0.436-0.15-0.667-0.192c-0.231-0.043-0.48-0.065-0.745-0.065c-0.403,0-0.717,0.076-0.944,0.225
		C124.604,189.309,124.491,189.513,124.491,189.77z"/>
	<path fill="#1D1D1B" d="M134.237,191.746v-8.988h1.861v4.02l3.93-4.02h2.273l-4.367,4.275l4.573,4.713h-2.491l-3.917-4.173v4.173
		H134.237z"/>
	<path fill="#1D1D1B" d="M143.94,191.746v-6.69h1.759v0.745c0.215-0.291,0.471-0.514,0.771-0.668c0.299-0.154,0.637-0.23,1.014-0.23
		c0.325,0.008,0.569,0.06,0.731,0.153v1.542c-0.128-0.06-0.27-0.105-0.424-0.136c-0.154-0.029-0.313-0.045-0.475-0.045
		c-0.343,0-0.656,0.085-0.938,0.258c-0.283,0.171-0.509,0.415-0.681,0.731v4.34H143.94z"/>
	<path fill="#1D1D1B" d="M151.97,191.862c-0.479,0-0.903-0.088-1.271-0.264c-0.369-0.176-0.656-0.417-0.861-0.725
		c-0.205-0.31-0.308-0.664-0.308-1.067c0-0.642,0.242-1.14,0.725-1.495s1.15-0.533,1.997-0.533c0.583,0,1.13,0.09,1.643,0.27v-0.487
		c0-0.386-0.12-0.676-0.359-0.874c-0.24-0.196-0.591-0.295-1.053-0.295c-0.282,0-0.586,0.045-0.912,0.136
		c-0.325,0.089-0.702,0.228-1.129,0.417l-0.642-1.298c0.53-0.239,1.038-0.42,1.521-0.539c0.483-0.12,0.969-0.18,1.458-0.18
		c0.899,0,1.599,0.216,2.1,0.648c0.5,0.432,0.752,1.042,0.752,1.83v4.34h-1.735v-0.475c-0.273,0.205-0.569,0.355-0.885,0.449
		C152.694,191.814,152.347,191.862,151.97,191.862z M151.2,189.77c0,0.256,0.111,0.46,0.334,0.609
		c0.222,0.149,0.518,0.225,0.886,0.225c0.291,0,0.56-0.036,0.808-0.109c0.249-0.072,0.471-0.182,0.667-0.327v-0.976
		c-0.213-0.085-0.436-0.15-0.667-0.192c-0.231-0.043-0.48-0.065-0.745-0.065c-0.403,0-0.717,0.076-0.944,0.225
		C151.313,189.309,151.2,189.513,151.2,189.77z"/>
	<path fill="#1D1D1B" d="M157.797,191.746v-8.988l1.759-0.296v5.406l2.889-2.813h1.991l-3.159,3.069l3.352,3.621h-2.248
		l-2.826-3.057v3.057H157.797z"/>
	<path fill="#1D1D1B" d="M168.771,191.875c-0.668,0-1.271-0.154-1.811-0.463c-0.539-0.308-0.968-0.723-1.284-1.245
		c-0.317-0.522-0.475-1.108-0.475-1.759s0.155-1.239,0.469-1.767c0.313-0.526,0.739-0.943,1.284-1.251
		c0.543-0.309,1.148-0.463,1.816-0.463s1.273,0.154,1.817,0.463c0.543,0.308,0.972,0.725,1.284,1.251
		c0.313,0.527,0.469,1.116,0.469,1.767s-0.156,1.236-0.469,1.759s-0.738,0.938-1.278,1.245
		C170.055,191.721,169.446,191.875,168.771,191.875z M168.771,190.347c0.352,0,0.665-0.086,0.943-0.257s0.502-0.404,0.668-0.699
		c0.167-0.295,0.251-0.624,0.251-0.982c0-0.369-0.084-0.698-0.251-0.989c-0.166-0.292-0.39-0.524-0.668-0.7
		c-0.278-0.175-0.592-0.263-0.943-0.263c-0.342,0-0.654,0.088-0.938,0.263c-0.282,0.176-0.506,0.408-0.668,0.7
		c-0.162,0.291-0.244,0.62-0.244,0.989c0,0.358,0.082,0.688,0.244,0.982s0.386,0.528,0.668,0.699
		C168.116,190.261,168.429,190.347,168.771,190.347z"/>
	<path fill="#1D1D1B" d="M175.251,191.746l-1.837-6.69h1.67l1.104,4.315l1.336-4.315H179l1.323,4.327l1.104-4.327h1.644l-1.85,6.69
		h-1.683l-1.296-4.275l-1.298,4.275H175.251z"/>
	<path fill="#1D1D1B" d="M186.694,191.862c-0.479,0-0.903-0.088-1.271-0.264s-0.655-0.417-0.86-0.725
		c-0.205-0.31-0.308-0.664-0.308-1.067c0-0.642,0.242-1.14,0.726-1.495s1.149-0.533,1.997-0.533c0.582,0,1.13,0.09,1.643,0.27
		v-0.487c0-0.386-0.119-0.676-0.358-0.874c-0.241-0.196-0.591-0.295-1.054-0.295c-0.282,0-0.586,0.045-0.912,0.136
		c-0.324,0.089-0.702,0.228-1.129,0.417l-0.643-1.298c0.53-0.239,1.038-0.42,1.521-0.539c0.483-0.12,0.969-0.18,1.457-0.18
		c0.9,0,1.6,0.216,2.1,0.648c0.501,0.432,0.752,1.042,0.752,1.83v4.34h-1.734v-0.475c-0.273,0.205-0.568,0.355-0.885,0.449
		C187.418,191.814,187.071,191.862,186.694,191.862z M185.924,189.77c0,0.256,0.111,0.46,0.334,0.609s0.518,0.225,0.887,0.225
		c0.29,0,0.561-0.036,0.808-0.109c0.249-0.072,0.472-0.182,0.668-0.327v-0.976c-0.214-0.085-0.436-0.15-0.668-0.192
		c-0.23-0.043-0.479-0.065-0.744-0.065c-0.403,0-0.717,0.076-0.943,0.225C186.037,189.309,185.924,189.513,185.924,189.77z"/>
</g>
</svg>
