<?xml version="1.0" encoding="utf-8"?>
<!-- Generator: Adobe Illustrator 16.0.0, SVG Export Plug-In . SVG Version: 6.00 Build 0)  -->
<!DOCTYPE svg PUBLIC "-//W3C//DTD SVG 1.1//EN" "http://www.w3.org/Graphics/SVG/1.1/DTD/svg11.dtd">
<svg version="1.1" id="Layer_1" xmlns="http://www.w3.org/2000/svg" xmlns:xlink="http://www.w3.org/1999/xlink" x="0px" y="0px"
	 width="480px" height="640px" viewBox="0 0 480 640" enable-background="new 0 0 480 640" xml:space="preserve">
<g>
	<g>
		<path d="M239.881,315.505c-12.093,0-21.888,9.798-21.888,21.889c0,12.09,9.794,21.888,21.888,21.888
			c12.09,0,21.89-9.798,21.89-21.888C261.771,325.303,251.971,315.505,239.881,315.505z"/>
		<path d="M361.026,77.323c-16.956-24.636-41.215-43.865-69.667-54.516l-7.832,14.171l-11.683,21.143l-10.617,19.202l-14.049,25.418
			c7.171,0.802,13.827,2.874,19.963,6.221c6.138,3.35,11.48,7.573,16.029,12.675c4.543,5.106,8.125,10.958,10.759,17.574
			c2.629,6.614,3.947,13.592,3.947,20.925c0,7.978-1.518,15.51-4.544,22.602c-3.033,7.093-7.177,13.274-12.436,18.534
			c-5.259,5.262-11.4,9.413-18.416,12.439c-7.015,3.027-14.51,4.538-22.478,4.538c-7.974,0-15.466-1.511-22.481-4.538
			c-7.015-3.026-13.153-7.178-18.413-12.439c-5.262-5.26-9.448-11.399-12.554-18.417c-3.106-7.012-4.662-14.507-4.662-22.478v-0.241
			c0-7.811,1.471-14.827,4.421-21.042c2.953-6.219,6.256-12.592,9.927-19.131l23.593-42.64l10.626-19.202l11.696-21.143
			l12.579-22.727c-4.923-0.5-9.905-0.757-14.955-0.757c-0.045,0-0.08,0.01-0.121,0.01v-0.01H93.11v63.828v406.842h146.548v-0.01
			c0.041,0,0.076,0.01,0.121,0.01c81.245,0,147.11-65.871,147.11-147.114c0-33.102-10.94-63.642-29.389-88.223
			c18.448-24.576,29.389-55.118,29.389-88.219C386.89,129.688,377.331,101.005,361.026,77.323z M239.881,395.377
			c-32.021,0-57.983-25.963-57.983-57.983c0-32.025,25.961-57.981,57.983-57.981c32.027,0,57.979,25.956,57.979,57.981
			C297.86,369.414,271.908,395.377,239.881,395.377z"/>
		<path d="M224.367,144.71c-2,1.995-3.565,4.304-4.684,6.939c-1.124,2.626-1.684,5.463-1.684,8.486v0.241
			c0,6.059,2.122,11.16,6.368,15.304c4.255,4.152,9.423,6.222,15.514,6.222c6.094,0,11.261-2.112,15.51-6.336
			c4.246-4.229,6.374-9.368,6.374-15.431c0-6.056-2.128-11.194-6.374-15.426c-4.249-4.218-9.417-6.334-15.51-6.334
			c-3.049,0-5.891,0.564-8.537,1.674C228.699,141.164,226.374,142.72,224.367,144.71z"/>
		<path d="M101.475,566.479c0.81-0.58,1.807-0.873,2.989-0.873c0.869,0,1.641,0.125,2.317,0.358c0.673,0.239,1.309,0.62,1.909,1.139
			l2.772-3.425c-0.772-0.723-1.759-1.298-2.972-1.726c-1.213-0.425-2.433-0.634-3.656-0.634c-2.112,0-3.962,0.479-5.551,1.445
			c-1.584,0.963-2.819,2.313-3.699,4.041c-0.883,1.73-1.324,3.758-1.324,6.08c0,2.178,0.4,4.079,1.2,5.709
			c0.797,1.626,1.915,2.896,3.356,3.808c1.443,0.912,3.116,1.368,5.024,1.368c1.556,0,2.941-0.316,4.151-0.948
			c1.213-0.633,2.17-1.493,2.861-2.583c0.695-1.084,1.042-2.313,1.042-3.683c0-1.285-0.312-2.428-0.934-3.42
			c-0.62-0.999-1.48-1.771-2.579-2.336c-1.102-0.557-2.366-0.837-3.795-0.837c-1.076,0-2.105,0.271-3.077,0.806
			c-0.979,0.541-1.807,1.299-2.49,2.271c0-1.593,0.207-2.939,0.623-4.042C100.055,567.903,100.668,567.06,101.475,566.479z
			 M101.308,574.191c0.755-0.331,1.581-0.497,2.47-0.497c0.687,0,1.279,0.125,1.791,0.376c0.504,0.248,0.905,0.592,1.197,1.042
			c0.29,0.444,0.435,0.959,0.435,1.538c0,0.58-0.162,1.1-0.482,1.555c-0.32,0.456-0.753,0.814-1.292,1.072
			c-0.538,0.261-1.149,0.389-1.836,0.389c-0.683,0-1.315-0.166-1.897-0.495c-0.58-0.329-1.072-0.808-1.476-1.417
			c-0.402-0.612-0.71-1.335-0.917-2.159C99.881,574.991,100.548,574.528,101.308,574.191z"/>
		<path d="M127.904,583.771c1.972,0,3.696-0.465,5.179-1.396c1.484-0.935,2.633-2.246,3.453-3.935
			c0.819-1.69,1.229-3.655,1.229-5.896c0-2.262-0.41-4.229-1.229-5.908c-0.819-1.682-1.969-2.985-3.453-3.92
			c-1.483-0.934-3.207-1.397-5.179-1.397c-1.969,0-3.697,0.464-5.176,1.397c-1.484,0.935-2.633,2.238-3.453,3.92
			c-0.818,1.679-1.229,3.646-1.229,5.908c0,2.24,0.41,4.205,1.229,5.896c0.82,1.688,1.969,3,3.453,3.935
			C124.207,583.306,125.935,583.771,127.904,583.771z M123.565,568.859c0.407-1.026,0.976-1.814,1.713-2.364
			c0.733-0.549,1.609-0.824,2.626-0.824s1.893,0.275,2.63,0.824c0.733,0.55,1.305,1.338,1.711,2.364
			c0.403,1.03,0.603,2.254,0.603,3.686c0,1.41-0.2,2.634-0.603,3.672c-0.406,1.035-0.979,1.83-1.711,2.378
			c-0.737,0.547-1.613,0.822-2.63,0.822s-1.893-0.275-2.626-0.822c-0.737-0.548-1.306-1.343-1.713-2.378
			c-0.402-1.038-0.606-2.262-0.606-3.672C122.959,571.113,123.163,569.89,123.565,568.859z"/>
		<polygon points="160.001,561.657 154.653,561.657 154.653,583.429 171.478,583.429 171.478,578.703 160.001,578.703 		"/>
		<path d="M195.081,583.429h5.786l-8.8-21.771h-6.125l-8.93,21.771h5.57l2.019-5.252h8.491L195.081,583.429z M186.22,573.916
			l2.674-6.97l2.611,6.97H186.22z"/>
		<polygon points="215.196,583.429 215.196,566.39 222.316,566.39 222.316,561.657 202.721,561.657 202.721,566.39 209.844,566.39 
			209.844,583.429 		"/>
		<path d="M111.911,607.596c-1.049-0.996-2.265-1.771-3.653-2.334c-1.391-0.559-2.893-0.838-4.513-0.838h-8.831v21.769h8.831
			c1.62,0,3.122-0.28,4.513-0.837c1.389-0.56,2.604-1.335,3.653-2.314c1.047-0.985,1.867-2.132,2.457-3.441
			c0.591-1.305,0.886-2.714,0.886-4.229c0-1.536-0.295-2.963-0.886-4.292C113.778,609.751,112.958,608.591,111.911,607.596z
			 M109.252,617.749c-0.311,0.737-0.747,1.387-1.305,1.948c-0.563,0.557-1.21,0.993-1.947,1.305
			c-0.734,0.312-1.528,0.467-2.379,0.467h-3.36v-12.317h3.36c0.851,0,1.645,0.16,2.379,0.48c0.737,0.323,1.384,0.765,1.947,1.324
			c0.558,0.56,0.994,1.218,1.305,1.972c0.311,0.76,0.466,1.573,0.466,2.443C109.718,616.222,109.563,617.016,109.252,617.749z"/>
		<path d="M139.321,607.596c-1.048-0.996-2.265-1.771-3.655-2.334c-1.388-0.559-2.89-0.838-4.51-0.838h-8.832v21.769h8.832
			c1.621,0,3.122-0.28,4.51-0.837c1.391-0.56,2.607-1.335,3.655-2.314c1.048-0.985,1.867-2.132,2.458-3.441
			c0.59-1.305,0.886-2.714,0.886-4.229c0-1.536-0.295-2.963-0.886-4.292C141.188,609.751,140.369,608.591,139.321,607.596z
			 M136.662,617.749c-0.311,0.737-0.746,1.387-1.309,1.948c-0.559,0.557-1.206,0.993-1.942,1.305
			c-0.737,0.312-1.528,0.467-2.379,0.467h-3.36v-12.317h3.36c0.851,0,1.642,0.16,2.379,0.48c0.736,0.323,1.384,0.765,1.942,1.324
			c0.563,0.56,0.998,1.218,1.309,1.972c0.312,0.76,0.467,1.573,0.467,2.443C137.129,616.222,136.974,617.016,136.662,617.749z"/>
		<path d="M155.371,604.424l-8.927,21.769h5.567l2.022-5.252h8.49l1.991,5.252h5.786l-8.803-21.769H155.371z M155.65,616.68
			l2.675-6.968l2.613,6.968H155.65z"/>
		<path d="M201.899,615.029c0.765-0.538,1.375-1.196,1.819-1.975c0.445-0.777,0.67-1.612,0.67-2.501
			c0-1.205-0.324-2.268-0.965-3.189c-0.645-0.924-1.531-1.646-2.658-2.161c-1.131-0.519-2.442-0.779-3.935-0.779h-10.794v21.769
			h11.321c1.534,0,2.883-0.269,4.042-0.805c1.163-0.541,2.064-1.293,2.706-2.26c0.645-0.96,0.965-2.071,0.965-3.34
			c0-0.994-0.286-1.908-0.854-2.738C203.645,616.222,202.874,615.548,201.899,615.029z M191.387,608.808h5.101
			c0.788,0,1.41,0.193,1.864,0.578c0.458,0.382,0.687,0.906,0.687,1.57c0,0.641-0.229,1.159-0.687,1.557
			c-0.454,0.392-1.076,0.592-1.864,0.592h-5.101V608.808z M198.929,621.185c-0.485,0.42-1.146,0.624-1.975,0.624h-5.567v-4.602
			h5.567c0.83,0,1.49,0.21,1.975,0.622c0.486,0.415,0.731,0.975,0.731,1.681C199.66,620.215,199.416,620.772,198.929,621.185z"/>
		<polygon points="217.698,617.454 225.507,617.454 225.507,612.979 217.698,612.979 217.698,609.058 229.519,609.058 
			229.519,604.424 212.351,604.424 212.351,626.192 229.642,626.192 229.642,621.563 217.698,621.563 		"/>
		<path d="M242.742,610.796c0.56-0.555,1.217-0.994,1.976-1.321c0.756-0.319,1.569-0.478,2.442-0.478c1.1,0,2.119,0.238,3.063,0.715
			c0.943,0.477,1.797,1.2,2.569,2.179l3.604-3.549c-0.664-0.868-1.486-1.618-2.471-2.254c-0.984-0.632-2.061-1.123-3.221-1.478
			c-1.161-0.352-2.343-0.526-3.544-0.526c-1.639,0-3.169,0.283-4.589,0.854c-1.419,0.57-2.665,1.363-3.731,2.379
			c-1.067,1.013-1.899,2.205-2.487,3.563c-0.594,1.356-0.89,2.834-0.89,4.43c0,1.576,0.295,3.043,0.89,4.398
			c0.588,1.359,1.413,2.551,2.471,3.563c1.058,1.018,2.296,1.812,3.716,2.379c1.419,0.57,2.959,0.854,4.62,0.854
			c1.16,0,2.313-0.173,3.452-0.51c1.14-0.345,2.195-0.831,3.173-1.462c0.972-0.631,1.791-1.377,2.455-2.228l-3.513-3.45
			c-0.728,0.892-1.54,1.563-2.442,2.021c-0.903,0.457-1.883,0.687-2.94,0.687c-0.913,0-1.756-0.154-2.535-0.466
			c-0.778-0.312-1.451-0.754-2.02-1.324c-0.572-0.569-1.016-1.232-1.336-1.992c-0.325-0.756-0.484-1.578-0.484-2.471
			c0-0.91,0.157-1.753,0.464-2.518C241.745,612.022,242.183,611.361,242.742,610.796z"/>
		<polygon points="280.079,608.031 280.079,604.424 261.946,604.424 261.946,609.058 273.112,609.058 261.854,622.589 
			261.854,626.192 280.171,626.192 280.171,621.563 268.85,621.563 		"/>
		<polygon points="307.734,604.424 301.265,604.424 292.461,613.941 292.461,604.424 287.111,604.424 287.111,626.192 
			292.461,626.192 292.461,616.212 301.201,626.192 308.293,626.192 297.654,614.655 		"/>
		<path d="M321.997,604.424l-8.931,21.769h5.57l2.021-5.252h8.491l1.988,5.252h5.787l-8.8-21.769H321.997z M322.276,616.68
			l2.673-6.968l2.611,6.968H322.276z"/>
	</g>
</g>
</svg>
