<?xml version="1.0" encoding="utf-8"?>
<!-- Generator: Adobe Illustrator 16.0.0, SVG Export Plug-In . SVG Version: 6.00 Build 0)  -->
<!DOCTYPE svg PUBLIC "-//W3C//DTD SVG 1.1//EN" "http://www.w3.org/Graphics/SVG/1.1/DTD/svg11.dtd">
<svg version="1.1" id="Layer_1" xmlns="http://www.w3.org/2000/svg" xmlns:xlink="http://www.w3.org/1999/xlink" x="0px" y="0px"
	 width="227.94px" height="150px" viewBox="0 0 227.94 150" enable-background="new 0 0 227.94 150" xml:space="preserve">
<rect x="-260.94" y="-527" display="none" fill="#B74EDE" width="1001" height="856"/>
<g>
	<path d="M95.633,93.698c-1.349-1.119-4.247-2.93-6.024-4.147c-1.152-0.789-1.91,0.396-1.284-3.653
		c3.094-19.818-12.905-6.124-16-6.19c0,0,2.962-3.423,4.083-6.88c0.526-1.679,0.592-3.391,0.56-4.708c0-0.131-0.034-2.402,0-2.402
		C103.995,65.486,95.831,93.863,95.633,93.698"/>
	<g>
		<path id="SVGID_1_" d="M97.938,67.758v0.791c0,0.131,0,0.098,0.296-0.067c0.296-0.164,0.889-0.428,1.416-0.657
			c0.526-0.23,1.021-0.396,1.481-0.593c0.461-0.198,0.889-0.396,1.415-0.593c0.527-0.23,1.153-0.494,1.976-0.79
			c0.823-0.297,1.811-0.691,2.304-0.855c0.494-0.198,0.494-0.198,0.527-0.198l-0.132,0.033c-0.131,0.032-0.362,0.099-1.185,0.296
			c-0.791,0.231-2.173,0.593-3.325,0.955c-1.186,0.362-2.173,0.691-2.897,0.954c-0.725,0.264-1.152,0.428-1.416,0.527
			c-0.263,0.099-0.329,0.131-0.362,0.164C97.971,67.758,97.938,67.758,97.938,67.758"/>
	</g>
	<g>
		<path id="SVGID_3_" d="M97.938,69.009v0.099c0,0.099,0,0.23,0.033,0.428c0,0.198,0.033,0.395,0.033,0.494v0.099l0.79-0.493
			c0.791-0.494,2.338-1.449,3.885-2.305c1.514-0.855,3.029-1.613,3.786-1.975c0.757-0.396,0.79-0.396,0.79-0.396
			s0.033-0.033-0.329,0.099c-0.362,0.131-1.086,0.395-1.876,0.691c-0.823,0.329-1.679,0.725-2.535,1.086
			c-0.856,0.362-1.679,0.725-2.271,1.021c-0.592,0.262-0.987,0.46-1.284,0.592s-0.494,0.264-0.658,0.329
			c-0.132,0.065-0.231,0.131-0.296,0.131C97.971,69.009,97.971,69.009,97.938,69.009"/>
	</g>
	<g>
		<g>
			<path id="SVGID_5_" d="M84.474,75.362c0.099-0.033,0.132-0.033,0.296-0.033s0.46,0.033,0.691,0.1
				c0.263,0.065,0.494,0.164,0.592,0.229c0.132,0.065,0.165,0.099,0.198,0.099l0.033,0.034l-0.198,0.131
				c-0.197,0.132-0.56,0.362-0.954,0.725c-0.395,0.362-0.791,0.822-1.119,1.448c-0.297,0.626-0.527,1.383-0.494,2.403
				c0.033,1.02,0.263,2.337,0.856,4.213c0.592,1.91,1.514,4.411,2.633,6.749c1.152,2.337,2.502,4.478,3.193,5.597
				s0.724,1.186,0.757,1.218c0,0.033,0.033,0.033,0.033,0.033h-9.316v-0.79v-3.095v-1.909v-5.201c0-1.812-0.033-3.127-0.033-4.246
				c0-1.12,0.033-2.009,0.198-2.931c0.131-0.889,0.395-1.811,0.658-2.469c0.296-0.658,0.625-1.086,0.921-1.383
				c0.264-0.297,0.494-0.493,0.659-0.658C84.243,75.494,84.375,75.396,84.474,75.362"/>
		</g>
	</g>
	<g>
		<g>
			<path id="SVGID_7_" d="M86.548,78.588c-0.264,0.429-0.362,0.988-0.33,1.516c0,0.526,0.131,0.986,0.23,1.349
				s0.197,0.593,0.428,1.219c0.231,0.625,0.626,1.646,1.416,2.897c0.758,1.25,1.942,2.698,2.832,3.719
				c0.889,1.021,1.547,1.548,2.239,2.239c0.724,0.691,1.514,1.514,2.864,2.666s3.292,2.634,4.28,3.391l0.988,0.758h-9.35
				c0,0-0.033-0.033-0.955-1.416c-0.955-1.416-2.831-4.182-4.115-6.749c-1.284-2.535-2.008-4.839-2.469-6.353
				c-0.461-1.515-0.659-2.306-0.724-3.095c-0.066-0.79,0.065-1.613,0.362-2.305s0.823-1.251,1.251-1.646
				c0.428-0.362,0.724-0.559,1.054-0.757c0.065,0.065,0.164,0.131,0.263,0.23l0.329,0.33c0.099,0.098,0.165,0.196,0.23,0.329
				c0.099,0.131,0.197,0.295,0.264,0.395c0.065,0.099,0.065,0.132,0.065,0.132c0,0.032-0.033,0.032-0.264,0.197
				C87.239,77.831,86.811,78.128,86.548,78.588"/>
		</g>
	</g>
	<g>
		<path d="M90.992,56.335c1.712,1.383,3.029,0.79,4.412,0.131c2.765-1.383,4.905-4.839,4.905-4.806
			c0.198,0.297-1.876,11.785-2.008,12.477c-3.095,19.817,12.904,6.123,15.999,6.188c0,0-2.963,3.424-4.082,6.88
			c-0.527,1.68-0.593,3.392-0.56,4.708c0,0.132,0.033,2.403,0,2.403C82.663,84.547,90.794,56.17,90.992,56.335"/>
	</g>
	<g>
		<path d="M148.305,64.564c0.296-0.296,0.626-0.725,0.626-1.152c0-1.218-0.757-1.612-2.832-1.612h-2.106
			c0,0,0.066,2.106,0.066,3.061c0,1.317-0.033,3.029-0.033,3.029h2.041c2.041,0,3.391-0.494,3.391-1.877
			C149.458,65.157,148.997,64.762,148.305,64.564L148.305,64.564z M146.067,63.083c0.659,0,1.119,0.032,1.119,0.527
			c0,0.264-0.099,0.559-0.23,0.822c-0.395,0-0.889,0.065-0.889,0.065S146.034,63.544,146.067,63.083z M146.067,66.671v-1.218
			c0.79-0.065,1.35-0.032,1.35,0.594C147.417,66.704,146.626,66.738,146.067,66.671z M143.104,61.931l-1.745-0.131
			c-0.296,0.658-1.086,1.876-1.581,2.601h-0.362c0.033-1.021,0.099-2.568,0.099-2.568v-0.065h-2.107v0.099
			c0,0.296,0.066,2.041,0.066,2.896c0,1.054-0.033,2.404-0.033,2.799v0.264h1.975v-0.165c0-0.955-0.033-1.712-0.033-2.437
			c0.428,0.691,1.383,2.272,1.777,2.602l2.173-0.264c-0.592-0.626-1.613-2.107-2.206-2.896
			C141.952,63.577,143.104,61.931,143.104,61.931L143.104,61.931z M152.717,61.832c-1.778,0-2.897,1.021-2.897,3.028
			c0,1.976,1.119,3.029,2.897,3.029s2.897-1.054,2.897-3.029C155.614,62.853,154.495,61.832,152.717,61.832L152.717,61.832z
			 M152.717,66.639c-0.592,0-0.922-0.592-0.922-1.811c0-1.251,0.264-1.745,0.857-1.745c0.658,0,0.954,0.791,0.954,1.844
			S153.375,66.639,152.717,66.639z"/>
	</g>
	<g>
		<path d="M123.945,66.079l-1.811,3.785h2.732l2.501-3.556C126.25,66.211,123.945,66.079,123.945,66.079 M123.155,74.539
			c0-0.855,0.494-1.119,1.218-1.119c1.317,0,2.864,0.855,2.864,0.855l0.823-2.469c0,0-1.613-1.086-3.752-1.086
			c-2.765,0-5.004,1.679-5.004,4.017c0,4.114,5.102,4.181,5.102,5.893c0,0.56-0.329,0.922-1.217,0.922
			c-1.449,0-3.062-0.988-3.062-0.988l-0.856,2.568c0,0,1.481,1.119,3.983,1.119c2.765,0,5.07-1.383,5.07-3.918
			C128.291,76.317,123.155,75.922,123.155,74.539L123.155,74.539z M134.874,81.452h-1.218v-3.521c0-0.955,0.034-2.371,0.034-3.754
			h1.086c1.382,0,1.909,1.416,1.909,3.819C136.685,80.398,136.257,81.452,134.874,81.452 M133.887,71.379h-4.51
			c0,0,0.132,4.478,0.132,6.485c0,2.798-0.066,6.419-0.066,6.419h4.28c5.168,0,7.309-2.106,7.309-6.419
			C141.031,73.321,138.594,71.379,133.887,71.379L133.887,71.379z M155.581,71.379h-3.753c-0.56,1.119-2.437,5.069-2.93,6.09
			c-0.79-1.317-2.403-5.233-2.963-6.09h-4.082c0,0,0.131,4.478,0.131,6.485c0,2.798-0.098,6.419-0.098,6.419h3.029
			c0-2.567-0.033-4.839-0.033-6.781c1.119,1.811,2.732,4.971,3.16,5.498c0.79-1.284,2.305-3.819,3.16-5.366
			c0,2.699-0.099,6.649-0.099,6.617h4.28c0-2.371-0.033-4.642-0.033-6.354C155.383,75.89,155.581,71.379,155.581,71.379"/>
	</g>
</g>
</svg>
