<?xml version="1.0" encoding="utf-8"?>
<!-- Generator: Adobe Illustrator 16.0.0, SVG Export Plug-In . SVG Version: 6.00 Build 0)  -->
<!DOCTYPE svg PUBLIC "-//W3C//DTD SVG 1.1//EN" "http://www.w3.org/Graphics/SVG/1.1/DTD/svg11.dtd">
<svg version="1.1" id="Layer_1" xmlns="http://www.w3.org/2000/svg" xmlns:xlink="http://www.w3.org/1999/xlink" x="0px" y="0px"
	 width="227.94px" height="150px" viewBox="0 0 227.94 150" enable-background="new 0 0 227.94 150" xml:space="preserve">
<rect x="-508.88" y="-17" display="none" fill="#B74EDE" width="1001" height="856"/>
<g>
	<path fill="#FFFFFF" d="M119.12,77.335l0.361,0.019c3.454,0,5.055-2.008,5.055-4.231c-0.002-2.186-1.738-4.123-5.012-4.123h-3.404
		v12h3V77.335z M119.12,71h0.534c1.466,0,2.199,0.52,2.302,1.978c-0.09,1.513-0.948,2.022-2.421,2.022h-0.415V71z"/>
	<polygon fill="#FFFFFF" points="110.857,68 108.009,68 105.095,74.862 104.99,75.361 104.888,74.82 101.975,68 99.128,68 
		104.99,81.201 	"/>
	<polygon fill="#FFFFFF" points="88.12,81 91.12,81 91.12,71 95.12,71 95.12,69 85.12,69 85.12,71 88.12,71 	"/>
	<path fill="#FFFFFF" d="M138.616,85h5.504V63.301l-9,4.67v5.486l3.783-2.317C138.962,75.763,138.938,77,138.616,85z"/>
	<path fill="#FFFFFF" d="M128.12,65h-46v20h46V65z M97.12,84h-14V65h14V84z M112.12,84h-14V65h14V84z M127.12,84h-14V65h14V84z"/>
	<path d="M73.12,90h81V60h-81V90z M135.12,67.971l9-4.67V85h-5.504c0.321-8,0.346-9.237,0.287-13.86l-3.783,2.317V67.971z M82.12,65
		h46v20h-46V65z"/>
	<path d="M113.12,84h14V65h-14V84z M116.12,69h3.404c3.273,0,4.913,1.937,4.915,4.123c0,2.223-1.504,4.347-4.958,4.347l-0.361-0.135
		V81h-3V69z"/>
	<path d="M98.12,84h14V65h-14V84z M101.975,68l2.913,6.869l0.103,0.493l0.104-0.547L108.009,68h2.849l-5.867,13.201L99.128,68
		H101.975z"/>
	<path d="M83.12,84h14V65h-14V84z M85.12,69h10v2h-4v10h-3V71h-3V69z"/>
	<path d="M121.956,72.978C121.854,71.52,121.12,71,119.654,71h-0.534v4h0.415C121.008,75,121.866,74.49,121.956,72.978z"/>
</g>
</svg>
