<?xml version="1.0" encoding="utf-8"?>
<!-- Generator: Adobe Illustrator 16.0.0, SVG Export Plug-In . SVG Version: 6.00 Build 0)  -->
<!DOCTYPE svg PUBLIC "-//W3C//DTD SVG 1.1//EN" "http://www.w3.org/Graphics/SVG/1.1/DTD/svg11.dtd">
<svg version="1.1" id="Layer_1" xmlns="http://www.w3.org/2000/svg" xmlns:xlink="http://www.w3.org/1999/xlink" x="0px" y="0px"
	 width="227.94px" height="150px" viewBox="0 0 227.94 150" enable-background="new 0 0 227.94 150" xml:space="preserve">
<rect x="-508.88" y="-187" display="none" fill="#B74EDE" width="1001" height="856"/>
<g>
	<path d="M94.441,82.569c-0.825-0.838-2.282-1.216-3.145-1.216c-1.364,0-2.499,0.5-3.042,0.74c0,0-0.156,0.063-0.213,0.088
		c-0.003-0.097-0.282-24.106-0.282-24.106l-0.032-4.048h-0.552c0,0-0.278,28.058-0.28,28.154c-0.057-0.024-0.213-0.088-0.213-0.088
		c-0.544-0.24-1.678-0.74-3.043-0.74c-0.861,0-2.32,0.378-3.145,1.216c-0.591,0.603-0.884,1.34-0.87,2.191
		c0.021,1.638,0.775,3.702,1.059,4.478l0.027,0.074c0.382,1.036,1.218,2.794,1.957,4.348l1.298,2.313h0.021h2.467l-0.091-0.059
		c-0.991-0.646-4.15-4.313-4.723-7.742c-0.37-2.23-0.164-3.837,0.608-4.78c0.528-0.642,1.301-0.968,2.367-1
		c0.434-0.011,1.091,0.19,1.587,0.673c0.426,0.412,0.649,0.963,0.649,1.587c0,1.084,0,1.383-0.105,3.237
		c-0.055,0.004-3.592,0.324-3.592,0.324v0.73c0,0,3.537,0.297,3.592,0.301c0.002,0.056,0.323,5.648,0.323,5.648h0.774
		c0,0,0.323-5.593,0.327-5.648c0.053-0.004,3.612-0.301,3.612-0.301v-0.73c0,0-3.56-0.32-3.612-0.324
		c-0.108-1.854-0.108-2.099-0.108-3.237c0-0.617,0.227-1.166,0.654-1.58c0.499-0.486,1.154-0.69,1.583-0.68
		c1.074,0.032,1.853,0.362,2.383,1.01c0.771,0.943,0.971,2.548,0.594,4.771c-0.572,3.439-3.717,7.101-4.701,7.742l-0.092,0.059
		h2.464l1.196-2.077c0.744-1.56,1.668-3.494,2.083-4.581c0-0.002,0.028-0.074,0.028-0.074c0.281-0.777,1.033-2.842,1.055-4.479
		C95.326,83.909,95.032,83.172,94.441,82.569"/>
	<path d="M157.711,70.626c1.363,0,2.162,1.175,2.115,3.021l-4.82,0.239C155.335,71.657,156.511,70.626,157.711,70.626
		 M151.854,75.229c0,4.243,2.846,6.16,6.187,6.16c1.363,0,2.821-0.313,4.373-0.983l-0.47-2.203
		c-3.717,1.462-6.821,1.222-7.032-2.544h7.856c0.353-4.291-1.295-7.095-5.034-7.095C154.793,68.564,151.854,70.793,151.854,75.229
		 M141.174,81.103h9.456l0.188-2.374h-5.974l2.445-2.925l3.528-4.58v-2.372h-9.479l-0.165,2.372h5.952l-2.424,2.926l-3.528,4.579
		V81.103z M130.989,75.182c0-2.615,1.2-4.269,3.127-4.269c0.659,0,1.365,0.167,2.165,0.527v6.401
		c-1.034,0.744-1.999,1.128-2.801,1.128C131.93,78.97,130.989,77.554,130.989,75.182 M127.79,75.182
		c0,4.195,2.164,6.208,4.634,6.208c1.271,0,2.658-0.55,3.857-1.63l0.142,1.343h2.963V62.428l-3.104,0.551v6.064
		c-0.941-0.311-1.835-0.479-2.683-0.479C130.283,68.564,127.79,71.032,127.79,75.182 M117.699,74.989
		c0-2.518,1.224-4.172,2.987-4.172c1.739,0,2.965,1.654,2.965,4.172c0,2.494-1.226,4.146-2.965,4.146
		C118.923,79.136,117.699,77.483,117.699,74.989 M114.501,74.989c0,3.837,2.61,6.4,6.186,6.4c3.552,0,6.162-2.563,6.162-6.4
		c0-3.836-2.61-6.425-6.162-6.425C117.111,68.564,114.501,71.153,114.501,74.989 M106.433,81.103h3.104v-7.12
		c1.06-1.606,2.634-2.35,4.61-2.325l-0.519-3.213c-1.952,0.192-3.34,1.438-4.092,3.213l-0.094-3.093l-3.011,0.552V81.103z
		 M95.636,75.182c0-2.615,1.2-4.269,3.128-4.269c0.658,0,1.364,0.167,2.163,0.527v6.401c-1.033,0.744-1.998,1.128-2.798,1.128
		C96.576,78.97,95.636,77.554,95.636,75.182 M92.437,75.182c0,4.195,2.164,6.208,4.635,6.208c1.27,0,2.656-0.55,3.855-1.63
		l0.141,1.343h2.965V62.428l-3.105,0.551v6.064c-0.941-0.311-1.834-0.479-2.68-0.479C94.929,68.564,92.437,71.032,92.437,75.182
		 M65.127,68.852l3.576,12.251h3.364l1.174-4.604l0.942-3.933l0.941,3.933l1.198,4.604h3.34l3.6-12.251H80.11l-1.2,5.658
		l-0.869,3.956L77.17,74.51l-1.292-5.658h-3.247l-1.294,5.658l-0.894,3.956l-0.846-3.956l-1.247-5.658H65.127z"/>
	<path d="M154.47,83.896l-0.079-0.08l-2.198,0.403l-0.061,0.335l0.642,0.216l-1.232,7.051h1.539l0.333-1.902l0.406-0.335h0.039
		c0.72,1.771,1.241,2.354,1.825,2.354c0.452,0,1.093-0.402,1.438-1.24l-0.236-0.188c-0.188,0.209-0.326,0.307-0.435,0.307
		c-0.307,0-0.838-0.819-1.391-2.229l1.352-1.114l0.788-0.344l0.069-0.355h-2.129l-0.061,0.355l0.633,0.344l-1.48,1.282l-0.681,0.612
		l-0.039-0.021L154.47,83.896z M150.723,86.733l-0.08-0.08l-2.198,0.405l-0.057,0.335l0.641,0.217l-0.563,3.244
		c-0.118,0.651,0.246,1.084,0.984,1.084c0.386,0,0.927-0.107,1.429-0.364l0.07-0.337c-0.809,0.118-1.006,0.012-0.937-0.392
		L150.723,86.733z M149.381,85.234c0,0.442,0.287,0.769,0.71,0.769c0.532,0,1.035-0.464,1.035-1.043c0-0.445-0.284-0.77-0.709-0.77
		C149.886,84.19,149.381,84.652,149.381,85.234 M145.223,90.854c-0.12,0.651,0.245,1.084,0.985,1.084
		c0.385,0,0.926-0.107,1.428-0.364l0.07-0.337c-0.808,0.118-1.006,0.012-0.938-0.392l0.455-2.623
		c0.177-1.006-0.167-1.567-0.906-1.567c-0.613,0-1.392,0.424-2.03,1.223l-0.04-0.022l0.225-1.122l-0.078-0.078l-2.197,0.403
		l-0.061,0.335l0.641,0.217l-0.729,4.211h1.537l0.613-3.481c0.443-0.474,0.857-0.75,1.144-0.75c0.315,0,0.413,0.218,0.326,0.7
		L145.223,90.854z M141.316,90.046h-0.363c-0.112,0.483-0.297,0.633-0.465,0.633c-0.335,0-1.32-0.452-1.784-0.563l0.75-0.69
		l2.395-2.325l-0.335-0.326c-0.533,0.523-1.854,0.236-3.51-0.216l-0.375,0.216l-0.316,1.726h0.366l0.385-0.492
		c0.68,0.156,1.519,0.246,2.217-0.078l0.03,0.038l-1.222,1.183l-2.495,2.437l0.345,0.343l0.652-0.648
		c1.055,0.158,2.217,0.758,2.661,0.758C141.308,92.038,141.366,90.954,141.316,90.046 M133.744,89.643
		c0-1.045,0.552-2.387,1.399-2.602l0.759,1.509h0.376c0.256-0.357,0.373-0.69,0.373-0.978c0-0.552-0.433-0.917-1.271-0.917
		c-1.963,0-3.322,1.558-3.322,3.204c0,1.46,0.847,2.079,2.002,2.079c0.767,0,1.637-0.481,2.138-1.082l-0.089-0.267
		c-0.514,0.246-0.975,0.364-1.351,0.364C134.039,90.954,133.744,90.374,133.744,89.643 M129.878,87.088
		c0.199,0,0.356,0.168,0.356,0.542c0,0.504-0.365,1.332-1.687,1.618C128.688,88.113,129.346,87.088,129.878,87.088 M130.934,90.59
		c-0.512,0.246-0.974,0.364-1.389,0.364c-0.721,0-1.017-0.543-1.017-1.272v-0.059c2.22-0.101,3.125-0.996,3.125-1.914
		c0-0.603-0.462-1.054-1.518-1.054c-1.845,0-3.252,1.598-3.252,3.204c0,1.46,0.846,2.079,1.999,2.079
		c0.236,0,0.494-0.05,0.741-0.127l0.009,0.01c-0.778,0.474-1.242,0.994-1.242,1.548c0,0.523,0.385,0.739,0.849,0.739
		c0.372,0,0.788-0.128,1.123-0.375l-0.029-0.214c-0.643,0.155-0.858-0.041-0.858-0.389c0-0.609,0.485-1.31,1.164-1.892l-0.02,0.01
		c0.146-0.116,0.286-0.255,0.403-0.393L130.934,90.59z M126.152,86.733l-0.079-0.08l-2.197,0.405l-0.061,0.335l0.642,0.217
		l-0.562,3.244c-0.12,0.651,0.246,1.084,0.986,1.084c0.384,0,0.927-0.107,1.428-0.364l0.068-0.337
		c-0.809,0.118-1.005,0.012-0.937-0.392L126.152,86.733z M124.811,85.234c0,0.442,0.286,0.769,0.711,0.769
		c0.531,0,1.035-0.464,1.035-1.043c0-0.445-0.287-0.77-0.711-0.77C125.313,84.19,124.811,84.652,124.811,85.234 M120.226,91.938
		c1.44,0,2.563-0.816,2.563-1.762c0-1.472-2.176-1.431-2.176-2.349c0-0.453,0.442-0.759,1.025-0.839l0.708,1.313h0.374
		c0.198-0.258,0.336-0.554,0.336-0.811c0-0.482-0.504-0.837-1.508-0.837c-1.243,0-2.336,0.682-2.336,1.705
		c0,1.549,2.169,1.479,2.169,2.358c0,0.562-0.505,0.878-1.282,0.916l-0.71-1.341h-0.375c-0.216,0.286-0.334,0.552-0.334,0.798
		C118.68,91.576,119.122,91.938,120.226,91.938 M116.766,87.088c0.197,0,0.355,0.168,0.355,0.542c0,0.504-0.366,1.332-1.688,1.618
		C115.572,88.113,116.232,87.088,116.766,87.088 M117.821,90.59c-0.515,0.246-0.978,0.364-1.392,0.364
		c-0.72,0-1.016-0.543-1.016-1.272v-0.059c2.219-0.101,3.125-0.996,3.125-1.914c0-0.603-0.462-1.054-1.516-1.054
		c-1.847,0-3.256,1.598-3.256,3.204c0,1.46,0.849,2.079,2.003,2.079c0.768,0,1.636-0.481,2.139-1.082L117.821,90.59z
		 M113.038,86.733l-0.079-0.08l-2.197,0.405l-0.06,0.335l0.642,0.217l-0.562,3.244c-0.119,0.651,0.245,1.084,0.985,1.084
		c0.384,0,0.926-0.107,1.429-0.364l0.068-0.337c-0.809,0.118-1.006,0.012-0.935-0.392L113.038,86.733z M111.697,85.234
		c0,0.442,0.286,0.769,0.711,0.769c0.532,0,1.033-0.464,1.033-1.043c0-0.445-0.284-0.77-0.708-0.77
		C112.2,84.19,111.697,84.652,111.697,85.234 M104.401,91.821h1.538l0.612-3.481c0.433-0.474,0.847-0.75,1.114-0.75
		c0.295,0,0.403,0.218,0.313,0.7l-0.443,2.564c-0.117,0.651,0.248,1.084,0.985,1.084c0.386,0,0.929-0.107,1.432-0.364l0.069-0.337
		c-0.81,0.118-1.007,0.012-0.938-0.392l0.454-2.623c0.177-1.006-0.168-1.567-0.898-1.567c-0.591,0-1.371,0.424-2,1.223l-0.031-0.022
		c0.061-0.758-0.307-1.2-0.937-1.2c-0.591,0-1.37,0.424-2.002,1.223l-0.038-0.022l0.226-1.122l-0.079-0.078l-2.197,0.403
		l-0.06,0.335l0.64,0.217l-0.728,4.211h1.537l0.611-3.481c0.434-0.474,0.849-0.75,1.113-0.75c0.297,0,0.404,0.218,0.316,0.7
		L104.401,91.821z"/>
</g>
</svg>
