<?xml version="1.0" encoding="utf-8"?>
<!-- Generator: Adobe Illustrator 16.0.0, SVG Export Plug-In . SVG Version: 6.00 Build 0)  -->
<!DOCTYPE svg PUBLIC "-//W3C//DTD SVG 1.1//EN" "http://www.w3.org/Graphics/SVG/1.1/DTD/svg11.dtd">
<svg version="1.1" id="Layer_1" xmlns="http://www.w3.org/2000/svg" xmlns:xlink="http://www.w3.org/1999/xlink" x="0px" y="0px"
	 width="227.94px" height="150px" viewBox="0 0 227.94 150" enable-background="new 0 0 227.94 150" xml:space="preserve">
<rect x="-508.88" y="-527" display="none" fill="#B74EDE" width="1001" height="856"/>
<g>
	<path fill="#020A0A" d="M55.99,64.06v-2.15l-0.803,0.516v-1.256l0.803-0.523V56.86h1.49v2.867l1.822-1.17v1.266l-1.822,1.172v1.748
		h3.929v1.316H55.99z"/>
	<path fill="#020A0A" d="M64.778,64.163c-0.412,0-0.776-0.092-1.097-0.275c-0.319-0.18-0.569-0.432-0.752-0.754
		c-0.18-0.322-0.271-0.693-0.271-1.109v-3.322h1.408v3.117c0,0.342,0.102,0.615,0.303,0.82c0.203,0.205,0.476,0.309,0.817,0.309
		c0.233,0,0.445-0.045,0.634-0.139c0.188-0.092,0.344-0.225,0.468-0.395v-3.713h1.408v5.357h-1.408v-0.434
		C65.878,63.983,65.374,64.163,64.778,64.163z"/>
	<path fill="#020A0A" d="M69.389,64.06V56.86l1.408-0.236v4.33l2.313-2.252h1.595l-2.528,2.457l2.682,2.9H73.06l-2.263-2.447v2.447
		H69.389z"/>
	<path fill="#020A0A" d="M77.366,64.151c-0.385,0-0.724-0.07-1.019-0.211s-0.524-0.334-0.689-0.58
		c-0.164-0.248-0.247-0.533-0.247-0.854c0-0.516,0.194-0.914,0.581-1.199c0.388-0.283,0.921-0.428,1.6-0.428
		c0.467,0,0.904,0.074,1.316,0.219v-0.393c0-0.309-0.097-0.541-0.288-0.699c-0.191-0.156-0.474-0.234-0.844-0.234
		c-0.226,0-0.468,0.035-0.729,0.105c-0.262,0.074-0.563,0.186-0.904,0.336l-0.515-1.039c0.425-0.193,0.83-0.336,1.218-0.434
		c0.387-0.096,0.776-0.143,1.167-0.143c0.72,0,1.28,0.174,1.683,0.52c0.4,0.346,0.602,0.836,0.602,1.465v3.477h-1.389v-0.381
		c-0.221,0.164-0.455,0.285-0.709,0.359C77.945,64.114,77.667,64.151,77.366,64.151z M76.748,62.476c0,0.205,0.09,0.367,0.269,0.488
		c0.177,0.119,0.414,0.18,0.709,0.18c0.232,0,0.449-0.027,0.648-0.086c0.197-0.059,0.376-0.146,0.534-0.264v-0.779
		c-0.172-0.07-0.35-0.121-0.534-0.156c-0.187-0.033-0.386-0.051-0.598-0.051c-0.321,0-0.573,0.061-0.756,0.178
		C76.84,62.106,76.748,62.271,76.748,62.476z"/>
	<path fill="#020A0A" d="M83.998,64.163c-0.494,0-0.949-0.064-1.368-0.191c-0.418-0.127-0.78-0.311-1.089-0.549l0.697-0.938
		c0.311,0.205,0.605,0.359,0.892,0.463c0.283,0.102,0.565,0.154,0.848,0.154c0.315,0,0.567-0.053,0.756-0.16
		c0.188-0.105,0.283-0.244,0.283-0.416c0-0.137-0.055-0.246-0.159-0.328c-0.107-0.082-0.276-0.141-0.51-0.174l-1.028-0.156
		c-0.536-0.082-0.939-0.254-1.214-0.52c-0.273-0.264-0.412-0.611-0.412-1.043c0-0.35,0.092-0.648,0.274-0.9
		c0.181-0.248,0.438-0.445,0.771-0.584c0.333-0.143,0.728-0.213,1.188-0.213c0.389,0,0.772,0.055,1.146,0.166
		c0.372,0.107,0.724,0.277,1.053,0.502l-0.679,0.916c-0.295-0.186-0.575-0.318-0.842-0.4c-0.27-0.084-0.54-0.123-0.813-0.123
		c-0.254,0-0.459,0.049-0.612,0.145c-0.154,0.094-0.231,0.221-0.231,0.379c0,0.145,0.055,0.256,0.165,0.34
		c0.109,0.084,0.297,0.143,0.564,0.174l1.019,0.156c0.534,0.074,0.941,0.244,1.224,0.508s0.421,0.605,0.421,1.023
		c0,0.342-0.102,0.646-0.309,0.91c-0.204,0.264-0.482,0.473-0.832,0.625C84.852,64.085,84.451,64.163,83.998,64.163z"/>
	<path fill="#020A0A" d="M87.336,64.06v-0.998l2.696-3.178h-2.675v-1.182h4.474v0.996l-2.694,3.178h2.766v1.184H87.336z"/>
	<path fill="#020A0A" d="M97.146,64.06l-1.594-7.199h1.533l0.977,4.875l1.398-4.875h1.409l1.398,4.863l0.976-4.863h1.481
		l-1.583,7.199h-1.573l-1.419-5.02l-1.439,5.02H97.146z"/>
	<path fill="#020A0A" d="M106.735,58.063c-0.219,0-0.408-0.08-0.564-0.238c-0.157-0.154-0.236-0.346-0.236-0.563
		c0-0.227,0.079-0.418,0.236-0.57c0.156-0.156,0.346-0.232,0.564-0.232c0.228,0,0.417,0.076,0.571,0.232
		c0.154,0.152,0.23,0.344,0.23,0.57c0,0.217-0.076,0.408-0.23,0.563C107.152,57.983,106.963,58.063,106.735,58.063z M106.036,64.06
		v-5.357h1.409v5.357H106.036z"/>
	<path fill="#020A0A" d="M111.222,64.163c-0.494,0-0.951-0.064-1.368-0.191s-0.782-0.311-1.09-0.549l0.699-0.938
		c0.308,0.205,0.604,0.359,0.889,0.463c0.286,0.102,0.567,0.154,0.85,0.154c0.313,0,0.565-0.053,0.756-0.16
		c0.188-0.105,0.281-0.244,0.281-0.416c0-0.137-0.052-0.246-0.159-0.328c-0.105-0.082-0.274-0.141-0.508-0.174l-1.028-0.156
		c-0.535-0.082-0.939-0.254-1.214-0.52c-0.274-0.264-0.412-0.611-0.412-1.043c0-0.35,0.091-0.648,0.272-0.9
		c0.183-0.248,0.438-0.445,0.771-0.584c0.332-0.143,0.729-0.213,1.188-0.213c0.391,0,0.772,0.055,1.146,0.166
		c0.374,0.107,0.726,0.277,1.055,0.502l-0.679,0.916c-0.295-0.186-0.575-0.318-0.844-0.4c-0.267-0.084-0.538-0.123-0.813-0.123
		c-0.253,0-0.456,0.049-0.61,0.145c-0.154,0.094-0.231,0.221-0.231,0.379c0,0.145,0.055,0.256,0.164,0.34
		c0.108,0.084,0.299,0.143,0.565,0.174l1.019,0.156c0.534,0.074,0.942,0.244,1.224,0.508c0.28,0.264,0.421,0.605,0.421,1.023
		c0,0.342-0.103,0.646-0.308,0.91c-0.207,0.264-0.483,0.473-0.833,0.625C112.075,64.085,111.673,64.163,111.222,64.163z
		 M110.307,57.806l0.925-1.334h1.604l-1.388,1.334H110.307z"/>
	<path fill="#020A0A" d="M114.929,64.06v-5.357h1.41v0.441c0.403-0.363,0.903-0.545,1.5-0.545c0.419,0,0.787,0.092,1.104,0.273
		c0.32,0.182,0.568,0.432,0.746,0.75c0.179,0.318,0.268,0.691,0.268,1.115v3.322h-1.408v-3.117c0-0.348-0.1-0.623-0.299-0.826
		c-0.197-0.201-0.47-0.303-0.812-0.303c-0.241,0-0.453,0.045-0.638,0.139c-0.186,0.092-0.34,0.223-0.462,0.395v3.713H114.929z"/>
	<path fill="#020A0A" d="M122.303,58.063c-0.22,0-0.408-0.08-0.565-0.238c-0.158-0.154-0.237-0.346-0.237-0.563
		c0-0.227,0.079-0.418,0.237-0.57c0.157-0.156,0.346-0.232,0.565-0.232c0.226,0,0.415,0.076,0.569,0.232
		c0.154,0.152,0.231,0.344,0.231,0.57c0,0.217-0.077,0.408-0.231,0.563C122.718,57.983,122.528,58.063,122.303,58.063z
		 M121.604,64.06v-5.357h1.408v5.357H121.604z"/>
	<path fill="#020A0A" d="M127.29,64.163c-0.536,0-1.021-0.125-1.455-0.373c-0.437-0.246-0.78-0.578-1.034-0.996
		s-0.38-0.887-0.38-1.41c0-0.52,0.12-0.988,0.365-1.408c0.242-0.416,0.573-0.752,0.992-0.998c0.417-0.246,0.884-0.369,1.398-0.369
		c0.514,0,0.97,0.127,1.366,0.381c0.398,0.254,0.711,0.596,0.942,1.029c0.229,0.43,0.344,0.922,0.344,1.469v0.371h-3.97
		c0.062,0.213,0.163,0.404,0.305,0.576c0.139,0.172,0.315,0.305,0.524,0.4c0.208,0.096,0.432,0.145,0.673,0.145
		c0.24,0,0.46-0.037,0.663-0.113c0.201-0.076,0.376-0.182,0.519-0.318l0.927,0.842c-0.328,0.27-0.667,0.463-1.013,0.586
		C128.111,64.101,127.72,64.163,127.29,64.163z M125.839,60.851h2.602c-0.048-0.213-0.136-0.398-0.262-0.561
		c-0.128-0.162-0.278-0.287-0.453-0.381c-0.175-0.092-0.368-0.137-0.581-0.137c-0.22,0-0.417,0.045-0.596,0.133
		s-0.327,0.215-0.447,0.375S125.895,60.632,125.839,60.851z"/>
	<path fill="#020A0A" d="M132.091,64.06l-1.471-5.357h1.337l0.884,3.455l1.069-3.455h1.182l1.061,3.465l0.886-3.465h1.315
		l-1.481,5.357h-1.348l-1.037-3.426l-1.04,3.426H132.091z"/>
	<path fill="#020A0A" d="M141.53,64.163c-0.492,0-0.949-0.064-1.368-0.191c-0.418-0.127-0.78-0.311-1.089-0.549l0.699-0.938
		c0.309,0.205,0.604,0.359,0.89,0.463c0.283,0.102,0.567,0.154,0.848,0.154c0.315,0,0.567-0.053,0.756-0.16
		c0.189-0.105,0.283-0.244,0.283-0.416c0-0.137-0.055-0.246-0.159-0.328c-0.107-0.082-0.276-0.141-0.51-0.174l-1.028-0.156
		c-0.533-0.082-0.939-0.254-1.212-0.52c-0.274-0.264-0.412-0.611-0.412-1.043c0-0.35,0.091-0.648,0.272-0.9
		c0.181-0.248,0.438-0.445,0.771-0.584c0.333-0.143,0.728-0.213,1.188-0.213c0.391,0,0.772,0.055,1.146,0.166
		c0.374,0.107,0.724,0.277,1.055,0.502l-0.681,0.916c-0.293-0.186-0.575-0.318-0.842-0.4c-0.268-0.084-0.538-0.123-0.813-0.123
		c-0.254,0-0.458,0.049-0.612,0.145c-0.154,0.094-0.231,0.221-0.231,0.379c0,0.145,0.055,0.256,0.165,0.34
		c0.109,0.084,0.297,0.143,0.566,0.174l1.017,0.156c0.536,0.074,0.941,0.244,1.224,0.508s0.421,0.605,0.421,1.023
		c0,0.342-0.102,0.646-0.308,0.91c-0.205,0.264-0.483,0.473-0.833,0.625C142.384,64.085,141.983,64.163,141.53,64.163z"/>
	<path fill="#020A0A" d="M145.205,64.06V56.86l1.408-0.236v4.33l2.313-2.252h1.595l-2.53,2.457l2.684,2.9h-1.799l-2.263-2.447v2.447
		H145.205z"/>
	<path fill="#020A0A" d="M152.38,58.063c-0.22,0-0.409-0.08-0.565-0.238c-0.158-0.154-0.237-0.346-0.237-0.563
		c0-0.227,0.079-0.418,0.237-0.57c0.156-0.156,0.346-0.232,0.565-0.232c0.226,0,0.416,0.076,0.569,0.232
		c0.154,0.152,0.231,0.344,0.231,0.57c0,0.217-0.077,0.408-0.231,0.563C152.796,57.983,152.605,58.063,152.38,58.063z
		 M151.679,64.06v-5.357h1.41v5.357H151.679z"/>
	<path fill="#020A0A" d="M160.904,64.173c-0.535,0-1.031-0.096-1.492-0.285c-0.459-0.188-0.861-0.451-1.207-0.789
		c-0.348-0.34-0.618-0.734-0.812-1.182c-0.197-0.451-0.294-0.938-0.294-1.457c0-0.521,0.097-1.006,0.294-1.455
		c0.193-0.449,0.464-0.844,0.812-1.182c0.346-0.342,0.748-0.604,1.207-0.793c0.461-0.189,0.957-0.281,1.492-0.281
		c0.534,0,1.032,0.092,1.496,0.281c0.463,0.189,0.867,0.451,1.213,0.793c0.346,0.338,0.616,0.732,0.809,1.182
		c0.191,0.449,0.287,0.934,0.287,1.455c0,0.52-0.096,1.006-0.287,1.457c-0.192,0.447-0.463,0.842-0.809,1.182
		c-0.346,0.338-0.75,0.602-1.213,0.789C161.937,64.077,161.438,64.173,160.904,64.173z M160.904,62.804
		c0.329,0,0.63-0.059,0.904-0.18c0.274-0.119,0.516-0.283,0.72-0.494c0.205-0.207,0.367-0.455,0.483-0.746
		c0.116-0.285,0.175-0.596,0.175-0.924c0-0.336-0.059-0.645-0.175-0.932c-0.116-0.283-0.278-0.529-0.483-0.74
		c-0.204-0.209-0.445-0.371-0.72-0.492s-0.575-0.18-0.904-0.18c-0.323,0-0.62,0.059-0.895,0.18s-0.515,0.283-0.72,0.492
		c-0.207,0.211-0.367,0.457-0.483,0.74c-0.116,0.287-0.175,0.594-0.175,0.92c0,0.336,0.059,0.65,0.175,0.936
		c0.116,0.291,0.276,0.539,0.483,0.746c0.205,0.211,0.445,0.375,0.72,0.494C160.284,62.745,160.581,62.804,160.904,62.804z"/>
	<path fill="#020A0A" d="M166.316,64.06V56.86h3.609c0.473,0,0.889,0.098,1.25,0.289c0.358,0.191,0.643,0.457,0.848,0.795
		c0.204,0.34,0.308,0.732,0.308,1.18c0,0.424-0.104,0.803-0.308,1.141c-0.205,0.336-0.491,0.6-0.854,0.793
		c-0.365,0.189-0.778,0.287-1.244,0.287h-2.119v2.715H166.316z M167.807,60.11h1.953c0.323,0,0.581-0.088,0.776-0.268
		c0.195-0.178,0.293-0.416,0.293-0.709c0-0.303-0.098-0.541-0.293-0.719c-0.195-0.18-0.453-0.27-0.776-0.27h-1.953V60.11z"/>
	<path fill="#020A0A" d="M38.689,78.749V71.55h3.609c0.474,0,0.889,0.098,1.25,0.289c0.358,0.191,0.643,0.457,0.848,0.795
		c0.206,0.342,0.308,0.734,0.308,1.18c0,0.424-0.102,0.805-0.308,1.141c-0.205,0.336-0.489,0.6-0.854,0.793
		c-0.363,0.189-0.778,0.287-1.244,0.287H40.18v2.715H38.689z M40.18,74.8h1.955c0.321,0,0.581-0.088,0.776-0.268
		c0.195-0.178,0.293-0.414,0.293-0.707c0-0.303-0.098-0.543-0.293-0.721s-0.455-0.27-0.776-0.27H40.18V74.8z"/>
	<path fill="#020A0A" d="M46.005,78.749v-5.357h1.41v0.596c0.171-0.232,0.376-0.41,0.616-0.535c0.241-0.123,0.512-0.184,0.813-0.184
		c0.261,0.006,0.457,0.047,0.586,0.123v1.234c-0.104-0.049-0.216-0.084-0.34-0.109c-0.122-0.023-0.25-0.035-0.38-0.035
		c-0.274,0-0.524,0.068-0.75,0.205c-0.228,0.139-0.407,0.334-0.545,0.588v3.475H46.005z"/>
	<path fill="#020A0A" d="M53.21,78.853c-0.533,0-1.017-0.125-1.449-0.373c-0.433-0.246-0.774-0.578-1.028-0.996
		c-0.254-0.416-0.379-0.889-0.379-1.408c0-0.521,0.123-0.992,0.373-1.412c0.25-0.424,0.595-0.758,1.028-1.004
		c0.437-0.248,0.922-0.371,1.455-0.371c0.536,0,1.021,0.123,1.457,0.371c0.435,0.246,0.776,0.58,1.028,1.004
		c0.25,0.42,0.374,0.891,0.374,1.412c0,0.52-0.124,0.992-0.374,1.408c-0.252,0.418-0.592,0.75-1.024,0.996
		C54.238,78.728,53.754,78.853,53.21,78.853z M53.21,77.628c0.282,0,0.534-0.068,0.758-0.205c0.222-0.137,0.4-0.324,0.534-0.561
		c0.133-0.236,0.201-0.498,0.201-0.787c0-0.295-0.068-0.559-0.201-0.791c-0.134-0.234-0.313-0.42-0.534-0.561
		c-0.224-0.141-0.476-0.211-0.758-0.211c-0.272,0-0.524,0.07-0.75,0.211s-0.404,0.326-0.533,0.561
		c-0.132,0.232-0.196,0.496-0.196,0.791c0,0.289,0.064,0.551,0.196,0.787c0.129,0.236,0.308,0.424,0.533,0.561
		S52.938,77.628,53.21,77.628z"/>
	<path fill="#020A0A" d="M58.327,78.749l-1.473-5.357h1.339l0.884,3.455l1.069-3.455h1.182l1.061,3.465l0.884-3.465h1.315
		l-1.479,5.357h-1.348l-1.039-3.424l-1.038,3.424H58.327z"/>
	<path fill="#020A0A" d="M66.436,72.753c-0.218,0-0.407-0.078-0.563-0.236c-0.158-0.156-0.237-0.346-0.237-0.564
		c0-0.227,0.079-0.418,0.237-0.572c0.156-0.154,0.346-0.23,0.563-0.23c0.228,0,0.418,0.076,0.571,0.23
		c0.154,0.154,0.231,0.346,0.231,0.572c0,0.219-0.077,0.408-0.231,0.564C66.854,72.675,66.663,72.753,66.436,72.753z M65.736,78.749
		v-5.357h1.41v5.357H65.736z"/>
	<path fill="#020A0A" d="M68.852,78.749v-5.357h1.407v0.441c0.404-0.361,0.906-0.545,1.502-0.545c0.418,0,0.788,0.092,1.105,0.273
		c0.319,0.182,0.567,0.432,0.746,0.75c0.177,0.318,0.268,0.691,0.268,1.115v3.322h-1.41v-3.117c0-0.348-0.1-0.623-0.297-0.826
		c-0.199-0.201-0.47-0.303-0.813-0.303c-0.24,0-0.453,0.045-0.639,0.139c-0.185,0.09-0.339,0.225-0.463,0.395v3.713H68.852z"/>
	<path fill="#020A0A" d="M78.059,78.853c-0.528,0-1.004-0.123-1.429-0.365c-0.427-0.244-0.762-0.576-1.008-0.998
		c-0.248-0.42-0.37-0.895-0.37-1.414c0-0.527,0.122-1,0.37-1.42c0.246-0.418,0.581-0.75,1.008-0.996
		c0.425-0.248,0.9-0.371,1.429-0.371c0.424,0,0.83,0.084,1.218,0.246c0.387,0.166,0.722,0.4,1.004,0.711l-0.865,0.914
		c-0.199-0.219-0.406-0.383-0.622-0.486c-0.216-0.107-0.451-0.16-0.705-0.16c-0.272,0-0.519,0.068-0.734,0.205
		c-0.217,0.137-0.388,0.322-0.514,0.557c-0.128,0.232-0.191,0.5-0.191,0.801c0,0.289,0.063,0.551,0.191,0.787
		c0.126,0.236,0.303,0.422,0.528,0.555c0.228,0.135,0.478,0.201,0.752,0.201c0.238,0,0.464-0.049,0.673-0.148s0.41-0.25,0.602-0.449
		l0.844,0.887c-0.274,0.293-0.604,0.523-0.986,0.691C78.866,78.769,78.47,78.853,78.059,78.853z"/>
	<path fill="#020A0A" d="M81.154,80.95c-0.132,0-0.266-0.01-0.402-0.025c-0.138-0.018-0.246-0.041-0.329-0.068v-1.078
		c0.124,0.025,0.274,0.041,0.453,0.041c0.205,0,0.356-0.043,0.456-0.129c0.101-0.088,0.15-0.225,0.15-0.416v-5.883h1.408v5.965
		c0,0.506-0.15,0.898-0.453,1.176C82.137,80.812,81.709,80.95,81.154,80.95z M82.183,72.753c-0.221,0-0.408-0.078-0.566-0.236
		c-0.157-0.156-0.236-0.346-0.236-0.564c0-0.227,0.079-0.418,0.236-0.572c0.158-0.154,0.346-0.23,0.566-0.23
		c0.226,0,0.415,0.076,0.569,0.23s0.23,0.346,0.23,0.572c0,0.219-0.076,0.408-0.23,0.564C82.598,72.675,82.408,72.753,82.183,72.753
		z"/>
	<path fill="#020A0A" d="M86.254,78.841c-0.384,0-0.724-0.068-1.018-0.211c-0.295-0.141-0.526-0.334-0.689-0.58
		c-0.165-0.248-0.246-0.531-0.246-0.854c0-0.516,0.193-0.914,0.581-1.199c0.387-0.283,0.919-0.426,1.598-0.426
		c0.466,0,0.905,0.072,1.317,0.215v-0.391c0-0.309-0.096-0.541-0.289-0.699c-0.192-0.156-0.473-0.234-0.843-0.234
		c-0.228,0-0.47,0.033-0.731,0.107c-0.259,0.072-0.562,0.184-0.903,0.334l-0.514-1.037c0.425-0.193,0.831-0.338,1.218-0.436
		c0.388-0.096,0.776-0.143,1.168-0.143c0.72,0,1.28,0.174,1.681,0.52c0.401,0.346,0.601,0.836,0.601,1.467v3.475h-1.387V78.37
		c-0.22,0.162-0.457,0.283-0.711,0.357C86.833,78.804,86.555,78.841,86.254,78.841z M85.637,77.167c0,0.205,0.089,0.365,0.268,0.486
		s0.415,0.18,0.708,0.18c0.233,0,0.449-0.027,0.648-0.086s0.378-0.146,0.536-0.264v-0.779c-0.173-0.07-0.35-0.121-0.536-0.156
		c-0.184-0.033-0.383-0.051-0.596-0.051c-0.323,0-0.575,0.061-0.755,0.18C85.728,76.796,85.637,76.96,85.637,77.167z"/>
	<path fill="#020A0A" d="M91.211,78.749v-2.664l-0.721,0.514v-1.283l0.721-0.516v-3.25l1.409-0.307v2.57l0.72-0.516v1.287
		l-0.72,0.512v3.652H91.211z"/>
	<path fill="#020A0A" d="M97.124,78.749V71.55h3.609c0.474,0,0.889,0.098,1.25,0.289c0.358,0.191,0.643,0.457,0.848,0.795
		c0.205,0.342,0.308,0.734,0.308,1.18c0,0.424-0.103,0.805-0.308,1.141s-0.491,0.6-0.854,0.793
		c-0.365,0.189-0.778,0.287-1.244,0.287h-2.119v2.715H97.124z M98.614,74.8h1.953c0.323,0,0.583-0.088,0.776-0.268
		c0.195-0.178,0.293-0.414,0.293-0.707c0-0.303-0.098-0.543-0.293-0.721c-0.193-0.178-0.453-0.27-0.776-0.27h-1.953V74.8z"/>
	<path fill="#020A0A" d="M106.97,78.853c-0.535,0-1.019-0.125-1.451-0.373c-0.431-0.246-0.774-0.578-1.028-0.996
		c-0.254-0.416-0.379-0.889-0.379-1.408c0-0.521,0.124-0.992,0.375-1.412c0.25-0.424,0.593-0.758,1.028-1.004
		c0.435-0.248,0.92-0.371,1.455-0.371c0.534,0,1.019,0.123,1.455,0.371c0.435,0.246,0.778,0.58,1.028,1.004
		c0.25,0.42,0.374,0.891,0.374,1.412c0,0.52-0.124,0.992-0.374,1.408c-0.25,0.418-0.592,0.75-1.022,0.996
		C107.998,78.728,107.512,78.853,106.97,78.853z M106.97,77.628c0.28,0,0.532-0.068,0.756-0.205c0.222-0.137,0.4-0.324,0.534-0.561
		c0.133-0.236,0.201-0.498,0.201-0.787c0-0.295-0.068-0.559-0.201-0.791c-0.134-0.234-0.313-0.42-0.534-0.561
		c-0.224-0.141-0.476-0.211-0.756-0.211c-0.274,0-0.524,0.07-0.752,0.211c-0.226,0.141-0.404,0.326-0.533,0.561
		c-0.13,0.232-0.196,0.496-0.196,0.791c0,0.289,0.066,0.551,0.196,0.787c0.129,0.236,0.308,0.424,0.533,0.561
		C106.445,77.56,106.695,77.628,106.97,77.628z"/>
	<path fill="#020A0A" d="M111.252,78.749V71.55l1.41-0.236v7.436H111.252z"/>
	<path fill="#020A0A" d="M116.404,78.853c-0.494,0-0.951-0.064-1.368-0.191c-0.42-0.127-0.782-0.311-1.091-0.549l0.699-0.936
		c0.309,0.203,0.605,0.357,0.89,0.461c0.285,0.102,0.567,0.154,0.85,0.154c0.313,0,0.565-0.053,0.755-0.16
		c0.188-0.105,0.282-0.244,0.282-0.414c0-0.141-0.053-0.246-0.159-0.33c-0.105-0.082-0.276-0.141-0.508-0.174l-1.03-0.156
		c-0.534-0.08-0.938-0.254-1.212-0.52c-0.274-0.262-0.412-0.611-0.412-1.043c0-0.35,0.09-0.648,0.272-0.9
		c0.183-0.25,0.438-0.445,0.771-0.584c0.333-0.141,0.729-0.213,1.188-0.213c0.391,0,0.772,0.055,1.146,0.166
		c0.374,0.109,0.726,0.277,1.055,0.504l-0.679,0.914c-0.295-0.186-0.577-0.316-0.844-0.4c-0.268-0.084-0.538-0.123-0.813-0.123
		c-0.254,0-0.457,0.049-0.612,0.145c-0.154,0.094-0.231,0.223-0.231,0.379c0,0.145,0.057,0.256,0.165,0.342
		c0.109,0.08,0.299,0.141,0.566,0.172l1.017,0.156c0.536,0.074,0.943,0.244,1.224,0.508c0.282,0.266,0.423,0.605,0.423,1.023
		c0,0.344-0.104,0.646-0.309,0.91c-0.206,0.264-0.482,0.475-0.834,0.627C117.256,78.776,116.855,78.853,116.404,78.853z"/>
	<path fill="#020A0A" d="M120.077,78.749V71.55l1.408-0.236v4.33l2.313-2.252h1.594l-2.527,2.457l2.682,2.9h-1.799l-2.263-2.449
		v2.449H120.077z"/>
	<path fill="#020A0A" d="M127.252,72.753c-0.22,0-0.408-0.078-0.565-0.236c-0.158-0.156-0.237-0.346-0.237-0.564
		c0-0.227,0.079-0.418,0.237-0.572c0.157-0.154,0.346-0.23,0.565-0.23c0.226,0,0.417,0.076,0.571,0.23s0.231,0.346,0.231,0.572
		c0,0.219-0.077,0.408-0.231,0.564C127.669,72.675,127.478,72.753,127.252,72.753z M126.553,78.749v-5.357h1.408v5.357H126.553z"/>
	<path fill="#020A0A" d="M132.239,78.853c-0.534,0-1.02-0.125-1.455-0.373c-0.437-0.246-0.78-0.578-1.034-0.996
		c-0.254-0.416-0.38-0.889-0.38-1.408c0-0.521,0.122-0.99,0.365-1.408c0.242-0.418,0.573-0.752,0.992-0.998
		c0.417-0.246,0.886-0.371,1.398-0.371c0.516,0,0.97,0.129,1.368,0.379c0.397,0.256,0.711,0.6,0.94,1.031
		c0.229,0.43,0.344,0.922,0.344,1.469v0.371h-3.968c0.062,0.213,0.161,0.404,0.303,0.578c0.141,0.17,0.315,0.303,0.524,0.4
		c0.208,0.096,0.434,0.145,0.673,0.145c0.24,0,0.462-0.041,0.663-0.115c0.203-0.076,0.376-0.18,0.521-0.32l0.925,0.844
		c-0.328,0.27-0.667,0.463-1.013,0.588C133.061,78.79,132.671,78.853,132.239,78.853z M130.79,75.54h2.602
		c-0.05-0.213-0.136-0.398-0.264-0.563c-0.126-0.158-0.276-0.285-0.451-0.379c-0.175-0.092-0.37-0.137-0.581-0.137
		c-0.22,0-0.419,0.045-0.598,0.133s-0.327,0.215-0.447,0.375C130.933,75.13,130.844,75.323,130.79,75.54z"/>
	<path fill="#020A0A" d="M135.819,80.95c-0.129,0-0.263-0.01-0.4-0.025c-0.137-0.018-0.246-0.041-0.328-0.068v-1.078
		c0.124,0.025,0.274,0.041,0.452,0.041c0.205,0,0.357-0.043,0.457-0.129c0.1-0.088,0.15-0.225,0.15-0.416v-5.883h1.408v5.965
		c0,0.506-0.15,0.898-0.453,1.176C136.805,80.812,136.376,80.95,135.819,80.95z M136.85,72.753c-0.22,0-0.409-0.078-0.565-0.236
		c-0.158-0.156-0.237-0.346-0.237-0.564c0-0.227,0.079-0.418,0.237-0.572c0.156-0.154,0.346-0.23,0.565-0.23
		c0.226,0,0.416,0.076,0.569,0.23c0.154,0.154,0.231,0.346,0.231,0.572c0,0.219-0.077,0.408-0.231,0.564
		C137.266,72.675,137.075,72.753,136.85,72.753z"/>
	<path fill="#020A0A" d="M141.846,78.749V71.55h3.611c0.472,0,0.889,0.098,1.248,0.289c0.361,0.191,0.643,0.457,0.848,0.795
		c0.207,0.342,0.311,0.734,0.311,1.18c0,0.424-0.104,0.805-0.311,1.141c-0.205,0.336-0.488,0.6-0.854,0.793
		c-0.362,0.189-0.778,0.287-1.242,0.287h-2.12v2.715H141.846z M143.337,74.8h1.955c0.321,0,0.58-0.088,0.776-0.268
		c0.195-0.178,0.293-0.414,0.293-0.707c0-0.303-0.098-0.543-0.293-0.721c-0.196-0.178-0.455-0.27-0.776-0.27h-1.955V74.8z"/>
	<path fill="#020A0A" d="M149.164,78.749v-5.357h1.407v0.596c0.172-0.232,0.378-0.41,0.617-0.535
		c0.24-0.123,0.511-0.184,0.812-0.184c0.262,0.006,0.457,0.047,0.587,0.123v1.234c-0.102-0.049-0.216-0.084-0.339-0.109
		c-0.124-0.023-0.252-0.035-0.381-0.035c-0.274,0-0.524,0.068-0.75,0.205c-0.226,0.139-0.408,0.334-0.546,0.588v3.475H149.164z"/>
	<path fill="#020A0A" d="M156.369,78.853c-0.536,0-1.02-0.125-1.451-0.373c-0.431-0.246-0.774-0.578-1.028-0.996
		c-0.254-0.416-0.38-0.889-0.38-1.408c0-0.521,0.124-0.992,0.376-1.412c0.25-0.424,0.592-0.758,1.028-1.004
		c0.434-0.248,0.919-0.371,1.455-0.371c0.533,0,1.019,0.123,1.454,0.371c0.435,0.246,0.778,0.58,1.028,1.004
		c0.25,0.42,0.374,0.891,0.374,1.412c0,0.52-0.124,0.992-0.374,1.408c-0.25,0.418-0.592,0.75-1.022,0.996
		C157.396,78.728,156.91,78.853,156.369,78.853z M156.369,77.628c0.279,0,0.531-0.068,0.755-0.205
		c0.223-0.137,0.4-0.324,0.534-0.561s0.201-0.498,0.201-0.787c0-0.295-0.067-0.559-0.201-0.791c-0.134-0.234-0.312-0.42-0.534-0.561
		c-0.224-0.141-0.476-0.211-0.755-0.211c-0.274,0-0.524,0.07-0.752,0.211c-0.226,0.141-0.404,0.326-0.534,0.561
		c-0.13,0.232-0.195,0.496-0.195,0.791c0,0.289,0.065,0.551,0.195,0.787s0.309,0.424,0.534,0.561
		C155.845,77.56,156.095,77.628,156.369,77.628z"/>
	<path fill="#020A0A" d="M161.483,78.749l-1.47-5.357h1.336l0.884,3.455l1.069-3.455h1.183l1.061,3.465l0.883-3.465h1.318
		l-1.481,5.357h-1.348l-1.038-3.424l-1.039,3.424H161.483z"/>
	<path fill="#020A0A" d="M169.595,72.753c-0.22,0-0.41-0.078-0.566-0.236c-0.157-0.156-0.236-0.346-0.236-0.564
		c0-0.227,0.079-0.418,0.236-0.572c0.156-0.154,0.347-0.23,0.566-0.23c0.226,0,0.415,0.076,0.569,0.23s0.231,0.346,0.231,0.572
		c0,0.219-0.077,0.408-0.231,0.564C170.01,72.675,169.82,72.753,169.595,72.753z M168.896,78.749v-5.357h1.407v5.357H168.896z"/>
	<path fill="#020A0A" d="M172.008,78.749v-5.357h1.408v0.441c0.406-0.361,0.906-0.545,1.502-0.545c0.419,0,0.787,0.092,1.105,0.273
		c0.319,0.182,0.567,0.432,0.746,0.75s0.267,0.691,0.267,1.115v3.322h-1.408v-3.117c0-0.348-0.1-0.623-0.299-0.826
		c-0.199-0.201-0.47-0.303-0.812-0.303c-0.241,0-0.453,0.045-0.638,0.139c-0.186,0.09-0.34,0.225-0.464,0.395v3.713H172.008z"/>
	<path fill="#020A0A" d="M181.215,78.853c-0.528,0-1.004-0.123-1.429-0.365c-0.425-0.244-0.761-0.576-1.008-0.998
		c-0.248-0.42-0.37-0.895-0.37-1.414c0-0.527,0.122-1,0.37-1.42c0.247-0.418,0.583-0.75,1.008-0.996
		c0.425-0.248,0.9-0.371,1.429-0.371c0.425,0,0.831,0.084,1.218,0.246c0.388,0.166,0.722,0.4,1.004,0.711l-0.864,0.914
		c-0.197-0.219-0.406-0.383-0.622-0.486c-0.217-0.107-0.451-0.16-0.703-0.16c-0.274,0-0.521,0.068-0.737,0.205
		c-0.214,0.137-0.387,0.322-0.513,0.557c-0.128,0.232-0.19,0.5-0.19,0.801c0,0.289,0.063,0.551,0.19,0.787
		c0.126,0.236,0.303,0.422,0.53,0.555c0.225,0.135,0.475,0.201,0.75,0.201c0.24,0,0.464-0.049,0.673-0.148
		c0.208-0.1,0.409-0.25,0.601-0.449l0.845,0.887c-0.274,0.293-0.604,0.523-0.987,0.691
		C182.023,78.769,181.627,78.853,181.215,78.853z"/>
	<path fill="#020A0A" d="M184.311,80.95c-0.13,0-0.263-0.01-0.402-0.025c-0.135-0.018-0.246-0.041-0.329-0.068v-1.078
		c0.124,0.025,0.274,0.041,0.453,0.041c0.207,0,0.359-0.043,0.459-0.129c0.098-0.088,0.148-0.225,0.148-0.416v-5.883h1.408v5.965
		c0,0.506-0.15,0.898-0.451,1.176C185.294,80.812,184.865,80.95,184.311,80.95z M185.339,72.753c-0.22,0-0.408-0.078-0.565-0.236
		c-0.158-0.156-0.237-0.346-0.237-0.564c0-0.227,0.079-0.418,0.237-0.572c0.157-0.154,0.346-0.23,0.565-0.23
		c0.226,0,0.415,0.076,0.571,0.23c0.154,0.154,0.231,0.346,0.231,0.572c0,0.219-0.077,0.408-0.231,0.564
		C185.754,72.675,185.564,72.753,185.339,72.753z"/>
	<path fill="#020A0A" d="M188.45,72.753c-0.221,0-0.408-0.078-0.566-0.236c-0.157-0.156-0.236-0.346-0.236-0.564
		c0-0.227,0.079-0.418,0.236-0.572c0.158-0.154,0.346-0.23,0.566-0.23c0.226,0,0.415,0.076,0.569,0.23s0.231,0.346,0.231,0.572
		c0,0.219-0.077,0.408-0.231,0.564C188.865,72.675,188.676,72.753,188.45,72.753z M187.751,78.749v-5.357h1.407v5.357H187.751z"/>
	<path fill="#020A0A" d="M46.188,93.438v-1.018l3.97-4.885h-3.939v-1.295h5.884v1.02l-3.971,4.883h4.012v1.295H46.188z"/>
	<path fill="#020A0A" d="M55.191,93.532c-0.386,0-0.724-0.07-1.019-0.211c-0.296-0.141-0.524-0.334-0.688-0.582
		c-0.165-0.246-0.248-0.529-0.248-0.854c0-0.512,0.193-0.912,0.581-1.197c0.387-0.283,0.921-0.426,1.6-0.426
		c0.466,0,0.904,0.07,1.315,0.215v-0.391c0-0.309-0.096-0.541-0.287-0.699s-0.474-0.236-0.844-0.236
		c-0.226,0-0.469,0.035-0.729,0.107c-0.262,0.072-0.563,0.184-0.904,0.334l-0.515-1.039c0.424-0.189,0.83-0.334,1.218-0.43
		c0.387-0.096,0.776-0.145,1.167-0.145c0.72,0,1.28,0.172,1.683,0.518c0.4,0.348,0.602,0.836,0.602,1.467v3.475h-1.39V93.06
		c-0.22,0.164-0.455,0.283-0.708,0.359C55.771,93.493,55.492,93.532,55.191,93.532z M54.573,91.856c0,0.205,0.09,0.369,0.269,0.488
		c0.179,0.121,0.413,0.182,0.709,0.182c0.232,0,0.449-0.031,0.648-0.09c0.199-0.057,0.376-0.146,0.533-0.262v-0.781
		c-0.171-0.068-0.35-0.119-0.533-0.156c-0.187-0.031-0.386-0.051-0.598-0.051c-0.322,0-0.574,0.061-0.756,0.182
		C54.665,91.487,54.573,91.649,54.573,91.856z"/>
	<path fill="#020A0A" d="M59.789,93.438v-7.197l1.41-0.236v4.328l2.313-2.252h1.593l-2.528,2.457l2.684,2.9H63.46l-2.261-2.447
		v2.447H59.789z"/>
	<path fill="#020A0A" d="M68.498,93.542c-0.536,0-1.019-0.123-1.451-0.369c-0.431-0.246-0.774-0.58-1.028-0.998
		s-0.38-0.889-0.38-1.408c0-0.521,0.124-0.992,0.376-1.414c0.25-0.424,0.592-0.758,1.028-1.004c0.435-0.246,0.919-0.369,1.455-0.369
		c0.533,0,1.019,0.123,1.455,0.369c0.434,0.246,0.777,0.58,1.027,1.004c0.25,0.422,0.375,0.893,0.375,1.414
		c0,0.52-0.125,0.99-0.375,1.408s-0.592,0.752-1.022,0.998C69.526,93.419,69.039,93.542,68.498,93.542z M68.498,92.319
		c0.28,0,0.532-0.068,0.756-0.205c0.222-0.139,0.4-0.326,0.533-0.563c0.134-0.236,0.201-0.498,0.201-0.785
		c0-0.295-0.067-0.559-0.201-0.793c-0.133-0.232-0.312-0.42-0.533-0.561c-0.224-0.139-0.476-0.209-0.756-0.209
		c-0.274,0-0.524,0.07-0.752,0.209c-0.226,0.141-0.404,0.328-0.534,0.561c-0.132,0.234-0.195,0.498-0.195,0.793
		c0,0.287,0.063,0.549,0.195,0.785c0.13,0.236,0.309,0.424,0.534,0.563C67.974,92.251,68.224,92.319,68.498,92.319z"/>
	<path fill="#020A0A" d="M72.78,93.438v-5.357h1.409v0.445c0.404-0.365,0.904-0.547,1.5-0.547c0.419,0,0.788,0.092,1.105,0.271
		c0.319,0.182,0.567,0.432,0.746,0.752s0.268,0.689,0.268,1.115v3.32H76.4v-3.113c0-0.352-0.1-0.627-0.299-0.83
		c-0.199-0.201-0.471-0.303-0.813-0.303c-0.24,0-0.453,0.045-0.637,0.139c-0.187,0.094-0.341,0.225-0.463,0.396v3.711H72.78z"/>
	<path fill="#020A0A" d="M81.524,93.542c-0.412,0-0.776-0.09-1.094-0.271c-0.32-0.182-0.57-0.436-0.752-0.756
		c-0.181-0.322-0.272-0.693-0.272-1.111v-3.322h1.409v3.115c0,0.344,0.1,0.619,0.303,0.824c0.203,0.207,0.476,0.309,0.817,0.309
		c0.233,0,0.444-0.049,0.634-0.139c0.188-0.094,0.344-0.225,0.466-0.396v-3.713h1.41v5.357h-1.41v-0.43
		C82.626,93.366,82.12,93.542,81.524,93.542z"/>
	<path fill="#020A0A" d="M88.733,93.438v-7.197h1.49v3.219l3.146-3.219h1.821l-3.496,3.426l3.66,3.771h-1.994l-3.138-3.342v3.342
		H88.733z"/>
	<path fill="#020A0A" d="M97.931,93.532c-0.384,0-0.722-0.07-1.018-0.211c-0.295-0.141-0.524-0.334-0.689-0.582
		c-0.163-0.246-0.246-0.529-0.246-0.854c0-0.512,0.193-0.912,0.581-1.197c0.387-0.283,0.921-0.426,1.6-0.426
		c0.466,0,0.904,0.07,1.315,0.215v-0.391c0-0.309-0.096-0.541-0.288-0.699c-0.191-0.158-0.474-0.236-0.844-0.236
		c-0.226,0-0.47,0.035-0.729,0.107c-0.261,0.072-0.562,0.184-0.903,0.334l-0.516-1.039c0.425-0.189,0.831-0.334,1.219-0.43
		c0.387-0.096,0.775-0.145,1.167-0.145c0.72,0,1.28,0.172,1.681,0.518c0.402,0.348,0.603,0.836,0.603,1.467v3.475h-1.389V93.06
		c-0.22,0.164-0.455,0.283-0.709,0.359C98.512,93.493,98.233,93.532,97.931,93.532z M97.313,91.856c0,0.205,0.091,0.369,0.268,0.488
		c0.179,0.121,0.415,0.182,0.71,0.182c0.233,0,0.449-0.031,0.648-0.09c0.197-0.057,0.376-0.146,0.534-0.262v-0.781
		c-0.171-0.068-0.35-0.119-0.534-0.156c-0.186-0.031-0.385-0.051-0.598-0.051c-0.321,0-0.573,0.061-0.756,0.182
		C97.406,91.487,97.313,91.649,97.313,91.856z"/>
	<path fill="#020A0A" d="M102.193,93.438V92.44l2.693-3.176h-2.673v-1.184h4.474v0.998l-2.695,3.178h2.768v1.182H102.193z"/>
	<path fill="#020A0A" d="M108.195,93.438v-5.357h1.408v0.445c0.406-0.365,0.906-0.547,1.502-0.547c0.419,0,0.787,0.092,1.105,0.271
		c0.319,0.182,0.567,0.432,0.746,0.752s0.267,0.689,0.267,1.115v3.32h-1.408v-3.113c0-0.352-0.1-0.627-0.299-0.83
		c-0.199-0.201-0.47-0.303-0.812-0.303c-0.241,0-0.453,0.045-0.638,0.139c-0.186,0.094-0.34,0.225-0.464,0.396v3.711H108.195z"/>
	<path fill="#020A0A" d="M117.455,93.542c-0.536,0-1.019-0.123-1.451-0.369c-0.431-0.246-0.774-0.58-1.028-0.998
		s-0.38-0.889-0.38-1.408c0-0.521,0.124-0.992,0.376-1.414c0.25-0.424,0.593-0.758,1.028-1.004c0.435-0.246,0.919-0.369,1.455-0.369
		c0.534,0,1.019,0.123,1.455,0.369c0.436,0.246,0.778,0.58,1.028,1.004c0.25,0.422,0.376,0.893,0.376,1.414
		c0,0.52-0.126,0.99-0.376,1.408s-0.593,0.752-1.022,0.998C118.483,93.419,117.996,93.542,117.455,93.542z M117.455,92.319
		c0.28,0,0.532-0.068,0.756-0.205c0.222-0.139,0.4-0.326,0.533-0.563c0.134-0.236,0.201-0.498,0.201-0.785
		c0-0.295-0.067-0.559-0.201-0.793c-0.133-0.232-0.312-0.42-0.533-0.561c-0.224-0.139-0.476-0.209-0.756-0.209
		c-0.274,0-0.524,0.07-0.75,0.209c-0.228,0.141-0.406,0.328-0.536,0.561c-0.13,0.234-0.195,0.498-0.195,0.793
		c0,0.287,0.065,0.549,0.195,0.785s0.309,0.424,0.536,0.563C116.931,92.251,117.181,92.319,117.455,92.319z"/>
	<path fill="#020A0A" d="M124.169,93.513c-0.507,0-0.966-0.125-1.378-0.373c-0.411-0.246-0.738-0.574-0.98-0.99
		c-0.244-0.416-0.367-0.879-0.367-1.395s0.123-0.977,0.367-1.393c0.242-0.414,0.573-0.744,0.99-0.986
		c0.419-0.246,0.89-0.365,1.41-0.365c0.267,0,0.524,0.035,0.771,0.107c0.248,0.07,0.478,0.176,0.689,0.313v-2.189l1.408-0.236v7.434
		h-1.388v-0.441C125.252,93.339,124.744,93.513,124.169,93.513z M124.395,92.31c0.262,0,0.5-0.043,0.717-0.129
		c0.214-0.088,0.402-0.215,0.56-0.387v-2.086c-0.157-0.158-0.346-0.281-0.565-0.373c-0.22-0.088-0.457-0.131-0.711-0.131
		c-0.295,0-0.56,0.066-0.797,0.199c-0.234,0.133-0.423,0.32-0.56,0.555c-0.138,0.236-0.205,0.504-0.205,0.797
		c0,0.295,0.067,0.561,0.205,0.793c0.137,0.232,0.325,0.418,0.56,0.555C123.835,92.239,124.1,92.31,124.395,92.31z"/>
	<path fill="#020A0A" d="M128.5,93.438V92.44l2.695-3.176h-2.675v-1.184h4.474v0.998l-2.693,3.178h2.766v1.182H128.5z"/>
	<path fill="#020A0A" d="M135.179,87.444c-0.218,0-0.408-0.078-0.563-0.236c-0.158-0.158-0.237-0.346-0.237-0.566
		c0-0.227,0.079-0.414,0.237-0.57c0.155-0.154,0.346-0.23,0.563-0.23c0.228,0,0.417,0.076,0.571,0.23
		c0.154,0.156,0.231,0.344,0.231,0.57c0,0.221-0.077,0.408-0.231,0.566S135.406,87.444,135.179,87.444z M134.479,93.438v-5.357h1.41
		v5.357H134.479z"/>
	<path fill="#020A0A" d="M140.168,93.542c-0.536,0-1.021-0.123-1.457-0.369c-0.435-0.246-0.778-0.58-1.032-0.998
		s-0.382-0.889-0.382-1.408c0-0.521,0.122-0.99,0.367-1.41c0.242-0.418,0.573-0.75,0.99-0.998c0.419-0.246,0.886-0.369,1.398-0.369
		c0.516,0,0.97,0.127,1.368,0.381c0.397,0.254,0.711,0.598,0.942,1.027c0.229,0.432,0.344,0.922,0.344,1.473v0.367h-3.97
		c0.062,0.215,0.163,0.406,0.305,0.578c0.139,0.17,0.313,0.305,0.524,0.4c0.208,0.096,0.432,0.145,0.673,0.145
		c0.238,0,0.46-0.039,0.663-0.113c0.201-0.074,0.374-0.182,0.519-0.318l0.925,0.844c-0.328,0.266-0.665,0.461-1.013,0.584
		C140.987,93.479,140.598,93.542,140.168,93.542z M138.717,90.229h2.602c-0.048-0.211-0.136-0.398-0.262-0.559
		c-0.128-0.16-0.278-0.289-0.453-0.381c-0.175-0.094-0.368-0.139-0.581-0.139c-0.22,0-0.419,0.043-0.596,0.133
		c-0.179,0.09-0.329,0.215-0.447,0.375C138.859,89.823,138.771,90.013,138.717,90.229z"/>
	<path fill="#020A0A" d="M143.748,95.64c-0.131,0-0.263-0.008-0.402-0.025c-0.135-0.018-0.246-0.039-0.328-0.066V94.47
		c0.124,0.025,0.274,0.039,0.453,0.039c0.206,0,0.358-0.041,0.458-0.129c0.098-0.086,0.148-0.225,0.148-0.416v-5.883h1.408v5.965
		c0,0.508-0.15,0.9-0.451,1.178C144.731,95.501,144.303,95.64,143.748,95.64z M144.776,87.444c-0.22,0-0.407-0.078-0.565-0.236
		s-0.237-0.346-0.237-0.566c0-0.227,0.079-0.414,0.237-0.57c0.158-0.154,0.346-0.23,0.565-0.23c0.226,0,0.416,0.076,0.571,0.23
		c0.154,0.156,0.231,0.344,0.231,0.57c0,0.221-0.077,0.408-0.231,0.566C145.192,87.366,145.002,87.444,144.776,87.444z"/>
	<path fill="#020A0A" d="M149.228,93.542c-0.494,0-0.949-0.063-1.368-0.189c-0.417-0.125-0.78-0.313-1.088-0.551l0.699-0.936
		c0.308,0.207,0.603,0.361,0.889,0.463c0.284,0.102,0.567,0.152,0.848,0.152c0.315,0,0.567-0.051,0.756-0.156
		c0.188-0.107,0.283-0.246,0.283-0.418c0-0.137-0.054-0.248-0.159-0.328c-0.107-0.084-0.276-0.143-0.51-0.176l-1.028-0.154
		c-0.533-0.082-0.939-0.256-1.212-0.52c-0.274-0.262-0.412-0.611-0.412-1.043c0-0.352,0.091-0.65,0.272-0.9
		c0.181-0.252,0.438-0.445,0.771-0.586c0.332-0.139,0.727-0.211,1.188-0.211c0.391,0,0.772,0.055,1.146,0.164
		c0.374,0.111,0.724,0.277,1.055,0.504l-0.681,0.916c-0.293-0.186-0.575-0.318-0.842-0.4c-0.267-0.084-0.54-0.125-0.813-0.125
		c-0.253,0-0.458,0.049-0.612,0.145s-0.231,0.223-0.231,0.381c0,0.145,0.055,0.256,0.166,0.34c0.108,0.08,0.297,0.139,0.565,0.174
		l1.017,0.152c0.536,0.078,0.942,0.246,1.224,0.512c0.282,0.264,0.422,0.604,0.422,1.023c0,0.342-0.102,0.645-0.309,0.908
		c-0.205,0.266-0.483,0.475-0.833,0.629S149.681,93.542,149.228,93.542z"/>
	<path fill="#020A0A" d="M152.902,93.438v-7.197l1.408-0.236v4.328l2.313-2.252h1.595l-2.53,2.457l2.685,2.9h-1.8l-2.263-2.447
		v2.447H152.902z"/>
	<path fill="#020A0A" d="M160.077,87.444c-0.22,0-0.407-0.078-0.565-0.236s-0.237-0.346-0.237-0.566c0-0.227,0.079-0.414,0.237-0.57
		c0.158-0.154,0.346-0.23,0.565-0.23c0.226,0,0.416,0.076,0.57,0.23c0.153,0.156,0.23,0.344,0.23,0.57
		c0,0.221-0.077,0.408-0.23,0.566C160.493,87.366,160.303,87.444,160.077,87.444z M159.378,93.438v-5.357h1.408v5.357H159.378z"/>
	<path fill="#020A0A" d="M165.064,93.542c-0.536,0-1.021-0.123-1.455-0.369c-0.436-0.246-0.78-0.58-1.034-0.998
		c-0.253-0.418-0.379-0.889-0.379-1.408c0-0.521,0.12-0.99,0.364-1.41c0.242-0.418,0.573-0.75,0.992-0.998
		c0.418-0.246,0.884-0.369,1.398-0.369c0.514,0,0.971,0.127,1.367,0.381c0.398,0.254,0.71,0.598,0.941,1.027
		c0.229,0.432,0.344,0.922,0.344,1.473v0.367h-3.97c0.063,0.215,0.164,0.406,0.305,0.578c0.141,0.17,0.315,0.305,0.524,0.4
		s0.433,0.145,0.673,0.145s0.461-0.039,0.663-0.113c0.201-0.074,0.376-0.182,0.52-0.318l0.927,0.844
		c-0.329,0.266-0.668,0.461-1.014,0.584S165.497,93.542,165.064,93.542z M163.613,90.229h2.604
		c-0.049-0.211-0.138-0.398-0.264-0.559c-0.128-0.16-0.278-0.289-0.453-0.381c-0.175-0.094-0.368-0.139-0.58-0.139
		c-0.221,0-0.418,0.043-0.596,0.133c-0.179,0.09-0.327,0.215-0.448,0.375C163.756,89.823,163.67,90.013,163.613,90.229z"/>
	<path fill="#020A0A" d="M171.676,95.64c-0.412,0-0.809-0.043-1.192-0.127c-0.385-0.086-0.731-0.209-1.039-0.365l0.494-1.092
		c0.295,0.145,0.583,0.252,0.862,0.32c0.282,0.066,0.563,0.104,0.845,0.104c0.417,0,0.734-0.09,0.951-0.268
		c0.216-0.18,0.323-0.447,0.323-0.803v-0.422c-0.438,0.322-0.929,0.484-1.471,0.484c-0.507,0-0.966-0.123-1.372-0.365
		c-0.409-0.244-0.734-0.576-0.978-0.992c-0.244-0.42-0.364-0.883-0.364-1.389c0-0.508,0.12-0.969,0.364-1.379
		c0.243-0.412,0.574-0.738,0.993-0.98c0.417-0.244,0.883-0.367,1.398-0.367c0.259,0,0.513,0.037,0.761,0.113
		c0.247,0.076,0.476,0.182,0.688,0.318v-0.35h1.389v5.35c0,0.703-0.229,1.25-0.684,1.633
		C173.188,95.448,172.532,95.64,171.676,95.64z M171.666,92.278c0.26,0,0.496-0.045,0.709-0.129
		c0.212-0.086,0.395-0.209,0.545-0.365v-2.098c-0.15-0.152-0.335-0.27-0.549-0.355c-0.217-0.086-0.447-0.127-0.695-0.127
		c-0.296,0-0.559,0.066-0.792,0.199s-0.419,0.314-0.555,0.545c-0.139,0.23-0.206,0.488-0.206,0.777c0,0.293,0.067,0.559,0.201,0.791
		c0.133,0.232,0.317,0.418,0.554,0.557C171.115,92.21,171.378,92.278,171.666,92.278z"/>
	<path fill="#020A0A" d="M178.605,93.542c-0.533,0-1.017-0.123-1.449-0.369c-0.432-0.246-0.774-0.58-1.028-0.998
		c-0.253-0.418-0.379-0.889-0.379-1.408c0-0.521,0.124-0.992,0.374-1.414c0.25-0.424,0.594-0.758,1.027-1.004
		c0.437-0.246,0.922-0.369,1.455-0.369c0.536,0,1.021,0.123,1.457,0.369c0.435,0.246,0.776,0.58,1.026,1.004
		c0.252,0.422,0.376,0.893,0.376,1.414c0,0.52-0.124,0.99-0.376,1.408c-0.25,0.418-0.59,0.752-1.022,0.998
		S179.147,93.542,178.605,93.542z M178.605,92.319c0.282,0,0.534-0.068,0.756-0.205c0.224-0.139,0.402-0.326,0.536-0.563
		c0.133-0.236,0.201-0.498,0.201-0.785c0-0.295-0.068-0.559-0.201-0.793c-0.134-0.232-0.313-0.42-0.536-0.561
		c-0.222-0.139-0.474-0.209-0.756-0.209c-0.274,0-0.524,0.07-0.75,0.209c-0.226,0.141-0.404,0.328-0.533,0.561
		c-0.132,0.234-0.195,0.498-0.195,0.793c0,0.287,0.063,0.549,0.195,0.785c0.129,0.236,0.308,0.424,0.533,0.563
		C178.081,92.251,178.331,92.319,178.605,92.319z"/>
</g>
</svg>
