<?xml version="1.0" encoding="utf-8"?>
<!-- Generator: Adobe Illustrator 16.0.0, SVG Export Plug-In . SVG Version: 6.00 Build 0)  -->
<!DOCTYPE svg PUBLIC "-//W3C//DTD SVG 1.1//EN" "http://www.w3.org/Graphics/SVG/1.1/DTD/svg11.dtd">
<svg version="1.1" id="Layer_1" xmlns="http://www.w3.org/2000/svg" xmlns:xlink="http://www.w3.org/1999/xlink" x="0px" y="0px"
	 width="227.94px" height="150px" viewBox="0 0 227.94 150" enable-background="new 0 0 227.94 150" xml:space="preserve">
<rect x="-260.94" y="-357" display="none" fill="#B74EDE" width="1001" height="856"/>
<g>
	<polygon fill="#FFFFFF" points="110.854,60 108.005,60 105.092,66.435 104.991,66.719 104.887,66.501 101.973,60 99.125,60 
		104.991,73.199 	"/>
	<path fill="#FFFFFF" d="M119.06,68.479l0.39,0.018c3.454,0,5.072-2.078,5.072-4.301c-0.003-2.188-1.726-4.195-5-4.195h-3.462v12h3
		V68.479z M119.06,62h0.592c1.466,0,2.197,0.521,2.303,1.979c-0.091,1.514-0.95,2.021-2.425,2.021h-0.471V62z"/>
	<path fill="#FFFFFF" d="M140.678,76.521c4.519,0,7.569-2.719,7.569-6.693c0-2.715-1.403-4.432-3.975-4.859
		c2.087-0.627,3.129-2.313,3.129-4.373c0-3.145-2.438-5.441-6.726-5.441c-4.714,0-7.38,2.846-7.466,5.846h4.945
		c0-1,0.956-2.016,2.258-1.994c1.285,0.018,2.213,0.93,2.256,2.188c0.097,2.777-1.43,3.329-2.49,3.862
		c1.157,0.709,2.937,0.979,2.947,4.606c0.004,1.479-0.904,2.582-2.619,2.582c-1.628,0-2.448-0.928-2.448-2.699V69h-5v0.484
		C133.06,73.773,135.935,76.521,140.678,76.521z"/>
	<polygon fill="#FFFFFF" points="88.06,72 91.06,72 91.06,62 95.06,62 95.06,60 85.06,60 85.06,62 88.06,62 	"/>
	<path fill="#FFFFFF" d="M128.06,56h-46v20h46V56z M97.06,75h-14V57h14V75z M112.06,75h-14V57h14V75z M127.06,75h-14V57h14V75z"/>
	<polygon fill="none" points="105.389,96 107.927,96 106.673,92.973 	"/>
	<path fill="none" d="M125.583,91.088c-0.717,0-1.324,0.281-1.813,0.846c-0.493,0.564-0.737,1.273-0.737,2.131
		c0,0.848,0.244,1.551,0.737,2.115c0.489,0.564,1.095,0.848,1.813,0.848c0.72,0,1.326-0.279,1.816-0.84
		c0.49-0.559,0.734-1.268,0.734-2.123c0-0.857-0.244-1.566-0.734-2.131S126.302,91.088,125.583,91.088z"/>
	<path fill="none" d="M97.9,91.293C97.595,91.094,97.118,91,96.463,91H96.06v3h0.513c1.189,0,1.783-0.623,1.783-1.529
		C98.355,91.998,98.204,91.494,97.9,91.293z"/>
	<polygon points="93.015,89 90.272,89 87.06,93.432 87.06,89 85.06,89 85.06,99 87.06,99 87.06,94.441 90.52,99 93.3,99 
		89.373,93.768 	"/>
	<path d="M100.472,92.068c0-0.893-0.376-1.726-1.131-2.269c-0.638-0.457-1.642-0.8-3.014-0.8H94.06v10h2v-4h0.349l2.576,4h2.635
		l-2.947-4.203C99.873,94.271,100.472,93.322,100.472,92.068z M96.573,94H96.06v-3h0.403c0.654,0,1.131,0.094,1.437,0.293
		c0.303,0.201,0.455,0.705,0.455,1.178C98.355,93.377,97.762,94,96.573,94z"/>
	<path d="M106.699,89l-4.924,10h2.319l0.626-2h3.913l0.616,2h2.414l-4.813-10H106.699z M105.389,96l1.284-3.027L107.927,96H105.389z
		"/>
	<polygon points="120.592,89 117.85,89 115.06,93.432 115.06,89 112.06,89 112.06,99 115.06,99 115.06,94.441 118.096,99 
		120.878,99 116.95,93.768 	"/>
	<polygon points="127.698,86 125.678,86 124.586,88 126.142,88 	"/>
	<path d="M125.583,88.916c-1.364,0-2.52,0.486-3.466,1.457c-0.972,1.004-1.458,2.23-1.458,3.686c0,1.445,0.481,2.664,1.446,3.656
		c0.964,0.99,2.123,1.486,3.479,1.486c0.764,0,1.489-0.176,2.176-0.521c0.686-0.344,1.268-0.832,1.74-1.457
		c0.671-0.893,1.007-1.947,1.007-3.164c0-1.473-0.478-2.699-1.438-3.676C128.108,89.404,126.947,88.916,125.583,88.916z
		 M127.398,96.188c-0.49,0.561-1.096,0.84-1.816,0.84c-0.717,0-1.324-0.283-1.813-0.848c-0.493-0.564-0.737-1.268-0.737-2.115
		c0-0.857,0.244-1.566,0.737-2.131c0.489-0.564,1.095-0.846,1.813-0.846c0.72,0,1.326,0.281,1.816,0.846s0.734,1.273,0.734,2.131
		C128.133,94.92,127.889,95.629,127.398,96.188z"/>
	<polygon points="139.116,94.369 137.084,89 136.907,89 134.89,94.369 133.008,89 130.673,89 134.711,99 134.89,99 136.907,93.475 
		138.966,99 139.116,99 143.125,89 140.97,89 	"/>
	<path d="M73.06,81h81V51h-81V81z M133.06,69h5v0.545c0,1.771,0.819,2.711,2.448,2.711c1.715,0,2.643-1.092,2.639-2.57
		c-0.011-3.627-1.8-3.875-2.957-4.584c1.06-0.533,2.582-1.039,2.485-3.816c-0.043-1.258-0.974-2.262-2.259-2.279
		c-1.302-0.021-2.26,0.994-2.26,1.994h-4.945c0.086-3,2.744-5.846,7.458-5.846c4.288,0,6.718,2.205,6.718,5.35
		c0,2.061-1.058,3.792-3.145,4.419c2.572,0.428,3.944,2.167,3.944,4.882c0,3.975-2.988,6.705-7.507,6.705
		c-4.743,0-7.618-2.736-7.618-7.025V69z M82.06,56h46v20h-46V56z"/>
	<path d="M113.06,75h14V57h-14V75z M116.06,60h3.462c3.274,0,4.916,2.008,4.918,4.195c0,2.223-1.537,4.381-4.99,4.381l-0.39-0.098
		V72h-3V60z"/>
	<path d="M98.06,75h14V57h-14V75z M101.973,60l2.915,6.442l0.104,0.276l0.101-0.226L108.005,60h2.848l-5.862,13.199L99.125,60
		H101.973z"/>
	<path d="M121.956,63.979c-0.106-1.457-0.837-1.979-2.303-1.979h-0.592v4h0.471C121.006,66,121.864,65.492,121.956,63.979z"/>
	<path d="M83.06,75h14V57h-14V75z M85.06,60h10v2h-4v10h-3V62h-3V60z"/>
</g>
</svg>
