<?xml version="1.0" encoding="utf-8"?>
<!-- Generator: Adobe Illustrator 16.0.0, SVG Export Plug-In . SVG Version: 6.00 Build 0)  -->
<!DOCTYPE svg PUBLIC "-//W3C//DTD SVG 1.1//EN" "http://www.w3.org/Graphics/SVG/1.1/DTD/svg11.dtd">
<svg version="1.1" id="Layer_1" xmlns="http://www.w3.org/2000/svg" xmlns:xlink="http://www.w3.org/1999/xlink" x="0px" y="0px"
	 width="227.94px" height="150px" viewBox="0 0 227.94 150" enable-background="new 0 0 227.94 150" xml:space="preserve">
<rect x="-756.82" y="-17" display="none" fill="#B74EDE" width="1001" height="856"/>
<g>
	<path d="M113.115,82.244c-1.507,0.003-2.945-0.301-4.293-0.98c-2.276-1.153-3.878-2.917-4.749-5.326
		c-0.251-0.689-0.398-1.402-0.459-2.134c-0.058-0.687-0.062-1.376,0.021-2.062c0.188-1.604,0.772-3.06,1.744-4.351
		c1.339-1.778,3.086-2.96,5.239-3.537c0.765-0.204,1.543-0.3,2.335-0.298c0.233,0,0.468,0.004,0.701,0.009
		c1.103,0.032,2.166,0.267,3.183,0.69c2.222,0.929,3.89,2.461,4.973,4.614c0.435,0.861,0.705,1.774,0.834,2.732
		c0.09,0.657,0.104,1.316,0.061,1.976c-0.121,1.811-0.744,3.441-1.851,4.878c-1.383,1.795-3.18,2.967-5.377,3.517
		c-0.523,0.13-1.056,0.213-1.597,0.234C113.625,82.22,113.37,82.232,113.115,82.244z M113.218,78.181
		c0.355,0.011,0.777-0.038,1.193-0.137c1.396-0.333,2.47-1.108,3.193-2.352c0.438-0.757,0.649-1.583,0.698-2.452
		c0.031-0.54-0.007-1.077-0.123-1.606c-0.211-0.965-0.64-1.815-1.332-2.523c-0.91-0.929-2.029-1.404-3.313-1.501
		c-0.605-0.043-1.207,0.005-1.793,0.163c-1.42,0.379-2.482,1.211-3.16,2.521c-0.313,0.604-0.488,1.25-0.559,1.928
		c-0.089,0.837-0.026,1.658,0.228,2.461c0.413,1.295,1.207,2.283,2.416,2.92C111.441,78.009,112.272,78.188,113.218,78.181z"/>
	<path d="M70.911,82.244c-1.507,0.003-2.946-0.301-4.292-0.98c-2.277-1.153-3.879-2.917-4.75-5.326
		c-0.251-0.689-0.398-1.402-0.46-2.134c-0.058-0.687-0.061-1.376,0.021-2.062c0.191-1.604,0.773-3.06,1.744-4.351
		c1.34-1.778,3.089-2.96,5.24-3.537c0.766-0.204,1.544-0.3,2.335-0.298c0.233,0,0.469,0.004,0.702,0.009
		c1.103,0.032,2.164,0.267,3.182,0.69c2.222,0.929,3.889,2.461,4.973,4.614c0.434,0.861,0.703,1.774,0.835,2.732
		c0.089,0.657,0.104,1.316,0.06,1.976c-0.121,1.811-0.745,3.441-1.851,4.878c-1.383,1.795-3.179,2.967-5.377,3.517
		c-0.523,0.13-1.057,0.213-1.595,0.234C71.422,82.22,71.168,82.232,70.911,82.244z M71.012,78.181
		c0.355,0.011,0.778-0.038,1.193-0.137c1.396-0.333,2.472-1.108,3.193-2.352c0.439-0.757,0.651-1.583,0.7-2.452
		c0.032-0.54-0.007-1.077-0.122-1.606c-0.212-0.965-0.643-1.815-1.334-2.523c-0.909-0.929-2.028-1.404-3.313-1.501
		c-0.605-0.043-1.206,0.005-1.794,0.163c-1.419,0.379-2.48,1.211-3.159,2.521c-0.313,0.604-0.488,1.25-0.558,1.928
		c-0.089,0.837-0.028,1.658,0.228,2.461c0.413,1.295,1.206,2.283,2.415,2.92C69.236,78.009,70.069,78.188,71.012,78.181z"/>
	<circle cx="164.534" cy="80.187" r="2.038"/>
	<g>
		<polygon points="141.3,82.253 136.484,82.253 129.59,73.03 130.158,72.26 136.534,63.581 141.29,63.581 134.322,73.027 		"/>
	</g>
	<path d="M152.129,63.583h-1.519l-8.195,18.671h4.43l0.998-2.432h7.027l0.998,2.432h4.429L152.129,63.583z M148.784,76.964
		l2.342-5.725l2.345,5.725H148.784z"/>
	<g>
		<rect x="124.761" y="63.571" width="4.046" height="18.681"/>
	</g>
	<path d="M101.439,71.555c-0.13-0.951-0.416-1.927-0.848-2.78c-1.075-2.141-2.829-3.7-5.041-4.608
		c-0.479-0.195-1.674-0.617-2.885-0.617l-7.856,0.002v4.176h5.646v0.007c0.021-0.002,0.047-0.005,0.069-0.007l1.521-0.006
		c1.542,0,2.776,0.462,3.646,1.353c0.688,0.702,1.113,1.549,1.324,2.506c0.117,0.524,0.152,1.058,0.122,1.595
		c-0.048,0.862-0.259,1.683-0.696,2.434c-0.717,1.238-1.926,2.006-3.312,2.337c-0.138,0.032-0.527,0.092-1.098,0.092l-3.06-0.016
		v-4.163h-4.197l-0.002,4.167l-4.197-0.004v4.236h4.199v4.194h4.197v-4.194c0,0,1.946,0.003,2.689,0.018
		c5.767,0.105,9.675-4.354,9.848-8.774C101.536,72.846,101.526,72.207,101.439,71.555z"/>
</g>
</svg>
