<?xml version="1.0" encoding="utf-8"?>
<!-- Generator: Adobe Illustrator 16.0.0, SVG Export Plug-In . SVG Version: 6.00 Build 0)  -->
<!DOCTYPE svg PUBLIC "-//W3C//DTD SVG 1.1//EN" "http://www.w3.org/Graphics/SVG/1.1/DTD/svg11.dtd">
<svg version="1.1" id="Layer_1" xmlns="http://www.w3.org/2000/svg" xmlns:xlink="http://www.w3.org/1999/xlink" x="0px" y="0px"
	 width="227.94px" height="150px" viewBox="0 0 227.94 150" enable-background="new 0 0 227.94 150" xml:space="preserve">
<rect x="-13" y="-187" display="none" fill="#B74EDE" width="1001" height="856"/>
<g>
	<path d="M132.625,79.842V66.236c0-6.642-1.823-10.36-11.686-10.574c-11.451,0-14.023,4.465-14.023,9.354h9.396
		c0.186-2.072,1.542-2.71,3.458-2.71c2.104,0,3.085,1.009,3.085,2.284c0,0.744-0.421,1.435-1.169,1.753
		c-3.271,1.543-10.75,0.64-14.444,4.678c-1.168,1.328-1.822,3.401-1.822,5.58c0,6.749,5.142,8.456,8.507,8.563
		c3.552,0,6.777-0.963,9.489-3.886l0.467,3.029h10.05v-0.532C132.625,82.552,132.625,82.021,132.625,79.842 M122.856,72.986
		c0,3.349-1.45,5.739-4.44,5.899c-1.496-0.106-2.852-0.797-2.946-2.338c0-3.614,4.628-2.977,7.386-4.57V72.986z"/>
	<polygon points="83.222,84.348 83.222,56.328 92.735,56.328 92.735,68.127 96.636,56.328 106.311,56.328 100.107,70.165 
		106.865,84.348 97.54,84.348 92.735,71.998 92.735,84.348 	"/>
	<rect x="135.017" y="56.328" width="9.702" height="8.871"/>
	<rect x="135.017" y="66.104" width="9.687" height="18.243"/>
	<rect x="83.222" y="93.104" width="61.481" height="1.234"/>
	<polygon points="83.226,91.353 83.226,87.854 83.694,87.854 83.694,89.411 84.645,87.854 85.277,87.854 84.4,89.218 85.323,91.353 
		84.716,91.353 84.075,89.708 83.694,90.295 83.694,91.353 	"/>
	<path d="M87.786,91.353h-0.509l-0.203-0.792h-0.93l-0.193,0.792h-0.498l0.904-3.498h0.497L87.786,91.353z M86.923,89.969
		l-0.321-1.298l-0.314,1.298H86.923z"/>
	<polygon points="88.267,91.353 88.267,88.446 87.576,88.446 87.576,87.854 89.423,87.854 89.423,88.446 88.734,88.446 
		88.734,91.353 	"/>
	<path d="M89.562,89.625c0-0.417,0.05-0.761,0.149-1.03c0.1-0.27,0.23-0.471,0.392-0.603s0.357-0.198,0.586-0.198
		c0.333,0,0.604,0.156,0.813,0.47c0.208,0.314,0.314,0.761,0.314,1.339c0,0.586-0.111,1.044-0.333,1.373
		c-0.195,0.291-0.459,0.437-0.792,0.437c-0.337,0-0.603-0.145-0.797-0.432C89.672,90.65,89.562,90.199,89.562,89.625 M90.044,89.601
		c0,0.402,0.063,0.705,0.186,0.906s0.277,0.302,0.46,0.302c0.185,0,0.339-0.1,0.459-0.3c0.122-0.2,0.183-0.507,0.183-0.92
		c0-0.406-0.059-0.706-0.178-0.899c-0.118-0.194-0.273-0.292-0.464-0.292c-0.19,0-0.346,0.098-0.466,0.294
		C90.104,88.888,90.044,89.19,90.044,89.601"/>
	<polygon points="92.157,91.353 92.157,87.882 92.625,87.882 92.625,90.761 93.792,90.761 93.792,91.353 	"/>
	<rect x="94.08" y="87.854" width="0.468" height="3.498"/>
	<path d="M96.487,90.066l0.455,0.216c-0.071,0.393-0.189,0.679-0.354,0.859c-0.166,0.18-0.368,0.271-0.609,0.271
		c-0.303,0-0.548-0.145-0.737-0.432c-0.216-0.333-0.325-0.781-0.325-1.347c0-0.597,0.108-1.063,0.327-1.401
		c0.189-0.292,0.444-0.438,0.763-0.438c0.262,0,0.48,0.109,0.654,0.33c0.125,0.155,0.217,0.388,0.275,0.694l-0.463,0.167
		c-0.03-0.189-0.089-0.335-0.177-0.436c-0.088-0.102-0.193-0.152-0.313-0.152c-0.172,0-0.312,0.093-0.42,0.277
		c-0.108,0.186-0.163,0.489-0.163,0.914c0,0.44,0.053,0.754,0.158,0.94c0.106,0.187,0.243,0.278,0.412,0.278
		c0.125,0,0.231-0.059,0.322-0.177C96.382,90.513,96.448,90.324,96.487,90.066"/>
	<polygon points="97.27,91.353 97.27,87.854 97.737,87.854 97.737,89.411 98.687,87.854 99.319,87.854 98.443,89.218 99.365,91.353 
		98.759,91.353 98.117,89.708 97.737,90.295 97.737,91.353 	"/>
	<path d="M101.829,91.353h-0.508l-0.204-0.792h-0.93l-0.192,0.792h-0.499l0.904-3.498h0.497L101.829,91.353z M100.966,89.969
		l-0.321-1.298l-0.315,1.298H100.966z"/>
	<path d="M105.352,91.353h-0.508l-0.204-0.792h-0.931l-0.191,0.792h-0.499l0.905-3.498h0.497L105.352,91.353z M104.489,89.969
		l-0.321-1.298l-0.314,1.298H104.489z"/>
	<path d="M106.56,90.068v-0.592h1.011v1.394c-0.103,0.148-0.245,0.275-0.434,0.383c-0.186,0.106-0.374,0.159-0.562,0.159
		c-0.23,0-0.432-0.069-0.607-0.209c-0.175-0.139-0.314-0.348-0.416-0.625c-0.104-0.277-0.154-0.604-0.154-0.979
		c0-0.385,0.051-0.715,0.156-0.988c0.103-0.273,0.238-0.478,0.403-0.613c0.166-0.135,0.363-0.203,0.595-0.203
		c0.276,0,0.499,0.087,0.666,0.262c0.167,0.174,0.274,0.43,0.323,0.768l-0.464,0.131c-0.035-0.181-0.099-0.317-0.192-0.413
		c-0.092-0.095-0.203-0.144-0.332-0.144c-0.2,0-0.361,0.097-0.485,0.288c-0.124,0.192-0.186,0.484-0.186,0.878
		c0,0.42,0.067,0.741,0.201,0.961c0.115,0.189,0.27,0.284,0.466,0.284c0.092,0,0.187-0.027,0.285-0.079
		c0.099-0.055,0.187-0.126,0.265-0.219v-0.442H106.56z"/>
	<polygon points="107.967,91.353 107.967,87.854 109.691,87.854 109.691,88.446 108.435,88.446 108.435,89.222 109.603,89.222 
		109.603,89.811 108.435,89.811 108.435,90.761 109.734,90.761 109.734,91.353 	"/>
	<polygon points="110.096,91.353 110.096,87.854 110.552,87.854 111.504,90.19 111.504,87.854 111.941,87.854 111.941,91.353 
		111.47,91.353 110.533,89.07 110.533,91.353 	"/>
	<path d="M113.862,90.066l0.455,0.216c-0.071,0.393-0.189,0.679-0.354,0.859c-0.166,0.18-0.368,0.271-0.608,0.271
		c-0.303,0-0.55-0.145-0.737-0.432c-0.217-0.333-0.326-0.781-0.326-1.347c0-0.597,0.109-1.063,0.327-1.401
		c0.19-0.292,0.445-0.438,0.765-0.438c0.262,0,0.479,0.109,0.655,0.33c0.125,0.155,0.216,0.388,0.274,0.694l-0.464,0.167
		c-0.029-0.189-0.088-0.335-0.176-0.436c-0.088-0.102-0.194-0.152-0.313-0.152c-0.172,0-0.312,0.093-0.421,0.277
		c-0.108,0.186-0.162,0.489-0.162,0.914c0,0.44,0.053,0.754,0.158,0.94c0.106,0.187,0.243,0.278,0.412,0.278
		c0.124,0,0.231-0.059,0.322-0.177S113.823,90.324,113.862,90.066"/>
	<path d="M115.559,87.854h0.468v2.214c0,0.357-0.029,0.625-0.087,0.8c-0.058,0.175-0.146,0.31-0.26,0.403
		c-0.115,0.094-0.258,0.141-0.426,0.141c-0.223,0-0.398-0.095-0.523-0.284c-0.127-0.188-0.19-0.475-0.191-0.856l0.442-0.076
		c0.005,0.205,0.027,0.351,0.064,0.437c0.051,0.118,0.126,0.176,0.227,0.176c0.098,0,0.171-0.042,0.217-0.127
		c0.046-0.085,0.07-0.274,0.07-0.566V87.854z"/>
	<path d="M118.502,91.353h-0.509l-0.203-0.792h-0.931l-0.191,0.792h-0.499l0.905-3.498h0.497L118.502,91.353z M117.639,89.969
		l-0.321-1.298l-0.315,1.298H117.639z"/>
	<rect x="119.914" y="87.854" width="0.468" height="3.498"/>
	<polygon points="120.772,91.353 120.772,87.854 121.229,87.854 122.18,90.19 122.18,87.854 122.617,87.854 122.617,91.353 
		122.146,91.353 121.21,89.07 121.21,91.353 	"/>
	<polygon points="122.995,91.353 122.995,87.854 124.588,87.854 124.588,88.446 123.463,88.446 123.463,89.273 124.438,89.273 
		124.438,89.866 123.463,89.866 123.463,91.353 	"/>
	<path d="M124.784,89.625c0-0.417,0.049-0.761,0.149-1.03s0.23-0.471,0.392-0.603s0.356-0.198,0.586-0.198
		c0.332,0,0.604,0.156,0.813,0.47c0.209,0.314,0.314,0.761,0.314,1.339c0,0.586-0.111,1.044-0.333,1.373
		c-0.195,0.291-0.458,0.437-0.792,0.437c-0.337,0-0.604-0.145-0.797-0.432C124.894,90.65,124.784,90.199,124.784,89.625
		 M125.267,89.601c0,0.402,0.062,0.705,0.186,0.906c0.124,0.201,0.277,0.302,0.46,0.302c0.185,0,0.337-0.1,0.459-0.3
		s0.182-0.507,0.182-0.92c0-0.406-0.059-0.706-0.176-0.899c-0.118-0.194-0.273-0.292-0.464-0.292c-0.19,0-0.347,0.098-0.467,0.294
		C125.327,88.888,125.267,89.19,125.267,89.601"/>
	<path d="M127.351,91.353v-3.498h0.989c0.252,0,0.433,0.031,0.541,0.094c0.109,0.063,0.198,0.172,0.267,0.326
		c0.07,0.156,0.104,0.342,0.104,0.559c0,0.272-0.053,0.493-0.159,0.66s-0.257,0.272-0.453,0.315c0.1,0.089,0.183,0.187,0.249,0.292
		c0.065,0.106,0.156,0.296,0.269,0.569l0.283,0.683h-0.561l-0.339-0.761c-0.123-0.275-0.205-0.448-0.249-0.518
		c-0.043-0.069-0.091-0.116-0.139-0.144c-0.049-0.025-0.128-0.039-0.235-0.039h-0.098v1.461H127.351z M127.819,89.334h0.348
		c0.213,0,0.349-0.013,0.406-0.035c0.058-0.022,0.105-0.069,0.142-0.14c0.036-0.07,0.054-0.163,0.054-0.279
		c0-0.111-0.018-0.201-0.054-0.269c-0.037-0.067-0.085-0.114-0.147-0.139c-0.044-0.019-0.171-0.026-0.381-0.026h-0.368V89.334z"/>
	<polygon points="129.706,91.353 129.706,87.854 130.408,87.854 130.83,90.243 131.25,87.854 131.955,87.854 131.955,91.353 
		131.518,91.353 131.518,88.596 131.055,91.353 130.603,91.353 130.143,88.596 130.143,91.353 	"/>
	<path d="M134.534,91.353h-0.509l-0.203-0.792h-0.93l-0.192,0.792h-0.498l0.904-3.498h0.497L134.534,91.353z M133.671,89.969
		l-0.322-1.298l-0.315,1.298H133.671z"/>
	<path d="M136.146,90.066l0.454,0.216c-0.071,0.393-0.188,0.679-0.354,0.859c-0.165,0.18-0.368,0.271-0.609,0.271
		c-0.303,0-0.548-0.145-0.737-0.432c-0.216-0.333-0.325-0.781-0.325-1.347c0-0.597,0.109-1.063,0.327-1.401
		c0.19-0.292,0.444-0.438,0.765-0.438c0.26,0,0.479,0.109,0.654,0.33c0.125,0.155,0.217,0.388,0.274,0.694l-0.463,0.167
		c-0.029-0.189-0.089-0.335-0.177-0.436c-0.088-0.102-0.193-0.152-0.313-0.152c-0.171,0-0.311,0.093-0.419,0.277
		c-0.109,0.186-0.164,0.489-0.164,0.914c0,0.44,0.053,0.754,0.159,0.94c0.105,0.187,0.242,0.278,0.412,0.278
		c0.124,0,0.23-0.059,0.32-0.177S136.106,90.324,136.146,90.066"/>
	<polygon points="137.472,91.353 137.472,89.88 136.622,87.854 137.171,87.854 137.717,89.237 138.255,87.854 138.795,87.854 
		137.941,89.885 137.941,91.353 	"/>
	<path d="M139.42,87.854h0.468v2.214c0,0.357-0.029,0.625-0.087,0.8s-0.145,0.31-0.26,0.403s-0.257,0.141-0.426,0.141
		c-0.224,0-0.398-0.095-0.524-0.284c-0.127-0.188-0.19-0.475-0.191-0.856l0.442-0.076c0.006,0.205,0.027,0.351,0.065,0.437
		c0.05,0.118,0.125,0.176,0.227,0.176c0.098,0,0.171-0.042,0.217-0.127c0.046-0.085,0.07-0.274,0.07-0.566V87.854z"/>
	<polygon points="140.272,91.353 140.272,87.854 140.729,87.854 141.679,90.19 141.679,87.854 142.117,87.854 142.117,91.353 
		141.645,91.353 140.709,89.07 140.709,91.353 	"/>
	<path d="M144.707,91.353h-0.509l-0.202-0.792h-0.931l-0.193,0.792h-0.498l0.904-3.498h0.497L144.707,91.353z M143.844,89.969
		l-0.32-1.298l-0.315,1.298H143.844z"/>
</g>
</svg>
