<?xml version="1.0" encoding="utf-8"?>
<!-- Generator: Adobe Illustrator 16.0.0, SVG Export Plug-In . SVG Version: 6.00 Build 0)  -->
<!DOCTYPE svg PUBLIC "-//W3C//DTD SVG 1.1//EN" "http://www.w3.org/Graphics/SVG/1.1/DTD/svg11.dtd">
<svg version="1.1" id="Layer_1" xmlns="http://www.w3.org/2000/svg" xmlns:xlink="http://www.w3.org/1999/xlink" x="0px" y="0px"
	 width="227.94px" height="150px" viewBox="0 0 227.94 150" enable-background="new 0 0 227.94 150" xml:space="preserve">
<rect x="-756.82" y="-187" display="none" fill="#B74EDE" width="1001" height="856"/>
<g>
	<path fill="#FFFFFF" d="M125.351,70.886c-0.203,0-0.327,0.046-0.352,0.159l-2.021,7.813c0.215,0.023,0.453,0.035,0.577,0.035
		c0.364,0,0.399,0.019,0.432-0.106L124.431,77h1.954l0.488,1.946c0.228,0.023,0.409-0.014,0.546-0.014
		c0.363,0,0.418-0.087,0.398-0.212l-2.036-7.791C125.669,70.907,125.512,70.886,125.351,70.886z M126.188,76h-1.567l0.387-1.607
		c0.173-0.762,0.333-1.634,0.4-2.179c0.057,0.544,0.216,1.427,0.397,2.177L126.188,76z"/>
	<path fill="#FFFFFF" d="M90.725,70.886c-0.206,0-0.329,0.046-0.354,0.159l-2.021,7.813c0.217,0.023,0.455,0.035,0.579,0.035
		c0.362,0,0.397,0.019,0.431-0.106L89.805,77h1.952l0.488,1.946c0.228,0.023,0.411-0.014,0.546-0.014
		c0.364,0,0.42-0.087,0.398-0.212l-2.034-7.791C91.043,70.907,90.884,70.886,90.725,70.886z M91.564,76h-1.567l0.387-1.607
		c0.17-0.762,0.329-1.634,0.398-2.179c0.055,0.544,0.214,1.427,0.396,2.177L91.564,76z"/>
	<path fill="#FFFFFF" d="M132.18,71.113v2.67c0,0.534,0,2.691,0,3.374v0.035c0-0.852-0.705-2.573-0.933-3.164L130.122,71h-0.705
		c-0.137,0-0.237-0.022-0.237,0.113v7.758c1,0,1,0,1-0.181v-2.76c0-0.488-0.062-2.659-0.132-3.396
		c0.284,0.885,0.866,2.766,1.069,3.278L132.403,79h0.694c0.124,0,0.082-0.197,0.082-0.31v-7.77
		C132.18,70.92,132.18,70.92,132.18,71.113z"/>
	<path fill="#FFFFFF" d="M143.352,70.909c-0.159,0-0.264,0.023-0.479,0.069l-1.693,3.372v-3.43c-1,0-1,0-1,0.193v7.758
		c1,0,1,0,1-0.181v-3.737c0,0.068,0.217,0.17,0.352,0.306c0.637,0.693,0.889,1.828,1.216,3.601c0.228,0.022,0.417,0.034,0.622,0.034
		c0.316,0,0.37-0.058,0.359-0.228c-0.295-2.17-0.929-3.635-1.824-4.317l1.825-3.167C143.822,71,143.69,70.909,143.352,70.909z"/>
	<path fill="#FFFFFF" d="M136.444,73.533c-0.338-0.409-0.52-0.704-0.52-1.124c0-0.488,0.432-0.784,1.101-0.784
		c0.524,0,0.955,0.158,1.114,0.283c0.157-0.17,0.226-0.374,0.226-0.533c0-0.317-0.407-0.568-1.489-0.569
		c-1.271,0-1.952,0.681-1.952,1.636c0,0.533,0.194,0.999,0.705,1.636l1.147,1.328c0.499,0.579,0.658,0.954,0.658,1.477
		c0,0.694-0.309,1.159-1.113,1.159c-0.546,0-0.933-0.183-1.17-0.398c-0.159,0.205-0.236,0.477-0.236,0.659
		c0,0.317,0.451,0.681,1.487,0.681c1.545,0,2.031-0.988,2.031-2.135c0-0.704-0.17-1.215-0.761-1.919L136.444,73.533z"/>
	<path fill="#FFFFFF" d="M98.18,71.113v2.67c0,0.534,0,2.691,0,3.374v0.035c-1-0.852-1.02-2.573-1.247-3.164L95.494,71h-0.705
		c-0.135,0-0.609-0.022-0.609,0.113v7.758c1,0,1,0,1-0.181v-2.76c0-0.488,0.125-2.659,0.055-3.396
		c0.283,0.885,0.961,2.766,1.164,3.278L97.777,79h0.692c0.124,0-0.29-0.197-0.29-0.31v-7.77C98.18,70.92,98.18,70.92,98.18,71.113z"
		/>
	<path fill="#FFFFFF" d="M147.291,70.886c-0.203,0-0.327,0.046-0.35,0.159l-2.022,7.813c0.215,0.023,0.453,0.035,0.579,0.035
		c0.362,0,0.397,0.019,0.43-0.106L146.373,77h1.952l0.49,1.946c0.226,0.023,0.407-0.014,0.544-0.014
		c0.363,0,0.419-0.087,0.396-0.212l-2.033-7.791C147.611,70.907,147.452,70.886,147.291,70.886z M148.131,76h-1.567l0.387-1.607
		c0.173-0.762,0.33-1.634,0.4-2.179c0.056,0.544,0.215,1.427,0.397,2.177L148.131,76z"/>
	<path fill="#FFFFFF" d="M102.775,71.67c0.352,0,0.623,0.183,0.736,0.285c0.079-0.137,0.148-0.342,0.148-0.558
		c0-0.295-0.228-0.625-1.068-0.625c-1.01,0-2.236,0.569-2.236,4.452c0,3.306,0.807,3.793,1.885,3.793
		c0.841,0,1.408-0.375,1.408-0.816c0-0.193-0.068-0.41-0.137-0.558c-0.203,0.171-0.612,0.352-1.046,0.352
		c-0.668,0-1.134-0.511-1.134-2.816C101.332,72.181,102.06,71.67,102.775,71.67z"/>
	<path fill="#FFFFFF" d="M109.281,73.533c-0.341-0.409-0.522-0.704-0.522-1.124c0-0.488,0.434-0.784,1.102-0.784
		c0.523,0,0.954,0.158,1.113,0.283c0.159-0.17,0.228-0.374,0.228-0.533c0-0.317-0.408-0.568-1.489-0.569
		c-1.271,0-1.952,0.681-1.952,1.636c0,0.533,0.192,0.999,0.703,1.636l1.147,1.328c0.499,0.579,0.66,0.954,0.66,1.477
		c0,0.694-0.309,1.159-1.113,1.159c-0.546,0-0.931-0.183-1.172-0.398c-0.159,0.205-0.236,0.477-0.236,0.659
		c0,0.317,0.453,0.681,1.487,0.681c1.545,0,2.032-0.988,2.032-2.135c0-0.704-0.169-1.215-0.761-1.919L109.281,73.533z"/>
	<path fill="#FFFFFF" d="M105.18,71.341v7.53c1,0,1,0,1-0.181v-7.77C105.18,70.92,105.18,70.92,105.18,71.341z"/>
	<path fill="#FFFFFF" d="M113.076,71c-0.115,0,0.104,0,0.104,0.113v0.67c0-0.034-0.002,0.217,0.201,0.217h2.113l-2.852,6.224
		c-0.068,0.159-0.091,0.275-0.091,0.411c0,0.171,0.067,0.365,0.148,0.365h3.543c0.159,0-0.063-0.208-0.063-0.31v-0.729
		c0,0.069-0.164,0.039-0.414,0.039h-2.19l2.896-6.384c0.067-0.137,0.091-0.221,0.091-0.36c0-0.146-0.035-0.256-0.091-0.256H113.076z
		"/>
	<path fill="#FFFFFF" d="M121.411,70.909c-0.159,0-0.292,0.023-0.509,0.069l-1.723,3.372v-3.43c-1,0-1,0-1,0.193v7.758
		c1,0,1,0,1-0.181v-3.737c0,0.068,0.248,0.17,0.383,0.306c0.637,0.693,0.901,1.828,1.231,3.601c0.226,0.022,0.421,0.034,0.627,0.034
		c0.318,0,0.375-0.058,0.362-0.228c-0.293-2.17-0.924-3.635-1.821-4.317l1.826-3.167C121.881,71,121.752,70.909,121.411,70.909z"/>
	<path fill="#FFFFFF" d="M165.18,70.92c-1,0-1,0-1,0.262V79h3.135c0.113,0-0.135-0.164-0.135-0.31V78h-2V70.92z"/>
	<path fill="#FFFFFF" d="M53.18,85h122V65h-122V85z M72.18,66h102v18h-102V66z M63.18,66h8v18h-11v-5h4.878h1.122v-1.523v-4.953V71
		h-1.122H63.18V66z M60.18,77v-4h5v4H60.18z M54.18,66h8v5h-2.075H59.18v1.524v4.953v1.238V84h-5V66z"/>
	<path fill="#FFFFFF" d="M160.998,71h-1.123c-0.148,0,0.305-0.022,0.305,0.113v7.758c0,0,0,0,0-0.181V76h0.818
		c1.136,0,2.091-0.739,2.091-2.614C163.089,71.808,162.43,71,160.998,71z M161.1,75h-0.92v-3h0.99c0.67,0,0.896,0.5,0.896,1.307
		C162.065,74.567,161.738,75,161.1,75z"/>
	<path fill="#FFFFFF" d="M87.102,73.209c0-1.578-0.659-2.209-2.091-2.209h-1.123c-0.194,0,0.292,0.113,0.292,0.113v7.758
		c0,0,0,0,0-0.181V76h0.831c0.068,0,0.148-0.177,0.228-0.188c0.274,0.374,0.807,1.229,0.931,3.148
		c0.205,0.011,0.398-0.022,0.546-0.022c0.433,0,0.466-0.08,0.466-0.249c-0.114-1.795-0.716-2.796-1.067-3.263
		C86.704,75.098,87.102,74.424,87.102,73.209z M85.114,75H84.18v-3h1.005c0.668,0,0.894,0.5,0.894,1.363
		C86.078,74.567,85.751,75,85.114,75z"/>
	<path fill="#FFFFFF" d="M153.456,75.452c0.639-0.455,1.242-1.124,1.242-2.044c0-0.727-0.376-1.352-1.581-1.352
		c-1.204,0-2.012,0.318-2.012,0.613c0,0.16,0.074,0.455,0.074,0.682v-0.012c0-0.238,0.99-0.397,1.604-0.397
		c0.717,0,0.843,0.409,0.843,0.739c0,0.636-0.532,1.272-1.496,1.726l0.029,0.59c0.929,0,1.807,0.205,1.807,1.17
		c0,1.136-0.554,1.953-1.554,1.953c-0.479,0-0.85-0.125-1.114-0.351c-0.043,0.158-0.121,0.351-0.121,0.681
		c0,0.295,0.372,0.557,1.216,0.557c1.475,0,2.566-0.977,2.566-2.862C154.959,76.021,154.289,75.532,153.456,75.452z"/>
	<path fill="#FFFFFF" d="M79.18,71.113V79h0.882c0.19,0,0.118-0.31,0.118-0.31V75h1.597c0.17,0,0.17,0,0.17-1H80.18v-2h1.871
		c0.168,0,0.168,0,0.168-1h-2.713C79.321,71,79.18,71.113,79.18,71.113z"/>
	<path fill="#FFFFFF" d="M157.319,77.633c-0.407,0-0.637,0.307-0.637,0.659c0,0.409,0.159,0.646,0.637,0.646
		c0.398,0,0.635-0.283,0.635-0.646C157.954,77.906,157.788,77.633,157.319,77.633z"/>
	<path d="M175.26,63H52.681c-1.026,0-1.501,1.07-1.501,2.095v19.812c0,1.024,0.475,2.093,1.501,2.093H175.26
		c1.025,0,1.92-1.069,1.92-2.093V65.095C177.18,64.07,176.285,63,175.26,63z M175.18,85h-122V65h122V85z"/>
	<rect x="60.18" y="73" width="5" height="4"/>
	<path d="M161.17,72h-0.99v3h0.92c0.639,0,0.966-0.433,0.966-1.693C162.065,72.5,161.84,72,161.17,72z"/>
	<path d="M174.18,66h-102v18h102V66z M82.051,72H80.18v2h1.767c0,1,0,1-0.17,1H80.18v3.69c0,0,0.072,0.31-0.118,0.31H79.18v-7.887
		c0,0,0.142-0.113,0.326-0.113h2.713C82.219,72,82.219,72,82.051,72z M86.715,78.894c-0.147,0-0.341-0.011-0.546-0.022
		c-0.124-1.92-0.656-2.686-0.931-3.06C85.159,75.823,85.079,76,85.011,76H84.18v2.69c0,0.181,0,0.181,0,0.181v-7.758
		c0,0-0.486-0.113-0.292-0.113h1.123c1.432,0,2.091,0.631,2.091,2.209c0,1.215-0.397,1.878-0.988,2.206
		c0.352,0.467,0.953,1.467,1.067,3.262C87.181,78.847,87.147,78.894,86.715,78.894z M92.791,78.895
		c-0.135,0-0.318,0.075-0.546,0.052L91.757,77h-1.952l-0.444,1.787c-0.033,0.125-0.068,0.144-0.431,0.144
		c-0.124,0-0.362-0.03-0.579-0.053l2.021-7.823c0.024-0.113,0.147-0.164,0.354-0.164c0.159,0,0.318,0.009,0.431,0.031l2.034,7.78
		C93.211,78.827,93.155,78.895,92.791,78.895z M98.18,78.69c0,0.113,0.414,0.31,0.29,0.31h-0.692l-1.295-3.188
		c-0.203-0.512-0.965-2.361-1.248-3.246c0.07,0.737-0.055,2.875-0.055,3.364v2.76c0,0.181,0,0.181-1,0.181v-7.758
		c0-0.135,0.475-0.113,0.609-0.113h0.705l1.438,3.027c0.228,0.591,0.247,2.312,1.247,3.164v-0.035c0-0.682,0-2.839,0-3.374v-2.67
		c0-0.193,0-0.193,0-0.193V78.69z M102.466,77.996c0.434,0,0.843-0.181,1.046-0.352c0.068,0.147,0.137,0.364,0.137,0.558
		c0,0.441-0.567,0.816-1.408,0.816c-1.078,0-1.885-0.488-1.885-3.793c0-3.883,1.227-4.452,2.236-4.452
		c0.841,0,1.068,0.33,1.068,0.625c0,0.216-0.069,0.42-0.148,0.558c-0.113-0.102-0.385-0.285-0.736-0.285
		c-0.716,0-1.443,0.511-1.443,3.51C101.332,77.485,101.798,77.996,102.466,77.996z M106.18,78.69c0,0.181,0,0.181-1,0.181v-7.53
		c0-0.421,0-0.421,1-0.421V78.69z M109.236,78.984c-1.034,0-1.487-0.364-1.487-0.681c0-0.182,0.077-0.455,0.236-0.659
		c0.241,0.215,0.626,0.398,1.172,0.398c0.805,0,1.113-0.465,1.113-1.159c0-0.522-0.161-0.897-0.66-1.477l-1.147-1.328
		c-0.511-0.637-0.703-1.103-0.703-1.636c0-0.955,0.681-1.636,1.952-1.636c1.081,0.001,1.489,0.251,1.489,0.569
		c0,0.159-0.068,0.363-0.228,0.533c-0.159-0.125-0.59-0.283-1.113-0.283c-0.668,0-1.102,0.295-1.102,0.784
		c0,0.42,0.182,0.714,0.522,1.124l1.227,1.397c0.592,0.705,0.761,1.215,0.761,1.919C111.269,77.996,110.781,78.984,109.236,78.984z
		 M116.471,71.616L113.575,78h2.19c0.25,0,0.414,0.031,0.414-0.039v0.729c0,0.102,0.223,0.31,0.063,0.31H112.7
		c-0.081,0-0.148-0.257-0.148-0.428c0-0.136,0.022-0.157,0.091-0.316L115.494,72h-2.113c-0.203,0-0.201-0.25-0.201-0.217v-0.67
		c0-0.114-0.219-0.113-0.104-0.113h3.395c0.056,0,0.091,0.109,0.091,0.256C116.562,71.395,116.538,71.479,116.471,71.616z
		 M121.785,71.182l-1.828,3.167c0.897,0.683,1.522,2.147,1.815,4.317c0.013,0.169-0.054,0.228-0.372,0.228
		c-0.206,0-0.422-0.012-0.647-0.034c-0.33-1.773-0.554-2.908-1.19-3.601c-0.135-0.136-0.383-0.238-0.383-0.306v3.737
		c0,0.181,0,0.181-1,0.181v-7.758c0-0.193,0-0.193,1-0.193v3.43l1.723-3.372c0.217-0.045,0.391-0.069,0.55-0.069
		C121.793,70.909,121.878,71,121.785,71.182z M127.419,78.895c-0.137,0-0.318,0.075-0.546,0.052L126.385,77h-1.954l-0.443,1.787
		c-0.032,0.125-0.067,0.144-0.432,0.144c-0.124,0-0.362-0.03-0.577-0.053l2.021-7.823c0.024-0.113,0.148-0.164,0.352-0.164
		c0.161,0,0.318,0.009,0.431,0.031l2.036,7.78C127.837,78.827,127.782,78.895,127.419,78.895z M133.18,78.69
		c0,0.113,0.042,0.31-0.082,0.31h-0.694l-1.295-3.188c-0.203-0.512-0.776-2.361-1.061-3.246c0.07,0.737,0.132,2.875,0.132,3.364
		v2.76c0,0.181,0,0.181-1,0.181v-7.758c0-0.135,0.101-0.113,0.237-0.113h0.705l1.125,3.027c0.228,0.591,0.933,2.312,0.933,3.164
		v-0.035c0-0.682,0-2.839,0-3.374v-2.67c0-0.193,0-0.193,1-0.193V78.69z M136.402,78.984c-1.036,0-1.487-0.364-1.487-0.681
		c0-0.182,0.077-0.455,0.236-0.659c0.237,0.215,0.624,0.398,1.17,0.398c0.805,0,1.113-0.465,1.113-1.159
		c0-0.522-0.159-0.897-0.658-1.477l-1.147-1.328c-0.511-0.637-0.705-1.103-0.705-1.636c0-0.955,0.681-1.636,1.952-1.636
		c1.082,0.001,1.489,0.251,1.489,0.569c0,0.159-0.068,0.363-0.226,0.533c-0.159-0.125-0.59-0.283-1.114-0.283
		c-0.669,0-1.101,0.295-1.101,0.784c0,0.42,0.182,0.714,0.52,1.124l1.229,1.397c0.591,0.705,0.761,1.215,0.761,1.919
		C138.434,77.996,137.947,78.984,136.402,78.984z M143.726,71.182l-1.828,3.167c0.896,0.683,1.522,2.147,1.817,4.317
		c0.011,0.169-0.058,0.228-0.374,0.228c-0.205,0-0.422-0.012-0.649-0.034c-0.327-1.773-0.523-2.908-1.16-3.601
		c-0.135-0.136-0.352-0.238-0.352-0.306v3.737c0,0.181,0,0.181-1,0.181v-7.758c0-0.193,0-0.193,1-0.193v3.43l1.693-3.372
		c0.215-0.045,0.375-0.069,0.534-0.069C143.746,70.909,143.818,71,143.726,71.182z M149.359,78.895
		c-0.137,0-0.318,0.075-0.544,0.052L148.325,77h-1.952l-0.445,1.787c-0.032,0.125-0.067,0.144-0.43,0.144
		c-0.126,0-0.364-0.03-0.579-0.053l2.022-7.823c0.022-0.113,0.146-0.164,0.35-0.164c0.161,0,0.32,0.009,0.432,0.031l2.033,7.78
		C149.778,78.827,149.723,78.895,149.359,78.895z M152.393,80.007c-0.844,0-1.216-0.261-1.216-0.557c0-0.33,0.079-0.523,0.122-0.681
		c0.265,0.227,0.637,0.351,1.115,0.351c1,0,1.555-0.817,1.555-1.953c0-0.966-0.875-1.17-1.804-1.17l-0.022-0.59
		c0.964-0.454,1.508-1.09,1.508-1.726c0-0.33-0.15-0.739-0.867-0.739c-0.613,0-1.604,0.159-1.604,0.397v0.012
		c0-0.227-0.074-0.522-0.074-0.682c0-0.295,0.783-0.613,1.987-0.613c1.205,0,1.593,0.625,1.593,1.352
		c0,0.92-0.597,1.589-1.235,2.044c0.833,0.08,1.506,0.569,1.506,1.692C154.956,79.03,153.867,80.007,152.393,80.007z
		 M157.319,78.938c-0.478,0-0.637-0.237-0.637-0.646c0-0.352,0.229-0.659,0.637-0.659c0.469,0,0.635,0.273,0.635,0.659
		C157.954,78.655,157.718,78.938,157.319,78.938z M160.998,76h-0.818v2.69c0,0.181,0,0.181,0,0.181v-7.758
		c0-0.135-0.453-0.113-0.305-0.113h1.123c1.432,0,2.091,0.808,2.091,2.386C163.089,75.261,162.134,76,160.998,76z M167.18,78.69
		c0,0.146,0.248,0.31,0.135,0.31h-3.135v-7.818c0-0.262,0-0.262,1-0.262V78h2V78.69z"/>
	<path d="M90.384,74.393L89.997,76h1.567l-0.387-1.607c-0.182-0.75-0.341-1.637-0.396-2.181
		C90.713,72.756,90.554,73.631,90.384,74.393z"/>
	<path d="M125.008,74.393L124.621,76h1.567l-0.383-1.607c-0.182-0.75-0.341-1.637-0.397-2.181
		C125.341,72.756,125.181,73.631,125.008,74.393z"/>
	<path d="M146.95,74.393L146.563,76h1.567l-0.383-1.607c-0.183-0.75-0.342-1.637-0.397-2.181
		C147.28,72.756,147.123,73.631,146.95,74.393z"/>
	<path d="M85.185,72H84.18v3h0.935c0.637,0,0.964-0.433,0.964-1.637C86.078,72.5,85.853,72,85.185,72z"/>
	<polygon points="59.18,78.715 59.18,77.477 59.18,72.524 59.18,71 60.104,71 62.18,71 62.18,66 54.18,66 54.18,84 59.18,84 	"/>
	<polygon points="66.18,71 66.18,72.524 66.18,77.477 66.18,79 65.058,79 60.18,79 60.18,84 71.18,84 71.18,66 63.18,66 63.18,71 
		65.058,71 	"/>
</g>
</svg>
